<svg width="1440" height="419" viewBox="0 0 1440 419" fill="none" xmlns="http://www.w3.org/2000/svg">
<mask id="mask0" mask-type="alpha" maskUnits="userSpaceOnUse" x="0" y="0" width="1440" height="419">
<rect width="1440" height="419" fill="#664FB7"/>
</mask>
<g mask="url(#mask0)">
<rect width="1440" height="419" fill="#F3F6F9"/>
<path d="M70.2558 35.4744L51.4122 46.4461L51.4122 68.5527L70.2558 57.581L70.2558 35.4744ZM71.8057 32.7824L71.8057 57.8665C71.8057 58.2336 71.6017 58.5599 71.2754 58.7638L51.1674 70.5105C51.1674 70.5105 50.4333 70.9999 49.903 70.9999L49.903 69.7763L49.903 45.5488L71.8057 32.7824Z" fill="#5EC2C4"/>
<path d="M70.3965 57.6347L70.3965 35.0221L50.6799 46.4474L51.1667 68.822L70.3965 57.6347Z" fill="#5DC1C3"/>
<path fill-rule="evenodd" clip-rule="evenodd" d="M49.9033 70.9591C49.3323 70.9591 48.6389 70.4696 48.6389 70.4696L28.531 58.7229C28.2047 58.519 28.0007 58.1927 28.0007 57.8256L28.0007 32.7416L49.9033 30.9062L49.9033 69.6947L49.9033 70.9591Z" fill="#3B2552"/>
<path fill-rule="evenodd" clip-rule="evenodd" d="M50.2705 20.0976L71.6429 32.4561C71.8469 32.5784 71.8469 32.9047 71.6429 33.0271L49.9035 45.5487L28.164 32.9863C27.96 32.8639 27.96 32.5377 28.164 32.4153L49.5364 20.0568C49.7811 19.9752 50.0258 19.9752 50.2705 20.0976Z" fill="#664FB7"/>
<path fill-rule="evenodd" clip-rule="evenodd" d="M131.722 182.176C131.288 181.924 130.999 181.455 130.999 180.914L131.144 -0.5L199.155 -17.5945C200.095 -18.1353 361.02 -111.898 361.961 -111.357L473.999 -17.5945C473.999 -16.5129 200.673 141.652 200.673 141.652" fill="#5CC1C3"/>
<path fill-rule="evenodd" clip-rule="evenodd" d="M131.613 181.419L200.709 141.652L200.709 219.094C200.709 220.248 199.444 220.969 198.468 220.392L131.613 182.104C131.324 181.96 131.324 181.563 131.613 181.419Z" fill="#3A2452"/>
<path d="M1250.9 -168C1250.1 -168 1249.4 -167.8 1248.7 -167.4L1190.1 -133.6C1188.3 -132.5 1187.1 -130.5 1187.1 -128.4L1187 301.2C1187 303.3 1188.1 305.2 1189.8 306.3L1279.5 362.1C1281.3 363.2 1283.7 363.3 1285.6 362.2L1345.4 329C1346.5 328.4 1347.2 327.2 1347.3 325.9C1347.3 324.6 1346.7 323.4 1345.6 322.7L1256.1 266.7C1255.6 266.4 1255.3 265.8 1255.3 265.2L1255.4 -163.5C1255.4 -165.1 1254.6 -166.6 1253.2 -167.4C1252.4 -167.8 1251.6 -168 1250.9 -168ZM1192 302.7C1191.5 302.4 1191.2 301.8 1191.2 301.2L1191.3 -128.4C1191.3 -129 1191.6 -129.6 1192.2 -129.9L1250.7 -163.7C1250.7 -163.7 1250.8 -163.8 1250.9 -163.7C1251 -163.6 1251 -163.5 1251 -163.5V265.3C1251 267.4 1252.1 269.3 1253.8 270.4L1342.4 325.9L1283.5 358.5C1282.9 358.8 1282.3 358.8 1281.7 358.5L1192 302.7Z" fill="black"/>
<path d="M1447 446L1203 292.943L1236.9 273.243L1457 412.5L1447 446Z" fill="#5DC1C3"/>
<path d="M1203 292.942V235.242C1203 234.442 1203.4 233.642 1204.1 233.242L1235.5 215.142C1236.1 214.742 1236.9 215.242 1236.9 215.942V273.242L1203 292.942Z" fill="#3A2452"/>
<path d="M-208.3 374.042L-208.35 373.956L-178.424 280.886C-178.307 280.703 -178.19 280.521 -178.023 280.425L685.42 -215.505C685.587 -215.6 685.803 -215.61 685.97 -215.705L851.651 -186.32C851.651 -186.32 851.701 -186.233 851.75 -186.146C851.8 -186.059 851.8 -186.059 851.8 -186.059L825.178 -96.502C825.228 -96.4153 825.111 -96.2328 824.778 -96.0413C824.444 -95.8497 824.394 -95.9364 824.228 -95.8407L667.571 -123.029C662.908 -123.811 656.509 -122.211 650.673 -118.859L-207.601 374.102C-208.151 374.303 -208.3 374.042 -208.3 374.042ZM-216.638 378.831C-215.244 381.259 -210.33 381.32 -205.161 378.351L653.113 -114.61C656.115 -116.334 659.398 -117.181 661.862 -116.752L818.569 -89.4767C823.764 -88.5398 832.218 -93.5111 833.594 -98.4526L860.216 -188.01C860.484 -189.087 860.37 -190.059 859.971 -190.752C859.473 -191.62 858.525 -192.113 857.243 -192.414L691.562 -221.8C689.097 -222.23 685.814 -221.382 682.813 -219.658L-180.63 276.272C-183.798 278.091 -186.302 280.683 -186.956 283.019L-216.766 375.906C-217.201 377.079 -217.086 378.051 -216.638 378.831Z" fill="black"/>
<path d="M86.4316 278.233L86.4316 235.951L49.7638 215L13.0009 235.951L13.0009 278.233L49.7638 299.185L86.4316 278.233Z" fill="#664FB7"/>
<path d="M1319 171.656V191.144L1335.87 200.8L1352.78 191.144V171.656L1335.87 162L1319 171.656Z" fill="#664FB7"/>
</g>
</svg>
