<svg width="1674" height="700" viewBox="0 0 1674 700" fill="none" xmlns="http://www.w3.org/2000/svg">
<mask id="mask0" mask-type="alpha" maskUnits="userSpaceOnUse" x="0" y="0" width="1674" height="700">
<rect width="1674" height="700" fill="#C4C4C4"/>
</mask>
<g mask="url(#mask0)">
<rect width="1674" height="700" fill="#F3F6F9"/>
<g opacity="0.3">
<mask id="mask1" mask-type="alpha" maskUnits="userSpaceOnUse" x="678" y="20" width="2109" height="569">
<path d="M1988.08 20.6692L1672.88 587.213L1675.07 588.523L1990.27 21.9792L1988.08 20.6692Z" fill="#F2F2F2"/>
<path d="M1978.15 20.6398L1662.95 587.184L1665.14 588.494L1980.34 21.9498L1978.15 20.6398Z" fill="#F2F2F2"/>
<path d="M1968.22 20.611L1653.02 587.155L1655.21 588.465L1970.4 21.9209L1968.22 20.611Z" fill="#F2F2F2"/>
<path d="M1958.24 20.6663L1643.04 587.21L1645.22 588.52L1960.42 21.9762L1958.24 20.6663Z" fill="#F2F2F2"/>
<path d="M1948.3 20.6365L1633.11 587.18L1635.29 588.49L1950.49 21.9464L1948.3 20.6365Z" fill="#F2F2F2"/>
<path d="M1938.37 20.6071L1623.17 587.151L1625.36 588.461L1940.56 21.9171L1938.37 20.6071Z" fill="#F2F2F2"/>
<path d="M1928.39 20.663L1613.19 587.207L1615.38 588.516L1930.58 21.973L1928.39 20.663Z" fill="#F2F2F2"/>
<path d="M1918.46 20.6339L1603.26 587.178L1605.45 588.488L1920.65 21.9439L1918.46 20.6339Z" fill="#F2F2F2"/>
<path d="M1908.53 20.6042L1593.33 587.148L1595.52 588.458L1910.72 21.9142L1908.53 20.6042Z" fill="#F2F2F2"/>
<path d="M1898.55 20.6589L1583.35 587.203L1585.54 588.513L1900.74 21.9688L1898.55 20.6589Z" fill="#F2F2F2"/>
<path d="M1888.62 20.6304L1573.42 587.174L1575.61 588.484L1890.81 21.9403L1888.62 20.6304Z" fill="#F2F2F2"/>
<path d="M1878.64 20.6853L1563.44 587.229L1565.63 588.539L1880.82 21.9952L1878.64 20.6853Z" fill="#F2F2F2"/>
<path d="M1868.7 20.6562L1553.5 587.2L1555.69 588.51L1870.89 21.9661L1868.7 20.6562Z" fill="#F2F2F2"/>
<path d="M1858.77 20.6263L1543.57 587.17L1545.76 588.48L1860.96 21.9363L1858.77 20.6263Z" fill="#F2F2F2"/>
<path d="M1848.79 20.6821L1533.59 587.226L1535.78 588.536L1850.98 21.9921L1848.79 20.6821Z" fill="#F2F2F2"/>
<path d="M1838.86 20.6528L1523.66 587.197L1525.85 588.506L1841.05 21.9628L1838.86 20.6528Z" fill="#F2F2F2"/>
<path d="M1828.93 20.6231L1513.73 587.167L1515.92 588.477L1831.12 21.933L1828.93 20.6231Z" fill="#F2F2F2"/>
<path d="M1818.95 20.6779L1503.75 587.222L1505.94 588.532L1821.14 21.9879L1818.95 20.6779Z" fill="#F2F2F2"/>
<path d="M1809.02 20.6487L1493.82 587.192L1496 588.502L1811.2 21.9587L1809.02 20.6487Z" fill="#F2F2F2"/>
<path d="M1799.08 20.6203L1483.88 587.164L1486.07 588.474L1801.27 21.9302L1799.08 20.6203Z" fill="#F2F2F2"/>
<path d="M1789.1 20.6741L1473.9 587.218L1476.09 588.528L1791.29 21.984L1789.1 20.6741Z" fill="#F2F2F2"/>
<path d="M1779.17 20.6457L1463.97 587.189L1466.16 588.499L1781.36 21.9556L1779.17 20.6457Z" fill="#F2F2F2"/>
<path d="M1769.24 20.616L1454.04 587.16L1456.23 588.47L1771.43 21.9259L1769.24 20.616Z" fill="#F2F2F2"/>
<path d="M1759.26 20.6722L1444.06 587.216L1446.25 588.526L1761.45 21.9821L1759.26 20.6722Z" fill="#F2F2F2"/>
<path d="M1749.33 20.6423L1434.13 587.186L1436.32 588.496L1751.52 21.9523L1749.33 20.6423Z" fill="#F2F2F2"/>
<path d="M1739.39 20.6127L1424.2 587.156L1426.38 588.466L1741.58 21.9226L1739.39 20.6127Z" fill="#F2F2F2"/>
<path d="M1729.42 20.668L1414.22 587.212L1416.4 588.522L1731.6 21.9779L1729.42 20.668Z" fill="#F2F2F2"/>
<path d="M1719.48 20.6387L1404.29 587.182L1406.47 588.492L1721.67 21.9486L1719.48 20.6387Z" fill="#F2F2F2"/>
<path d="M1709.55 20.6099L1394.35 587.154L1396.54 588.463L1711.74 21.9198L1709.55 20.6099Z" fill="#F2F2F2"/>
<path d="M1699.57 20.665L1384.37 587.209L1386.56 588.519L1701.76 21.975L1699.57 20.665Z" fill="#F2F2F2"/>
<path d="M1689.64 20.6357L1374.44 587.179L1376.63 588.489L1691.83 21.9456L1689.64 20.6357Z" fill="#F2F2F2"/>
<path d="M1679.66 20.6906L1364.46 587.234L1366.65 588.544L1681.85 22.0006L1679.66 20.6906Z" fill="#F2F2F2"/>
<path d="M1669.73 20.6616L1354.53 587.205L1356.72 588.515L1671.92 21.9715L1669.73 20.6616Z" fill="#F2F2F2"/>
<path d="M1659.79 20.6323L1344.6 587.176L1346.78 588.486L1661.98 21.9422L1659.79 20.6323Z" fill="#F2F2F2"/>
<path d="M1649.82 20.6875L1334.62 587.231L1336.8 588.541L1652 21.9974L1649.82 20.6875Z" fill="#F2F2F2"/>
<path d="M1639.88 20.6582L1324.69 587.202L1326.87 588.512L1642.07 21.9681L1639.88 20.6582Z" fill="#F2F2F2"/>
<path d="M1629.95 20.6291L1314.75 587.173L1316.94 588.483L1632.14 21.9391L1629.95 20.6291Z" fill="#F2F2F2"/>
<path d="M1619.97 20.6838L1304.77 587.228L1306.96 588.537L1622.16 21.9937L1619.97 20.6838Z" fill="#F2F2F2"/>
<path d="M1610.04 20.6548L1294.84 587.198L1297.03 588.508L1612.23 21.9647L1610.04 20.6548Z" fill="#F2F2F2"/>
<path d="M1600.11 20.6249L1284.91 587.168L1287.1 588.478L1602.3 21.9348L1600.11 20.6249Z" fill="#F2F2F2"/>
<path d="M1590.13 20.6807L1274.93 587.224L1277.12 588.534L1592.32 21.9907L1590.13 20.6807Z" fill="#F2F2F2"/>
<path d="M1580.2 20.6514L1265 587.195L1267.18 588.505L1582.38 21.9613L1580.2 20.6514Z" fill="#F2F2F2"/>
<path d="M1570.26 20.6224L1255.06 587.166L1257.25 588.476L1572.45 21.9324L1570.26 20.6224Z" fill="#F2F2F2"/>
<path d="M1560.28 20.6771L1245.08 587.221L1247.27 588.531L1562.47 21.987L1560.28 20.6771Z" fill="#F2F2F2"/>
<path d="M1550.35 20.6481L1235.15 587.192L1237.34 588.502L1552.54 21.9581L1550.35 20.6481Z" fill="#F2F2F2"/>
<path d="M1540.42 20.6194L1225.22 587.163L1227.41 588.473L1542.61 21.9293L1540.42 20.6194Z" fill="#F2F2F2"/>
<path d="M1530.44 20.6738L1215.24 587.218L1217.43 588.527L1532.63 21.9837L1530.44 20.6738Z" fill="#F2F2F2"/>
<path d="M1520.51 20.6447L1205.31 587.188L1207.5 588.498L1522.7 21.9547L1520.51 20.6447Z" fill="#F2F2F2"/>
<path d="M1510.57 20.6157L1195.38 587.159L1197.56 588.469L1512.76 21.9256L1510.57 20.6157Z" fill="#F2F2F2"/>
<path d="M1500.6 20.6706L1185.4 587.214L1187.58 588.524L1502.78 21.9806L1500.6 20.6706Z" fill="#F2F2F2"/>
<path d="M1490.66 20.6416L1175.46 587.185L1177.65 588.495L1492.85 21.9515L1490.66 20.6416Z" fill="#F2F2F2"/>
<path d="M1480.68 20.6955L1165.48 587.239L1167.67 588.549L1482.87 22.0054L1480.68 20.6955Z" fill="#F2F2F2"/>
<path d="M1470.75 20.6672L1155.55 587.211L1157.74 588.521L1472.94 21.9772L1470.75 20.6672Z" fill="#F2F2F2"/>
<path d="M1460.82 20.6381L1145.62 587.182L1147.81 588.492L1463.01 21.948L1460.82 20.6381Z" fill="#F2F2F2"/>
<path d="M1450.84 20.6929L1135.64 587.237L1137.83 588.547L1453.03 22.0028L1450.84 20.6929Z" fill="#F2F2F2"/>
<path d="M1440.91 20.6638L1125.71 587.208L1127.9 588.517L1443.1 21.9737L1440.91 20.6638Z" fill="#F2F2F2"/>
<path d="M1430.97 20.6348L1115.78 587.178L1117.96 588.488L1433.16 21.9447L1430.97 20.6348Z" fill="#F2F2F2"/>
<path d="M1421 20.6897L1105.8 587.233L1107.98 588.543L1423.18 21.9997L1421 20.6897Z" fill="#F2F2F2"/>
<path d="M1411.06 20.661L1095.86 587.205L1098.05 588.515L1413.25 21.971L1411.06 20.661Z" fill="#F2F2F2"/>
<path d="M1401.13 20.6314L1085.93 587.175L1088.12 588.485L1403.32 21.9414L1401.13 20.6314Z" fill="#F2F2F2"/>
<path d="M1391.15 20.6863L1075.95 587.23L1078.14 588.54L1393.34 21.9962L1391.15 20.6863Z" fill="#F2F2F2"/>
<path d="M1381.22 20.6576L1066.02 587.201L1068.21 588.511L1383.41 21.9675L1381.22 20.6576Z" fill="#F2F2F2"/>
<path d="M1371.29 20.6279L1056.09 587.172L1058.28 588.482L1373.47 21.9378L1371.29 20.6279Z" fill="#F2F2F2"/>
<path d="M1361.31 20.6831L1046.11 587.227L1048.3 588.537L1363.5 21.993L1361.31 20.6831Z" fill="#F2F2F2"/>
<path d="M1351.38 20.6539L1036.18 587.198L1038.36 588.507L1353.56 21.9638L1351.38 20.6539Z" fill="#F2F2F2"/>
<path d="M1341.44 20.6248L1026.24 587.168L1028.43 588.478L1343.63 21.9347L1341.44 20.6248Z" fill="#F2F2F2"/>
<path d="M1331.46 20.6799L1016.26 587.224L1018.45 588.534L1333.65 21.9899L1331.46 20.6799Z" fill="#F2F2F2"/>
<path d="M1321.53 20.6506L1006.33 587.194L1008.52 588.504L1323.72 21.9606L1321.53 20.6506Z" fill="#F2F2F2"/>
<path d="M1311.6 20.6225L996.4 587.166L998.588 588.476L1313.79 21.9325L1311.6 20.6225Z" fill="#F2F2F2"/>
<path d="M1301.62 20.6767L986.42 587.22L988.608 588.53L1303.81 21.9866L1301.62 20.6767Z" fill="#F2F2F2"/>
<path d="M1291.69 20.6472L976.488 587.191L978.676 588.501L1293.88 21.9572L1291.69 20.6472Z" fill="#F2F2F2"/>
<path d="M1281.71 20.7019L966.508 587.246L968.695 588.556L1283.89 22.0118L1281.71 20.7019Z" fill="#F2F2F2"/>
<path d="M1271.78 20.6729L956.576 587.217L958.764 588.526L1273.96 21.9828L1271.78 20.6729Z" fill="#F2F2F2"/>
<path d="M1261.84 20.6434L946.645 587.187L948.832 588.497L1264.03 21.9533L1261.84 20.6434Z" fill="#F2F2F2"/>
<path d="M1251.86 20.6993L936.664 587.243L938.852 588.553L1254.05 22.0092L1251.86 20.6993Z" fill="#F2F2F2"/>
<path d="M1241.93 20.6696L926.732 587.213L928.92 588.523L1244.12 21.9796L1241.93 20.6696Z" fill="#F2F2F2"/>
<path d="M1232 20.6406L916.799 587.184L918.986 588.494L1234.19 21.9505L1232 20.6406Z" fill="#F2F2F2"/>
<path d="M1222.02 20.6951L906.82 587.239L909.008 588.549L1224.21 22.005L1222.02 20.6951Z" fill="#F2F2F2"/>
<path d="M1212.09 20.6665L896.889 587.21L899.076 588.52L1214.28 21.9764L1212.09 20.6665Z" fill="#F2F2F2"/>
<path d="M1202.15 20.6372L886.955 587.181L889.143 588.491L1204.34 21.9472L1202.15 20.6372Z" fill="#F2F2F2"/>
<path d="M1192.18 20.6914L876.977 587.235L879.164 588.545L1194.36 22.0013L1192.18 20.6914Z" fill="#F2F2F2"/>
<path d="M1182.24 20.6628L867.043 587.207L869.231 588.516L1184.43 21.9728L1182.24 20.6628Z" fill="#F2F2F2"/>
<path d="M1172.31 20.6341L857.111 587.178L859.299 588.488L1174.5 21.944L1172.31 20.6341Z" fill="#F2F2F2"/>
<path d="M1162.33 20.689L847.133 587.233L849.32 588.543L1164.52 21.9989L1162.33 20.689Z" fill="#F2F2F2"/>
<path d="M1152.4 20.6597L837.199 587.203L839.387 588.513L1154.59 21.9697L1152.4 20.6597Z" fill="#F2F2F2"/>
<path d="M1142.47 20.6303L827.268 587.174L829.455 588.484L1144.65 21.9403L1142.47 20.6303Z" fill="#F2F2F2"/>
<path d="M1132.49 20.6855L817.287 587.229L819.475 588.539L1134.67 21.9955L1132.49 20.6855Z" fill="#F2F2F2"/>
<path d="M1122.55 20.656L807.355 587.2L809.543 588.51L1124.74 21.9659L1122.55 20.656Z" fill="#F2F2F2"/>
<path d="M1112.62 20.6273L797.422 587.171L799.609 588.481L1114.81 21.9373L1112.62 20.6273Z" fill="#F2F2F2"/>
<path d="M1102.64 20.6819L787.443 587.226L789.631 588.536L1104.83 21.9918L1102.64 20.6819Z" fill="#F2F2F2"/>
<path d="M1092.71 20.6532L777.512 587.197L779.699 588.507L1094.9 21.9631L1092.71 20.6532Z" fill="#F2F2F2"/>
<path d="M1082.73 20.708L767.531 587.252L769.719 588.562L1084.92 22.0179L1082.73 20.708Z" fill="#F2F2F2"/>
<path d="M1072.8 20.6787L757.6 587.222L759.787 588.532L1074.99 21.9886L1072.8 20.6787Z" fill="#F2F2F2"/>
<path d="M1062.87 20.6496L747.668 587.193L749.856 588.503L1065.05 21.9596L1062.87 20.6496Z" fill="#F2F2F2"/>
<path d="M1052.89 20.7044L737.688 587.248L739.875 588.558L1055.07 22.0144L1052.89 20.7044Z" fill="#F2F2F2"/>
<path d="M1042.96 20.6755L727.756 587.219L729.943 588.529L1045.14 21.9855L1042.96 20.6755Z" fill="#F2F2F2"/>
<path d="M1033.02 20.6462L717.824 587.19L720.012 588.5L1035.21 21.9562L1033.02 20.6462Z" fill="#F2F2F2"/>
<path d="M1023.04 20.7014L707.844 587.245L710.031 588.555L1025.23 22.0113L1023.04 20.7014Z" fill="#F2F2F2"/>
<path d="M1013.11 20.6721L697.912 587.216L700.1 588.526L1015.3 21.982L1013.11 20.6721Z" fill="#F2F2F2"/>
<path d="M1003.18 20.6431L687.979 587.187L690.166 588.497L1005.37 21.9531L1003.18 20.6431Z" fill="#F2F2F2"/>
<path d="M993.199 20.6981L678 587.242L680.188 588.552L995.387 22.0081L993.199 20.6981Z" fill="#F2F2F2"/>
</mask>
<g mask="url(#mask1)">
<path d="M1603.73 20.6042L1835.81 159.095V436.076L1603.73 574.567L1371.65 436.076V159.095L1603.73 20.6042Z" fill="#C4C4C4"/>
</g>
</g>
<path d="M1500.5 -183.062H1500.62L1579.06 -136.825C1579.18 -136.702 1579.3 -136.579 1579.3 -136.456V500.293C1579.3 500.416 1579.18 500.539 1579.18 500.662L1450.43 583.176C1450.43 583.176 1450.31 583.176 1450.19 583.176C1450.07 583.176 1450.07 583.176 1450.07 583.176L1373.29 539.89C1373.17 539.89 1373.05 539.767 1373.05 539.521C1373.05 539.275 1373.17 539.275 1373.17 539.152L1494.3 460.942C1497.87 458.605 1500.02 454.547 1500.02 450.243V-182.693C1500.14 -183.062 1500.5 -183.062 1500.5 -183.062ZM1500.5 -189.211C1497.16 -189.211 1494.18 -186.505 1494.18 -182.693V450.243C1494.18 452.457 1493.11 454.547 1491.2 455.777L1369.95 533.987C1365.9 536.57 1366.02 542.841 1370.31 545.178L1447.09 588.464C1448.04 588.956 1449.11 589.202 1450.07 589.202C1451.26 589.202 1452.33 588.833 1453.41 588.218L1582.16 505.704C1584.07 504.474 1585.14 502.383 1585.14 500.17V-136.579C1585.14 -138.915 1583.95 -141.129 1581.92 -142.235L1503.6 -188.35C1502.64 -188.965 1501.57 -189.211 1500.5 -189.211Z" fill="black"/>
<path d="M380.828 530.615L377.907 724.776C377.922 726.132 377.199 727.36 375.956 728.094L273.755 784.522C271.341 785.866 268.376 784.003 268.418 781.17L271.229 592.996C271.214 591.64 270.626 590.43 269.44 589.685L-214.442 285.735C-216.814 284.246 -216.767 280.574 -214.353 279.231L-112.615 220.829C-111.444 220.218 -110.134 220.2 -108.948 220.945L378.967 527.428C380.225 528.05 380.813 529.26 380.828 530.615Z" fill="#EDF0F5"/>
<mask id="mask2" mask-type="alpha" maskUnits="userSpaceOnUse" x="-109" y="0" width="1674" height="700">
<rect x="-109" width="1674" height="700" fill="#F3F6F9"/>
</mask>
<g mask="url(#mask2)">
<path d="M163.498 378.167H163.617L242.063 424.404C242.182 424.527 242.301 424.65 242.301 424.773V1061.52C242.301 1061.64 242.182 1061.77 242.182 1061.89L113.426 1144.4C113.426 1144.4 113.307 1144.4 113.187 1144.4C113.068 1144.4 113.068 1144.4 113.068 1144.4L36.2913 1101.12C36.1721 1101.12 36.0529 1101 36.0529 1100.75C36.0529 1100.5 36.1721 1100.5 36.1721 1100.38L157.298 1022.17C160.875 1019.83 163.021 1015.78 163.021 1011.47V378.536C163.14 378.167 163.498 378.167 163.498 378.167ZM163.498 372.018C160.16 372.018 157.179 374.724 157.179 378.536V1011.47C157.179 1013.69 156.106 1015.78 154.199 1017.01L32.9532 1095.22C28.8998 1097.8 29.019 1104.07 33.3109 1106.41L110.088 1149.69C111.042 1150.18 112.114 1150.43 113.068 1150.43C114.26 1150.43 115.333 1150.06 116.406 1149.45L245.163 1066.93C247.07 1065.7 248.143 1063.61 248.143 1061.4V424.65C248.143 422.314 246.951 420.1 244.924 418.994L166.597 372.879C165.644 372.264 164.571 372.018 163.498 372.018Z" fill="black"/>
</g>
<path d="M108 582.207L108 549.475L80.5356 533.255L53 549.475L53 582.207L80.5356 598.427L108 582.207Z" fill="#664FB7"/>
<path d="M1620.59 228.298L1587.77 248.046V287.836L1620.59 268.088V228.298ZM1623.29 223.453V268.602C1623.29 269.263 1622.93 269.85 1622.36 270.217L1587.34 291.36C1587.34 291.36 1586.07 292.241 1585.14 292.241V290.039V246.431L1623.29 223.453Z" fill="#5EC2C4"/>
<path d="M1620.83 268.185V227.484L1586.5 248.049L1587.34 288.322L1620.83 268.185Z" fill="#5DC1C3"/>
<path fill-rule="evenodd" clip-rule="evenodd" d="M1585.14 292.168C1584.15 292.168 1582.94 291.287 1582.94 291.287L1547.92 270.144C1547.36 269.777 1547 269.19 1547 268.529V223.38L1585.14 220.076V289.892V292.168Z" fill="#3B2552"/>
<path fill-rule="evenodd" clip-rule="evenodd" d="M1585.78 200.621L1623 222.866C1623.36 223.086 1623.36 223.673 1623 223.893L1585.14 246.431L1547.28 223.82C1546.93 223.6 1546.93 223.012 1547.28 222.792L1584.5 200.548C1584.93 200.401 1585.36 200.401 1585.78 200.621Z" fill="#664FB7"/>
</g>
</svg>
