<svg width="2334" height="1018" viewBox="0 0 2334 1018" fill="none" xmlns="http://www.w3.org/2000/svg">
<g clip-path="url(#clip0)">
<mask id="mask0" mask-type="alpha" maskUnits="userSpaceOnUse" x="1576" y="191" width="213" height="611">
<path d="M1788 688L1576 802L1576 305L1788 191L1788 688Z" fill="#C4C4C4"/>
</mask>
<g mask="url(#mask0)">
<path d="M1916.43 1102.37L1392.89 800.727L1391.68 802.818L1915.22 1104.46L1916.43 1102.37Z" fill="#F2F2F2"/>
<path d="M1916.46 1092.88L1392.92 791.23L1391.71 793.322L1915.25 1094.97L1916.46 1092.88Z" fill="#F2F2F2"/>
<path d="M1916.41 1083.33L1392.87 781.687L1391.66 783.779L1915.2 1085.42L1916.41 1083.33Z" fill="#F2F2F2"/>
<path d="M1916.44 1073.84L1392.9 772.192L1391.68 774.283L1915.22 1075.93L1916.44 1073.84Z" fill="#F2F2F2"/>
<path d="M1916.46 1064.34L1392.92 762.695L1391.71 764.787L1915.25 1066.43L1916.46 1064.34Z" fill="#F2F2F2"/>
<path d="M1916.42 1054.79L1392.88 753.148L1391.67 755.24L1915.21 1056.88L1916.42 1054.79Z" fill="#F2F2F2"/>
<path d="M1916.44 1045.3L1392.9 743.653L1391.69 745.744L1915.23 1047.39L1916.44 1045.3Z" fill="#F2F2F2"/>
<path d="M1916.47 1035.8L1392.93 734.156L1391.72 736.247L1915.26 1037.89L1916.47 1035.8Z" fill="#F2F2F2"/>
<path d="M1916.42 1026.26L1392.88 724.613L1391.67 726.704L1915.2 1028.35L1916.42 1026.26Z" fill="#F2F2F2"/>
<path d="M1916.45 1016.76L1392.91 715.117L1391.7 717.208L1915.24 1018.85L1916.45 1016.76Z" fill="#F2F2F2"/>
<path d="M1916.47 1007.26L1392.94 705.618L1391.72 707.709L1915.26 1009.35L1916.47 1007.26Z" fill="#F2F2F2"/>
<path d="M1916.42 997.723L1392.88 696.078L1391.67 698.169L1915.21 999.814L1916.42 997.723Z" fill="#F2F2F2"/>
<path d="M1916.45 988.223L1392.91 686.578L1391.7 688.669L1915.24 990.314L1916.45 988.223Z" fill="#F2F2F2"/>
<path d="M1916.48 978.724L1392.94 677.079L1391.73 679.17L1915.27 980.815L1916.48 978.724Z" fill="#F2F2F2"/>
<path d="M1916.43 969.184L1392.89 667.54L1391.68 669.631L1915.22 971.276L1916.43 969.184Z" fill="#F2F2F2"/>
<path d="M1916.46 959.688L1392.92 658.043L1391.7 660.134L1915.24 961.779L1916.46 959.688Z" fill="#F2F2F2"/>
<path d="M1916.41 950.139L1392.87 648.494L1391.65 650.586L1915.19 952.23L1916.41 950.139Z" fill="#F2F2F2"/>
<path d="M1916.44 940.645L1392.9 639L1391.69 641.091L1915.22 942.736L1916.44 940.645Z" fill="#F2F2F2"/>
<path d="M1916.46 931.148L1392.92 629.503L1391.71 631.595L1915.25 933.239L1916.46 931.148Z" fill="#F2F2F2"/>
<path d="M1916.54 921.518L1392.82 620.114L1391.61 622.206L1915.33 923.61L1916.54 921.518Z" fill="#F2F2F2"/>
<path d="M1916.57 912.02L1392.85 610.617L1391.63 612.709L1915.35 914.112L1916.57 912.02Z" fill="#F2F2F2"/>
<path d="M1916.59 902.521L1392.87 601.117L1391.66 603.209L1915.38 904.613L1916.59 902.521Z" fill="#F2F2F2"/>
<path d="M1916.54 892.978L1392.82 591.574L1391.61 593.666L1915.33 895.07L1916.54 892.978Z" fill="#F2F2F2"/>
<path d="M1916.57 883.482L1392.85 582.078L1391.64 584.17L1915.36 885.574L1916.57 883.482Z" fill="#F2F2F2"/>
<path d="M1916.59 873.986L1392.87 572.582L1391.66 574.674L1915.38 876.078L1916.59 873.986Z" fill="#F2F2F2"/>
<path d="M1916.55 864.443L1392.83 563.039L1391.61 565.131L1915.33 866.535L1916.55 864.443Z" fill="#F2F2F2"/>
<path d="M1916.57 854.944L1392.85 553.54L1391.64 555.632L1915.36 857.036L1916.57 854.944Z" fill="#F2F2F2"/>
<path d="M1916.6 845.446L1392.88 544.043L1391.67 546.134L1915.39 847.538L1916.6 845.446Z" fill="#F2F2F2"/>
<path d="M1916.55 835.904L1392.83 534.5L1391.61 536.592L1915.33 837.996L1916.55 835.904Z" fill="#F2F2F2"/>
<path d="M1916.57 826.405L1392.85 525.001L1391.64 527.093L1915.36 828.496L1916.57 826.405Z" fill="#F2F2F2"/>
<path d="M1916.6 816.907L1392.88 515.503L1391.67 517.595L1915.39 818.999L1916.6 816.907Z" fill="#F2F2F2"/>
<path d="M1916.55 807.365L1392.83 505.961L1391.62 508.053L1915.34 809.457L1916.55 807.365Z" fill="#F2F2F2"/>
<path d="M1916.58 797.869L1392.86 496.465L1391.65 498.557L1915.37 799.96L1916.58 797.869Z" fill="#F2F2F2"/>
<path d="M1916.61 788.369L1392.88 486.965L1391.67 489.057L1915.39 790.461L1916.61 788.369Z" fill="#F2F2F2"/>
<path d="M1916.55 778.827L1392.83 477.423L1391.62 479.515L1915.34 780.918L1916.55 778.827Z" fill="#F2F2F2"/>
<path d="M1916.58 769.329L1392.86 467.925L1391.65 470.017L1915.37 771.421L1916.58 769.329Z" fill="#F2F2F2"/>
<path d="M1916.53 759.786L1392.81 458.383L1391.6 460.475L1915.32 761.878L1916.53 759.786Z" fill="#F2F2F2"/>
<path d="M1916.56 750.29L1392.84 448.887L1391.63 450.979L1915.35 752.382L1916.56 750.29Z" fill="#F2F2F2"/>
<path d="M1916.59 740.791L1392.87 439.387L1391.65 441.479L1915.37 742.883L1916.59 740.791Z" fill="#F2F2F2"/>
<path d="M1916.53 731.247L1392.81 429.844L1391.6 431.936L1915.32 733.339L1916.53 731.247Z" fill="#F2F2F2"/>
<path d="M1916.56 721.751L1392.84 420.348L1391.63 422.439L1915.35 723.843L1916.56 721.751Z" fill="#F2F2F2"/>
<path d="M1916.59 712.251L1392.87 410.848L1391.65 412.94L1915.37 714.343L1916.59 712.251Z" fill="#F2F2F2"/>
<path d="M1916.53 702.709L1392.81 401.306L1391.6 403.397L1915.32 704.801L1916.53 702.709Z" fill="#F2F2F2"/>
<path d="M1916.57 693.211L1392.85 391.808L1391.63 393.9L1915.35 695.303L1916.57 693.211Z" fill="#F2F2F2"/>
<path d="M1916.59 683.712L1392.87 382.309L1391.66 384.4L1915.38 685.804L1916.59 683.712Z" fill="#F2F2F2"/>
<path d="M1916.54 674.173L1392.82 372.769L1391.61 374.861L1915.33 676.265L1916.54 674.173Z" fill="#F2F2F2"/>
<path d="M1916.57 664.677L1392.85 363.273L1391.63 365.365L1915.35 666.768L1916.57 664.677Z" fill="#F2F2F2"/>
<path d="M1916.59 655.177L1392.87 353.773L1391.66 355.865L1915.38 657.269L1916.59 655.177Z" fill="#F2F2F2"/>
<path d="M1916.54 645.635L1392.82 344.231L1391.61 346.323L1915.33 647.727L1916.54 645.635Z" fill="#F2F2F2"/>
<path d="M1916.57 636.138L1392.85 334.735L1391.64 336.827L1915.36 638.23L1916.57 636.138Z" fill="#F2F2F2"/>
<path d="M1916.6 626.642L1392.88 325.238L1391.67 327.33L1915.39 628.734L1916.6 626.642Z" fill="#F2F2F2"/>
<path d="M1916.55 617.095L1392.83 315.691L1391.62 317.783L1915.34 619.187L1916.55 617.095Z" fill="#F2F2F2"/>
<path d="M1916.57 607.599L1392.85 306.196L1391.64 308.287L1915.36 609.691L1916.57 607.599Z" fill="#F2F2F2"/>
<path d="M1916.6 598.102L1392.88 296.699L1391.67 298.791L1915.39 600.194L1916.6 598.102Z" fill="#F2F2F2"/>
<path d="M1916.55 588.559L1392.83 287.155L1391.62 289.247L1915.34 590.651L1916.55 588.559Z" fill="#F2F2F2"/>
<path d="M1916.58 579.06L1392.86 277.656L1391.65 279.748L1915.37 581.152L1916.58 579.06Z" fill="#F2F2F2"/>
<path d="M1916.53 569.517L1392.81 268.113L1391.6 270.205L1915.32 571.609L1916.53 569.517Z" fill="#F2F2F2"/>
<path d="M1916.55 560.021L1392.83 258.617L1391.62 260.709L1915.34 562.113L1916.55 560.021Z" fill="#F2F2F2"/>
<path d="M1916.58 550.525L1392.86 249.121L1391.65 251.213L1915.37 552.617L1916.58 550.525Z" fill="#F2F2F2"/>
<path d="M1916.53 540.981L1392.81 239.577L1391.6 241.669L1915.32 543.073L1916.53 540.981Z" fill="#F2F2F2"/>
<path d="M1916.55 531.482L1392.83 230.078L1391.62 232.17L1915.34 533.574L1916.55 531.482Z" fill="#F2F2F2"/>
<path d="M1916.58 521.985L1392.86 220.582L1391.65 222.674L1915.37 524.077L1916.58 521.985Z" fill="#F2F2F2"/>
<path d="M1916.53 512.442L1392.81 211.038L1391.6 213.13L1915.32 514.534L1916.53 512.442Z" fill="#F2F2F2"/>
<path d="M1916.56 502.947L1392.84 201.543L1391.63 203.635L1915.35 505.039L1916.56 502.947Z" fill="#F2F2F2"/>
<path d="M1916.59 493.447L1392.87 192.043L1391.65 194.135L1915.37 495.539L1916.59 493.447Z" fill="#F2F2F2"/>
<path d="M1916.53 483.904L1392.81 182.5L1391.6 184.592L1915.32 485.996L1916.53 483.904Z" fill="#F2F2F2"/>
<path d="M1916.56 474.408L1392.84 173.004L1391.63 175.096L1915.35 476.499L1916.56 474.408Z" fill="#F2F2F2"/>
<path d="M1916.59 464.909L1392.87 163.505L1391.66 165.597L1915.38 467L1916.59 464.909Z" fill="#F2F2F2"/>
<path d="M1916.54 455.369L1392.82 153.965L1391.61 156.057L1915.33 457.461L1916.54 455.369Z" fill="#F2F2F2"/>
<path d="M1916.57 445.868L1392.85 144.464L1391.63 146.556L1915.36 447.96L1916.57 445.868Z" fill="#F2F2F2"/>
<path d="M1916.59 436.369L1392.87 134.965L1391.66 137.057L1915.38 438.46L1916.59 436.369Z" fill="#F2F2F2"/>
<path d="M1916.54 426.829L1392.82 125.426L1391.61 127.518L1915.33 428.921L1916.54 426.829Z" fill="#F2F2F2"/>
<path d="M1916.57 417.333L1392.85 115.93L1391.64 118.021L1915.36 419.425L1916.57 417.333Z" fill="#F2F2F2"/>
<path d="M1916.59 407.837L1392.87 106.434L1391.66 108.525L1915.38 409.929L1916.59 407.837Z" fill="#F2F2F2"/>
<path d="M1916.54 398.29L1392.82 96.8867L1391.61 98.9786L1915.33 400.382L1916.54 398.29Z" fill="#F2F2F2"/>
<path d="M1916.57 388.795L1392.85 87.3912L1391.64 89.4831L1915.36 390.887L1916.57 388.795Z" fill="#F2F2F2"/>
<path d="M1916.52 379.251L1392.8 77.8477L1391.59 79.9396L1915.31 381.343L1916.52 379.251Z" fill="#F2F2F2"/>
<path d="M1916.55 369.755L1392.83 68.3517L1391.62 70.4435L1915.34 371.847L1916.55 369.755Z" fill="#F2F2F2"/>
<path d="M1916.57 360.256L1392.85 58.8524L1391.64 60.9443L1915.36 362.348L1916.57 360.256Z" fill="#F2F2F2"/>
<path d="M1916.52 350.712L1392.8 49.3087L1391.59 51.4006L1915.31 352.804L1916.52 350.712Z" fill="#F2F2F2"/>
<path d="M1916.55 341.216L1392.83 39.8122L1391.62 41.9041L1915.34 343.308L1916.55 341.216Z" fill="#F2F2F2"/>
<path d="M1916.58 331.716L1392.86 30.3126L1391.65 32.4045L1915.37 333.808L1916.58 331.716Z" fill="#F2F2F2"/>
<path d="M1916.53 322.177L1392.81 20.7735L1391.6 22.8654L1915.32 324.269L1916.53 322.177Z" fill="#F2F2F2"/>
<path d="M1916.55 312.678L1392.83 11.2743L1391.62 13.3662L1915.34 314.77L1916.55 312.678Z" fill="#F2F2F2"/>
<path d="M1916.58 303.18L1392.86 1.77653L1391.65 3.8684L1915.37 305.272L1916.58 303.18Z" fill="#F2F2F2"/>
<path d="M1916.53 293.638L1392.81 -7.76559L1391.6 -5.67372L1915.32 295.73L1916.53 293.638Z" fill="#F2F2F2"/>
<path d="M1916.55 284.142L1392.83 -17.2616L1391.62 -15.1698L1915.34 286.234L1916.55 284.142Z" fill="#F2F2F2"/>
<path d="M1916.58 274.642L1392.86 -26.7612L1391.65 -24.6694L1915.37 276.734L1916.58 274.642Z" fill="#F2F2F2"/>
<path d="M1916.53 265.099L1392.81 -36.305L1391.6 -34.2131L1915.32 267.19L1916.53 265.099Z" fill="#F2F2F2"/>
<path d="M1916.56 255.599L1392.84 -45.8046L1391.63 -43.7128L1915.35 257.691L1916.56 255.599Z" fill="#F2F2F2"/>
<path d="M1916.58 246.103L1392.86 -55.3003L1391.65 -53.2084L1915.37 248.195L1916.58 246.103Z" fill="#F2F2F2"/>
<path d="M1916.53 236.564L1392.81 -64.8399L1391.6 -62.7481L1915.32 238.656L1916.53 236.564Z" fill="#F2F2F2"/>
<path d="M1916.56 227.064L1392.84 -74.3398L1391.63 -72.2479L1915.35 229.156L1916.56 227.064Z" fill="#F2F2F2"/>
<path d="M1916.59 217.564L1392.87 -83.8398L1391.66 -81.7479L1915.38 219.656L1916.59 217.564Z" fill="#F2F2F2"/>
<path d="M1916.54 208.025L1392.82 -93.3782L1391.61 -91.2863L1915.33 210.117L1916.54 208.025Z" fill="#F2F2F2"/>
<path d="M1916.57 198.528L1392.85 -102.876L1391.63 -100.784L1915.36 200.62L1916.57 198.528Z" fill="#F2F2F2"/>
<path d="M1916.51 188.986L1392.79 -112.418L1391.58 -110.326L1915.3 191.078L1916.51 188.986Z" fill="#F2F2F2"/>
</g>
</g>
<path d="M712.025 701.552L712.025 738.993L679.556 757.545L647.003 738.993L647.003 701.552L679.556 683L712.025 701.552Z" fill="#5CC1C3"/>
<path d="M42.8772 517.166L42.8238 517.265L44.679 602.255C44.724 602.407 44.769 602.559 44.8675 602.612L554.798 878.842C554.897 878.895 555.049 878.85 555.147 878.903L678.959 808.125C678.959 808.125 679.012 808.026 679.066 807.928C679.119 807.829 679.119 807.829 679.119 807.829L678.879 725.501C678.932 725.402 678.887 725.25 678.69 725.144C678.494 725.037 678.44 725.136 678.342 725.082L561.398 791.412C557.923 793.359 553.711 793.375 550.264 791.508L43.3865 516.931C43.0376 516.87 42.8772 517.166 42.8772 517.166ZM37.9532 514.499C39.45 511.736 42.9529 510.442 46.0058 512.096L552.884 786.673C554.656 787.633 556.811 787.652 558.652 786.606L675.649 720.177C679.534 717.943 684.503 720.762 684.45 725.328L684.69 807.656C684.656 808.659 684.372 809.654 683.945 810.443C683.41 811.43 682.634 812.158 681.66 812.779L557.848 883.558C556.008 884.603 553.853 884.584 552.08 883.624L42.1498 607.394C40.2786 606.38 39.0405 604.433 39.0629 602.276L37.2528 517.438C37.188 516.382 37.4721 515.387 37.9532 514.499Z" fill="black"/>
<path d="M2285.22 192.116L2003 369.174L2051.57 397.395L2332.36 219.62C2333.22 219.047 2333.22 217.901 2332.36 217.328L2288.52 192.116C2287.52 191.543 2286.23 191.543 2285.22 192.116Z" fill="#5DC1C3"/>
<path d="M2003 369.174V451.83C2003 452.976 2003.58 454.122 2004.58 454.695L2049.56 480.624C2050.42 481.197 2051.57 480.48 2051.57 479.478V397.395L2003 369.174Z" fill="#AEE0E1"/>
<defs>
<clipPath id="clip0">
<rect width="1018" height="380" fill="white" transform="translate(1886) rotate(90)"/>
</clipPath>
</defs>
</svg>
