<svg width="1674" height="1018" viewBox="0 0 1674 1018" fill="none" xmlns="http://www.w3.org/2000/svg">
<g clip-path="url(#clip0)">
<mask id="mask0" mask-type="alpha" maskUnits="userSpaceOnUse" x="981" y="191" width="213" height="611">
<path d="M1194 688L982 802L982 305L1194 191L1194 688Z" fill="#C4C4C4"/>
</mask>
<g mask="url(#mask0)">
<path d="M1322.43 1102.37L798.891 800.727L797.679 802.818L1321.22 1104.46L1322.43 1102.37Z" fill="#F2F2F2"/>
<path d="M1322.46 1092.88L798.918 791.23L797.706 793.322L1321.24 1094.97L1322.46 1092.88Z" fill="#F2F2F2"/>
<path d="M1322.41 1083.33L798.867 781.687L797.655 783.779L1321.19 1085.42L1322.41 1083.33Z" fill="#F2F2F2"/>
<path d="M1322.43 1073.84L798.895 772.192L797.683 774.283L1321.22 1075.93L1322.43 1073.84Z" fill="#F2F2F2"/>
<path d="M1322.46 1064.34L798.922 762.695L797.71 764.787L1321.25 1066.43L1322.46 1064.34Z" fill="#F2F2F2"/>
<path d="M1322.42 1054.79L798.876 753.148L797.664 755.24L1321.2 1056.88L1322.42 1054.79Z" fill="#F2F2F2"/>
<path d="M1322.44 1045.3L798.898 743.653L797.687 745.744L1321.23 1047.39L1322.44 1045.3Z" fill="#F2F2F2"/>
<path d="M1322.46 1035.8L798.926 734.156L797.714 736.247L1321.25 1037.89L1322.46 1035.8Z" fill="#F2F2F2"/>
<path d="M1322.41 1026.26L798.875 724.613L797.663 726.704L1321.2 1028.35L1322.41 1026.26Z" fill="#F2F2F2"/>
<path d="M1322.45 1016.76L798.906 715.117L797.694 717.208L1321.23 1018.85L1322.45 1016.76Z" fill="#F2F2F2"/>
<path d="M1322.47 1007.26L798.934 705.618L797.722 707.709L1321.26 1009.35L1322.47 1007.26Z" fill="#F2F2F2"/>
<path d="M1322.42 997.723L798.879 696.078L797.667 698.169L1321.21 999.814L1322.42 997.723Z" fill="#F2F2F2"/>
<path d="M1322.45 988.223L798.91 686.578L797.698 688.669L1321.24 990.314L1322.45 988.223Z" fill="#F2F2F2"/>
<path d="M1322.48 978.724L798.938 677.079L797.726 679.17L1321.26 980.815L1322.48 978.724Z" fill="#F2F2F2"/>
<path d="M1322.43 969.184L798.887 667.54L797.675 669.631L1321.21 971.276L1322.43 969.184Z" fill="#F2F2F2"/>
<path d="M1322.45 959.688L798.914 658.043L797.702 660.134L1321.24 961.779L1322.45 959.688Z" fill="#F2F2F2"/>
<path d="M1322.4 950.139L798.865 648.494L797.653 650.586L1321.19 952.23L1322.4 950.139Z" fill="#F2F2F2"/>
<path d="M1322.43 940.645L798.895 639L797.683 641.091L1321.22 942.736L1322.43 940.645Z" fill="#F2F2F2"/>
<path d="M1322.46 931.148L798.918 629.503L797.706 631.595L1321.24 933.239L1322.46 931.148Z" fill="#F2F2F2"/>
<path d="M1322.54 921.518L798.817 620.114L797.606 622.206L1321.33 923.61L1322.54 921.518Z" fill="#F2F2F2"/>
<path d="M1322.56 912.02L798.843 610.617L797.632 612.709L1321.35 914.112L1322.56 912.02Z" fill="#F2F2F2"/>
<path d="M1322.59 902.521L798.871 601.117L797.66 603.209L1321.38 904.613L1322.59 902.521Z" fill="#F2F2F2"/>
<path d="M1322.54 892.978L798.82 591.574L797.609 593.666L1321.33 895.07L1322.54 892.978Z" fill="#F2F2F2"/>
<path d="M1322.57 883.482L798.848 582.078L797.637 584.17L1321.36 885.574L1322.57 883.482Z" fill="#F2F2F2"/>
<path d="M1322.59 873.986L798.87 572.582L797.659 574.674L1321.38 876.078L1322.59 873.986Z" fill="#F2F2F2"/>
<path d="M1322.54 864.443L798.823 563.039L797.612 565.131L1321.33 866.535L1322.54 864.443Z" fill="#F2F2F2"/>
<path d="M1322.57 854.944L798.851 553.54L797.64 555.632L1321.36 857.036L1322.57 854.944Z" fill="#F2F2F2"/>
<path d="M1322.6 845.446L798.875 544.043L797.665 546.134L1321.38 847.538L1322.6 845.446Z" fill="#F2F2F2"/>
<path d="M1322.54 835.904L798.823 534.5L797.612 536.592L1321.33 837.996L1322.54 835.904Z" fill="#F2F2F2"/>
<path d="M1322.57 826.405L798.852 525.001L797.641 527.093L1321.36 828.496L1322.57 826.405Z" fill="#F2F2F2"/>
<path d="M1322.6 816.907L798.879 515.503L797.668 517.595L1321.39 818.999L1322.6 816.907Z" fill="#F2F2F2"/>
<path d="M1322.55 807.365L798.828 505.961L797.617 508.053L1321.34 809.457L1322.55 807.365Z" fill="#F2F2F2"/>
<path d="M1322.58 797.869L798.855 496.465L797.645 498.557L1321.36 799.96L1322.58 797.869Z" fill="#F2F2F2"/>
<path d="M1322.6 788.369L798.883 486.965L797.672 489.057L1321.39 790.461L1322.6 788.369Z" fill="#F2F2F2"/>
<path d="M1322.55 778.827L798.832 477.423L797.621 479.515L1321.34 780.918L1322.55 778.827Z" fill="#F2F2F2"/>
<path d="M1322.58 769.329L798.859 467.925L797.648 470.017L1321.37 771.421L1322.58 769.329Z" fill="#F2F2F2"/>
<path d="M1322.53 759.786L798.807 458.383L797.596 460.475L1321.32 761.878L1322.53 759.786Z" fill="#F2F2F2"/>
<path d="M1322.56 750.29L798.835 448.887L797.624 450.979L1321.34 752.382L1322.56 750.29Z" fill="#F2F2F2"/>
<path d="M1322.58 740.791L798.863 439.387L797.652 441.479L1321.37 742.883L1322.58 740.791Z" fill="#F2F2F2"/>
<path d="M1322.53 731.247L798.812 429.844L797.601 431.936L1321.32 733.339L1322.53 731.247Z" fill="#F2F2F2"/>
<path d="M1322.56 721.751L798.835 420.348L797.624 422.439L1321.34 723.843L1322.56 721.751Z" fill="#F2F2F2"/>
<path d="M1322.58 712.251L798.863 410.848L797.652 412.94L1321.37 714.343L1322.58 712.251Z" fill="#F2F2F2"/>
<path d="M1322.53 702.709L798.812 401.306L797.601 403.397L1321.32 704.801L1322.53 702.709Z" fill="#F2F2F2"/>
<path d="M1322.56 693.212L798.843 391.808L797.632 393.9L1321.35 695.303L1322.56 693.212Z" fill="#F2F2F2"/>
<path d="M1322.59 683.712L798.871 382.309L797.66 384.401L1321.38 685.804L1322.59 683.712Z" fill="#F2F2F2"/>
<path d="M1322.54 674.173L798.815 372.769L797.605 374.861L1321.32 676.265L1322.54 674.173Z" fill="#F2F2F2"/>
<path d="M1322.56 664.677L798.843 363.273L797.632 365.365L1321.35 666.768L1322.56 664.677Z" fill="#F2F2F2"/>
<path d="M1322.59 655.177L798.87 353.773L797.659 355.865L1321.38 657.269L1322.59 655.177Z" fill="#F2F2F2"/>
<path d="M1322.54 645.635L798.82 344.231L797.609 346.323L1321.33 647.727L1322.54 645.635Z" fill="#F2F2F2"/>
<path d="M1322.57 636.138L798.847 334.735L797.636 336.827L1321.36 638.23L1322.57 636.138Z" fill="#F2F2F2"/>
<path d="M1322.59 626.642L798.874 325.238L797.663 327.33L1321.38 628.734L1322.59 626.642Z" fill="#F2F2F2"/>
<path d="M1322.54 617.095L798.824 315.691L797.613 317.783L1321.33 619.187L1322.54 617.095Z" fill="#F2F2F2"/>
<path d="M1322.57 607.599L798.851 306.196L797.64 308.287L1321.36 609.691L1322.57 607.599Z" fill="#F2F2F2"/>
<path d="M1322.6 598.102L798.879 296.699L797.668 298.791L1321.39 600.194L1322.6 598.102Z" fill="#F2F2F2"/>
<path d="M1322.55 588.559L798.829 287.155L797.618 289.247L1321.34 590.651L1322.55 588.559Z" fill="#F2F2F2"/>
<path d="M1322.57 579.06L798.854 277.656L797.643 279.748L1321.36 581.152L1322.57 579.06Z" fill="#F2F2F2"/>
<path d="M1322.52 569.517L798.804 268.113L797.593 270.205L1321.31 571.609L1322.52 569.517Z" fill="#F2F2F2"/>
<path d="M1322.55 560.021L798.828 258.617L797.617 260.709L1321.34 562.113L1322.55 560.021Z" fill="#F2F2F2"/>
<path d="M1322.58 550.525L798.855 249.121L797.644 251.213L1321.36 552.617L1322.58 550.525Z" fill="#F2F2F2"/>
<path d="M1322.52 540.981L798.804 239.577L797.593 241.669L1321.31 543.073L1322.52 540.981Z" fill="#F2F2F2"/>
<path d="M1322.55 531.482L798.832 230.078L797.621 232.17L1321.34 533.574L1322.55 531.482Z" fill="#F2F2F2"/>
<path d="M1322.58 521.985L798.859 220.582L797.648 222.674L1321.37 524.077L1322.58 521.985Z" fill="#F2F2F2"/>
<path d="M1322.53 512.442L798.808 211.038L797.597 213.13L1321.32 514.534L1322.53 512.442Z" fill="#F2F2F2"/>
<path d="M1322.56 502.947L798.836 201.543L797.626 203.635L1321.35 505.039L1322.56 502.947Z" fill="#F2F2F2"/>
<path d="M1322.58 493.447L798.863 192.043L797.652 194.135L1321.37 495.539L1322.58 493.447Z" fill="#F2F2F2"/>
<path d="M1322.53 483.904L798.811 182.5L797.6 184.592L1321.32 485.996L1322.53 483.904Z" fill="#F2F2F2"/>
<path d="M1322.56 474.408L798.839 173.004L797.628 175.096L1321.35 476.499L1322.56 474.408Z" fill="#F2F2F2"/>
<path d="M1322.59 464.909L798.866 163.505L797.655 165.597L1321.38 467L1322.59 464.909Z" fill="#F2F2F2"/>
<path d="M1322.54 455.369L798.815 153.965L797.605 156.057L1321.32 457.461L1322.54 455.369Z" fill="#F2F2F2"/>
<path d="M1322.56 445.868L798.844 144.464L797.633 146.556L1321.35 447.96L1322.56 445.868Z" fill="#F2F2F2"/>
<path d="M1322.59 436.369L798.866 134.965L797.655 137.057L1321.38 438.46L1322.59 436.369Z" fill="#F2F2F2"/>
<path d="M1322.54 426.829L798.817 125.426L797.606 127.518L1321.33 428.921L1322.54 426.829Z" fill="#F2F2F2"/>
<path d="M1322.56 417.333L798.844 115.93L797.633 118.021L1321.35 419.425L1322.56 417.333Z" fill="#F2F2F2"/>
<path d="M1322.59 407.837L798.87 106.434L797.659 108.525L1321.38 409.929L1322.59 407.837Z" fill="#F2F2F2"/>
<path d="M1322.54 398.29L798.819 96.8867L797.608 98.9786L1321.33 400.382L1322.54 398.29Z" fill="#F2F2F2"/>
<path d="M1322.57 388.795L798.846 87.3912L797.636 89.4831L1321.36 390.887L1322.57 388.795Z" fill="#F2F2F2"/>
<path d="M1322.52 379.251L798.796 77.8477L797.585 79.9396L1321.3 381.343L1322.52 379.251Z" fill="#F2F2F2"/>
<path d="M1322.55 369.755L798.825 68.3517L797.614 70.4435L1321.33 371.847L1322.55 369.755Z" fill="#F2F2F2"/>
<path d="M1322.57 360.256L798.851 58.8524L797.64 60.9443L1321.36 362.348L1322.57 360.256Z" fill="#F2F2F2"/>
<path d="M1322.52 350.712L798.8 49.3087L797.589 51.4006L1321.31 352.804L1322.52 350.712Z" fill="#F2F2F2"/>
<path d="M1322.55 341.216L798.828 39.8122L797.617 41.9041L1321.34 343.308L1322.55 341.216Z" fill="#F2F2F2"/>
<path d="M1322.57 331.716L798.855 30.3126L797.644 32.4045L1321.36 333.808L1322.57 331.716Z" fill="#F2F2F2"/>
<path d="M1322.52 322.177L798.804 20.7735L797.593 22.8654L1321.31 324.269L1322.52 322.177Z" fill="#F2F2F2"/>
<path d="M1322.55 312.678L798.831 11.2743L797.62 13.3662L1321.34 314.77L1322.55 312.678Z" fill="#F2F2F2"/>
<path d="M1322.58 303.18L798.858 1.77652L797.647 3.86839L1321.37 305.272L1322.58 303.18Z" fill="#F2F2F2"/>
<path d="M1322.53 293.638L798.808 -7.76559L797.597 -5.67372L1321.32 295.73L1322.53 293.638Z" fill="#F2F2F2"/>
<path d="M1322.55 284.142L798.831 -17.2616L797.62 -15.1698L1321.34 286.234L1322.55 284.142Z" fill="#F2F2F2"/>
<path d="M1322.58 274.642L798.86 -26.7612L797.649 -24.6694L1321.37 276.734L1322.58 274.642Z" fill="#F2F2F2"/>
<path d="M1322.53 265.099L798.808 -36.305L797.597 -34.2131L1321.32 267.19L1322.53 265.099Z" fill="#F2F2F2"/>
<path d="M1322.56 255.599L798.836 -45.8046L797.626 -43.7128L1321.35 257.691L1322.56 255.599Z" fill="#F2F2F2"/>
<path d="M1322.58 246.103L798.863 -55.3003L797.652 -53.2084L1321.37 248.195L1322.58 246.103Z" fill="#F2F2F2"/>
<path d="M1322.53 236.564L798.812 -64.8399L797.601 -62.7481L1321.32 238.656L1322.53 236.564Z" fill="#F2F2F2"/>
<path d="M1322.56 227.064L798.84 -74.3398L797.629 -72.2479L1321.35 229.156L1322.56 227.064Z" fill="#F2F2F2"/>
<path d="M1322.59 217.564L798.867 -83.8398L797.657 -81.7479L1321.38 219.656L1322.59 217.564Z" fill="#F2F2F2"/>
<path d="M1322.54 208.025L798.815 -93.3782L797.604 -91.2863L1321.32 210.117L1322.54 208.025Z" fill="#F2F2F2"/>
<path d="M1322.56 198.528L798.844 -102.876L797.633 -100.784L1321.35 200.62L1322.56 198.528Z" fill="#F2F2F2"/>
<path d="M1322.51 188.986L798.792 -112.418L797.581 -110.326L1321.3 191.078L1322.51 188.986Z" fill="#F2F2F2"/>
</g>
</g>
<path d="M118.023 701.552L118.023 738.993L85.5539 757.545L53.0005 738.993L53.0005 701.552L85.5539 683L118.023 701.552Z" fill="#5CC1C3"/>
<path d="M-551.125 517.166L-551.178 517.265L-549.323 602.255C-549.278 602.407 -549.233 602.559 -549.134 602.612L-39.2037 878.842C-39.1052 878.895 -38.9533 878.85 -38.8548 878.903L84.9567 808.125C84.9567 808.125 85.0102 808.026 85.0637 807.928C85.1171 807.829 85.1171 807.829 85.1171 807.829L84.8771 725.501C84.9305 725.402 84.8855 725.25 84.6885 725.144C84.4916 725.037 84.4381 725.136 84.3396 725.082L-32.604 791.412C-36.0788 793.359 -40.2908 793.375 -43.7376 791.508L-550.615 516.931C-550.964 516.87 -551.125 517.166 -551.125 517.166ZM-556.049 514.499C-554.552 511.736 -551.049 510.442 -547.996 512.096L-41.1183 786.672C-39.3457 787.633 -37.1905 787.652 -35.3504 786.606L81.6467 720.177C85.5323 717.943 90.5014 720.762 90.4481 725.328L90.6881 807.656C90.6544 808.659 90.3703 809.654 89.9427 810.443C89.4081 811.43 88.6316 812.158 87.6581 812.779L-36.1536 883.558C-37.9936 884.603 -40.1489 884.584 -41.9215 883.624L-551.852 607.394C-553.723 606.38 -554.961 604.433 -554.939 602.276L-556.749 517.438C-556.814 516.382 -556.53 515.387 -556.049 514.499Z" fill="black"/>
<path d="M1691.22 192.116L1409 369.174L1457.56 397.395L1738.36 219.62C1739.21 219.047 1739.21 217.901 1738.36 217.328L1694.52 192.116C1693.51 191.543 1692.23 191.543 1691.22 192.116Z" fill="#5DC1C3"/>
<path d="M1409 369.174V451.83C1409 452.976 1409.57 454.122 1410.58 454.695L1455.56 480.624C1456.42 481.197 1457.56 480.48 1457.56 479.478V397.395L1409 369.174Z" fill="#AEE0E1"/>
<defs>
<clipPath id="clip0">
<rect width="1018" height="380" fill="white" transform="translate(1292) rotate(90)"/>
</clipPath>
</defs>
</svg>
