<svg width="202" height="65" viewBox="0 0 202 65" fill="none" xmlns="https://www.w3.org/2000/svg">
<path d="M200.809 34.1697C200.617 38.0853 197.909 41.9474 192.747 45.5654C187.604 49.1702 180.195 52.406 171.014 55.0846C152.664 60.4384 127.464 63.5016 99.7749 62.9739C72.086 62.4461 47.2312 58.4289 29.4376 52.3862C20.535 49.3629 13.4553 45.851 8.67344 42.057C3.87408 38.2491 1.54678 34.2911 1.73788 30.3754C1.92898 26.4598 4.63793 22.5977 9.7997 18.9797C14.9427 15.3749 22.3517 12.1391 31.5325 9.46046C49.8823 4.10665 75.0827 1.0435 102.772 1.57124C130.46 2.09899 155.315 6.11618 173.109 12.1589C182.011 15.1822 189.091 18.6941 193.873 22.4881C198.672 26.296 201 30.254 200.809 34.1697Z" stroke="#EAE639" stroke-width="2"/>
</svg>
