<svg width="375" height="346" viewBox="0 0 375 346" fill="none" xmlns="http://www.w3.org/2000/svg">
<rect width="375" height="346" fill="#443676"/>
<path d="M27 267.984V280.016L38 286L49 280.016V267.984L38 262L27 267.984Z" fill="white"/>
<mask id="mask0" mask-type="alpha" maskUnits="userSpaceOnUse" x="22" y="280" width="117" height="66">
<rect x="22" y="280.618" width="117" height="65.3824" fill="#C4C4C4"/>
</mask>
<g mask="url(#mask0)">
<path d="M27.1641 308.767V363.581L80.6711 390.846L134.178 363.581V308.767L80.6711 281.502L27.1641 308.767Z" fill="#3B2552"/>
</g>
<mask id="mask1" mask-type="alpha" maskUnits="userSpaceOnUse" x="0" y="0" width="55" height="113">
<rect width="55" height="113" fill="#C4C4C4"/>
</mask>
<g mask="url(#mask1)">
<path d="M-112.5 163.724L-278 73.7975V-106.798L-112.5 -196.724L53 -106.798V73.7975L-112.5 163.724Z" stroke="white" stroke-width="4"/>
</g>
<mask id="mask2" mask-type="alpha" maskUnits="userSpaceOnUse" x="242" y="0" width="134" height="103">
<rect x="242" width="134" height="103" fill="#C4C4C4"/>
</mask>
<g mask="url(#mask2)">
<g opacity="0.3">
<mask id="mask3" mask-type="alpha" maskUnits="userSpaceOnUse" x="-492" y="-323" width="1734" height="894">
<path d="M-28.3742 99.3635L424.184 330.999L423.212 332.518L-29.3454 100.883L-28.3742 99.3635Z" fill="#F2F2F2"/>
<path d="M-21.2336 95.7185L431.324 327.354L430.353 328.873L-22.2049 97.2378L-21.2336 95.7185Z" fill="#F2F2F2"/>
<path d="M-14.1515 92.0373L438.406 323.673L437.435 325.192L-15.1228 93.5566L-14.1515 92.0373Z" fill="#F2F2F2"/>
<path d="M-7.0734 88.3567L445.484 319.992L444.513 321.511L-8.04466 89.8759L-7.0734 88.3567Z" fill="#F2F2F2"/>
<path d="M0.0750632 84.7102L452.633 316.346L451.662 317.865L-0.89619 86.2295L0.0750632 84.7102Z" fill="#F2F2F2"/>
<path d="M7.15709 81.0305L459.715 312.666L458.744 314.185L6.18584 82.5498L7.15709 81.0305Z" fill="#F2F2F2"/>
<path d="M14.3056 77.385L466.863 309.021L465.892 310.54L13.3343 78.9043L14.3056 77.385Z" fill="#F2F2F2"/>
<path d="M21.3837 73.7029L473.941 305.339L472.97 306.858L20.4124 75.2221L21.3837 73.7029Z" fill="#F2F2F2"/>
<path d="M28.4657 70.0227L481.023 301.659L480.052 303.178L27.4944 71.542L28.4657 70.0227Z" fill="#F2F2F2"/>
<path d="M35.6215 66.2573L488.078 298.106L487.106 299.625L34.6493 67.7763L35.6215 66.2573Z" fill="#F2F2F2"/>
<path d="M42.6998 62.5771L495.156 294.426L494.184 295.945L41.7276 64.0961L42.6998 62.5771Z" fill="#F2F2F2"/>
<path d="M49.7819 58.8954L502.238 290.745L501.266 292.264L48.8097 60.4144L49.7819 58.8954Z" fill="#F2F2F2"/>
<path d="M56.9303 55.2504L509.387 287.1L508.415 288.619L55.9581 56.7694L56.9303 55.2504Z" fill="#F2F2F2"/>
<path d="M64.0082 51.5703L516.465 283.419L515.493 284.938L63.036 53.0892L64.0082 51.5703Z" fill="#F2F2F2"/>
<path d="M71.0866 47.8896L523.543 279.739L522.571 281.258L70.1144 49.4086L71.0866 47.8896Z" fill="#F2F2F2"/>
<path d="M78.2389 44.2441L530.695 276.093L529.723 277.612L77.2667 45.7631L78.2389 44.2441Z" fill="#F2F2F2"/>
<path d="M85.3207 40.5659L537.777 272.415L536.805 273.934L84.3485 42.0849L85.3207 40.5659Z" fill="#F2F2F2"/>
<path d="M92.3989 36.8837L544.855 268.733L543.883 270.252L91.4267 38.4027L92.3989 36.8837Z" fill="#F2F2F2"/>
<path d="M99.5513 33.2392L552.008 265.088L551.036 266.607L98.5791 34.7582L99.5513 33.2392Z" fill="#F2F2F2"/>
<path d="M106.637 29.5581L559.094 261.407L558.122 262.926L105.665 31.077L106.637 29.5581Z" fill="#F2F2F2"/>
<path d="M113.715 25.8769L566.172 257.726L565.2 259.245L112.743 27.3959L113.715 25.8769Z" fill="#F2F2F2"/>
<path d="M120.856 22.2329L573.312 254.082L572.34 255.601L119.884 23.7519L120.856 22.2329Z" fill="#F2F2F2"/>
<path d="M127.934 18.5541L580.391 250.403L579.418 251.922L126.962 20.0731L127.934 18.5541Z" fill="#F2F2F2"/>
<path d="M135.02 14.8725L587.477 246.722L586.504 248.241L134.048 16.3915L135.02 14.8725Z" fill="#F2F2F2"/>
<path d="M142.161 11.2255L594.617 243.075L593.645 244.594L141.188 12.7445L142.161 11.2255Z" fill="#F2F2F2"/>
<path d="M149.243 7.54635L601.699 239.396L600.727 240.914L148.271 9.06534L149.243 7.54635Z" fill="#F2F2F2"/>
<path d="M156.391 3.90083L608.848 235.75L607.875 237.269L155.419 5.41981L156.391 3.90083Z" fill="#F2F2F2"/>
<path d="M163.473 0.220653L615.93 232.07L614.957 233.589L162.501 1.73964L163.473 0.220653Z" fill="#F2F2F2"/>
<path d="M170.551 -3.46099L623.008 228.388L622.036 229.907L169.579 -1.942L170.551 -3.46099Z" fill="#F2F2F2"/>
<path d="M177.7 -7.10209L630.156 224.747L629.184 226.266L176.728 -5.5831L177.7 -7.10209Z" fill="#F2F2F2"/>
<path d="M184.786 -10.7862L637.242 221.063L636.27 222.582L183.814 -9.26721L184.786 -10.7862Z" fill="#F2F2F2"/>
<path d="M191.86 -14.4668L644.316 217.382L643.344 218.901L190.888 -12.9479L191.86 -14.4668Z" fill="#F2F2F2"/>
<path d="M199.02 -18.1133L651.477 213.736L650.504 215.255L198.048 -16.5944L199.02 -18.1133Z" fill="#F2F2F2"/>
<path d="M206.09 -21.7921L658.547 210.057L657.575 211.576L205.118 -20.2731L206.09 -21.7921Z" fill="#F2F2F2"/>
<path d="M213.18 -25.4707L665.637 206.378L664.665 207.897L212.208 -23.9517L213.18 -25.4707Z" fill="#F2F2F2"/>
<path d="M220.321 -29.1192L672.777 202.73L671.805 204.249L219.349 -27.6002L220.321 -29.1192Z" fill="#F2F2F2"/>
<path d="M227.399 -32.7974L679.855 199.052L678.883 200.571L226.427 -31.2784L227.399 -32.7974Z" fill="#F2F2F2"/>
<path d="M234.481 -36.4791L686.938 195.37L685.965 196.889L233.509 -34.9601L234.481 -36.4791Z" fill="#F2F2F2"/>
<path d="M241.626 -40.1236L694.082 191.726L693.11 193.245L240.653 -38.6046L241.626 -40.1236Z" fill="#F2F2F2"/>
<path d="M248.708 -43.8057L701.164 188.043L700.192 189.562L247.735 -42.2867L248.708 -43.8057Z" fill="#F2F2F2"/>
<path d="M255.79 -47.4854L708.246 184.364L707.274 185.883L254.818 -45.9664L255.79 -47.4854Z" fill="#F2F2F2"/>
<path d="M262.938 -51.1304L715.395 180.719L714.422 182.238L261.966 -49.6114L262.938 -51.1304Z" fill="#F2F2F2"/>
<path d="M270.012 -54.8106L722.469 177.039L721.497 178.558L269.04 -53.2916L270.012 -54.8106Z" fill="#F2F2F2"/>
<path d="M277.094 -58.4912L729.551 173.358L728.579 174.877L276.122 -56.9723L277.094 -58.4912Z" fill="#F2F2F2"/>
<path d="M284.243 -62.1368L736.699 169.712L735.727 171.231L283.271 -60.6178L284.243 -62.1368Z" fill="#F2F2F2"/>
<path d="M291.321 -65.8164L743.777 166.033L742.805 167.552L290.348 -64.2975L291.321 -65.8164Z" fill="#F2F2F2"/>
<path d="M298.469 -69.463L750.926 162.386L749.954 163.905L297.497 -67.944L298.469 -69.463Z" fill="#F2F2F2"/>
<path d="M305.547 -73.1421L758.004 158.707L757.032 160.226L304.575 -71.6231L305.547 -73.1421Z" fill="#F2F2F2"/>
<path d="M312.633 -76.8223L765.09 155.027L764.118 156.546L311.661 -75.3033L312.633 -76.8223Z" fill="#F2F2F2"/>
<path d="M319.786 -80.4673L772.242 151.381L771.27 152.9L318.814 -78.9483L319.786 -80.4673Z" fill="#F2F2F2"/>
<path d="M326.872 -84.1495L779.328 147.7L778.356 149.219L325.9 -82.6305L326.872 -84.1495Z" fill="#F2F2F2"/>
<path d="M333.95 -87.8267L786.406 144.022L785.434 145.541L332.978 -86.3077L333.95 -87.8267Z" fill="#F2F2F2"/>
<path d="M341.09 -91.4747L793.547 140.375L792.575 141.893L340.118 -89.9557L341.09 -91.4747Z" fill="#F2F2F2"/>
<path d="M348.169 -95.1558L800.625 136.693L799.653 138.212L347.196 -93.6368L348.169 -95.1558Z" fill="#F2F2F2"/>
<path d="M355.251 -98.8355L807.707 133.014L806.735 134.533L354.279 -97.3165L355.251 -98.8355Z" fill="#F2F2F2"/>
<path d="M362.395 -102.481L814.852 129.369L813.879 130.888L361.423 -100.962L362.395 -102.481Z" fill="#F2F2F2"/>
<path d="M369.481 -106.161L821.938 125.688L820.965 127.207L368.509 -104.642L369.481 -106.161Z" fill="#F2F2F2"/>
</mask>
<g mask="url(#mask3)">
<path d="M367.568 -107.114L468.628 -55.2396V48.5088L367.568 100.383L266.509 48.5088V-55.2396L367.568 -107.114Z" fill="#C4C4C4"/>
</g>
</g>
</g>
<mask id="mask4" mask-type="alpha" maskUnits="userSpaceOnUse" x="287" y="0" width="88" height="323">
<rect x="287" width="88" height="323" fill="#C4C4C4"/>
</mask>
<g mask="url(#mask4)">
<path fill-rule="evenodd" clip-rule="evenodd" d="M329.63 310.423L329.691 310.462H329.764V310.212L291.058 285.678L290.83 285.534L291.05 285.377L350.024 243.15C351.489 242.035 352.404 240.222 352.404 238.201L352.353 0H352.103L352.154 238.201C352.154 240.145 351.274 241.882 349.876 242.949L349.873 242.951L290.685 285.331L290.383 285.547L290.696 285.745L329.63 310.423ZM350.101 0L350.152 238.201C350.152 239.31 349.699 240.37 348.826 240.984L348.825 240.984L287.621 284.83L287.62 284.831C287.365 285.017 287.238 285.331 287.251 285.655C287.264 285.981 287.415 286.28 287.667 286.437L287.669 286.438L328.605 312.433C329.01 312.63 329.394 312.75 329.764 312.75C330.182 312.75 330.621 312.57 331.027 312.305L392.41 268.672C393.075 268.164 393.529 267.265 393.529 266.294L393.472 0H393.722L393.779 266.294C393.779 267.34 393.29 268.316 392.558 268.873L331.168 312.512C330.74 312.791 330.252 313 329.764 313C329.337 313 328.91 312.861 328.482 312.651L287.535 286.649C286.864 286.231 286.803 285.116 287.474 284.628L348.682 240.78C349.475 240.222 349.902 239.246 349.902 238.201L349.851 0H350.101ZM391.592 0L391.649 266.224C391.649 266.331 391.603 266.415 391.57 266.466C391.537 266.516 391.496 266.562 391.469 266.594L391.465 266.598L391.446 266.62L391.422 266.637L330.051 310.331C329.998 310.384 329.942 310.417 329.891 310.437C329.862 310.447 329.836 310.454 329.815 310.457L329.803 310.459C329.797 310.46 329.791 310.46 329.786 310.461L329.774 310.461L329.769 310.462L329.766 310.462L329.765 310.462L329.765 310.462L329.764 310.462C329.764 310.462 329.764 310.462 329.764 310.212C329.764 310.212 329.825 310.212 329.886 310.142L391.277 266.433C391.338 266.364 391.399 266.294 391.399 266.224L391.342 0H391.592Z" fill="white"/>
<path d="M329.691 310.462V310.962H329.546L329.424 310.884L329.691 310.462ZM329.63 310.423L329.898 310L329.898 310L329.63 310.423ZM329.764 310.462H330.264V310.962H329.764V310.462ZM291.058 285.678L291.326 285.256L291.326 285.256L291.058 285.678ZM290.83 285.534L290.563 285.956L289.936 285.559L290.539 285.128L290.83 285.534ZM291.05 285.377L291.341 285.784L291.341 285.784L291.05 285.377ZM350.024 243.15L350.327 243.548L350.321 243.552L350.315 243.557L350.024 243.15ZM352.404 238.201L352.904 238.201V238.201H352.404ZM352.353 0V-0.5H352.853L352.853 -0.00012207L352.353 0ZM352.103 0L351.603 0.00012207L351.603 -0.5H352.103V0ZM352.154 238.201L352.654 238.201V238.201H352.154ZM349.876 242.949L350.179 243.347L350.179 243.347L349.876 242.949ZM349.873 242.951L350.176 243.349L350.17 243.353L350.164 243.358L349.873 242.951ZM290.685 285.331L290.976 285.737H290.976L290.685 285.331ZM290.383 285.547L290.116 285.969L289.489 285.572L290.092 285.14L290.383 285.547ZM290.696 285.745L290.964 285.323H290.964L290.696 285.745ZM350.101 0V-0.5H350.601L350.601 -9.15527e-05L350.101 0ZM350.152 238.201L350.652 238.201V238.201H350.152ZM348.826 240.984L349.114 241.393L349.113 241.393L348.826 240.984ZM348.825 240.984L348.534 240.578L348.538 240.575L348.825 240.984ZM287.621 284.83L287.326 284.426L287.33 284.424L287.621 284.83ZM287.62 284.831L287.915 285.235L287.915 285.235L287.62 284.831ZM287.251 285.655L286.751 285.675L286.751 285.674L287.251 285.655ZM287.667 286.437L287.932 286.013L287.932 286.013L287.667 286.437ZM287.669 286.438L287.934 286.014L287.937 286.016L287.669 286.438ZM328.605 312.433L328.386 312.883L328.361 312.87L328.337 312.855L328.605 312.433ZM331.027 312.305L331.316 312.713L331.308 312.719L331.3 312.724L331.027 312.305ZM392.41 268.672L392.713 269.069L392.707 269.075L392.7 269.08L392.41 268.672ZM393.529 266.294L394.029 266.294V266.294H393.529ZM393.472 0L392.972 9.15527e-05L392.972 -0.5H393.472V0ZM393.722 0V-0.5H394.222L394.222 -9.15527e-05L393.722 0ZM393.779 266.294L394.279 266.294V266.294H393.779ZM392.558 268.873L392.861 269.271L392.855 269.276L392.848 269.281L392.558 268.873ZM331.168 312.512L331.457 312.92L331.449 312.925L331.441 312.931L331.168 312.512ZM328.482 312.651L328.263 313.101L328.238 313.088L328.214 313.074L328.482 312.651ZM287.535 286.649L287.799 286.225L287.803 286.227L287.535 286.649ZM287.474 284.628L287.18 284.223L287.183 284.221L287.474 284.628ZM348.682 240.78L348.39 240.373L348.394 240.371L348.682 240.78ZM349.902 238.201L350.402 238.201V238.201H349.902ZM349.851 0L349.351 9.15527e-05L349.351 -0.5H349.851V0ZM391.592 0V-0.5H392.092L392.092 -9.15527e-05L391.592 0ZM391.649 266.224L392.149 266.224V266.224H391.649ZM391.57 266.466L391.152 266.192L391.152 266.192L391.57 266.466ZM391.469 266.594L391.092 266.264L391.093 266.264L391.469 266.594ZM391.465 266.598L391.841 266.927L391.841 266.927L391.465 266.598ZM391.446 266.62L391.822 266.949L391.783 266.993L391.735 267.027L391.446 266.62ZM391.422 266.637L391.132 266.23L391.132 266.23L391.422 266.637ZM330.051 310.331L329.697 309.978L329.727 309.948L329.761 309.924L330.051 310.331ZM329.891 310.437L330.069 310.904L330.069 310.904L329.891 310.437ZM329.815 310.457L329.895 310.951L329.887 310.952L329.815 310.457ZM329.803 310.459L329.875 310.954L329.867 310.955L329.803 310.459ZM329.786 310.461L329.824 310.959L329.814 310.96L329.786 310.461ZM329.774 310.461L329.802 310.961L329.795 310.961L329.788 310.961L329.774 310.461ZM329.769 310.462L329.782 310.961L329.775 310.961L329.769 310.462ZM329.766 310.462L329.773 310.962L329.77 310.962L329.766 310.462ZM329.765 310.462L329.768 310.962L329.767 310.962L329.765 310.462ZM329.765 310.462L329.766 310.962L329.765 310.962L329.765 310.462ZM329.764 310.462L329.765 310.962H329.765L329.764 310.462ZM329.886 310.142L329.51 309.813L329.548 309.769L329.596 309.735L329.886 310.142ZM391.277 266.433L391.653 266.763L391.614 266.807L391.567 266.841L391.277 266.433ZM391.399 266.224L391.899 266.224V266.224H391.399ZM391.342 0L390.842 9.15527e-05L390.842 -0.5H391.342V0ZM329.424 310.884L329.362 310.845L329.898 310L329.959 310.039L329.424 310.884ZM329.764 310.962H329.691V309.962H329.764V310.962ZM330.264 310.212V310.462H329.264V310.212H330.264ZM291.326 285.256L330.032 309.789L329.496 310.634L290.79 286.101L291.326 285.256ZM291.098 285.112L291.326 285.256L290.79 286.101L290.563 285.956L291.098 285.112ZM291.341 285.784L291.121 285.941L290.539 285.128L290.759 284.971L291.341 285.784ZM350.315 243.557L291.341 285.784L290.759 284.971L349.733 242.744L350.315 243.557ZM352.904 238.201C352.904 240.373 351.92 242.335 350.327 243.548L349.721 242.752C351.058 241.734 351.904 240.071 351.904 238.201H352.904ZM352.853 -0.00012207L352.904 238.201L351.904 238.201L351.853 0.00012207L352.853 -0.00012207ZM352.103 -0.5H352.353V0.5H352.103V-0.5ZM351.654 238.201L351.603 0.00012207L352.603 -0.00012207L352.654 238.201L351.654 238.201ZM349.572 242.551C350.843 241.582 351.654 239.994 351.654 238.201H352.654C352.654 240.296 351.705 242.182 350.179 243.347L349.572 242.551ZM349.57 242.554L349.573 242.551L350.179 243.347L350.176 243.349L349.57 242.554ZM290.394 284.924L349.582 242.545L350.164 243.358L290.976 285.737L290.394 284.924ZM290.092 285.14L290.394 284.924L290.976 285.737L290.674 285.953L290.092 285.14ZM290.429 286.168L290.116 285.969L290.651 285.124L290.964 285.323L290.429 286.168ZM329.362 310.845L290.429 286.168L290.964 285.323L329.898 310L329.362 310.845ZM350.601 -9.15527e-05L350.652 238.201L349.652 238.201L349.601 9.15527e-05L350.601 -9.15527e-05ZM350.652 238.201C350.652 239.437 350.146 240.667 349.114 241.393L348.539 240.575C349.251 240.073 349.652 239.182 349.652 238.201H350.652ZM349.113 241.393L349.113 241.394L348.538 240.575L348.539 240.575L349.113 241.393ZM349.117 241.391L287.912 285.237L287.33 284.424L348.534 240.578L349.117 241.391ZM287.916 285.234L287.915 285.235L287.325 284.427L287.326 284.426L287.916 285.234ZM287.915 285.235C287.817 285.306 287.743 285.446 287.75 285.636L286.751 285.674C286.733 285.215 286.912 284.728 287.325 284.427L287.915 285.235ZM287.75 285.636C287.758 285.83 287.846 285.96 287.932 286.013L287.403 286.862C286.984 286.601 286.769 286.133 286.751 285.675L287.75 285.636ZM287.932 286.013L287.934 286.014L287.404 286.862L287.402 286.861L287.932 286.013ZM287.937 286.016L328.873 312.011L328.337 312.855L287.401 286.86L287.937 286.016ZM328.823 311.983C329.195 312.164 329.5 312.25 329.764 312.25V313.25C329.288 313.25 328.826 313.096 328.386 312.883L328.823 311.983ZM329.764 312.25C330.046 312.25 330.388 312.124 330.754 311.886L331.3 312.724C330.853 313.015 330.319 313.25 329.764 313.25V312.25ZM330.737 311.898L392.12 268.264L392.7 269.08L331.316 312.713L330.737 311.898ZM392.106 268.275C392.641 267.866 393.029 267.118 393.029 266.294H394.029C394.029 267.412 393.509 268.461 392.713 269.069L392.106 268.275ZM393.029 266.294L392.972 9.15527e-05L393.972 -9.15527e-05L394.029 266.294L393.029 266.294ZM393.472 -0.5H393.722V0.5H393.472V-0.5ZM393.279 266.294L393.222 9.15527e-05L394.222 -9.15527e-05L394.279 266.294L393.279 266.294ZM392.255 268.475C392.856 268.018 393.279 267.193 393.279 266.294H394.279C394.279 267.487 393.725 268.613 392.861 269.271L392.255 268.475ZM330.878 312.104L392.268 268.466L392.848 269.281L331.457 312.92L330.878 312.104ZM329.764 312.5C330.115 312.5 330.507 312.346 330.894 312.093L331.441 312.931C330.974 313.236 330.389 313.5 329.764 313.5V312.5ZM328.702 312.202C329.095 312.395 329.444 312.5 329.764 312.5V313.5C329.23 313.5 328.724 313.326 328.263 313.101L328.702 312.202ZM287.803 286.227L328.75 312.229L328.214 313.074L287.267 287.072L287.803 286.227ZM287.768 285.032C287.592 285.16 287.491 285.388 287.501 285.645C287.511 285.906 287.631 286.12 287.799 286.225L287.271 287.074C286.768 286.76 286.522 286.208 286.501 285.684C286.481 285.158 286.685 284.583 287.18 284.223L287.768 285.032ZM348.973 241.186L287.765 285.034L287.183 284.221L348.39 240.373L348.973 241.186ZM350.402 238.201C350.402 239.374 349.922 240.519 348.969 241.189L348.394 240.371C349.028 239.925 349.402 239.119 349.402 238.201H350.402ZM350.351 -9.15527e-05L350.402 238.201L349.402 238.201L349.351 9.15527e-05L350.351 -9.15527e-05ZM349.851 -0.5H350.101V0.5H349.851V-0.5ZM392.092 -9.15527e-05L392.149 266.224L391.149 266.224L391.092 9.15527e-05L392.092 -9.15527e-05ZM392.149 266.224C392.149 266.474 392.042 266.657 391.988 266.74L391.152 266.192C391.156 266.184 391.156 266.183 391.155 266.187C391.153 266.192 391.149 266.205 391.149 266.224H392.149ZM391.988 266.74C391.933 266.823 391.87 266.894 391.845 266.923L391.093 266.264C391.107 266.248 391.118 266.235 391.129 266.221C391.141 266.207 391.148 266.198 391.152 266.192L391.988 266.74ZM391.845 266.923L391.841 266.927L391.089 266.269L391.092 266.264L391.845 266.923ZM391.841 266.927L391.822 266.949L391.069 266.291L391.089 266.269L391.841 266.927ZM391.735 267.027L391.712 267.044L391.132 266.23L391.156 266.213L391.735 267.027ZM391.712 267.044L330.341 310.739L329.761 309.924L391.132 266.23L391.712 267.044ZM330.405 310.685C330.3 310.79 330.182 310.861 330.069 310.904L329.713 309.969C329.708 309.971 329.704 309.973 329.701 309.975C329.698 309.977 329.697 309.978 329.697 309.978L330.405 310.685ZM330.069 310.904C330.006 310.928 329.947 310.942 329.895 310.951L329.734 309.964C329.726 309.965 329.719 309.967 329.713 309.969L330.069 310.904ZM329.887 310.952L329.875 310.954L329.731 309.964L329.742 309.962L329.887 310.952ZM329.867 310.955C329.852 310.957 329.837 310.958 329.824 310.959L329.748 309.962C329.745 309.962 329.742 309.963 329.739 309.963L329.867 310.955ZM329.814 310.96L329.802 310.961L329.746 309.962L329.757 309.962L329.814 310.96ZM329.788 310.961L329.782 310.961L329.755 309.962L329.76 309.962L329.788 310.961ZM329.775 310.961L329.773 310.962L329.759 309.962L329.762 309.962L329.775 310.961ZM329.77 310.962L329.768 310.962L329.762 309.962L329.763 309.962L329.77 310.962ZM329.767 310.962L329.766 310.962L329.763 309.962L329.763 309.962L329.767 310.962ZM329.765 310.962L329.765 310.962L329.763 309.962L329.764 309.962L329.765 310.962ZM329.765 310.962C329.765 310.962 329.763 310.962 329.762 310.962C329.76 310.962 329.755 310.961 329.752 310.961C329.743 310.961 329.73 310.961 329.713 310.959C329.677 310.955 329.627 310.946 329.571 310.923C329.446 310.87 329.373 310.782 329.334 310.716C329.3 310.659 329.286 310.609 329.281 310.588C329.274 310.564 329.271 310.544 329.27 310.534C329.267 310.514 329.266 310.498 329.265 310.494C329.265 310.487 329.265 310.482 329.265 310.479C329.264 310.471 329.264 310.463 329.264 310.462C329.264 310.456 329.264 310.447 329.264 310.431C329.264 310.399 329.264 310.337 329.264 310.212H330.264C330.264 310.337 330.264 310.399 330.264 310.429C330.264 310.445 330.264 310.451 330.264 310.453C330.264 310.456 330.264 310.451 330.264 310.443C330.264 310.441 330.264 310.436 330.263 310.429C330.263 310.425 330.262 310.409 330.259 310.389C330.257 310.379 330.254 310.359 330.248 310.335C330.243 310.315 330.228 310.264 330.195 310.207C330.156 310.141 330.082 310.053 329.958 310.001C329.901 309.977 329.851 309.968 329.816 309.964C329.799 309.962 329.785 309.962 329.777 309.962C329.773 309.962 329.768 309.962 329.767 309.962C329.765 309.962 329.763 309.962 329.763 309.962L329.765 310.962ZM329.764 310.212C329.764 309.712 329.764 309.712 329.763 309.712C329.763 309.712 329.763 309.712 329.763 309.712C329.762 309.712 329.762 309.712 329.762 309.712C329.761 309.712 329.76 309.712 329.76 309.712C329.758 309.712 329.757 309.712 329.755 309.712C329.752 309.712 329.749 309.712 329.746 309.712C329.74 309.712 329.735 309.712 329.729 309.713C329.717 309.714 329.706 309.715 329.694 309.717C329.671 309.721 329.647 309.727 329.624 309.736C329.575 309.754 329.536 309.782 329.51 309.813L330.262 310.471C330.175 310.571 330.075 310.634 329.98 310.67C329.934 310.688 329.892 310.698 329.855 310.704C329.837 310.707 329.82 310.709 329.805 310.71C329.797 310.711 329.79 310.711 329.783 310.711C329.78 310.711 329.776 310.711 329.773 310.711C329.772 310.712 329.77 310.712 329.769 310.712C329.768 310.712 329.767 310.712 329.766 310.712C329.766 310.712 329.765 310.712 329.765 310.712C329.765 310.712 329.765 310.712 329.765 310.712C329.764 310.712 329.764 310.712 329.764 310.212ZM329.596 309.735L390.987 266.026L391.567 266.841L330.176 310.549L329.596 309.735ZM390.9 266.104C390.917 266.086 390.927 266.074 390.935 266.064C390.943 266.054 390.944 266.052 390.943 266.054C390.941 266.057 390.931 266.072 390.921 266.098C390.911 266.124 390.899 266.168 390.899 266.224H391.899C391.899 266.402 391.823 266.536 391.779 266.603C391.733 266.673 391.678 266.734 391.653 266.763L390.9 266.104ZM390.899 266.224L390.842 9.15527e-05L391.842 -9.15527e-05L391.899 266.224L390.899 266.224ZM391.342 -0.5H391.592V0.5H391.342V-0.5Z" fill="#6286BD"/>
</g>
</svg>
