<?xml version="1.0" encoding="utf-8"?>
<!-- Generator: Adobe Illustrator 25.4.1, SVG Export Plug-In . SVG Version: 6.00 Build 0)  -->
<!DOCTYPE svg PUBLIC "-//W3C//DTD SVG 1.1//EN" "http://www.w3.org/Graphics/SVG/1.1/DTD/svg11.dtd" [
	<!ENTITY ns_extend "http://ns.adobe.com/Extensibility/1.0/">
	<!ENTITY ns_ai "http://ns.adobe.com/AdobeIllustrator/10.0/">
	<!ENTITY ns_graphs "http://ns.adobe.com/Graphs/1.0/">
	<!ENTITY ns_vars "http://ns.adobe.com/Variables/1.0/">
	<!ENTITY ns_imrep "http://ns.adobe.com/ImageReplacement/1.0/">
	<!ENTITY ns_sfw "http://ns.adobe.com/SaveForWeb/1.0/">
	<!ENTITY ns_custom "http://ns.adobe.com/GenericCustomNamespace/1.0/">
	<!ENTITY ns_adobe_xpath "http://ns.adobe.com/XPath/1.0/">
]>
<svg version="1.1" id="Layer_1" xmlns:x="&ns_extend;" xmlns:i="&ns_ai;" xmlns:graph="&ns_graphs;"
	 xmlns="http://www.w3.org/2000/svg" xmlns:xlink="http://www.w3.org/1999/xlink" x="0px" y="0px" viewBox="0 0 1671 553"
	 style="enable-background:new 0 0 1671 553;" xml:space="preserve">
<style type="text/css">
	.st0{clip-path:url(#SVGID_00000125593021825957274760000007403792626833752202_);}
	.st1{fill:#FFFFFF;}
	.st2{fill:#443676;}
	.st3{opacity:0.3;}
	.st4{fill:#F2F2F2;filter:url(#Adobe_OpacityMaskFilter);}
	.st5{fill:#F2F2F2;}
	.st6{mask:url(#mask0_00000122717195282562697460000006152772266469777850_);}
	.st7{fill:#C4C4C4;}
	.st8{fill:#5CC1C3;filter:url(#Adobe_OpacityMaskFilter_00000150803098298676560670000006510839137431303561_);}
	.st9{mask:url(#mask1_00000010994930934566024740000009448710485802771851_);}
	.st10{fill:#3B2552;}
	.st11{fill-rule:evenodd;clip-rule:evenodd;fill:#FFFFFF;}
	.st12{fill:#6286BD;}
	.st13{fill:#5EC2C4;}
	.st14{fill:#5DC1C3;}
	.st15{fill-rule:evenodd;clip-rule:evenodd;fill:#3B2552;}
	.st16{fill-rule:evenodd;clip-rule:evenodd;fill:#664FB7;}
</style>
<metadata>
	<sfw  xmlns="&ns_sfw;">
		<slices></slices>
		<sliceSourceBounds  bottomLeftOrigin="true" height="807.3" width="1684" x="0" y="-87.1"></sliceSourceBounds>
	</sfw>
</metadata>
<g>
	<defs>
		<rect id="SVGID_1_" width="1674" height="553"/>
	</defs>
	<clipPath id="SVGID_00000007392387335297114550000015678308577811997825_">
		<use xlink:href="#SVGID_1_"  style="overflow:visible;"/>
	</clipPath>
	<g style="clip-path:url(#SVGID_00000007392387335297114550000015678308577811997825_);">
		<rect class="st1" width="1674" height="553"/>
		<rect y="-5" class="st2" width="1684" height="632"/>
		<g class="st3">
			<defs>
				<filter id="Adobe_OpacityMaskFilter" filterUnits="userSpaceOnUse" x="1030" y="-167.1" width="271.9" height="279.2">
					<feColorMatrix  type="matrix" values="1 0 0 0 0  0 1 0 0 0  0 0 1 0 0  0 0 0 1 0"/>
				</filter>
			</defs>
			
				<mask maskUnits="userSpaceOnUse" x="1030" y="-167.1" width="271.9" height="279.2" id="mask0_00000122717195282562697460000006152772266469777850_">
				<path class="st4" d="M12.1,431.5L621,743.1l-1.3,2L10.8,433.5L12.1,431.5z"/>
				<path class="st5" d="M21.7,426.5l608.9,311.7l-1.3,2L20.4,428.6L21.7,426.5z"/>
				<path class="st5" d="M31.2,421.6l608.9,311.7l-1.3,2L29.9,423.6L31.2,421.6z"/>
				<path class="st5" d="M40.8,416.7l608.9,311.7l-1.3,2L39.5,418.7L40.8,416.7z"/>
				<path class="st5" d="M50.3,411.7l608.9,311.7l-1.3,2L49,413.8L50.3,411.7z"/>
				<path class="st5" d="M59.9,406.8l608.9,311.7l-1.3,2L58.6,408.8L59.9,406.8z"/>
				<path class="st5" d="M69.5,401.9l608.9,311.7l-1.3,2L68.2,403.9L69.5,401.9z"/>
				<path class="st5" d="M79,396.9l608.9,311.7l-1.3,2L77.7,399L79,396.9z"/>
				<path class="st5" d="M88.5,392l608.9,311.7l-1.3,2L87.2,394L88.5,392z"/>
				<path class="st5" d="M98.1,387.1L707,698.7l-1.3,2L96.8,389.1L98.1,387.1z"/>
				<path class="st5" d="M107.7,382.1l608.9,311.7l-1.3,2L106.4,384.1L107.7,382.1z"/>
				<path class="st5" d="M117.3,377.2l608.9,311.7l-1.3,2L116,379.2L117.3,377.2z"/>
				<path class="st5" d="M126.8,372.3l608.9,311.7l-1.3,2L125.5,374.3L126.8,372.3z"/>
				<path class="st5" d="M136.3,367.3L745.2,679l-1.3,2L135,369.3L136.3,367.3z"/>
				<path class="st5" d="M145.9,362.4l608.9,311.7l-1.3,2L144.6,364.4L145.9,362.4z"/>
				<path class="st5" d="M155.5,357.4l608.9,311.7l-1.3,2L154.2,359.5L155.5,357.4z"/>
				<path class="st5" d="M165,352.5l608.9,311.7l-1.3,2L163.7,354.5L165,352.5z"/>
				<path class="st5" d="M174.6,347.6l608.9,311.7l-1.3,2L173.3,349.6L174.6,347.6z"/>
				<path class="st5" d="M184.1,342.6L793,654.3l-1.3,2L182.8,344.7L184.1,342.6z"/>
				<path class="st5" d="M193.7,337.7l608.9,311.7l-1.3,2L192.4,339.7L193.7,337.7z"/>
				<path class="st5" d="M203.3,332.8l608.9,311.7l-1.3,2L202,334.8L203.3,332.8z"/>
				<path class="st5" d="M212.8,327.8l608.9,311.7l-1.3,2L211.5,329.9L212.8,327.8z"/>
				<path class="st5" d="M222.3,322.9l608.9,311.7l-1.3,2L221,324.9L222.3,322.9z"/>
				<path class="st5" d="M231.9,318l608.9,311.7l-1.3,2L230.6,320L231.9,318z"/>
				<path class="st5" d="M241.5,313l608.9,311.7l-1.3,2L240.2,315.1L241.5,313z"/>
				<path class="st5" d="M251,308.1l608.9,311.7l-1.3,2L249.7,310.1L251,308.1z"/>
				<path class="st5" d="M260.6,303.2l608.9,311.7l-1.3,2L259.3,305.2L260.6,303.2z"/>
				<path class="st5" d="M270.1,298.2L879,609.9l-1.3,2L268.8,300.2L270.1,298.2z"/>
				<path class="st5" d="M279.7,293.3l608.9,311.7l-1.3,2L278.4,295.3L279.7,293.3z"/>
				<path class="st5" d="M289.3,288.4L898.2,600l-1.3,2L288,290.4L289.3,288.4z"/>
				<path class="st5" d="M298.8,283.4l608.9,311.7l-1.3,2L297.5,285.4L298.8,283.4z"/>
				<path class="st5" d="M308.4,278.5l608.9,311.7l-1.3,2L307.1,280.5L308.4,278.5z"/>
				<path class="st5" d="M317.9,273.5l608.9,311.7l-1.3,2L316.6,275.6L317.9,273.5z"/>
				<path class="st5" d="M327.5,268.6l608.9,311.7l-1.3,2L326.2,270.6L327.5,268.6z"/>
				<path class="st5" d="M337.1,263.7L946,575.3l-1.3,2L335.8,265.7L337.1,263.7z"/>
				<path class="st5" d="M346.6,258.7l608.9,311.7l-1.3,2L345.3,260.8L346.6,258.7z"/>
				<path class="st5" d="M356.1,253.8L965,565.4l-1.3,2L354.8,255.8L356.1,253.8z"/>
				<path class="st5" d="M365.7,248.9l608.9,311.7l-1.3,2L364.4,250.9L365.7,248.9z"/>
				<path class="st5" d="M375.3,243.9l608.9,311.7l-1.3,2L374,246L375.3,243.9z"/>
				<path class="st5" d="M384.8,239l608.9,311.7l-1.3,2L383.5,241L384.8,239z"/>
				<path class="st5" d="M394.4,234.1l608.9,311.7l-1.3,2L393.1,236.1L394.4,234.1z"/>
				<path class="st5" d="M403.9,229.1l608.9,311.7l-1.3,2L402.6,231.2L403.9,229.1z"/>
				<path class="st5" d="M413.5,224.2l608.9,311.7l-1.3,2L412.2,226.2L413.5,224.2z"/>
				<path class="st5" d="M423.1,219.3L1032,530.9l-1.3,2L421.8,221.3L423.1,219.3z"/>
				<path class="st5" d="M432.6,214.3L1041.5,526l-1.3,2L431.3,216.3L432.6,214.3z"/>
				<path class="st5" d="M442.1,209.4L1051,521l-1.3,2L440.8,211.4L442.1,209.4z"/>
				<path class="st5" d="M451.8,204.5l608.9,311.7l-1.3,2L450.5,206.5L451.8,204.5z"/>
				<path class="st5" d="M461.3,199.5l608.9,311.7l-1.3,2L460,201.5L461.3,199.5z"/>
				<path class="st5" d="M470.8,194.6l608.9,311.7l-1.3,2L469.5,196.6L470.8,194.6z"/>
				<path class="st5" d="M480.4,189.6l608.9,311.7l-1.3,2L479.1,191.7L480.4,189.6z"/>
				<path class="st5" d="M489.9,184.7l608.9,311.7l-1.3,2L488.6,186.7L489.9,184.7z"/>
				<path class="st5" d="M499.6,179.8l608.9,311.7l-1.3,2L498.3,181.8L499.6,179.8z"/>
				<path class="st5" d="M509.1,174.8L1118,486.5l-1.3,2L507.8,176.9L509.1,174.8z"/>
				<path class="st5" d="M518.6,169.9l608.9,311.7l-1.3,2L517.3,171.9L518.6,169.9z"/>
				<path class="st5" d="M528.2,165l608.9,311.7l-1.3,2L526.9,167L528.2,165z"/>
				<path class="st5" d="M537.8,160l608.9,311.7l-1.3,2L536.5,162.1L537.8,160z"/>
				<path class="st5" d="M547.3,155.1l608.9,311.7l-1.3,2L546,157.1L547.3,155.1z"/>
				<path class="st5" d="M556.9,150.2l608.9,311.7l-1.3,2L555.6,152.2L556.9,150.2z"/>
				<path class="st5" d="M566.4,145.2l608.9,311.7l-1.3,2L565.1,147.3L566.4,145.2z"/>
				<path class="st5" d="M575.9,140.3l608.9,311.7l-1.3,2L574.6,142.3L575.9,140.3z"/>
				<path class="st5" d="M585.6,135.4L1194.4,447l-1.3,2L584.3,137.4L585.6,135.4z"/>
				<path class="st5" d="M595.1,130.4L1204,442.1l-1.3,2L593.8,132.4L595.1,130.4z"/>
				<path class="st5" d="M604.6,125.5l608.9,311.7l-1.3,2L603.3,127.5L604.6,125.5z"/>
				<path class="st5" d="M614.2,120.6l608.9,311.7l-1.3,2L612.9,122.6L614.2,120.6z"/>
				<path class="st5" d="M623.8,115.6l608.9,311.7l-1.3,2L622.5,117.6L623.8,115.6z"/>
				<path class="st5" d="M633.3,110.7l608.9,311.7l-1.3,2L632,112.7L633.3,110.7z"/>
				<path class="st5" d="M642.9,105.7l608.9,311.7l-1.3,2L641.6,107.8L642.9,105.7z"/>
				<path class="st5" d="M652.4,100.8l608.9,311.7l-1.3,2L651.1,102.8L652.4,100.8z"/>
				<path class="st5" d="M661.9,95.8l608.9,311.7l-1.3,2L660.6,97.9L661.9,95.8z"/>
				<path class="st5" d="M671.6,90.9l608.9,311.7l-1.3,2L670.3,93L671.6,90.9z"/>
				<path class="st5" d="M681.1,86L1290,397.6l-1.3,2L679.8,88L681.1,86z"/>
				<path class="st5" d="M690.7,81.1l608.9,311.7l-1.3,2L689.4,83.1L690.7,81.1z"/>
				<path class="st5" d="M700.2,76.1l608.9,311.7l-1.3,2L698.9,78.2L700.2,76.1z"/>
				<path class="st5" d="M709.8,71.2l608.9,311.7l-1.3,2L708.5,73.2L709.8,71.2z"/>
				<path class="st5" d="M719.4,66.1L1328.1,378l-1.3,2L718.1,68.1L719.4,66.1z"/>
				<path class="st5" d="M728.9,61.2l608.7,311.9l-1.3,2L727.6,63.2L728.9,61.2z"/>
				<path class="st5" d="M738.4,56.2l608.7,311.9l-1.3,2L737.1,58.2L738.4,56.2z"/>
				<path class="st5" d="M748.1,51.3l608.7,311.9l-1.3,2L746.8,53.3L748.1,51.3z"/>
				<path class="st5" d="M757.6,46.4l608.7,311.9l-1.3,2L756.3,48.4L757.6,46.4z"/>
				<path class="st5" d="M767.1,41.4l608.7,311.9l-1.3,2L765.8,43.4L767.1,41.4z"/>
				<path class="st5" d="M776.7,36.5l608.7,311.9l-1.3,2L775.4,38.5L776.7,36.5z"/>
				<path class="st5" d="M786.2,31.5L1395,343.5l-1.3,2L784.9,33.6L786.2,31.5z"/>
				<path class="st5" d="M795.8,26.6l608.7,311.9l-1.3,2L794.5,28.6L795.8,26.6z"/>
				<path class="st5" d="M805.4,21.7l608.7,311.9l-1.3,2L804.1,23.7L805.4,21.7z"/>
				<path class="st5" d="M814.9,16.7l608.7,311.9l-1.3,2L813.6,18.8L814.9,16.7z"/>
				<path class="st5" d="M824.4,11.8l608.7,311.9l-1.3,2L823.1,13.8L824.4,11.8z"/>
				<path class="st5" d="M834.1,6.9l608.7,311.9l-1.3,2L832.8,8.9L834.1,6.9z"/>
				<path class="st5" d="M843.6,1.9l608.7,311.9l-1.3,2L842.3,4L843.6,1.9z"/>
				<path class="st5" d="M853.1-3l608.7,311.9l-1.3,2L851.8-1L853.1-3z"/>
				<path class="st5" d="M862.7-7.9L1471.5,304l-1.3,2L861.4-5.9L862.7-7.9z"/>
				<path class="st5" d="M872.3-12.9L1481,299.1l-1.3,2L871-10.8L872.3-12.9z"/>
				<path class="st5" d="M881.9-17.8l608.7,311.9l-1.3,2L880.6-15.8L881.9-17.8z"/>
				<path class="st5" d="M891.4-22.7l608.7,311.9l-1.3,2L890.1-20.7L891.4-22.7z"/>
				<path class="st5" d="M900.9-27.7l608.7,311.9l-1.3,2L899.6-25.7L900.9-27.7z"/>
				<path class="st5" d="M910.5-32.6l608.7,311.9l-1.3,2L909.2-30.6L910.5-32.6z"/>
				<path class="st5" d="M920.1-37.5l608.7,311.9l-1.3,2L918.8-35.5L920.1-37.5z"/>
				<path class="st5" d="M929.6-42.5l608.7,311.9l-1.3,2L928.3-40.5L929.6-42.5z"/>
				<path class="st5" d="M939.2-47.4l608.7,311.9l-1.3,2L937.9-45.4L939.2-47.4z"/>
				<path class="st5" d="M948.7-52.4l608.7,311.9l-1.3,2L947.4-50.3L948.7-52.4z"/>
				<path class="st5" d="M958.3-57.3L1567,254.6l-1.3,2L957-55.3L958.3-57.3z"/>
				<path class="st5" d="M967.9-62.2l608.7,311.9l-1.3,2L966.6-60.2L967.9-62.2z"/>
				<path class="st5" d="M977.4-67.2l608.7,311.9l-1.3,2L976.1-65.1L977.4-67.2z"/>
				<path class="st5" d="M986.9-72.1l608.7,311.9l-1.3,2L985.6-70.1L986.9-72.1z"/>
				<path class="st5" d="M996.5-77l608.7,311.9l-1.3,2L995.2-75L996.5-77z"/>
				<path class="st5" d="M1006.1-82L1614.8,230l-1.3,2L1004.8-79.9L1006.1-82z"/>
				<path class="st5" d="M1015.6-86.9L1624.3,225l-1.3,2L1014.3-84.9L1015.6-86.9z"/>
				<path class="st5" d="M1025.2-91.8L1634,220.1l-1.3,2L1023.9-89.8L1025.2-91.8z"/>
				<path class="st5" d="M1034.7-96.8l608.7,311.9l-1.3,2L1033.4-94.7L1034.7-96.8z"/>
				<path class="st5" d="M1044.3-101.7L1653,210.2l-1.3,2L1043-99.7L1044.3-101.7z"/>
				<path class="st5" d="M1053.9-106.6l608.7,311.9l-1.3,2l-608.7-311.9L1053.9-106.6z"/>
				<path class="st5" d="M1063.4-111.6l608.8,311.9l-1.3,2l-608.8-311.9L1063.4-111.6z"/>
				<path class="st5" d="M1073-116.5l608.8,311.9l-1.3,2l-608.7-311.9L1073-116.5z"/>
				<path class="st5" d="M1082.6-121.4l608.7,311.9l-1.3,2l-608.7-311.9L1082.6-121.4z"/>
				<path class="st5" d="M1092.1-126.4l608.8,311.9l-1.3,2l-608.7-311.9L1092.1-126.4z"/>
				<path class="st5" d="M1101.7-131.3l608.7,311.9l-1.3,2l-608.7-311.9L1101.7-131.3z"/>
				<path class="st5" d="M1111.2-136.2L1720,175.7l-1.3,2l-608.7-311.9L1111.2-136.2z"/>
				<path class="st5" d="M1120.8-141.2l608.7,311.9l-1.3,2l-608.8-311.9L1120.8-141.2z"/>
				<path class="st5" d="M1130.4-146.1l608.7,311.9l-1.3,2l-608.7-311.9L1130.4-146.1z"/>
				<path class="st5" d="M1139.9-151.1l608.7,311.9l-1.3,2L1138.6-149L1139.9-151.1z"/>
				<path class="st5" d="M1149.4-156l608.8,311.9l-1.3,2L1148.1-154L1149.4-156z"/>
				<path class="st5" d="M1159-160.9L1767.8,151l-1.3,2l-608.7-311.9L1159-160.9z"/>
				<path class="st5" d="M1168.6-165.9l608.7,311.9l-1.3,2l-608.7-311.9L1168.6-165.9z"/>
				<path class="st5" d="M1178.1-170.8l608.7,311.9l-1.3,2l-608.7-311.9L1178.1-170.8z"/>
				<path class="st5" d="M1187.7-175.7l608.7,311.9l-1.3,2l-608.7-311.9L1187.7-175.7z"/>
				<path class="st5" d="M1197.2-180.7L1806,131.3l-1.3,2l-608.8-311.9L1197.2-180.7z"/>
				<path class="st5" d="M1206.8-185.6l608.7,311.9l-1.3,2l-608.7-311.9L1206.8-185.6z"/>
				<path class="st5" d="M1216.4-190.5l608.7,311.9l-1.3,2l-608.8-311.9L1216.4-190.5z"/>
				<path class="st5" d="M1225.9-195.5l608.7,311.9l-1.3,2l-608.7-311.9L1225.9-195.5z"/>
				<path class="st5" d="M1235.4-200.4l608.7,311.9l-1.3,2l-608.8-311.9L1235.4-200.4z"/>
				<path class="st5" d="M1245-205.3l608.8,311.9l-1.3,2l-608.8-311.9L1245-205.3z"/>
				<path class="st5" d="M1254.6-210.3l608.7,311.9l-1.3,2l-608.8-311.9L1254.6-210.3z"/>
				<path class="st5" d="M1264.2-215.2l608.8,311.9l-1.3,2l-608.8-311.9L1264.2-215.2z"/>
				<path class="st5" d="M1273.7-220.1l608.8,311.9l-1.3,2l-608.7-311.9L1273.7-220.1z"/>
				<path class="st5" d="M1283.2-225.1L1892,86.8l-1.3,2l-608.7-311.9L1283.2-225.1z"/>
				<path class="st5" d="M1292.8-230l608.7,311.9l-1.3,2L1291.5-228L1292.8-230z"/>
				<path class="st5" d="M1302.4-234.9L1911.1,77l-1.3,2l-608.7-311.9L1302.4-234.9z"/>
				<path class="st5" d="M1311.9-239.9L1920.6,72l-1.3,2l-608.7-311.9L1311.9-239.9z"/>
				<path class="st5" d="M1321.5-244.8l608.8,311.9l-1.3,2l-608.8-311.9L1321.5-244.8z"/>
				<path class="st5" d="M1331-249.8l608.8,311.9l-1.3,2l-608.7-311.9L1331-249.8z"/>
				<path class="st5" d="M1340.6-254.7l608.7,311.9l-1.3,2l-608.7-311.9L1340.6-254.7z"/>
				<path class="st5" d="M1350.2-259.6l608.8,311.9l-1.3,2l-608.7-311.9L1350.2-259.6z"/>
				<path class="st5" d="M1359.7-264.6l608.7,311.9l-1.3,2l-608.7-311.9L1359.7-264.6z"/>
				<path class="st5" d="M1369.2-269.5L1978,42.4l-1.3,2l-608.7-311.9L1369.2-269.5z"/>
				<path class="st5" d="M1378.8-274.4l608.7,311.9l-1.3,2l-608.7-311.9L1378.8-274.4z"/>
				<path class="st5" d="M1388.4-279.4l608.7,311.9l-1.3,2l-608.7-311.9L1388.4-279.4z"/>
				<path class="st5" d="M1397.9-284.3l608.7,311.9l-1.3,2l-608.8-311.9L1397.9-284.3z"/>
				<path class="st5" d="M1407.5-289.2l608.7,311.9l-1.3,2l-608.7-311.9L1407.5-289.2z"/>
				<path class="st5" d="M1417.1-294.2l608.7,311.9l-1.3,2l-608.8-311.9L1417.1-294.2z"/>
				<path class="st5" d="M1426.6-299.1l608.7,311.9l-1.3,2l-608.7-311.9L1426.6-299.1z"/>
				<path class="st5" d="M1436.2-304L2044.9,7.9l-1.3,2L1434.9-302L1436.2-304z"/>
				<path class="st5" d="M1445.7-309L2054.5,3l-1.3,2L1444.4-307L1445.7-309z"/>
				<path class="st5" d="M1455.3-313.9L2064.1-2l-1.3,2L1454-311.9L1455.3-313.9z"/>
			</mask>
			<g class="st6">
				<path class="st7" d="M1166-167.1l136,69.8V42.2L1166,112l-136-69.8V-97.4L1166-167.1z"/>
			</g>
		</g>
		<defs>
			<filter id="Adobe_OpacityMaskFilter_00000145739967726202943660000004929959187899920537_" filterUnits="userSpaceOnUse">
				<feColorMatrix  type="matrix" values="1 0 0 0 0  0 1 0 0 0  0 0 1 0 0  0 0 0 1 0"/>
			</filter>
		</defs>
		<mask maskUnits="userSpaceOnUse" id="mask1_00000010994930934566024740000009448710485802771851_">
			<path style="fill:#5CC1C3;filter:url(#Adobe_OpacityMaskFilter_00000145739967726202943660000004929959187899920537_);" d="
				M1684-5H10v632h1674V-5z"/>
		</mask>
		<g class="st9">
		</g>
		<path class="st1" d="M388,394.5v23.1l20,11.5l20-11.5v-23.1L408,383L388,394.5z"/>
		<path class="st10" d="M279,486v103l100.5,51.2L480,588.9V486l-100.5-51.2L279,486z"/>
		<path class="st11" d="M1406,321.2L1406,321.2l0.1,0V321l-63.5-35.3l-0.3-0.1l0.2-0.2l96.8-60.6c2.4-1.6,3.9-4.2,3.9-7.1
			l-0.1-341.7h-0.3l0.1,341.7c0,2.8-1.5,5.3-3.8,6.9v0l-97,60.8l-0.3,0.2l0.4,0.2L1406,321.2z M1439.2-124l0.1,341.7
			c0,1.6-0.7,3.1-2.1,3.9v0l-100.3,62.9v0c-0.9,0.6-0.8,2,0.1,2.5l0,0l67.1,37.3c0.7,0.3,1.3,0.5,2,0.5c0.7,0,1.5-0.3,2.2-0.7
			l100.6-62.6c1.1-0.8,1.9-2.1,1.9-3.5l-0.1-382h0.3l0.1,382c0,1.5-0.8,2.9-2,3.7l-100.6,62.6c-0.7,0.4-1.5,0.7-2.3,0.7
			c-0.7,0-1.4-0.2-2.1-0.5l-67.1-37.3c-1.1-0.6-1.2-2.2-0.1-2.9l100.3-62.9c1.3-0.8,2-2.2,2-3.7L1439-124H1439.2z M1507.2-124
			l0.1,381.9c0,0.1-0.1,0.2-0.1,0.3c0,0.1-0.1,0.1-0.1,0.2l0,0l0,0l0,0l-100.6,62.7c-0.1,0.1-0.2,0.1-0.2,0.1c0,0-0.1,0-0.1,0
			c0,0,0,0,0,0l0,0h0l0,0l0,0l0,0l0,0c0,0,0,0,0-0.3c0,0,0.1,0,0.2-0.1l100.6-62.7c0.1-0.1,0.2-0.2,0.2-0.3L1507-124H1507.2z"/>
		<path class="st12" d="M1406,321.3v0.5h-0.1l-0.1-0.1L1406,321.3z M1406,321.2l0.2-0.4l0,0L1406,321.2z M1406.1,321.3h0.5v0.5h-0.5
			V321.3z M1342.5,285.7l-0.3,0.4l0,0L1342.5,285.7z M1342.3,285.6l-0.3,0.4l-0.7-0.4l0.7-0.5L1342.3,285.6z M1342.5,285.4l0.3,0.4
			l0,0L1342.5,285.4z M1439.3,224.8l0.3,0.4l0,0L1439.3,224.8z M1443.2,217.7h0.5l0,0H1443.2z M1443.1-124v-0.5h0.5v0.5H1443.1z
			 M1442.8-124h-0.5v-0.5h0.5V-124z M1442.9,217.7h0.5l0,0H1442.9z M1439.1,224.6l0.3,0.4l0,0L1439.1,224.6z M1439.1,224.6l0.3,0.4
			l0,0L1439.1,224.6z M1342.1,285.4l-0.3-0.4l0,0L1342.1,285.4z M1341.8,285.6l-0.3,0.4l-0.7-0.4l0.7-0.5L1341.8,285.6z
			 M1342.2,285.8l-0.3,0.4l0,0L1342.2,285.8z M1439.2-124v-0.5h0.5v0.5H1439.2z M1439.3,217.7h0.5l0,0H1439.3z M1437.2,221.6
			l0.3,0.4v0L1437.2,221.6z M1437.2,221.6l-0.3-0.4l0,0L1437.2,221.6z M1336.9,284.5l-0.3-0.4l0,0L1336.9,284.5z M1336.9,284.5
			l0.3,0.4v0L1336.9,284.5z M1337,287l0.2-0.4l0,0L1337,287z M1337,287l0.2-0.4v0L1337,287z M1404.1,324.3l-0.2,0.5l0,0l0,0
			L1404.1,324.3z M1408.3,324.1l0.3,0.4l0,0v0L1408.3,324.1z M1508.8,261.5l0.3,0.4l0,0v0L1508.8,261.5z M1510.7,258h0.5l0,0H1510.7
			z M1510.6-124h-0.5v-0.5h0.5V-124z M1510.9-124v-0.5h0.5v0.5H1510.9z M1511,258h0.5l0,0H1511z M1509,261.7l0.3,0.4v0l0,0
			L1509,261.7z M1408.4,324.3l0.3,0.4l0,0l0,0L1408.4,324.3z M1404,324.5l-0.2,0.5l0,0l0,0L1404,324.5z M1336.9,287.2l0.2-0.4v0
			L1336.9,287.2z M1336.8,284.3l-0.3-0.4v0L1336.8,284.3z M1437.1,221.4l-0.3-0.4v0L1437.1,221.4z M1439.1,217.7h0.5l0,0H1439.1z
			 M1439-124h-0.5v-0.5h0.5V-124z M1507.2-124v-0.5h0.5v0.5H1507.2z M1507.3,257.9h0.5l0,0H1507.3z M1507.2,258.2l0.4,0.3l0,0
			L1507.2,258.2z M1507.1,258.4l-0.4-0.4l0,0L1507.1,258.4z M1507,258.4l0.4,0.4l0,0l0,0L1507,258.4z M1507,258.4l-0.3-0.4l0,0
			L1507,258.4z M1406.4,321.1l-0.3-0.4l0,0l0,0L1406.4,321.1z M1406.2,321.2l0.2,0.5l0,0L1406.2,321.2z M1406.1,321.2l0.1,0.5l0,0
			L1406.1,321.2z M1406.1,321.2l0,0.5l0,0L1406.1,321.2z M1406.1,321.3l0,0.5l0,0L1406.1,321.3z M1406.1,321.3l0,0.5l0,0
			L1406.1,321.3z M1406.1,321.3v0.5l0,0V321.3z M1406.1,321.3v0.5l0,0V321.3z M1406.1,321.3v0.5l0,0V321.3z M1406.1,321.3v-0.5l0,0
			V321.3z M1406.3,320.9l-0.4-0.4l0,0l0.1,0L1406.3,320.9z M1506.9,258.2l0.3,0.4l0,0l0,0L1506.9,258.2z M1507.1,257.9h0.5l0,0
			H1507.1z M1507-124h-0.5v-0.5h0.5V-124z M1405.8,321.7L1405.8,321.7l0.4-0.9l0.1,0L1405.8,321.7z M1406.1,321.8L1406.1,321.8
			l-0.1-1h0.1V321.8z M1406.6,321v0.3h-1V321H1406.6z M1342.8,285.3l63.5,35.3l-0.5,0.9l-63.5-35.3L1342.8,285.3z M1342.5,285.2
			l0.3,0.1l-0.5,0.9l-0.3-0.1L1342.5,285.2z M1342.8,285.9l-0.2,0.2l-0.5-0.8l0.2-0.2L1342.8,285.9z M1439.5,225.2l-96.8,60.6
			l-0.5-0.8l96.8-60.6L1439.5,225.2z M1443.7,217.7c0,3.1-1.6,5.8-4.1,7.5l-0.6-0.8c2.3-1.5,3.7-4,3.7-6.7H1443.7z M1443.6-124
			l0.1,341.7h-1l-0.1-341.7H1443.6z M1442.8-124.5h0.3v1h-0.3V-124.5z M1442.4,217.7l-0.1-341.7h1l0.1,341.7H1442.4z M1438.9,224.2
			c2.2-1.5,3.6-3.8,3.6-6.5h1c0,3-1.6,5.7-4,7.3L1438.9,224.2z M1438.9,224.2L1438.9,224.2l0.6,0.8v0L1438.9,224.2z M1341.9,285
			l97-60.8l0.5,0.8l-97,60.8L1341.9,285z M1341.5,285.2l0.4-0.2l0.5,0.8l-0.4,0.2L1341.5,285.2z M1341.9,286.3l-0.4-0.2l0.5-0.9
			l0.4,0.2L1341.9,286.3z M1405.7,321.7l-63.8-35.4l0.5-0.9l63.8,35.4L1405.7,321.7z M1439.7-124l0.1,341.7h-1l-0.1-341.7H1439.7z
			 M1439.8,217.7c0,1.7-0.8,3.4-2.4,4.3l-0.5-0.9c1.2-0.8,1.9-2.1,1.9-3.5H1439.8z M1437.5,222L1437.5,222l-0.5-0.9v0L1437.5,222z
			 M1437.5,222l-100.3,62.9l-0.5-0.8l100.3-62.9L1437.5,222z M1337.2,284.9L1337.2,284.9l-0.5-0.8v0L1337.2,284.9z M1337.2,284.9
			c-0.6,0.4-0.6,1.3,0.1,1.6l-0.5,0.9c-1.3-0.7-1.4-2.5-0.1-3.3L1337.2,284.9z M1337.2,286.5L1337.2,286.5l-0.5,0.9v0L1337.2,286.5z
			 M1337.2,286.5l67.1,37.3l-0.5,0.9l-67.1-37.3L1337.2,286.5z M1404.3,323.8c0.7,0.3,1.2,0.4,1.8,0.4v1c-0.8,0-1.5-0.2-2.2-0.5
			L1404.3,323.8z M1406.1,324.3c0.6,0,1.3-0.2,1.9-0.6l0.5,0.9c-0.7,0.4-1.6,0.7-2.4,0.7V324.3z M1408,323.7l100.6-62.6l0.5,0.8
			l-100.6,62.6L1408,323.7z M1508.6,261.1c1-0.7,1.7-1.8,1.7-3.1h1c0,1.6-0.8,3.1-2.1,3.9L1508.6,261.1z M1510.2,258l-0.1-382h1
			l0.1,382H1510.2z M1510.6-124.5h0.3v1h-0.3V-124.5z M1510.5,258l-0.1-382h1l0.1,382H1510.5z M1508.7,261.3c1.1-0.7,1.8-2,1.8-3.3
			h1c0,1.7-0.9,3.2-2.2,4.1L1508.7,261.3z M1408.1,323.9l100.6-62.6l0.5,0.9l-100.6,62.6L1408.1,323.9z M1406.1,324.5
			c0.7,0,1.4-0.3,2.1-0.6l0.5,0.9c-0.7,0.4-1.6,0.8-2.5,0.8V324.5z M1404.2,324c0.7,0.3,1.3,0.5,1.9,0.5v1c-0.8,0-1.6-0.2-2.3-0.5
			L1404.2,324z M1337.1,286.8l67.1,37.3l-0.5,0.9l-67.1-37.3L1337.1,286.8z M1337.1,284.7c-0.8,0.5-0.7,1.6,0.1,2l-0.5,0.9
			c-1.4-0.8-1.6-2.8-0.1-3.8L1337.1,284.7z M1437.3,221.8L1337,284.7l-0.5-0.8l100.3-62.9L1437.3,221.8z M1439.6,217.7
			c0,1.7-0.8,3.2-2.2,4.1l-0.5-0.9c1.1-0.7,1.8-1.9,1.8-3.3H1439.6z M1439.5-124l0.1,341.7h-1l-0.1-341.7H1439.5z M1439-124.5h0.3v1
			h-0.3V-124.5z M1507.7-124l0.1,381.9h-1l-0.1-381.9H1507.7z M1507.8,257.9c0,0.3-0.1,0.5-0.2,0.6l-0.8-0.6c0,0,0,0,0,0
			c0,0,0,0,0,0c0,0,0,0,0,0H1507.8z M1507.6,258.5c-0.1,0.1-0.2,0.2-0.2,0.2l-0.7-0.7c0,0,0,0,0.1-0.1c0,0,0,0,0-0.1L1507.6,258.5z
			 M1507.4,258.7L1507.4,258.7l-0.7-0.7l0,0L1507.4,258.7z M1507.4,258.7L1507.4,258.7l-0.7-0.7l0,0L1507.4,258.7z M1507.3,258.8
			L1507.3,258.8l-0.6-0.8l0,0L1507.3,258.8z M1507.3,258.8l-100.6,62.7l-0.5-0.8l100.6-62.7L1507.3,258.8z M1406.8,321.5
			c-0.1,0.1-0.3,0.2-0.4,0.2l-0.3-0.9c0,0,0,0,0,0L1406.8,321.5z M1406.4,321.7c-0.1,0-0.1,0-0.2,0l-0.1-1c0,0,0,0,0,0L1406.4,321.7
			z M1406.2,321.7C1406.2,321.7,1406.2,321.7,1406.2,321.7l-0.1-1c0,0,0,0,0,0L1406.2,321.7z M1406.1,321.7L1406.1,321.7l-0.1-1h0
			L1406.1,321.7z M1406.1,321.8L1406.1,321.8l0-1l0,0L1406.1,321.8z M1406.1,321.8L1406.1,321.8l0-1l0,0L1406.1,321.8z
			 M1406.1,321.8L1406.1,321.8l0-1h0V321.8z M1406.1,321.8L1406.1,321.8v-1l0,0V321.8z M1406.1,321.8L1406.1,321.8v-1l0,0V321.8z
			 M1406.1,321.8C1406.1,321.8,1406.1,321.8,1406.1,321.8C1406.1,321.8,1406.1,321.8,1406.1,321.8
			C1406.1,321.7,1406,321.7,1406.1,321.8c-0.1,0-0.2,0-0.2-0.1c-0.1-0.1-0.2-0.2-0.2-0.2c0-0.1,0-0.1,0-0.1c0,0,0,0,0,0c0,0,0,0,0,0
			c0,0,0,0,0,0c0,0,0,0,0,0c0,0,0,0,0,0c0,0,0-0.1,0-0.2h1c0,0.1,0,0.2,0,0.2c0,0,0,0,0,0c0,0,0,0,0,0c0,0,0,0,0,0c0,0,0,0,0,0
			c0,0,0,0,0,0c0,0,0-0.1,0-0.1c0-0.1-0.1-0.2-0.2-0.2c-0.1,0-0.1,0-0.2,0c0,0,0,0-0.1,0h0l0,0V321.8z M1406.1,321
			c0-0.5,0-0.5,0-0.5l0,0c0,0,0,0,0,0l0,0l0,0h0l0,0c0,0,0,0,0,0c0,0,0,0,0,0c0,0,0,0-0.1,0l0.7,0.7c-0.1,0.1-0.2,0.2-0.3,0.2
			c-0.1,0-0.1,0-0.1,0c0,0,0,0-0.1,0c0,0,0,0,0,0c0,0,0,0,0,0l0,0l0,0l0,0l0,0C1406.1,321.5,1406.1,321.5,1406.1,321z M1406,320.5
			l100.6-62.7l0.5,0.8l-100.6,62.7L1406,320.5z M1506.5,257.8C1506.6,257.8,1506.6,257.8,1506.5,257.8
			C1506.6,257.8,1506.6,257.8,1506.5,257.8C1506.6,257.7,1506.6,257.8,1506.5,257.8C1506.6,257.8,1506.6,257.8,1506.5,257.8l1.1,0.1
			c0,0.2-0.1,0.4-0.2,0.5c-0.1,0.1-0.1,0.2-0.2,0.2L1506.5,257.8z M1506.6,257.9l-0.1-381.9h1l0.1,381.9H1506.6z M1507-124.5h0.3v1
			h-0.3V-124.5z"/>
		<path class="st13" d="M1434.8,327.4l-38.3,22.3v44.9l38.3-22.3V327.4z M1438,322v51c0,0.7-0.4,1.4-1.1,1.8l-40.9,23.9
			c0,0-1.5,1-2.6,1v-2.5v-49.2L1438,322z"/>
		<path class="st14" d="M1435.1,372.5v-45.9l-40.1,23.2l1,45.5L1435.1,372.5z"/>
		<path class="st15" d="M1393.5,399.5c-1.2,0-2.6-1-2.6-1l-40.9-23.9c-0.7-0.4-1.1-1.1-1.1-1.8v-51l44.5-3.7V397V399.5z"/>
		<path class="st16" d="M1394.2,296.2l43.4,25.1c0.4,0.2,0.4,0.9,0,1.2l-44.2,25.4l-44.2-25.5c-0.4-0.2-0.4-0.9,0-1.2l43.4-25.1
			C1393.3,296,1393.8,296,1394.2,296.2z"/>
	</g>
</g>
</svg>
