<svg width="60" height="60" viewBox="0 0 60 60" fill="none" xmlns="http://www.w3.org/2000/svg">
<path d="M30 0L55.9808 15V45L30 60L4.01924 45V15L30 0Z" fill="#61BFCE"/>
<path d="M30.378 19C32.078 19 33.472 19.3513 34.56 20.054C35.648 20.7567 36.192 21.7087 36.192 22.91C36.192 24.202 35.5687 25.358 34.322 26.378C33.0753 27.398 31.398 28.112 29.29 28.52C31.67 28.4293 33.6193 28.8487 35.138 29.778C36.6567 30.6847 37.416 31.988 37.416 33.688C37.416 35.3427 36.702 36.816 35.274 38.108C33.846 39.4227 32.01 40.4313 29.766 41.134C27.5447 41.8367 25.2893 42.188 23 42.188V41.508C24.496 41.4627 25.958 41.1227 27.386 40.488C28.8367 39.876 30.0267 38.992 30.956 37.836C31.8853 36.68 32.35 35.3087 32.35 33.722C32.35 32.3847 32.0213 31.2853 31.364 30.424C30.7293 29.5627 29.868 29.0867 28.78 28.996C28.4627 29.1547 28.1453 29.2907 27.828 29.404C27.5333 29.4947 27.2727 29.54 27.046 29.54C26.6153 29.54 26.4 29.3813 26.4 29.064C26.4 28.8147 26.502 28.6333 26.706 28.52C26.91 28.384 27.1707 28.316 27.488 28.316C27.624 28.316 27.8053 28.3387 28.032 28.384C28.2813 28.4067 28.4967 28.4293 28.678 28.452C30.4233 27.228 31.296 25.7093 31.296 23.896C31.296 22.876 31.0353 22.128 30.514 21.652C29.9927 21.1533 29.2447 20.904 28.27 20.904C27.3633 20.904 26.5247 21.1307 25.754 21.584C25.006 22.0373 24.3713 22.6947 23.85 23.556L23.238 23.25C23.9407 21.958 24.8473 20.9267 25.958 20.156C27.0913 19.3853 28.5647 19 30.378 19Z" fill="white"/>
</svg>
