<svg width="60" height="60" viewBox="0 0 60 60" fill="none" xmlns="http://www.w3.org/2000/svg">
<path d="M30 0L55.9808 15V45L30 60L4.01924 45V15L30 0Z" fill="#61BFCE"/>
<path d="M30.956 21C32.7013 21 34.084 21.3853 35.104 22.156C36.124 22.904 36.634 23.958 36.634 25.318C36.634 26.2473 36.362 27.1087 35.818 27.902C35.2967 28.6953 34.6733 29.398 33.948 30.01C33.2227 30.622 32.2253 31.3813 30.956 32.288C29.324 33.4213 28.1793 34.328 27.522 35.008H34.866C35.478 35.008 35.9313 34.9627 36.226 34.872C36.5433 34.7813 36.7587 34.634 36.872 34.43C36.9853 34.226 37.076 33.9087 37.144 33.478H37.858C37.858 36.1527 37.9033 38.068 37.994 39.224C37.4953 39.1107 35.8067 39.054 32.928 39.054H23.034V38.408C23.3287 38.0907 23.9067 37.5467 24.768 36.776C26.0827 35.5747 27.1707 34.5093 28.032 33.58C28.916 32.628 29.6753 31.54 30.31 30.316C30.9673 29.0693 31.296 27.7773 31.296 26.44C31.296 25.2387 31.024 24.366 30.48 23.822C29.9587 23.2553 29.1767 22.972 28.134 22.972C27.182 22.972 26.332 23.1987 25.584 23.652C24.8587 24.0827 24.19 24.7287 23.578 25.59L23 25.25C24.6773 22.4167 27.3293 21 30.956 21Z" fill="white"/>
</svg>
