<svg width="52" height="60" viewBox="0 0 52 60" fill="none" xmlns="http://www.w3.org/2000/svg">
<path d="M25.9808 0L51.9615 15V45L25.9808 60L0 45V15L25.9808 0Z" fill="#61BFCE"/>
<path d="M29.228 35.654C29.228 36.6287 29.4093 37.3087 29.772 37.694C30.1347 38.0567 30.7693 38.238 31.676 38.238V38.952C29.228 38.8613 27.664 38.816 26.984 38.816C26.236 38.816 24.604 38.85 22.088 38.918L21.136 38.952V38.238C22.2013 38.238 22.9947 38.034 23.516 37.626C24.06 37.218 24.332 36.4927 24.332 35.45V27.154C24.332 26.066 24.23 25.2727 24.026 24.774C23.8447 24.2527 23.5273 23.9127 23.074 23.754C22.6207 23.5727 21.9293 23.482 21 23.482V22.734C22.972 22.6887 24.5927 22.5413 25.862 22.292C27.1313 22.02 28.2533 21.5893 29.228 21V35.654Z" fill="white"/>
</svg>
