<?xml version="1.0" encoding="utf-8"?>
<!-- Generator: Adobe Illustrator 25.4.1, SVG Export Plug-In . SVG Version: 6.00 Build 0)  -->
<!DOCTYPE svg PUBLIC "-//W3C//DTD SVG 1.1//EN" "http://www.w3.org/Graphics/SVG/1.1/DTD/svg11.dtd" [
	<!ENTITY ns_extend "http://ns.adobe.com/Extensibility/1.0/">
	<!ENTITY ns_ai "http://ns.adobe.com/AdobeIllustrator/10.0/">
	<!ENTITY ns_graphs "http://ns.adobe.com/Graphs/1.0/">
	<!ENTITY ns_vars "http://ns.adobe.com/Variables/1.0/">
	<!ENTITY ns_imrep "http://ns.adobe.com/ImageReplacement/1.0/">
	<!ENTITY ns_sfw "http://ns.adobe.com/SaveForWeb/1.0/">
	<!ENTITY ns_custom "http://ns.adobe.com/GenericCustomNamespace/1.0/">
	<!ENTITY ns_adobe_xpath "http://ns.adobe.com/XPath/1.0/">
]>
<svg version="1.1" id="Layer_1" xmlns:x="&ns_extend;" xmlns:i="&ns_ai;" xmlns:graph="&ns_graphs;"
	 xmlns="http://www.w3.org/2000/svg" xmlns:xlink="http://www.w3.org/1999/xlink" x="0px" y="0px" viewBox="0 0 23 16"
	 style="enable-background:new 0 0 23 16;" xml:space="preserve">
<style type="text/css">
	.st0{fill:#664FB7;}
</style>
<metadata>
	<sfw  xmlns="&ns_sfw;">
		<slices></slices>
		<sliceSourceBounds  bottomLeftOrigin="true" height="14.1" width="23" x="0" y="1"></sliceSourceBounds>
	</sfw>
</metadata>
<path class="st0" d="M22.7,7.3l-6.1-6.1c-0.4-0.4-1-0.4-1.4,0c-0.4,0.4-0.4,1,0,1.4L19.7,7H1C0.4,7,0,7.5,0,8c0,0.5,0.4,1,1,1h18.8
	l-4.5,4.5c-0.4,0.4-0.4,1,0,1.4c0.4,0.4,1,0.4,1.4,0l6.1-6.1C23.1,8.3,23.1,7.7,22.7,7.3z"/>
</svg>
