<svg width="16" height="16" viewBox="0 0 16 16" fill="none" xmlns="http://www.w3.org/2000/svg">
<path d="M8 0L14.9282 4V12L8 16L1.0718 12V4L8 0Z" fill="url(#paint0_linear)"/>
<g clip-path="url(#clip0)">
<path d="M7.24286 11.2483C7.14236 11.2483 7.04185 11.2098 6.96529 11.1332L4.56048 8.72837C4.40692 8.57488 4.40692 8.32671 4.56048 8.17322C4.71397 8.01973 4.96208 8.01973 5.11564 8.17322L7.24286 10.3004L11.775 5.76835C11.9285 5.61486 12.1766 5.61486 12.3302 5.76835C12.4837 5.92191 12.4837 6.17001 12.3302 6.32357L7.52051 11.1332C7.44395 11.2098 7.34337 11.2483 7.24286 11.2483Z" fill="white"/>
</g>
<defs>
<linearGradient id="paint0_linear" x1="2" y1="4.66667" x2="14.6667" y2="14.6667" gradientUnits="userSpaceOnUse">
<stop stop-color="#5F46B5"/>
<stop offset="1" stop-color="#AA92FF"/>
</linearGradient>
<clipPath id="clip0">
<rect width="8" height="8" fill="white" transform="translate(4.44531 4.44446)"/>
</clipPath>
</defs>
</svg>
