<?xml version="1.0" encoding="utf-8"?>
<!-- Generator: Adobe Illustrator 23.0.4, SVG Export Plug-In . SVG Version: 6.00 Build 0)  -->
<svg version="1.1" id="Layer_1" xmlns="http://www.w3.org/2000/svg" xmlns:xlink="http://www.w3.org/1999/xlink" x="0px" y="0px"
	 viewBox="0 0 1153.8 546.4" style="enable-background:new 0 0 1153.8 546.4;" xml:space="preserve">
<g>
	<g>
		<g>
			<path d="M236.6,0L0,136.6v273.2l236.6,136.6l236.6-136.6V136.6L236.6,0z M89.5,128.6l33.6,18.7l-49.5,30.4V407l-34.4-19.8
				L40,158.9L89.5,128.6z M111.6,199.2l49.5-30.8l33.9,18.8l-49.5,31v230.2l-33.9-19.6V199.2z M129.9,107L165,86.7l196.6,113.9v59.3
				l-33.9,19.6V220L129.9,107z M183.9,239.9l52.7-28.8l52.7,31.2v59.3L236.6,332l-52.7-30.3V239.9z M183.9,431.8l36.5,20.8l15.6,8.8
				l0.6,0.3l197.3-113.8v39.2L236.7,501l-0.1,0.1l-52.7-30.4V431.8z M236.6,377.4l197.3-113.9v39.1l-197.3,114l-52.7-30V347
				L236.6,377.4z M433.9,159.1v59L400,237.7v-59.1L203.5,64.5l33.1-19.1L433.9,159.1z"/>
		</g>
	</g>
	<g>
		<g>
			<path d="M539,355.6c-0.7,0-2.2-0.5-2.2-2.2l0.2-161.6c0-1.9,2.1-1.9,2.2-1.9L576,190c0.3,0,0.9,0.1,1.3,0.5
				c0.4,0.3,0.6,0.8,0.6,1.4l-0.2,129.7l62.9,0.1c0.6,0,1.1,0.2,1.4,0.6c0.4,0.4,0.5,1,0.5,1.3l0,30c0,0.1,0,2.2-1.9,2.2L539,355.6z
				"/>
		</g>
		<g>
			<path d="M759.4,355.9c-0.6,0-1.5-0.9-2-2.7l-5.8-19.7l-53.5-0.1l-5.8,19.6c-0.5,1.8-1.4,2.8-2,2.8l-36.8-0.1c0,0-1.6-0.1-1.9-1.5
				l49.1-161c0.4-1.4,1.2-3,2-3l45.2,0.1c0.9,0,1.6,1.6,2,3l48.1,161.2c-0.2,1.5-1.9,1.5-1.9,1.5L759.4,355.9z M708.9,296.7l32,0
				l-15.6-54.5L708.9,296.7z"/>
		</g>
		<g>
			<path d="M812,356c-0.1,0-2.2,0-2.2-1.9l0.2-161.6c0-1.6,1.5-2.2,2.2-2.2l36.8,0.1c0.6,0,1.9,0.6,1.9,2.2l-0.2,161.6
				c0,1.8-1.9,1.9-1.9,1.9L812,356z"/>
		</g>
		<g>
			<path d="M957.5,356.2c-0.6,0-1.7-0.9-3.1-3.3l-31.4-60l-14.3,21l-0.1,40.4c0,1.8-1.9,1.9-1.9,1.9l-36.8-0.1c-0.1,0-2.2,0-2.2-1.9
				l0.2-161.6c0-1.6,1.5-2.2,2.2-2.2l36.8,0.1c0.3,0,0.8,0.2,1.2,0.6c0.4,0.4,0.7,1,0.7,1.6l-0.1,53.2l34.7-51.4
				c1-1.4,3.2-3.8,6.2-3.8l40.1,0.1c0.5,0,1.4,0.4,1.8,1.4l-44.6,65.3l51.8,97.6c-0.4,1.3-2,1.3-2.1,1.3L957.5,356.2z"/>
		</g>
		<g>
			<path d="M1115.1,356.4c-0.6,0-1.5-0.9-2-2.7l-5.8-19.7l-53.5-0.1l-5.8,19.6c-0.5,1.8-1.4,2.8-2,2.8l-36.8-0.1
				c0,0-1.6-0.1-1.9-1.5l49.1-161c0.4-1.4,1.2-3,2-3l45.2,0.1c0.9,0,1.6,1.6,2,3l48.1,161.2c-0.2,1.5-1.9,1.5-1.9,1.5L1115.1,356.4z
				 M1064.6,297.3l32,0l-15.6-54.5L1064.6,297.3z"/>
		</g>
	</g>
</g>
</svg>
