<svg width="823" height="519" viewBox="0 0 823 519" fill="none" xmlns="http://www.w3.org/2000/svg">
<path d="M163.165 268.553L163.165 305.993L195.634 324.546L228.188 305.993L228.188 268.553L195.634 250L163.165 268.553Z" fill="#5CC1C3"/>
<path d="M827.579 134.13L827.649 134.247L838.73 229.655C838.706 229.821 838.683 229.986 838.589 230.034L353.912 477.876C353.819 477.924 353.655 477.854 353.561 477.902L214.8 382.961C214.8 382.961 214.73 382.844 214.66 382.726C214.589 382.608 214.589 382.608 214.589 382.608L202.247 289.996C202.177 289.879 202.2 289.713 202.387 289.617C202.574 289.522 202.645 289.639 202.738 289.592L333.722 378.678C337.61 381.298 341.965 381.836 345.241 380.161L827.017 133.803C827.368 133.777 827.579 134.13 827.579 134.13ZM832.259 131.736C830.29 128.442 826.472 126.554 823.571 128.038L341.795 374.396C340.111 375.258 337.886 375.012 335.825 373.609L204.771 284.405C200.414 281.41 195.711 283.969 196.464 289.113L208.806 381.726C208.995 382.858 209.44 384.013 210.003 384.954C210.706 386.13 211.62 387.046 212.721 387.865L351.482 482.806C353.543 484.209 355.767 484.454 357.452 483.593L842.129 235.751C843.907 234.841 844.889 232.803 844.536 230.373L833.432 135.13C833.338 133.95 832.892 132.795 832.259 131.736Z" fill="black"/>
</svg>