<svg width="32" height="32" viewBox="0 0 32 32" fill="none" xmlns="http://www.w3.org/2000/svg">
<path fill-rule="evenodd" clip-rule="evenodd" d="M16 4C9.37423 4 4 9.37423 4 16C4 21.3006 7.46012 25.7914 12.1718 27.411C12.7607 27.4847 12.9816 27.1166 12.9816 26.8221C12.9816 26.5276 12.9816 25.7914 12.9816 24.7607C9.66871 25.4969 8.93252 23.1411 8.93252 23.1411C8.41718 21.7423 7.60736 21.3742 7.60736 21.3742C6.50307 20.638 7.68098 20.638 7.68098 20.638C8.8589 20.7117 9.52147 21.8896 9.52147 21.8896C10.6258 23.7301 12.319 23.2147 12.9816 22.9202C13.0552 22.1104 13.4233 21.5951 13.7178 21.3006C11.0675 21.0061 8.26994 19.9755 8.26994 15.3374C8.26994 14.0123 8.71166 12.9816 9.52147 12.0982C9.44785 11.8773 9.00614 10.6258 9.66871 9.00614C9.66871 9.00614 10.6994 8.71166 12.9816 10.2577C13.9387 9.96319 14.9693 9.88957 16 9.88957C17.0307 9.88957 18.0614 10.0368 19.0184 10.2577C21.3006 8.71166 22.3313 9.00614 22.3313 9.00614C22.9939 10.6258 22.5521 11.8773 22.4785 12.1718C23.2147 12.9816 23.7301 14.0859 23.7301 15.411C23.7301 20.0491 20.9325 21.0061 18.2822 21.3006C18.7239 21.6687 19.092 22.4049 19.092 23.5092C19.092 25.1288 19.092 26.3804 19.092 26.8221C19.092 27.1166 19.3129 27.4847 19.9018 27.411C24.6871 25.7914 28.0736 21.3006 28.0736 16C28 9.37423 22.6258 4 16 4Z" fill="white"/>
</svg>
