<svg width="32" height="32" viewBox="0 0 32 32" fill="none" xmlns="http://www.w3.org/2000/svg">
<path fill-rule="evenodd" clip-rule="evenodd" d="M16 2C8.3 2 2 8.3 2 16C2 23.7 8.3 30 16 30C23.7 30 30 23.7 30 16C30 8.3 23.7 2 16 2ZM25.2 8.5C26.9 10.5 27.9 13.1 27.9 15.9C27.5 15.8 23.6 15 19.6 15.5C19.5 15.3 19.4 15.1 19.3 14.9C19.1 14.3 18.8 13.7 18.5 13.2C23 11.4 25 8.8 25.2 8.5ZM16 4.1C19 4.1 21.8 5.2 23.9 7.1C23.7 7.4 21.9 9.8 17.6 11.4C15.6 7.8 13.5 4.9 13.1 4.4C14.1 4.2 15 4.1 16 4.1ZM10.9 5.2C11.2 5.6 13.3 8.6 15.3 12.1C9.7 13.6 4.8 13.6 4.2 13.6C5.1 9.9 7.6 6.8 10.9 5.2ZM4 16C4 15.9 4 15.8 4 15.6C4.5 15.6 10.3 15.7 16.3 13.9C16.6 14.6 17 15.3 17.3 15.9C17.1 15.9 17 16 16.8 16C10.6 18 7.4 23.4 7.1 23.9C5.2 21.9 4 19.1 4 16ZM16 28C13.2 28 10.7 27.1 8.7 25.5C8.9 25 11.3 20.3 18 18C18 18 18 18 18.1 18C19.8 22.4 20.5 26 20.7 27.1C19.2 27.6 17.7 28 16 28ZM22.7 25.9C22.6 25.2 21.9 21.7 20.4 17.4C24.2 16.8 27.4 17.8 27.8 17.9C27.3 21.2 25.4 24.1 22.7 25.9Z" fill="white"/>
</svg>
