<svg width="32" height="32" viewBox="0 0 32 32" fill="none" xmlns="http://www.w3.org/2000/svg">
<path d="M26.6697 4H5.32135C4.59326 4 4 4.59326 4 5.32135V26.6607C4 27.3888 4.59326 27.982 5.32135 27.982H16.809V18.6966H13.6809V15.0742H16.809V12.4135C16.809 9.31236 18.7056 7.63146 21.4652 7.63146C22.7865 7.63146 23.9281 7.73034 24.2607 7.77528V11.0112H22.3461C20.8449 11.0112 20.5483 11.7213 20.5483 12.773V15.0831H24.1348L23.6674 18.7056H20.5483V28H26.6607C27.3888 28 27.982 27.4067 27.982 26.6787V5.32135C27.991 4.59326 27.3978 4 26.6697 4Z" fill="white"/>
</svg>
