<?xml version="1.0" encoding="utf-8"?>
<!-- Generator: Adobe Illustrator 26.0.2, SVG Export Plug-In . SVG Version: 6.00 Build 0)  -->
<svg version="1.1" id="Layer_1" xmlns="http://www.w3.org/2000/svg" xmlns:xlink="http://www.w3.org/1999/xlink" x="0px" y="0px"
	 viewBox="0 0 32 32" style="enable-background:new 0 0 32 32;" xml:space="preserve">
<style type="text/css">
	.st0{fill:#FFFFFF;}
</style>
<path class="st0" d="M26.2,3.9H5.8C4.8,3.9,4,4.7,4,5.7v20.7c0,1,0.8,1.7,1.8,1.7h20.5c1,0,1.8-0.8,1.8-1.7V5.7
	C28,4.7,27.2,3.9,26.2,3.9z M11.3,24.1H7.7V13.2h3.6V24.1z M9.5,11.7c-1.2,0-2-0.8-2-1.9C7.4,8.8,8.2,8,9.5,8c1.2,0,2,0.8,2,1.9
	C11.5,10.9,10.7,11.7,9.5,11.7z M24.3,24.1h-3.6v-5.8c0-1.5-0.5-2.5-1.8-2.5c-1,0-1.6,0.7-1.9,1.3c-0.1,0.2-0.1,0.6-0.1,0.9v6.1
	h-3.6c0,0,0-9.9,0-10.9h3.6v1.5c0.5-0.7,1.3-1.8,3.3-1.8c2.4,0,4.2,1.6,4.2,4.9v6.3H24.3z"/>
</svg>
