<svg width="32" height="32" viewBox="0 0 32 32" fill="none" xmlns="https://www.w3.org/2000/svg">
<path d="M27.4871 8.79984C26.5896 9.15539 25.6922 9.51095 24.7947 9.51095C25.6922 8.97761 26.5896 8.08873 26.9486 6.84428C26.0512 7.37762 24.9742 7.73317 23.8973 7.91095C22.9999 7.19984 21.7435 6.6665 20.4871 6.6665C17.7947 6.6665 15.6409 8.79984 15.6409 11.2887C15.6409 11.6443 15.6409 11.9998 15.8204 12.3554C11.8717 12.1776 8.46141 10.3998 6.12808 7.55539C5.76911 8.2665 5.41013 8.97761 5.41013 9.8665C5.41013 11.4665 6.30757 12.8887 7.56398 13.7776C6.84603 13.7776 6.12808 13.5998 5.41013 13.2443C5.41013 15.5554 7.02552 17.3332 9.17936 17.8665C8.82039 17.8665 8.46141 18.0443 7.92295 18.0443C7.56398 18.0443 7.38449 18.0443 7.02552 18.0443C7.56398 19.8221 9.35885 21.2443 11.5127 21.2443C9.89731 22.3109 7.92295 23.1998 5.58962 23.1998C5.23064 23.1998 4.87167 23.1998 4.5127 23.1998C6.66654 24.4443 8.99987 25.3332 11.6922 25.3332C20.3076 25.3332 25.1537 18.2221 25.1537 11.9998V11.4665C26.0512 10.5776 26.7691 9.8665 27.4871 8.79984Z" fill="white"/>
</svg>
