<svg width="32" height="32" viewBox="0 0 32 32" fill="none" xmlns="http://www.w3.org/2000/svg">
<path d="M3 20.3C3 17.4 3 14.6 3 11.7C3 11.6 3 11.5 3 11.5C3 10.5 3.1 9.5 3.3 8.5C3.9 6.3 5.1 4.7 7.3 3.8C8.4 3.3 9.7 3.2 10.9 3.1C11.2 3.1 11.4 3.1 11.7 3C14.6 3 17.4 3 20.3 3C20.4 3 20.5 3 20.5 3C21.3 3.1 22.2 3.1 23 3.2C26 3.8 27.9 5.5 28.6 8.4C29 9.8 29 11.1 29 12.4C29 15 29 17.5 29 20.1C29 21.1 28.9 22.1 28.8 23.1C28.2 26.1 26.5 28 23.6 28.7C22.2 29 20.9 29 19.6 29C16.9 29 14.2 29 11.5 29C10.5 29 9.5 28.9 8.5 28.7C6.3 28.1 4.7 26.9 3.8 24.8C3.3 23.6 3.1 22.4 3.1 21.1C3 20.8 3 20.6 3 20.3ZM26.6 12.8C26.6 11.8 26.5 10.8 26.4 9.7C26.3 8.7 26 7.8 25.3 7.1C24.4 6.1 23.2 5.6 21.8 5.5C20.3 5.4 18.7 5.4 17.2 5.4C15.7 5.4 14.2 5.4 12.7 5.4C11.7 5.4 10.7 5.5 9.6 5.6C8.7 5.6 7.8 6 7.1 6.7C6.1 7.6 5.6 8.8 5.5 10.2C5.4 11.7 5.4 17.8 5.4 19.4C5.4 20.4 5.5 21.4 5.6 22.5C5.7 23.5 6 24.4 6.7 25.1C7.6 26.1 8.8 26.6 10.2 26.7C11.7 26.8 13.3 26.8 14.8 26.8C16.3 26.8 17.8 26.8 19.3 26.8C20.4 26.8 21.6 26.7 22.7 26.6C24.6 26.3 25.9 25.2 26.4 23.3C26.6 22.7 26.7 22 26.7 21.4C26.6 19.5 26.7 13.8 26.6 12.8Z" fill="white"/>
<path fill-rule="evenodd" clip-rule="evenodd" d="M22.6998 15.9998C22.6998 19.6998 19.6998 22.6998 15.9998 22.6998C12.2998 22.6998 9.2998 19.6998 9.2998 15.9998C9.2998 12.2998 12.2998 9.2998 15.9998 9.2998C19.6998 9.2998 22.6998 12.2998 22.6998 15.9998ZM11.6998 15.9998C11.6998 18.3998 13.5998 20.2998 15.9998 20.2998C18.3998 20.2998 20.3998 18.3998 20.3998 15.9998C20.3998 13.5998 18.4998 11.5998 16.0998 11.5998C13.5998 11.6998 11.6998 13.5998 11.6998 15.9998Z" fill="white"/>
<path fill-rule="evenodd" clip-rule="evenodd" d="M24.4998 9.1C24.4998 10 23.7998 10.7 22.8998 10.7C21.9998 10.7 21.2998 10 21.2998 9.1C21.2998 8.2 21.9998 7.5 22.8998 7.5C23.7998 7.5 24.4998 8.2 24.4998 9.1Z" fill="white"/>
</svg>
