<svg width="32" height="32" viewBox="0 0 32 32" fill="none" xmlns="https://www.w3.org/2000/svg">
<path d="M26.2 3.8999H5.8C4.8 3.8999 4 4.6999 4 5.6999V26.3999C4 27.3999 4.8 28.0999 5.8 28.0999H26.3C27.3 28.0999 28.1 27.2999 28.1 26.3999V5.6999C28 4.6999 27.2 3.8999 26.2 3.8999ZM11.3 24.0999H7.7V13.1999H11.3V24.0999ZM9.5 11.6999C8.3 11.6999 7.5 10.8999 7.5 9.7999C7.4 8.7999 8.2 7.9999 9.5 7.9999C10.7 7.9999 11.5 8.7999 11.5 9.8999C11.5 10.8999 10.7 11.6999 9.5 11.6999ZM24.3 24.0999H20.7V18.2999C20.7 16.7999 20.2 15.7999 18.9 15.7999C17.9 15.7999 17.3 16.4999 17 17.0999C16.9 17.2999 16.9 17.6999 16.9 17.9999V24.0999H13.3C13.3 24.0999 13.3 14.1999 13.3 13.1999H16.9V14.6999C17.4 13.9999 18.2 12.8999 20.2 12.8999C22.6 12.8999 24.4 14.4999 24.4 17.7999V24.0999H24.3Z" fill="white"/>
</svg>
