<?xml version="1.0" encoding="UTF-8" standalone="no"?>
<svg width="16px" height="16px" viewBox="0 0 16 16" version="1.1" xmlns="http://www.w3.org/2000/svg" xmlns:xlink="http://www.w3.org/1999/xlink">
    <title>Phone icon</title>
    <desc>Rootstrap Phone Icon</desc>
    <defs/>
    <g id="Symbols" stroke="none" stroke-width="1" fill="none" fill-rule="evenodd">
        <g id="BNTS/-Phone-number" fill-rule="nonzero" fill="#0A0A0A">
            <g id="Group-10">
                <path d="M12.1816497,15.9776347 C11.6816497,15.9776347 10.9816497,15.8776347 10.1816497,15.5776347 C8.88164966,15.1776347 7.88164966,14.5776347 6.78164966,13.8776347 C5.58164966,13.0776347 4.38164966,11.8776347 4.38164966,11.8776347 L4.08164966,11.5776347 L4.08164966,11.5776347 L3.98164966,11.5776347 C3.78164966,11.3776347 2.78164966,10.2776347 1.98164966,9.17763468 C1.28164966,7.97763468 0.781649658,6.97763468 0.381649658,5.67763468 C-0.118350342,4.27763468 -0.0183503419,3.27763468 0.0816496581,2.77763468 C0.181649658,2.37763468 0.481649658,1.97763468 0.781649658,1.67763468 L1.98164966,0.477634677 C2.48164966,-0.0223653233 3.48164966,-0.322365323 4.38164966,0.577634677 L6.38164966,2.57763468 C6.78164966,2.97763468 7.18164966,3.97763468 6.38164966,4.87763468 L5.18164966,6.07763468 C5.28164966,6.27763468 5.48164966,6.67763468 5.68164966,6.97763468 C5.88164966,7.27763468 6.48164966,8.07763468 6.88164966,8.47763468 L6.88164966,8.47763468 L6.88164966,8.47763468 C6.98164966,8.57763468 7.08164966,8.67763468 7.28164966,8.87763468 L7.48164966,8.97763468 C7.88164966,9.37763468 8.68164966,9.97763468 8.98164966,10.1776347 C9.28164966,10.3776347 9.58164966,10.5776347 9.88164966,10.6776347 L11.0816497,9.47763468 C12.0816497,8.67763468 12.9816497,9.07763468 13.4816497,9.47763468 L15.4816497,11.4776347 C16.3816497,12.3776347 15.9816497,13.3776347 15.5816497,13.8776347 L14.3816497,15.0776347 C14.0816497,15.3776347 13.6816497,15.6776347 13.1816497,15.7776347 C12.8816497,15.8776347 12.5816497,15.9776347 12.1816497,15.9776347 Z M5.08164966,11.1776347 C5.08164966,11.1776347 6.28164966,12.2776347 7.38164966,13.0776347 C8.48164966,13.7776347 9.38164966,14.2776347 10.5816497,14.6776347 C11.7816497,15.0776347 12.5816497,14.9776347 12.8816497,14.8776347 C13.1816497,14.7776347 13.4816497,14.5776347 13.5816497,14.3776347 L14.7816497,13.1776347 C14.8816497,13.0776347 15.1816497,12.6776347 14.6816497,12.1776347 L12.6816497,10.1776347 C12.5816497,10.0776347 12.1816497,9.77763468 11.6816497,10.1776347 L10.3816497,11.4776347 C10.1816497,11.6776347 9.88164966,11.7776347 9.48164966,11.6776347 C9.28164966,11.5776347 8.68164966,11.3776347 8.28164966,11.0776347 C7.88164966,10.7776347 7.18164966,10.1776347 6.68164966,9.77763468 L6.58164966,9.67763468 C6.28164966,9.37763468 6.08164966,9.17763468 6.08164966,9.17763468 C5.68164966,8.77763468 5.08164966,7.97763468 4.78164966,7.57763468 C4.48164966,7.17763468 4.28164966,6.57763468 4.18164966,6.37763468 C3.98164966,6.07763468 4.18164966,5.67763468 4.28164966,5.47763468 L5.58164966,4.17763468 C5.98164966,3.67763468 5.68164966,3.37763468 5.58164966,3.27763468 L3.58164966,1.27763468 C3.18164966,0.877634677 2.78164966,1.07763468 2.58164966,1.17763468 L1.58164966,2.37763468 C1.48164966,2.47763468 1.18164966,2.77763468 1.08164966,3.07763468 C0.981649658,3.47763468 0.881649658,4.27763468 1.28164966,5.37763468 C1.68164966,6.57763468 2.18164966,7.47763468 2.88164966,8.57763468 C3.58164966,9.57763468 4.58164966,10.6776347 4.78164966,10.8776347 L5.08164966,11.1776347 L5.08164966,11.1776347 Z" id="Shape"/>
            </g>
        </g>
    </g>
</svg>