<svg width="31" height="25" viewBox="0 0 31 25" fill="none" xmlns="http://www.w3.org/2000/svg">
<path d="M7.57603 24.88C6.16803 24.88 5.01603 24.592 4.12003 24.016C3.22403 23.44 2.48803 22.704 1.91203 21.808C1.20803 20.784 0.76003 19.664 0.568029 18.448C0.376029 17.232 0.280029 16.24 0.280029 15.472C0.280029 12.336 1.08003 9.48799 2.68003 6.92799C4.28003 4.36799 6.77603 2.28799 10.168 0.687988L11.032 2.41599C9.04803 3.24799 7.32003 4.55999 5.84803 6.35199C4.44003 8.14399 3.73603 9.96799 3.73603 11.824C3.73603 12.592 3.83203 13.264 4.02403 13.84C5.04803 13.008 6.23203 12.592 7.57603 12.592C9.24003 12.592 10.68 13.136 11.896 14.224C13.112 15.312 13.72 16.816 13.72 18.736C13.72 20.528 13.112 22 11.896 23.152C10.68 24.304 9.24003 24.88 7.57603 24.88ZM23.896 24.88C22.488 24.88 21.336 24.592 20.44 24.016C19.544 23.44 18.808 22.704 18.232 21.808C17.528 20.784 17.08 19.664 16.888 18.448C16.696 17.232 16.6 16.24 16.6 15.472C16.6 12.336 17.4 9.48799 19 6.92799C20.6 4.36799 23.096 2.28799 26.488 0.687988L27.352 2.41599C25.368 3.24799 23.64 4.55999 22.168 6.35199C20.76 8.14399 20.056 9.96799 20.056 11.824C20.056 12.592 20.152 13.264 20.344 13.84C21.368 13.008 22.552 12.592 23.896 12.592C25.56 12.592 27 13.136 28.216 14.224C29.432 15.312 30.04 16.816 30.04 18.736C30.04 20.528 29.432 22 28.216 23.152C27 24.304 25.56 24.88 23.896 24.88Z" fill="#664FB7"/>
</svg>
