<?xml version="1.0" encoding="utf-8"?>
<!-- Generator: Adobe Illustrator 23.0.4, SVG Export Plug-In . SVG Version: 6.00 Build 0)  -->
<svg version="1.1" id="Layer_1" xmlns="http://www.w3.org/2000/svg" xmlns:xlink="http://www.w3.org/1999/xlink" x="0px" y="0px"
	 viewBox="0 0 386 663" style="enable-background:new 0 0 386 663;" xml:space="preserve">
<style type="text/css">
	.st0{fill-rule:evenodd;clip-rule:evenodd;fill:#F3F4F6;}
	.st1{fill-rule:evenodd;clip-rule:evenodd;fill:#664FB7;}
</style>
<g>
	<path class="st0" d="M2.5,107.1c-1.2,0.7-2,2-2,3.5l0.4,437.2c0,3,1.6,5.8,4.2,7.3L189,661.2c2.6,1.5,5.8,1.5,8.4,0l183.9-106.2
		c2.6-1.5,4.2-4.3,4.2-7.3l0-212.3c0-3-1.6-5.8-4.2-7.3L193.2,219.5"/>
	<path class="st1" d="M2.2,109.2l191.1,110.3V4.7c0-3.2-3.5-5.2-6.2-3.6L2.2,107.3C1.4,107.7,1.4,108.8,2.2,109.2z"/>
</g>
</svg>
