<svg width="354" height="684" viewBox="0 0 354 684" fill="none" xmlns="http://www.w3.org/2000/svg">
<g clip-path="url(#clip0)">
<path d="M345.955 -23.1028L732.941 733.97" stroke="#F2F2F2" stroke-width="3.6" stroke-miterlimit="10"/>
<path d="M334.461 -23.1028L721.447 733.97" stroke="#F2F2F2" stroke-width="3.6" stroke-miterlimit="10"/>
<path d="M322.967 -23.1028L709.954 733.97" stroke="#F2F2F2" stroke-width="3.6" stroke-miterlimit="10"/>
<path d="M311.359 -23.1028L698.461 733.97" stroke="#F2F2F2" stroke-width="3.6" stroke-miterlimit="10"/>
<path d="M299.865 -23.1028L686.966 733.97" stroke="#F2F2F2" stroke-width="3.6" stroke-miterlimit="10"/>
<path d="M288.372 -23.1028L675.474 733.97" stroke="#F2F2F2" stroke-width="3.6" stroke-miterlimit="10"/>
<path d="M276.878 -23.1028L663.865 733.97" stroke="#F2F2F2" stroke-width="3.6" stroke-miterlimit="10"/>
<path d="M265.385 -23.1028L652.371 733.97" stroke="#F2F2F2" stroke-width="3.6" stroke-miterlimit="10"/>
<path d="M253.892 -23.1028L640.878 733.97" stroke="#F2F2F2" stroke-width="3.6" stroke-miterlimit="10"/>
<path d="M242.398 -23.1028L629.384 733.97" stroke="#F2F2F2" stroke-width="3.6" stroke-miterlimit="10"/>
<path d="M230.79 -23.1028L617.891 733.97" stroke="#F2F2F2" stroke-width="3.6" stroke-miterlimit="10"/>
<path d="M219.296 -23.1028L606.397 733.97" stroke="#F2F2F2" stroke-width="3.6" stroke-miterlimit="10"/>
<path d="M207.803 -23.1028L594.904 733.97" stroke="#F2F2F2" stroke-width="3.6" stroke-miterlimit="10"/>
<path d="M196.309 -23.1028L583.295 733.97" stroke="#F2F2F2" stroke-width="3.6" stroke-miterlimit="10"/>
<path d="M184.815 -23.1028L571.802 733.97" stroke="#F2F2F2" stroke-width="3.6" stroke-miterlimit="10"/>
<path d="M173.322 -23.1028L560.308 733.97" stroke="#F2F2F2" stroke-width="3.6" stroke-miterlimit="10"/>
<path d="M161.713 -23.1028L548.815 733.97" stroke="#F2F2F2" stroke-width="3.6" stroke-miterlimit="10"/>
<path d="M150.22 -23.1028L537.321 733.97" stroke="#F2F2F2" stroke-width="3.6" stroke-miterlimit="10"/>
<path d="M138.727 -23.1028L525.828 733.97" stroke="#F2F2F2" stroke-width="3.6" stroke-miterlimit="10"/>
<path d="M127.233 -23.1028L514.219 733.97" stroke="#F2F2F2" stroke-width="3.6" stroke-miterlimit="10"/>
<path d="M115.739 -23.1028L502.726 733.97" stroke="#F2F2F2" stroke-width="3.6" stroke-miterlimit="10"/>
<path d="M104.246 -23.1028L491.232 733.97" stroke="#F2F2F2" stroke-width="3.6" stroke-miterlimit="10"/>
<path d="M92.6377 -23.1028L479.739 733.97" stroke="#F2F2F2" stroke-width="3.6" stroke-miterlimit="10"/>
<path d="M81.144 -23.1028L468.245 733.97" stroke="#F2F2F2" stroke-width="3.6" stroke-miterlimit="10"/>
<path d="M69.6504 -23.1028L456.752 733.97" stroke="#F2F2F2" stroke-width="3.6" stroke-miterlimit="10"/>
<path d="M58.1567 -23.1028L445.143 733.97" stroke="#F2F2F2" stroke-width="3.6" stroke-miterlimit="10"/>
<path d="M46.6631 -23.1028L433.649 733.97" stroke="#F2F2F2" stroke-width="3.6" stroke-miterlimit="10"/>
<path d="M35.1699 -23.1028L422.156 733.97" stroke="#F2F2F2" stroke-width="3.6" stroke-miterlimit="10"/>
<path d="M23.6763 -23.1028L410.663 733.97" stroke="#F2F2F2" stroke-width="3.6" stroke-miterlimit="10"/>
<path d="M12.0679 -23.1028L399.169 733.97" stroke="#F2F2F2" stroke-width="3.6" stroke-miterlimit="10"/>
<path d="M0.574219 -23.1028L387.675 733.97" stroke="#F2F2F2" stroke-width="3.6" stroke-miterlimit="10"/>
<path d="M-10.9189 -23.1028L376.182 733.97" stroke="#F2F2F2" stroke-width="3.6" stroke-miterlimit="10"/>
<path d="M-22.4126 -23.1028L364.574 733.97" stroke="#F2F2F2" stroke-width="3.6" stroke-miterlimit="10"/>
<path d="M-33.9062 -23.1028L353.08 733.97" stroke="#F2F2F2" stroke-width="3.6" stroke-miterlimit="10"/>
<path d="M-45.3994 -23.1028L341.587 733.97" stroke="#F2F2F2" stroke-width="3.6" stroke-miterlimit="10"/>
<path d="M-57.0078 -23.1028L330.093 733.97" stroke="#F2F2F2" stroke-width="3.6" stroke-miterlimit="10"/>
<path d="M-68.5015 -23.1028L318.6 733.97" stroke="#F2F2F2" stroke-width="3.6" stroke-miterlimit="10"/>
<path d="M-79.9951 -23.1028L307.106 733.97" stroke="#F2F2F2" stroke-width="3.6" stroke-miterlimit="10"/>
<path d="M-91.4883 -23.1028L295.498 733.97" stroke="#F2F2F2" stroke-width="3.6" stroke-miterlimit="10"/>
<path d="M-102.982 -23.1028L284.004 733.97" stroke="#F2F2F2" stroke-width="3.6" stroke-miterlimit="10"/>
<path d="M-114.476 -23.1028L272.511 733.97" stroke="#F2F2F2" stroke-width="3.6" stroke-miterlimit="10"/>
<path d="M-126.084 -23.1028L261.017 733.97" stroke="#F2F2F2" stroke-width="3.6" stroke-miterlimit="10"/>
<path d="M-137.578 -23.1028L249.524 733.97" stroke="#F2F2F2" stroke-width="3.6" stroke-miterlimit="10"/>
<path d="M-149.071 -23.1028L238.031 733.97" stroke="#F2F2F2" stroke-width="3.6" stroke-miterlimit="10"/>
<path d="M-160.564 -23.1028L226.422 733.97" stroke="#F2F2F2" stroke-width="3.6" stroke-miterlimit="10"/>
<path d="M-172.058 -23.1028L214.928 733.97" stroke="#F2F2F2" stroke-width="3.6" stroke-miterlimit="10"/>
<path d="M-183.551 -23.1028L203.435 733.97" stroke="#F2F2F2" stroke-width="3.6" stroke-miterlimit="10"/>
<path d="M-195.045 -23.1028L191.941 733.97" stroke="#F2F2F2" stroke-width="3.6" stroke-miterlimit="10"/>
<path d="M-206.653 -23.1028L180.448 733.97" stroke="#F2F2F2" stroke-width="3.6" stroke-miterlimit="10"/>
<path d="M-218.147 -23.1028L168.954 733.97" stroke="#F2F2F2" stroke-width="3.6" stroke-miterlimit="10"/>
<path d="M-229.64 -23.1028L157.461 733.97" stroke="#F2F2F2" stroke-width="3.6" stroke-miterlimit="10"/>
<path d="M-241.134 -23.1028L145.853 733.97" stroke="#F2F2F2" stroke-width="3.6" stroke-miterlimit="10"/>
<path d="M-252.627 -23.1028L134.359 733.97" stroke="#F2F2F2" stroke-width="3.6" stroke-miterlimit="10"/>
<path d="M-264.121 -23.1028L122.865 733.97" stroke="#F2F2F2" stroke-width="3.6" stroke-miterlimit="10"/>
<path d="M-275.729 -23.1028L111.372 733.97" stroke="#F2F2F2" stroke-width="3.6" stroke-miterlimit="10"/>
<path d="M-287.223 -23.1028L99.8781 733.97" stroke="#F2F2F2" stroke-width="3.6" stroke-miterlimit="10"/>
<path d="M-298.716 -23.1028L88.3849 733.97" stroke="#F2F2F2" stroke-width="3.6" stroke-miterlimit="10"/>
<path d="M-310.21 -23.1028L76.7764 733.97" stroke="#F2F2F2" stroke-width="3.6" stroke-miterlimit="10"/>
<path d="M-321.704 -23.1028L65.2827 733.97" stroke="#F2F2F2" stroke-width="3.6" stroke-miterlimit="10"/>
<path d="M-333.197 -23.1028L53.7896 733.97" stroke="#F2F2F2" stroke-width="3.6" stroke-miterlimit="10"/>
<path d="M-344.69 -23.1028L42.2959 733.97" stroke="#F2F2F2" stroke-width="3.6" stroke-miterlimit="10"/>
<path d="M-356.299 -23.1028L30.8025 733.97" stroke="#F2F2F2" stroke-width="3.6" stroke-miterlimit="10"/>
<path d="M-367.792 -23.1028L19.3089 733.97" stroke="#F2F2F2" stroke-width="3.6" stroke-miterlimit="10"/>
<path d="M-379.286 -23.1028L7.81563 733.97" stroke="#F2F2F2" stroke-width="3.6" stroke-miterlimit="10"/>
</g>
<defs>
<clipPath id="clip0">
<rect width="684" height="354" fill="white" transform="matrix(4.37114e-08 1 1 -4.37114e-08 0 0)"/>
</clipPath>
</defs>
</svg>
