<?xml version="1.0" encoding="utf-8"?>
<!-- Generator: Adobe Illustrator 23.0.4, SVG Export Plug-In . SVG Version: 6.00 Build 0)  -->
<svg version="1.1" id="Layer_1" xmlns="http://www.w3.org/2000/svg" xmlns:xlink="http://www.w3.org/1999/xlink" x="0px" y="0px"
	 viewBox="0 0 179 520" style="enable-background:new 0 0 179 520;" xml:space="preserve">
<g>
	<path d="M107.2,3.9C107.2,3.9,107.3,3.9,107.2,3.9L171,39.3l-97,60.8c-2.4,1.6-3.9,4.2-3.9,7.1l0.1,408.2L6.5,478.8
		c-0.1-0.1-0.2-0.2-0.2-0.3L6.2,67c0-0.1,0.1-0.2,0.2-0.3L107,4C107.1,3.9,107.2,3.9,107.2,3.9 M107.2-0.1c-0.8,0-1.6,0.3-2.3,0.7
		L4.3,63.2c-1.2,0.8-2,2.2-2,3.7l0.1,411.5c0,1.6,0.9,3,2.2,3.8L70.3,520c0.4,0.3,0.9,0.4,1.3,0.4c1.4,0,2.7-1.1,2.7-2.7l-0.1-410.5
		c0-1.5,0.7-2.9,2-3.7l100.3-62.9c1.1-0.7,1-2.3-0.1-2.9L109.3,0.4C108.6,0.1,107.9-0.1,107.2-0.1L107.2-0.1z"/>
</g>
</svg>
