<?xml version="1.0" encoding="utf-8"?>
<!-- Generator: Adobe Illustrator 23.0.4, SVG Export Plug-In . SVG Version: 6.00 Build 0)  -->
<svg version="1.1" id="Layer_1" xmlns="http://www.w3.org/2000/svg" xmlns:xlink="http://www.w3.org/1999/xlink" x="0px" y="0px"
	 viewBox="0 0 527 308" style="enable-background:new 0 0 527 308;" xml:space="preserve">
<style type="text/css">
	.st0{clip-path:url(#SVGID_2_);}
	.st1{fill:none;stroke:#F2F2F2;stroke-width:3.6;stroke-miterlimit:10;}
</style>
<g>
	<defs>
		<polygon id="SVGID_1_" points="335.3,308.1 -0.2,114.4 191.6,0 527,190 		"/>
	</defs>
	<clipPath id="SVGID_2_">
		<use xlink:href="#SVGID_1_"  style="overflow:visible;"/>
	</clipPath>
	<g class="st0">
		<line class="st1" x1="-17.8" y1="942" x2="565.5" y2="1278.7"/>
		<line class="st1" x1="-17.8" y1="932" x2="565.5" y2="1268.7"/>
		<line class="st1" x1="-17.8" y1="922" x2="565.5" y2="1258.7"/>
		<line class="st1" x1="-17.8" y1="911.9" x2="565.5" y2="1248.7"/>
		<line class="st1" x1="-17.8" y1="901.9" x2="565.5" y2="1238.7"/>
		<line class="st1" x1="-17.8" y1="891.9" x2="565.5" y2="1228.7"/>
		<line class="st1" x1="-17.8" y1="881.9" x2="565.5" y2="1218.6"/>
		<line class="st1" x1="-17.8" y1="871.9" x2="565.5" y2="1208.6"/>
		<line class="st1" x1="-17.8" y1="861.9" x2="565.5" y2="1198.6"/>
		<line class="st1" x1="-17.8" y1="851.9" x2="565.5" y2="1188.6"/>
		<line class="st1" x1="-17.8" y1="841.8" x2="565.5" y2="1178.6"/>
		<line class="st1" x1="-17.8" y1="831.8" x2="565.5" y2="1168.6"/>
		<line class="st1" x1="-17.8" y1="821.8" x2="565.5" y2="1158.6"/>
		<line class="st1" x1="-17.8" y1="811.8" x2="565.5" y2="1148.5"/>
		<line class="st1" x1="-17.8" y1="801.8" x2="565.5" y2="1138.5"/>
		<line class="st1" x1="-17.8" y1="791.8" x2="565.5" y2="1128.5"/>
		<line class="st1" x1="-17.8" y1="781.7" x2="565.5" y2="1118.5"/>
		<line class="st1" x1="-17.8" y1="771.7" x2="565.5" y2="1108.5"/>
		<line class="st1" x1="-17.8" y1="761.7" x2="565.5" y2="1098.5"/>
		<line class="st1" x1="-17.8" y1="751.7" x2="565.5" y2="1088.4"/>
		<line class="st1" x1="-17.8" y1="741.7" x2="565.5" y2="1078.4"/>
		<line class="st1" x1="-17.8" y1="731.7" x2="565.5" y2="1068.4"/>
		<line class="st1" x1="-17.8" y1="721.7" x2="565.5" y2="1058.4"/>
		<line class="st1" x1="-17.8" y1="711.6" x2="565.5" y2="1048.4"/>
		<line class="st1" x1="-17.8" y1="701.6" x2="565.5" y2="1038.4"/>
		<line class="st1" x1="-17.8" y1="691.6" x2="565.5" y2="1028.4"/>
		<line class="st1" x1="-17.8" y1="681.6" x2="565.5" y2="1018.3"/>
		<line class="st1" x1="-17.8" y1="671.6" x2="565.5" y2="1008.3"/>
		<line class="st1" x1="-17.8" y1="661.6" x2="565.5" y2="998.3"/>
		<line class="st1" x1="-17.8" y1="651.5" x2="565.5" y2="988.3"/>
		<line class="st1" x1="-17.8" y1="641.5" x2="565.5" y2="978.3"/>
		<line class="st1" x1="-17.8" y1="631.5" x2="565.5" y2="968.3"/>
		<line class="st1" x1="-17.8" y1="621.5" x2="565.5" y2="958.2"/>
		<line class="st1" x1="-17.8" y1="611.5" x2="565.5" y2="948.2"/>
		<line class="st1" x1="-17.8" y1="601.5" x2="565.5" y2="938.2"/>
		<line class="st1" x1="-17.8" y1="591.4" x2="565.5" y2="928.2"/>
		<line class="st1" x1="-17.8" y1="581.4" x2="565.5" y2="918.2"/>
		<line class="st1" x1="-17.8" y1="571.4" x2="565.5" y2="908.2"/>
		<line class="st1" x1="-17.8" y1="561.4" x2="565.5" y2="898.1"/>
		<line class="st1" x1="-17.8" y1="551.4" x2="565.5" y2="888.1"/>
		<line class="st1" x1="-17.8" y1="541.4" x2="565.5" y2="878.1"/>
		<line class="st1" x1="-17.8" y1="531.4" x2="565.5" y2="868.1"/>
		<line class="st1" x1="-17.8" y1="521.3" x2="565.5" y2="858.1"/>
		<line class="st1" x1="-17.8" y1="511.3" x2="565.5" y2="848.1"/>
		<line class="st1" x1="-17.8" y1="501.3" x2="565.5" y2="838.1"/>
		<line class="st1" x1="-17.8" y1="491.3" x2="565.5" y2="828"/>
		<line class="st1" x1="-17.8" y1="481.3" x2="565.5" y2="818"/>
		<line class="st1" x1="-17.8" y1="471.3" x2="565.5" y2="808"/>
		<line class="st1" x1="-17.8" y1="461.2" x2="565.5" y2="798"/>
		<line class="st1" x1="-17.8" y1="451.2" x2="565.5" y2="788"/>
		<line class="st1" x1="-17.8" y1="441.2" x2="565.5" y2="778"/>
		<line class="st1" x1="-17.8" y1="431.2" x2="565.5" y2="767.9"/>
		<line class="st1" x1="-17.8" y1="421.2" x2="565.5" y2="757.9"/>
		<line class="st1" x1="-17.8" y1="411.2" x2="565.5" y2="747.9"/>
		<line class="st1" x1="-17.8" y1="401.1" x2="565.5" y2="737.9"/>
		<line class="st1" x1="-17.8" y1="391.1" x2="565.5" y2="727.9"/>
		<line class="st1" x1="-17.8" y1="381.1" x2="565.5" y2="717.9"/>
		<line class="st1" x1="-17.8" y1="371.1" x2="565.5" y2="707.8"/>
		<line class="st1" x1="-17.8" y1="361.1" x2="565.5" y2="697.8"/>
		<line class="st1" x1="-17.8" y1="351.1" x2="565.5" y2="687.8"/>
		<line class="st1" x1="-17.8" y1="341.1" x2="565.5" y2="677.8"/>
		<line class="st1" x1="-17.8" y1="331" x2="565.5" y2="667.8"/>
		<line class="st1" x1="-17.8" y1="321" x2="565.5" y2="657.8"/>
		<line class="st1" x1="-17.8" y1="311" x2="565.5" y2="647.8"/>
		<line class="st1" x1="-17.8" y1="301" x2="565.5" y2="637.7"/>
		<line class="st1" x1="-17.8" y1="291" x2="565.5" y2="627.7"/>
		<line class="st1" x1="-17.8" y1="281" x2="565.5" y2="617.7"/>
		<line class="st1" x1="-17.8" y1="270.9" x2="565.5" y2="607.7"/>
		<line class="st1" x1="-17.8" y1="260.9" x2="565.5" y2="597.7"/>
		<line class="st1" x1="-17.8" y1="250.9" x2="565.5" y2="587.7"/>
		<line class="st1" x1="-17.8" y1="240.9" x2="565.5" y2="577.6"/>
		<line class="st1" x1="-17.8" y1="230.9" x2="565.5" y2="567.6"/>
		<line class="st1" x1="-17.8" y1="220.9" x2="565.5" y2="557.6"/>
		<line class="st1" x1="-17.8" y1="210.9" x2="565.5" y2="547.6"/>
		<line class="st1" x1="-17.8" y1="200.8" x2="565.5" y2="537.6"/>
		<line class="st1" x1="-17.8" y1="190.8" x2="565.5" y2="527.6"/>
		<line class="st1" x1="-17.8" y1="180.8" x2="565.5" y2="517.6"/>
		<line class="st1" x1="-17.8" y1="170.8" x2="565.5" y2="507.5"/>
		<line class="st1" x1="-17.8" y1="160.8" x2="565.5" y2="497.5"/>
		<line class="st1" x1="-17.8" y1="150.8" x2="565.5" y2="487.5"/>
		<line class="st1" x1="-17.8" y1="140.7" x2="565.5" y2="477.5"/>
		<line class="st1" x1="-17.8" y1="130.7" x2="565.5" y2="467.5"/>
		<line class="st1" x1="-17.8" y1="120.7" x2="565.5" y2="457.5"/>
		<line class="st1" x1="-17.8" y1="110.7" x2="565.5" y2="447.4"/>
		<line class="st1" x1="-17.8" y1="100.7" x2="565.5" y2="437.4"/>
		<line class="st1" x1="-17.8" y1="90.7" x2="565.5" y2="427.4"/>
		<line class="st1" x1="-17.8" y1="80.6" x2="565.5" y2="417.4"/>
		<line class="st1" x1="-17.8" y1="70.6" x2="565.5" y2="407.4"/>
		<line class="st1" x1="-17.8" y1="60.6" x2="565.5" y2="397.4"/>
		<line class="st1" x1="-17.8" y1="50.6" x2="565.5" y2="387.3"/>
		<line class="st1" x1="-17.8" y1="40.6" x2="565.5" y2="377.3"/>
		<line class="st1" x1="-17.8" y1="30.6" x2="565.5" y2="367.3"/>
		<line class="st1" x1="-17.8" y1="20.6" x2="565.5" y2="357.3"/>
		<line class="st1" x1="-17.8" y1="10.5" x2="565.5" y2="347.3"/>
		<line class="st1" x1="-17.8" y1="0.5" x2="565.5" y2="337.3"/>
		<line class="st1" x1="-17.8" y1="-9.5" x2="565.5" y2="327.3"/>
		<line class="st1" x1="-17.8" y1="-19.5" x2="565.5" y2="317.2"/>
		<line class="st1" x1="-17.8" y1="-29.5" x2="565.5" y2="307.2"/>
		<line class="st1" x1="-17.8" y1="-39.5" x2="565.5" y2="297.2"/>
		<line class="st1" x1="-17.8" y1="-49.6" x2="565.5" y2="287.2"/>
		<line class="st1" x1="-17.8" y1="-59.6" x2="565.5" y2="277.2"/>
		<line class="st1" x1="-17.8" y1="-69.6" x2="565.5" y2="267.2"/>
		<line class="st1" x1="-17.8" y1="-79.6" x2="565.5" y2="257.1"/>
		<line class="st1" x1="-17.8" y1="-89.6" x2="565.5" y2="247.1"/>
		<line class="st1" x1="-17.8" y1="-99.6" x2="565.5" y2="237.1"/>
		<line class="st1" x1="-17.8" y1="-109.7" x2="565.5" y2="227.1"/>
		<line class="st1" x1="-17.8" y1="-119.7" x2="565.5" y2="217.1"/>
		<line class="st1" x1="-17.8" y1="-129.7" x2="565.5" y2="207.1"/>
		<line class="st1" x1="-17.8" y1="-139.7" x2="565.5" y2="197"/>
		<line class="st1" x1="-17.8" y1="-149.7" x2="565.5" y2="187"/>
		<line class="st1" x1="-17.8" y1="-159.7" x2="565.5" y2="177"/>
		<line class="st1" x1="-17.8" y1="-169.7" x2="565.5" y2="167"/>
		<line class="st1" x1="-17.8" y1="-179.8" x2="565.5" y2="157"/>
		<line class="st1" x1="-17.8" y1="-189.8" x2="565.5" y2="147"/>
		<line class="st1" x1="-17.8" y1="-199.8" x2="565.5" y2="137"/>
		<line class="st1" x1="-17.8" y1="-209.8" x2="565.5" y2="126.9"/>
		<line class="st1" x1="-17.8" y1="-219.8" x2="565.5" y2="116.9"/>
		<line class="st1" x1="-17.8" y1="-229.8" x2="565.5" y2="106.9"/>
		<line class="st1" x1="-17.8" y1="-239.9" x2="565.5" y2="96.9"/>
		<line class="st1" x1="-17.8" y1="-249.9" x2="565.5" y2="86.9"/>
		<line class="st1" x1="-17.8" y1="-259.9" x2="565.5" y2="76.9"/>
		<line class="st1" x1="-17.8" y1="-269.9" x2="565.5" y2="66.8"/>
		<line class="st1" x1="-17.8" y1="-279.9" x2="565.5" y2="56.8"/>
		<line class="st1" x1="-17.8" y1="-289.9" x2="565.5" y2="46.8"/>
		<line class="st1" x1="-17.8" y1="-299.9" x2="565.5" y2="36.8"/>
		<line class="st1" x1="-17.8" y1="-310" x2="565.5" y2="26.8"/>
		<line class="st1" x1="-17.8" y1="-320" x2="565.5" y2="16.8"/>
		<line class="st1" x1="-17.8" y1="-330" x2="565.5" y2="6.8"/>
		<line class="st1" x1="-17.8" y1="-340" x2="565.5" y2="-3.3"/>
		<line class="st1" x1="-17.8" y1="-350" x2="565.5" y2="-13.3"/>
		<line class="st1" x1="-17.8" y1="-360" x2="565.5" y2="-23.3"/>
		<line class="st1" x1="-17.8" y1="-370.1" x2="565.5" y2="-33.3"/>
		<line class="st1" x1="-17.8" y1="-380.1" x2="565.5" y2="-43.3"/>
		<line class="st1" x1="-17.8" y1="-390.1" x2="565.5" y2="-53.3"/>
		<line class="st1" x1="-17.8" y1="-400.1" x2="565.5" y2="-63.4"/>
		<line class="st1" x1="-17.8" y1="-410.1" x2="565.5" y2="-73.4"/>
		<line class="st1" x1="-17.8" y1="-420.1" x2="565.5" y2="-83.4"/>
		<line class="st1" x1="-17.8" y1="-430.2" x2="565.5" y2="-93.4"/>
		<line class="st1" x1="-17.8" y1="-440.2" x2="565.5" y2="-103.4"/>
		<line class="st1" x1="-17.8" y1="-450.2" x2="565.5" y2="-113.4"/>
		<line class="st1" x1="-17.8" y1="-460.2" x2="565.5" y2="-123.5"/>
		<line class="st1" x1="-17.8" y1="-470.2" x2="565.5" y2="-133.5"/>
		<line class="st1" x1="-17.8" y1="-480.2" x2="565.5" y2="-143.5"/>
		<line class="st1" x1="-17.8" y1="-490.2" x2="565.5" y2="-153.5"/>
		<line class="st1" x1="-17.8" y1="-500.3" x2="565.5" y2="-163.5"/>
		<line class="st1" x1="-17.8" y1="-510.3" x2="565.5" y2="-173.5"/>
		<line class="st1" x1="-17.8" y1="-520.3" x2="565.5" y2="-183.5"/>
		<line class="st1" x1="-17.8" y1="-530.3" x2="565.5" y2="-193.6"/>
		<line class="st1" x1="-17.8" y1="-540.3" x2="565.5" y2="-203.6"/>
		<line class="st1" x1="-17.8" y1="-550.3" x2="565.5" y2="-213.6"/>
		<line class="st1" x1="-17.8" y1="-560.4" x2="565.5" y2="-223.6"/>
		<line class="st1" x1="-17.8" y1="-570.4" x2="565.5" y2="-233.6"/>
		<line class="st1" x1="-17.8" y1="-580.4" x2="565.5" y2="-243.6"/>
		<line class="st1" x1="-17.8" y1="-590.4" x2="565.5" y2="-253.7"/>
		<line class="st1" x1="-17.8" y1="-600.4" x2="565.5" y2="-263.7"/>
		<line class="st1" x1="-17.8" y1="-610.4" x2="565.5" y2="-273.7"/>
		<line class="st1" x1="-17.8" y1="-620.5" x2="565.5" y2="-283.7"/>
		<line class="st1" x1="-17.8" y1="-630.5" x2="565.5" y2="-293.7"/>
		<line class="st1" x1="-17.8" y1="-640.5" x2="565.5" y2="-303.7"/>
		<line class="st1" x1="-17.8" y1="-650.5" x2="565.5" y2="-313.8"/>
		<line class="st1" x1="-17.8" y1="-660.5" x2="565.5" y2="-323.8"/>
		<line class="st1" x1="-17.8" y1="-670.5" x2="565.5" y2="-333.8"/>
		<line class="st1" x1="-17.8" y1="-680.5" x2="565.5" y2="-343.8"/>
		<line class="st1" x1="-17.8" y1="-690.6" x2="565.5" y2="-353.8"/>
		<line class="st1" x1="-17.8" y1="-700.6" x2="565.5" y2="-363.8"/>
		<line class="st1" x1="-17.8" y1="-710.6" x2="565.5" y2="-373.8"/>
		<line class="st1" x1="-17.8" y1="-720.6" x2="565.5" y2="-383.9"/>
		<line class="st1" x1="-17.8" y1="-730.6" x2="565.5" y2="-393.9"/>
		<line class="st1" x1="-17.8" y1="-740.6" x2="565.5" y2="-403.9"/>
		<line class="st1" x1="-17.8" y1="-750.7" x2="565.5" y2="-413.9"/>
		<line class="st1" x1="-17.8" y1="-760.7" x2="565.5" y2="-423.9"/>
		<line class="st1" x1="-17.8" y1="-770.7" x2="565.5" y2="-433.9"/>
		<line class="st1" x1="-17.8" y1="-780.7" x2="565.5" y2="-444"/>
		<line class="st1" x1="-17.8" y1="-790.7" x2="565.5" y2="-454"/>
		<line class="st1" x1="-17.8" y1="-800.7" x2="565.5" y2="-464"/>
		<line class="st1" x1="-17.8" y1="-810.7" x2="565.5" y2="-474"/>
		<line class="st1" x1="-17.8" y1="-820.8" x2="565.5" y2="-484"/>
		<line class="st1" x1="-17.8" y1="-830.8" x2="565.5" y2="-494"/>
		<line class="st1" x1="-17.8" y1="-840.8" x2="565.5" y2="-504"/>
		<line class="st1" x1="-17.8" y1="-850.8" x2="565.5" y2="-514.1"/>
		<line class="st1" x1="-17.8" y1="-860.8" x2="565.5" y2="-524.1"/>
		<line class="st1" x1="-17.8" y1="-870.8" x2="565.5" y2="-534.1"/>
		<line class="st1" x1="-17.8" y1="-880.9" x2="565.5" y2="-544.1"/>
		<line class="st1" x1="-17.8" y1="-890.9" x2="565.5" y2="-554.1"/>
		<line class="st1" x1="-17.8" y1="-900.9" x2="565.5" y2="-564.1"/>
		<line class="st1" x1="-17.8" y1="-910.9" x2="565.5" y2="-574.2"/>
		<line class="st1" x1="-17.8" y1="-920.9" x2="565.5" y2="-584.2"/>
		<line class="st1" x1="-17.8" y1="-930.9" x2="565.5" y2="-594.2"/>
		<line class="st1" x1="-17.8" y1="-941" x2="565.5" y2="-604.2"/>
		<line class="st1" x1="-17.8" y1="-951" x2="565.5" y2="-614.2"/>
		<line class="st1" x1="-17.8" y1="-961" x2="565.5" y2="-624.2"/>
		<line class="st1" x1="-17.8" y1="-971" x2="565.5" y2="-634.3"/>
	</g>
</g>
</svg>
