<?xml version="1.0" encoding="utf-8"?>
<!-- Generator: Adobe Illustrator 23.0.4, SVG Export Plug-In . SVG Version: 6.00 Build 0)  -->
<svg version="1.1" id="Layer_1" xmlns="http://www.w3.org/2000/svg" xmlns:xlink="http://www.w3.org/1999/xlink" x="0px" y="0px"
	 viewBox="0 0 252 569" style="enable-background:new 0 0 252 569;" xml:space="preserve">
<style type="text/css">
	.st0{fill:#664FB7;}
	.st1{fill:#3B2552;}
</style>
<g>
	<path class="st0" d="M33.3,0.3l197,123.6l-33.9,19.7L0.5,19.6c-0.6-0.4-0.6-1.2,0-1.6L31.1,0.3C31.8-0.1,32.6-0.1,33.3,0.3z"/>
	<path class="st1" d="M230.3,123.9v57.7c0,0.8-0.4,1.6-1.1,2l-31.4,18.1c-0.6,0.4-1.4-0.1-1.4-0.8v-57.3L230.3,123.9z"/>
</g>
<g>
	<path d="M144.4,52.9c0,0,0.1,0,0.2,0.1l100.6,62.7c0.1,0.1,0.2,0.2,0.2,0.3l-0.1,411.5c0,0.1-0.1,0.2-0.2,0.3l-63.7,36.6l0.1-408.2
		c0-2.9-1.5-5.5-3.9-7.1l-97-60.8L144.3,53C144.3,52.9,144.4,52.9,144.4,52.9 M144.4,48.9c-0.7,0-1.4,0.2-2.1,0.5L75.2,86.7
		c-1.1,0.6-1.2,2.2-0.1,2.9l100.3,62.9c1.3,0.8,2,2.2,2,3.7l-0.1,410.5c0,1.6,1.3,2.7,2.7,2.7c0.4,0,0.9-0.1,1.3-0.4l65.7-37.8
		c1.3-0.8,2.2-2.2,2.2-3.8l0.1-411.5c0-1.5-0.8-2.9-2-3.7L146.7,49.6C146,49.2,145.2,48.9,144.4,48.9L144.4,48.9z"/>
</g>
</svg>
