<?xml version="1.0" encoding="utf-8"?>
<!-- Generator: Adobe Illustrator 23.0.4, SVG Export Plug-In . SVG Version: 6.00 Build 0)  -->
<svg version="1.1" id="Layer_1" xmlns="http://www.w3.org/2000/svg" xmlns:xlink="http://www.w3.org/1999/xlink" x="0px" y="0px"
	 viewBox="0 0 355 635" style="enable-background:new 0 0 355 635;" xml:space="preserve">
<style type="text/css">
	.st0{fill:#5DC1C3;}
	.st1{opacity:0.5;fill:#5DC1C3;}
</style>
<path class="st0" d="M124.7,123.8v57.7c0,0.8,0.4,1.6,1.1,2l31.4,18.1c0.6,0.4,1.4-0.1,1.4-0.8v-57.3L124.7,123.8z"/>
<g>
	<path class="st0" d="M321.7,0.2l-197,123.6l33.9,19.7L354.6,19.4c0.6-0.4,0.6-1.2,0-1.6L324,0.2C323.3-0.2,322.4-0.2,321.7,0.2z"/>
	<path class="st1" d="M124.7,123.8v57.7c0,0.8,0.4,1.6,1.1,2l31.4,18.1c0.6,0.4,1.4-0.1,1.4-0.8v-57.3L124.7,123.8z"/>
</g>
<g>
	<path d="M72.4,630.4C72.4,630.4,72.3,630.4,72.4,630.4L8.6,595l97-60.8c2.4-1.6,3.9-4.2,3.9-7.1l-0.1-407.2l63.7,36.6
		c0.1,0.1,0.2,0.2,0.2,0.3l0.1,410.5c0,0.1-0.1,0.2-0.2,0.3L72.6,630.3C72.5,630.4,72.4,630.4,72.4,630.4 M72.4,634.4
		c0.8,0,1.6-0.3,2.3-0.7l100.6-62.6c1.2-0.8,2-2.2,2-3.7l-0.1-410.5c0-1.6-0.9-3-2.2-3.8l-65.7-37.8c-0.4-0.3-0.9-0.4-1.3-0.4
		c-1.4,0-2.7,1.1-2.7,2.7l0.1,409.5c0,1.5-0.7,2.9-2,3.7L3.1,593.7c-1.1,0.7-1,2.3,0.1,2.9l67.1,37.3
		C71,634.2,71.7,634.4,72.4,634.4L72.4,634.4z"/>
</g>
</svg>
