<svg fill="none" xmlns="http://www.w3.org/2000/svg" viewBox="0 8 126.02 12">
<path d="M39.6875 10.5229H43.0936C45.1373 10.5229 46.1796 11.6371 46.1796 13.27C46.1796 14.5763 45.5393 15.5945 44.2177 15.8954L46.4725 19.8431H44.7047L42.6611 16.158H41.2986V19.8431H39.6875V10.5229ZM42.8211 14.9669C43.9758 14.9669 44.5719 14.445 44.5719 13.3469C44.5719 12.3863 44.0576 11.746 42.8927 11.746H41.3327V14.9477L42.8211 14.9669Z" fill="white"/>
<path d="M49.8081 17.032V13.4269C49.8081 11.4258 51.3238 10.3564 53.2858 10.3564C55.2477 10.3564 56.7873 11.2497 56.7873 13.3212V16.9296C56.7873 19.0075 55.2136 20 53.296 20C51.3783 20 49.8047 19.1227 49.8047 17.032H49.8081ZM55.1319 16.9808V13.2956C55.1319 12.2487 54.3962 11.6371 53.2551 11.6371C52.1141 11.6371 51.4464 12.3543 51.4464 13.4141V16.9808C51.4464 18.0373 52.1277 18.7065 53.3096 18.7065C53.5547 18.7234 53.8008 18.6903 54.031 18.6094C54.2612 18.5284 54.47 18.4017 54.6431 18.2377C54.8162 18.0737 54.9496 17.8765 55.0339 17.6596C55.1183 17.4426 55.1517 17.211 55.1319 16.9808Z" fill="white"/>
<path d="M60.3633 17.032V13.4269C60.3633 11.4258 61.879 10.3564 63.841 10.3564C65.8029 10.3564 67.3459 11.2497 67.3459 13.3212V16.9296C67.3459 19.0075 65.7756 20 63.858 20C61.9403 20 60.3667 19.1227 60.3667 17.032H60.3633ZM65.6939 16.9808V13.2956C65.6939 12.2487 64.9548 11.6371 63.8171 11.6371C62.6795 11.6371 62.0084 12.3543 62.0084 13.4141V16.9808C62.0084 18.0373 62.6897 18.7065 63.8716 18.7065C64.1167 18.7234 64.3628 18.6903 64.593 18.6094C64.8232 18.5284 65.032 18.4017 65.2051 18.2377C65.3782 18.0737 65.5116 17.8765 65.5959 17.6596C65.6803 17.4426 65.7137 17.211 65.6939 16.9808Z" fill="white"/>
<path d="M72.9222 11.7812H70.2109V10.5229H77.2446V11.7812H74.5606V19.8431H72.9222V11.7812Z" fill="white"/>
<path d="M79.7578 18.9146L80.5889 17.8164C81.3412 18.4058 82.2937 18.7216 83.2729 18.7065C84.2062 18.7065 84.9011 18.1846 84.9011 17.4514C84.9011 16.6414 84.2471 16.2604 83.4977 15.9754L82.1046 15.4503C80.8545 14.9797 80.2278 14.1312 80.2278 12.9946C80.2278 11.5571 81.3961 10.3692 83.3581 10.3692C84.395 10.3258 85.4133 10.6388 86.2226 11.2497L85.3745 12.3479C84.6354 11.8516 84.0665 11.5891 83.2729 11.5891C82.3975 11.5891 81.7572 11.9829 81.7572 12.7801C81.7572 13.4204 82.1761 13.7854 83.0243 14.1248L84.3288 14.6467C85.7355 15.2102 86.5258 16.033 86.5258 17.1825C86.5258 18.921 84.9828 19.9936 83.1196 19.9936C81.8889 20.046 80.6828 19.6582 79.7441 18.9082" fill="white"/>
<path d="M91.6898 11.7812H88.9785V10.5229H96.0122V11.7812H93.3282V19.8431H91.6898V11.7812Z" fill="white"/>
<path d="M99.3021 10.5229H102.708C104.752 10.5229 105.794 11.6371 105.794 13.27C105.794 14.5763 105.154 15.5945 103.832 15.8954L106.087 19.8431H104.319L102.276 16.158H100.913V19.8431H99.2715L99.3021 10.5229ZM102.429 14.9669C103.584 14.9669 104.18 14.445 104.18 13.3469C104.18 12.3863 103.665 11.746 102.497 11.746H100.94V14.9477L102.429 14.9669Z" fill="white"/>
<path d="M111.626 10.4976H113.571L116.493 19.8433H114.852L114.116 17.3332H110.945L110.209 19.8305H108.693L111.626 10.4976ZM113.751 16.1582L112.542 12.028H112.515L111.285 16.1582H113.751Z" fill="white"/>
<path d="M119.635 10.5264H123.068C125.054 10.5264 126.001 11.7814 126.001 13.3471C126.001 15.06 124.979 16.3535 122.915 16.3535H121.273V19.8433H119.635V10.5264ZM122.595 15.1656C123.749 15.1656 124.4 14.5253 124.4 13.3983C124.4 12.4602 123.845 11.7526 122.789 11.7526H121.273V15.1656H122.595Z" fill="white"/>
<path d="M30.2193 8L21.2032 16.4749C20.3073 14.2374 18.6109 12.3627 16.4051 11.1723C14.1993 9.98203 11.6215 9.55032 9.11413 9.95129C6.60671 10.3522 4.32587 11.5609 2.66289 13.3699C0.999912 15.1788 0.0584459 17.4754 0 19.8655H3.8285C3.89796 18.1717 4.64744 16.5654 5.9261 15.3701C7.20476 14.1747 8.91767 13.479 10.72 13.423C12.5224 13.367 14.2805 13.9549 15.6403 15.0682C17.0002 16.1816 17.8608 17.7378 18.0491 19.4237L18.0117 19.4653H18.0594C18.0594 19.603 18.0832 19.8495 18.0866 19.8495H22.9335L32.9033 10.5069L30.2193 8Z" fill="white"/>
</svg>