<svg width="791" height="581" viewBox="0 0 791 581" fill="none" xmlns="http://www.w3.org/2000/svg">
<path d="M47.6866 120.015L47.627 120.119L48.9254 211.943C48.9736 212.108 49.0217 212.274 49.1294 212.336L606.885 530.532C606.993 530.594 607.16 530.551 607.268 530.612L743.891 459.057C743.891 459.057 743.95 458.953 744.01 458.849C744.07 458.744 744.07 458.744 744.07 458.744L744.522 369.858C744.582 369.753 744.534 369.587 744.318 369.464C744.103 369.342 744.043 369.446 743.936 369.385L614.896 436.406C611.062 438.372 606.435 438.224 602.665 436.073L48.2481 119.781C47.8653 119.701 47.6866 120.015 47.6866 120.015ZM42.3008 116.942C43.969 114.018 47.8282 112.759 51.1674 114.664L605.584 430.956C607.523 432.062 609.89 432.166 611.921 431.11L741.02 363.984C745.308 361.724 750.742 364.962 750.644 369.889L750.191 458.776C750.145 459.857 749.824 460.92 749.348 461.755C748.752 462.8 747.893 463.555 746.818 464.188L610.195 535.743C608.164 536.799 605.797 536.694 603.858 535.588L46.1023 217.392C44.0557 216.224 42.7126 214.074 42.756 211.745L41.5057 120.088C41.4438 118.945 41.7646 117.882 42.3008 116.942Z" fill="black"/>
<path d="M614.376 407.18L591.019 420.78L591.019 448.182L614.376 434.582L614.376 407.18ZM616.297 403.844L616.297 434.936C616.297 435.391 616.044 435.795 615.64 436.048L590.715 450.608C590.715 450.608 589.805 451.215 589.148 451.215L589.148 449.698L589.148 419.668L616.297 403.844Z" fill="#5EC2C4"/>
<path d="M614.551 434.648L614.551 406.619L590.112 420.781L590.715 448.515L614.551 434.648Z" fill="#5DC1C3"/>
<path fill-rule="evenodd" clip-rule="evenodd" d="M589.148 451.165C588.441 451.165 587.581 450.558 587.581 450.558L562.657 435.998C562.252 435.745 562 435.341 562 434.886L562 403.794L589.148 401.519L589.148 449.598L589.148 451.165Z" fill="#3B2552"/>
<path fill-rule="evenodd" clip-rule="evenodd" d="M589.604 388.121L616.096 403.44C616.348 403.591 616.348 403.996 616.096 404.147L589.149 419.668L562.202 404.097C561.95 403.945 561.95 403.541 562.202 403.389L588.694 388.07C588.997 387.969 589.301 387.969 589.604 388.121Z" fill="#664FB7"/>
</svg>
