<?xml version="1.0" encoding="utf-8"?>
<!-- Generator: Adobe Illustrator 23.0.4, SVG Export Plug-In . SVG Version: 6.00 Build 0)  -->
<svg version="1.1" id="Layer_1" xmlns="http://www.w3.org/2000/svg" xmlns:xlink="http://www.w3.org/1999/xlink" x="0px" y="0px"
	 viewBox="0 0 84 273" style="enable-background:new 0 0 84 273;" xml:space="preserve">
<style type="text/css">
	.st0{fill:#664FB7;}
	.st1{fill:#3A2452;}
</style>
<path class="st0" d="M48,2.2v206.4c0,0.8,0.4,1.4,1.1,1.8L81,227.7c1.4,0.7,3-0.2,3-1.8V23c0-0.8-0.4-1.4-1.1-1.8L48,2.2z"/>
<path class="st1" d="M83.1,227.9L2.6,271.6C1.4,272.2,0,271.4,0,270V66.5c0-0.7,0.4-1.3,0.9-1.6l80.4-43.6c1.2-0.6,2.6,0.2,2.6,1.6
	v203.5C84,227,83.6,227.6,83.1,227.9z"/>
</svg>
