<svg width="380" height="376" viewBox="0 0 380 376" fill="none" xmlns="http://www.w3.org/2000/svg">
<mask id="mask0" mask-type="alpha" maskUnits="userSpaceOnUse" x="8" y="0" width="153" height="374">
<path d="M8.00017 285.999L160.5 374L160.499 88.0001L7.99997 6.10352e-05L8.00017 285.999Z" fill="#C4C4C4"/>
</mask>
<g mask="url(#mask0)">
<path d="M410.537 674.173L-113.184 372.769L-114.395 374.861L409.326 676.265L410.537 674.173Z" fill="#F2F2F2"/>
<path d="M410.564 664.677L-113.156 363.273L-114.367 365.365L409.353 666.768L410.564 664.677Z" fill="#F2F2F2"/>
<path d="M410.591 655.177L-113.129 353.773L-114.34 355.865L409.38 657.269L410.591 655.177Z" fill="#F2F2F2"/>
<path d="M410.541 645.635L-113.18 344.231L-114.391 346.323L409.33 647.727L410.541 645.635Z" fill="#F2F2F2"/>
<path d="M410.568 636.138L-113.152 334.735L-114.363 336.826L409.357 638.23L410.568 636.138Z" fill="#F2F2F2"/>
<path d="M410.595 626.642L-113.125 325.238L-114.336 327.33L409.384 628.733L410.595 626.642Z" fill="#F2F2F2"/>
<path d="M410.544 617.095L-113.176 315.691L-114.387 317.783L409.334 619.187L410.544 617.095Z" fill="#F2F2F2"/>
<path d="M410.572 607.599L-113.148 306.196L-114.359 308.287L409.361 609.691L410.572 607.599Z" fill="#F2F2F2"/>
<path d="M410.599 598.102L-113.121 296.699L-114.332 298.791L409.388 600.194L410.599 598.102Z" fill="#F2F2F2"/>
<path d="M410.548 588.559L-113.172 287.155L-114.383 289.247L409.337 590.651L410.548 588.559Z" fill="#F2F2F2"/>
<path d="M410.576 579.06L-113.145 277.656L-114.355 279.748L409.365 581.152L410.576 579.06Z" fill="#F2F2F2"/>
<path d="M410.525 569.517L-113.195 268.113L-114.406 270.205L409.314 571.609L410.525 569.517Z" fill="#F2F2F2"/>
<path d="M410.548 560.021L-113.172 258.617L-114.383 260.709L409.338 562.113L410.548 560.021Z" fill="#F2F2F2"/>
<path d="M410.576 550.525L-113.145 249.121L-114.355 251.213L409.365 552.617L410.576 550.525Z" fill="#F2F2F2"/>
<path d="M410.525 540.981L-113.195 239.577L-114.406 241.669L409.314 543.073L410.525 540.981Z" fill="#F2F2F2"/>
<path d="M410.552 531.482L-113.168 230.078L-114.379 232.17L409.341 533.574L410.552 531.482Z" fill="#F2F2F2"/>
<path d="M410.58 521.985L-113.141 220.582L-114.352 222.674L409.369 524.077L410.58 521.985Z" fill="#F2F2F2"/>
<path d="M410.529 512.442L-113.191 211.038L-114.402 213.13L409.318 514.534L410.529 512.442Z" fill="#F2F2F2"/>
<path d="M410.556 502.947L-113.164 201.543L-114.375 203.635L409.345 505.039L410.556 502.947Z" fill="#F2F2F2"/>
<path d="M410.584 493.447L-113.137 192.043L-114.348 194.135L409.373 495.539L410.584 493.447Z" fill="#F2F2F2"/>
<path d="M410.533 483.904L-113.188 182.5L-114.398 184.592L409.322 485.996L410.533 483.904Z" fill="#F2F2F2"/>
<path d="M410.56 474.408L-113.16 173.004L-114.371 175.096L409.349 476.499L410.56 474.408Z" fill="#F2F2F2"/>
<path d="M410.587 464.908L-113.133 163.505L-114.344 165.597L409.376 467L410.587 464.908Z" fill="#F2F2F2"/>
<path d="M410.537 455.369L-113.184 153.965L-114.395 156.057L409.326 457.461L410.537 455.369Z" fill="#F2F2F2"/>
<path d="M410.564 445.868L-113.156 144.464L-114.367 146.556L409.353 447.96L410.564 445.868Z" fill="#F2F2F2"/>
<path d="M410.587 436.368L-113.133 134.965L-114.344 137.057L409.376 438.46L410.587 436.368Z" fill="#F2F2F2"/>
<path d="M410.537 426.829L-113.184 125.426L-114.395 127.518L409.326 428.921L410.537 426.829Z" fill="#F2F2F2"/>
<path d="M410.564 417.333L-113.156 115.929L-114.367 118.021L409.353 419.425L410.564 417.333Z" fill="#F2F2F2"/>
<path d="M410.591 407.837L-113.129 106.434L-114.34 108.525L409.38 409.929L410.591 407.837Z" fill="#F2F2F2"/>
<path d="M410.541 398.29L-113.18 96.8867L-114.391 98.9786L409.33 400.382L410.541 398.29Z" fill="#F2F2F2"/>
<path d="M410.566 388.795L-113.154 87.3911L-114.365 89.483L409.355 390.887L410.566 388.795Z" fill="#F2F2F2"/>
<path d="M410.515 379.251L-113.205 77.8477L-114.416 79.9395L409.304 381.343L410.515 379.251Z" fill="#F2F2F2"/>
<path d="M410.545 369.755L-113.176 68.3516L-114.387 70.4434L409.334 371.847L410.545 369.755Z" fill="#F2F2F2"/>
<path d="M410.572 360.256L-113.148 58.8523L-114.359 60.9442L409.361 362.348L410.572 360.256Z" fill="#F2F2F2"/>
<path d="M410.521 350.712L-113.199 49.3086L-114.41 51.4005L409.31 352.804L410.521 350.712Z" fill="#F2F2F2"/>
<path d="M410.548 341.216L-113.172 39.8123L-114.383 41.9041L409.337 343.308L410.548 341.216Z" fill="#F2F2F2"/>
<path d="M410.576 331.716L-113.145 30.3125L-114.355 32.4044L409.365 333.808L410.576 331.716Z" fill="#F2F2F2"/>
<path d="M410.525 322.177L-113.195 20.7734L-114.406 22.8653L409.314 324.269L410.525 322.177Z" fill="#F2F2F2"/>
<path d="M410.552 312.678L-113.168 11.2742L-114.379 13.366L409.341 314.77L410.552 312.678Z" fill="#F2F2F2"/>
<path d="M410.58 303.18L-113.141 1.77637L-114.352 3.86824L409.369 305.272L410.58 303.18Z" fill="#F2F2F2"/>
<path d="M410.529 293.638L-113.191 -7.76562L-114.402 -5.67376L409.318 295.73L410.529 293.638Z" fill="#F2F2F2"/>
<path d="M410.552 284.142L-113.168 -17.2617L-114.379 -15.1699L409.341 286.234L410.552 284.142Z" fill="#F2F2F2"/>
<path d="M410.58 274.642L-113.141 -26.7612L-114.352 -24.6694L409.369 276.734L410.58 274.642Z" fill="#F2F2F2"/>
<path d="M410.529 265.098L-113.191 -36.3052L-114.402 -34.2133L409.318 267.19L410.529 265.098Z" fill="#F2F2F2"/>
<path d="M410.556 255.599L-113.164 -45.8047L-114.375 -43.7128L409.345 257.691L410.556 255.599Z" fill="#F2F2F2"/>
<path d="M410.584 246.103L-113.137 -55.3003L-114.348 -53.2084L409.373 248.195L410.584 246.103Z" fill="#F2F2F2"/>
<path d="M410.533 236.564L-113.188 -64.8401L-114.398 -62.7482L409.322 238.655L410.533 236.564Z" fill="#F2F2F2"/>
<path d="M410.56 227.064L-113.16 -74.3398L-114.371 -72.248L409.349 229.156L410.56 227.064Z" fill="#F2F2F2"/>
<path d="M410.587 217.564L-113.133 -83.8398L-114.344 -81.748L409.377 219.656L410.587 217.564Z" fill="#F2F2F2"/>
<path d="M410.537 208.025L-113.184 -93.3782L-114.395 -91.2863L409.326 210.117L410.537 208.025Z" fill="#F2F2F2"/>
<path d="M410.564 198.528L-113.156 -102.876L-114.367 -100.784L409.353 200.62L410.564 198.528Z" fill="#F2F2F2"/>
<path d="M410.513 188.986L-113.207 -112.418L-114.418 -110.326L409.302 191.078L410.513 188.986Z" fill="#F2F2F2"/>
<path d="M410.541 179.486L-113.18 -121.918L-114.391 -119.826L409.33 181.578L410.541 179.486Z" fill="#F2F2F2"/>
<path d="M410.568 169.99L-113.152 -131.414L-114.363 -129.322L409.357 172.082L410.568 169.99Z" fill="#F2F2F2"/>
<path d="M410.517 160.446L-113.203 -140.958L-114.414 -138.866L409.306 162.538L410.517 160.446Z" fill="#F2F2F2"/>
<path d="M410.541 150.947L-113.18 -150.457L-114.391 -148.365L409.33 153.038L410.541 150.947Z" fill="#F2F2F2"/>
<path d="M410.568 141.451L-113.152 -159.953L-114.363 -157.861L409.357 143.542L410.568 141.451Z" fill="#F2F2F2"/>
<path d="M410.517 131.908L-113.203 -169.496L-114.414 -167.404L409.306 134L410.517 131.908Z" fill="#F2F2F2"/>
<path d="M410.544 122.411L-113.176 -178.992L-114.387 -176.9L409.334 124.503L410.544 122.411Z" fill="#F2F2F2"/>
<path d="M410.57 112.911L-113.15 -188.492L-114.361 -186.4L409.359 115.003L410.57 112.911Z" fill="#F2F2F2"/>
<path d="M410.521 103.368L-113.199 -198.035L-114.41 -195.943L409.31 105.46L410.521 103.368Z" fill="#F2F2F2"/>
<path d="M410.548 93.8726L-113.172 -207.531L-114.383 -205.439L409.337 95.9645L410.548 93.8726Z" fill="#F2F2F2"/>
<path d="M410.574 84.3763L-113.146 -217.027L-114.357 -214.935L409.363 86.4681L410.574 84.3763Z" fill="#F2F2F2"/>
<path d="M410.525 74.8324L-113.195 -226.571L-114.406 -224.479L409.314 76.9242L410.525 74.8324Z" fill="#F2F2F2"/>
<path d="M410.552 65.3334L-113.168 -236.07L-114.379 -233.978L409.341 67.4253L410.552 65.3334Z" fill="#F2F2F2"/>
<path d="M410.58 55.837L-113.141 -245.567L-114.352 -243.475L409.369 57.9289L410.58 55.837Z" fill="#F2F2F2"/>
<path d="M410.529 46.2943L-113.191 -255.109L-114.402 -253.018L409.318 48.3862L410.529 46.2943Z" fill="#F2F2F2"/>
<path d="M410.556 36.7943L-113.164 -264.609L-114.375 -262.518L409.345 38.8862L410.556 36.7943Z" fill="#F2F2F2"/>
<path d="M410.584 27.2979L-113.137 -274.106L-114.348 -272.014L409.373 29.3898L410.584 27.2979Z" fill="#F2F2F2"/>
<path d="M410.533 17.755L-113.188 -283.649L-114.398 -281.557L409.322 19.8468L410.533 17.755Z" fill="#F2F2F2"/>
<path d="M410.556 8.25914L-113.164 -293.145L-114.375 -291.053L409.345 10.351L410.556 8.25914Z" fill="#F2F2F2"/>
<path d="M410.505 -1.28385L-113.215 -302.688L-114.426 -300.596L409.295 0.808016L410.505 -1.28385Z" fill="#F2F2F2"/>
</g>
</svg>
