<?xml version="1.0" encoding="utf-8"?>
<!-- Generator: Adobe Illustrator 23.0.4, SVG Export Plug-In . SVG Version: 6.00 Build 0)  -->
<svg version="1.1" id="Layer_1" xmlns="http://www.w3.org/2000/svg" xmlns:xlink="http://www.w3.org/1999/xlink" x="0px" y="0px"
	 viewBox="0 0 244 638" style="enable-background:new 0 0 244 638;" xml:space="preserve">
<style type="text/css">
	.st0{fill:#5CC1C3;}
</style>
<g>
	<path d="M117.2,6.2c0,0,0.1,0,0.1,0l65.8,37.6c0.1,0.1,0.2,0.2,0.2,0.3v517.8c0,0.1-0.1,0.2-0.1,0.3l-108,67.1c0,0-0.1,0-0.2,0
		c-0.1,0-0.1,0-0.1,0l-64.4-35.2c-0.1,0-0.2-0.1-0.2-0.3c0-0.2,0.1-0.2,0.1-0.3L112,529.9c3-1.9,4.8-5.2,4.8-8.7V6.5
		C116.9,6.2,117.2,6.2,117.2,6.2 M117.2,1.2c-2.8,0-5.3,2.2-5.3,5.3v514.7c0,1.8-0.9,3.5-2.5,4.5L7.7,589.3
		c-3.4,2.1-3.3,7.2,0.3,9.1l64.4,35.2c0.8,0.4,1.7,0.6,2.5,0.6c1,0,1.9-0.3,2.8-0.8l108-67.1c1.6-1,2.5-2.7,2.5-4.5V44
		c0-1.9-1-3.7-2.7-4.6L119.8,1.9C119,1.4,118.1,1.2,117.2,1.2L117.2,1.2z"/>
</g>
<g>
	<polygon class="st0" points="166.7,258.9 166.7,303.5 205.3,325.6 244,303.5 244,258.9 205.3,236.8 	"/>
</g>
</svg>
