<?xml version="1.0" encoding="utf-8"?>
<!-- Generator: Adobe Illustrator 23.0.4, SVG Export Plug-In . SVG Version: 6.00 Build 0)  -->
<svg version="1.1" id="Layer_1" xmlns="http://www.w3.org/2000/svg" xmlns:xlink="http://www.w3.org/1999/xlink" x="0px" y="0px"
	 viewBox="0 0 673 210" style="enable-background:new 0 0 673 210;" xml:space="preserve">
<style type="text/css">
	.st0{clip-path:url(#SVGID_2_);}
	.st1{fill:#F2F2F2;}
</style>
<g>
	<defs>
		<rect id="SVGID_1_" x="0" width="673" height="210"/>
	</defs>
	<clipPath id="SVGID_2_">
		<use xlink:href="#SVGID_1_"  style="overflow:visible;"/>
	</clipPath>
	<g class="st0">
		<g>
			
				<rect x="1312.8" y="257.2" transform="matrix(0.5003 -0.8658 0.8658 0.5003 600.475 1557.6367)" class="st1" width="674" height="2.7"/>
		</g>
		<g>
			
				<rect x="1302.2" y="257.2" transform="matrix(0.5003 -0.8658 0.8658 0.5003 595.1967 1548.4282)" class="st1" width="674" height="2.7"/>
		</g>
		<g>
			
				<rect x="1291.6" y="257.2" transform="matrix(0.5003 -0.8658 0.8658 0.5003 589.917 1539.2219)" class="st1" width="674" height="2.7"/>
		</g>
		<g>
			
				<rect x="1280.9" y="257.2" transform="matrix(0.5003 -0.8658 0.8658 0.5003 584.5389 1530.0133)" class="st1" width="674" height="2.7"/>
		</g>
		<g>
			
				<rect x="1270.3" y="257.2" transform="matrix(0.5003 -0.8658 0.8658 0.5003 579.2606 1520.8049)" class="st1" width="674" height="2.7"/>
		</g>
		<g>
			
				<rect x="1259.7" y="257.2" transform="matrix(0.5003 -0.8658 0.8658 0.5003 573.9822 1511.5964)" class="st1" width="674" height="2.7"/>
		</g>
		<g>
			
				<rect x="1249" y="257.2" transform="matrix(0.5003 -0.8658 0.8658 0.5003 568.6028 1502.3901)" class="st1" width="674" height="2.7"/>
		</g>
		<g>
			
				<rect x="1238.4" y="257.2" transform="matrix(0.5003 -0.8658 0.8658 0.5003 563.3245 1493.1816)" class="st1" width="674" height="2.7"/>
		</g>
		<g>
			
				<rect x="1227.7" y="257.1" transform="matrix(0.5003 -0.8658 0.8658 0.5003 558.0463 1483.9731)" class="st1" width="674" height="2.7"/>
		</g>
		<g>
			
				<rect x="1217.1" y="257.2" transform="matrix(0.5003 -0.8658 0.8658 0.5003 552.6678 1474.7645)" class="st1" width="674" height="2.7"/>
		</g>
		<g>
			
				<rect x="1206.5" y="257.2" transform="matrix(0.5003 -0.8658 0.8658 0.5003 547.3884 1465.5583)" class="st1" width="674" height="2.7"/>
		</g>
		<g>
			
				<rect x="1195.8" y="257.2" transform="matrix(0.5003 -0.8658 0.8658 0.5003 542.0102 1456.3499)" class="st1" width="674" height="2.7"/>
		</g>
		<g>
			
				<rect x="1185.2" y="257.2" transform="matrix(0.5003 -0.8658 0.8658 0.5003 536.7318 1447.1412)" class="st1" width="674" height="2.7"/>
		</g>
		<g>
			
				<rect x="1174.6" y="257.2" transform="matrix(0.5003 -0.8658 0.8658 0.5003 531.4536 1437.9327)" class="st1" width="674" height="2.7"/>
		</g>
		<g>
			
				<rect x="1163.9" y="257.2" transform="matrix(0.5003 -0.8658 0.8658 0.5003 526.074 1428.7264)" class="st1" width="674" height="2.7"/>
		</g>
		<g>
			
				<rect x="1153.3" y="257.2" transform="matrix(0.5003 -0.8658 0.8658 0.5003 520.7957 1419.5179)" class="st1" width="674" height="2.7"/>
		</g>
		<g>
			
				<rect x="1142.7" y="257.2" transform="matrix(0.5003 -0.8658 0.8658 0.5003 515.5175 1410.3094)" class="st1" width="674" height="2.7"/>
		</g>
		<g>
			
				<rect x="1132" y="257.2" transform="matrix(0.5003 -0.8658 0.8658 0.5003 510.1393 1401.101)" class="st1" width="674" height="2.7"/>
		</g>
		<g>
			
				<rect x="1121.4" y="257.2" transform="matrix(0.5003 -0.8658 0.8658 0.5003 504.8597 1391.8947)" class="st1" width="674" height="2.7"/>
		</g>
		<g>
			
				<rect x="1110.8" y="257.2" transform="matrix(0.5003 -0.8658 0.8658 0.5003 499.5815 1382.6862)" class="st1" width="674" height="2.7"/>
		</g>
		<g>
			
				<rect x="1100.1" y="257.2" transform="matrix(0.5003 -0.8658 0.8658 0.5003 494.2032 1373.4777)" class="st1" width="674" height="2.7"/>
		</g>
		<g>
			
				<rect x="1089.5" y="257.2" transform="matrix(0.5003 -0.8658 0.8658 0.5003 488.9249 1364.2692)" class="st1" width="674" height="2.7"/>
		</g>
		<g>
			
				<rect x="1078.9" y="257.2" transform="matrix(0.5003 -0.8658 0.8658 0.5003 483.6454 1355.0629)" class="st1" width="674" height="2.7"/>
		</g>
		<g>
			
				<rect x="1068.2" y="257.2" transform="matrix(0.5003 -0.8658 0.8658 0.5003 478.267 1345.8544)" class="st1" width="674" height="2.7"/>
		</g>
		<g>
			
				<rect x="1057.6" y="257.2" transform="matrix(0.5003 -0.8658 0.8658 0.5003 472.9887 1336.6458)" class="st1" width="674" height="2.7"/>
		</g>
		<g>
			
				<rect x="1047" y="257.1" transform="matrix(0.5003 -0.8658 0.8658 0.5003 467.7104 1327.4374)" class="st1" width="674" height="2.7"/>
		</g>
		<g>
			
				<rect x="1036.3" y="257.2" transform="matrix(0.5003 -0.8658 0.8658 0.5003 462.331 1318.2311)" class="st1" width="674" height="2.7"/>
		</g>
		<g>
			
				<rect x="1025.7" y="257.2" transform="matrix(0.5003 -0.8658 0.8658 0.5003 457.0526 1309.0226)" class="st1" width="674" height="2.7"/>
		</g>
		<g>
			
				<rect x="1015.1" y="257.1" transform="matrix(0.5003 -0.8658 0.8658 0.5003 451.7743 1299.8141)" class="st1" width="674" height="2.7"/>
		</g>
		<g>
			
				<rect x="1004.4" y="257.2" transform="matrix(0.5003 -0.8658 0.8658 0.5003 446.3962 1290.6055)" class="st1" width="674" height="2.7"/>
		</g>
		<g>
			
				<rect x="993.8" y="257.2" transform="matrix(0.5003 -0.8658 0.8658 0.5003 441.1165 1281.3992)" class="st1" width="674" height="2.7"/>
		</g>
		<g>
			
				<rect x="983.1" y="257.2" transform="matrix(0.5003 -0.8658 0.8658 0.5003 435.7384 1272.1907)" class="st1" width="674" height="2.7"/>
		</g>
		<g>
			
				<rect x="972.5" y="257.2" transform="matrix(0.5003 -0.8658 0.8658 0.5003 430.4601 1262.9822)" class="st1" width="674" height="2.7"/>
		</g>
		<g>
			
				<rect x="961.9" y="257.2" transform="matrix(0.5003 -0.8658 0.8658 0.5003 425.1819 1253.7737)" class="st1" width="674" height="2.7"/>
		</g>
		<g>
			
				<rect x="951.2" y="257.2" transform="matrix(0.5003 -0.8658 0.8658 0.5003 419.8023 1244.5674)" class="st1" width="674" height="2.7"/>
		</g>
		<g>
			
				<rect x="940.6" y="257.2" transform="matrix(0.5003 -0.8658 0.8658 0.5003 414.524 1235.3589)" class="st1" width="674" height="2.7"/>
		</g>
		<g>
			
				<rect x="930" y="257.2" transform="matrix(0.5003 -0.8658 0.8658 0.5003 409.2457 1226.1504)" class="st1" width="674" height="2.7"/>
		</g>
		<g>
			
				<rect x="919.3" y="257.2" transform="matrix(0.5003 -0.8658 0.8658 0.5003 403.8675 1216.9419)" class="st1" width="674" height="2.7"/>
		</g>
		<g>
			
				<rect x="908.7" y="257.2" transform="matrix(0.5003 -0.8658 0.8658 0.5003 398.5879 1207.7356)" class="st1" width="674" height="2.7"/>
		</g>
		<g>
			
				<rect x="898.1" y="257.2" transform="matrix(0.5003 -0.8658 0.8658 0.5003 393.3096 1198.5271)" class="st1" width="674" height="2.7"/>
		</g>
		<g>
			
				<rect x="887.4" y="257.2" transform="matrix(0.5003 -0.8658 0.8658 0.5003 387.9314 1189.3186)" class="st1" width="674" height="2.7"/>
		</g>
		<g>
			
				<rect x="876.8" y="257.2" transform="matrix(0.5003 -0.8658 0.8658 0.5003 382.653 1180.11)" class="st1" width="674" height="2.7"/>
		</g>
		<g>
			
				<rect x="866.2" y="257.1" transform="matrix(0.5003 -0.8658 0.8658 0.5003 377.3734 1170.9038)" class="st1" width="674" height="2.7"/>
		</g>
		<g>
			
				<rect x="855.5" y="257.2" transform="matrix(0.5003 -0.8658 0.8658 0.5003 371.9953 1161.6953)" class="st1" width="674" height="2.7"/>
		</g>
		<g>
			
				<rect x="844.9" y="257.2" transform="matrix(0.5003 -0.8658 0.8658 0.5003 366.7171 1152.4867)" class="st1" width="674" height="2.7"/>
		</g>
		<g>
			
				<rect x="834.3" y="257.1" transform="matrix(0.5003 -0.8658 0.8658 0.5003 361.4388 1143.2782)" class="st1" width="674" height="2.7"/>
		</g>
		<g>
			
				<rect x="823.6" y="257.2" transform="matrix(0.5003 -0.8658 0.8658 0.5003 356.0591 1134.0719)" class="st1" width="674" height="2.7"/>
		</g>
		<g>
			
				<rect x="813" y="257.2" transform="matrix(0.5003 -0.8658 0.8658 0.5003 350.781 1124.8635)" class="st1" width="674" height="2.7"/>
		</g>
		<g>
			
				<rect x="802.4" y="257.1" transform="matrix(0.5003 -0.8658 0.8658 0.5003 345.5027 1115.655)" class="st1" width="674" height="2.7"/>
		</g>
		<g>
			
				<rect x="791.7" y="257.2" transform="matrix(0.5003 -0.8658 0.8658 0.5003 340.1244 1106.4464)" class="st1" width="674" height="2.7"/>
		</g>
		<g>
			
				<rect x="781.1" y="257.2" transform="matrix(0.5003 -0.8658 0.8658 0.5003 334.8448 1097.2401)" class="st1" width="674" height="2.7"/>
		</g>
		<g>
			
				<rect x="770.4" y="257.2" transform="matrix(0.5003 -0.8658 0.8658 0.5003 329.4666 1088.0316)" class="st1" width="674" height="2.7"/>
		</g>
		<g>
			
				<rect x="759.8" y="257.2" transform="matrix(0.5003 -0.8658 0.8658 0.5003 324.1883 1078.8231)" class="st1" width="674" height="2.7"/>
		</g>
		<g>
			
				<rect x="749.2" y="257.2" transform="matrix(0.5003 -0.8658 0.8658 0.5003 318.91 1069.6147)" class="st1" width="674" height="2.7"/>
		</g>
		<g>
			
				<rect x="738.5" y="257.2" transform="matrix(0.5003 -0.8658 0.8658 0.5003 313.5305 1060.4083)" class="st1" width="674" height="2.7"/>
		</g>
		<g>
			
				<rect x="727.9" y="257.2" transform="matrix(0.5003 -0.8658 0.8658 0.5003 308.2522 1051.1998)" class="st1" width="674" height="2.7"/>
		</g>
		<g>
			
				<rect x="717.3" y="257.1" transform="matrix(0.5003 -0.8658 0.8658 0.5003 302.9739 1041.9913)" class="st1" width="674" height="2.7"/>
		</g>
		<g>
			
				<rect x="706.6" y="257.2" transform="matrix(0.5003 -0.8658 0.8658 0.5003 297.5957 1032.7827)" class="st1" width="674" height="2.7"/>
		</g>
		<g>
			
				<rect x="696" y="257.2" transform="matrix(0.5003 -0.8658 0.8658 0.5003 292.3162 1023.5766)" class="st1" width="674" height="2.7"/>
		</g>
		<g>
			
				<rect x="685.4" y="257.1" transform="matrix(0.5003 -0.8658 0.8658 0.5003 287.0378 1014.3681)" class="st1" width="674" height="2.7"/>
		</g>
		<g>
			
				<rect x="674.7" y="257.2" transform="matrix(0.5003 -0.8658 0.8658 0.5003 281.6596 1005.1595)" class="st1" width="674" height="2.7"/>
		</g>
		<g>
			
				<rect x="664.1" y="257.2" transform="matrix(0.5003 -0.8658 0.8658 0.5003 276.3813 995.951)" class="st1" width="674" height="2.7"/>
		</g>
		<g>
			
				<rect x="653.5" y="257.1" transform="matrix(0.5003 -0.8658 0.8658 0.5003 271.1017 986.7447)" class="st1" width="674" height="2.7"/>
		</g>
		<g>
			
				<rect x="642.8" y="257.2" transform="matrix(0.5003 -0.8658 0.8658 0.5003 265.7235 977.5362)" class="st1" width="674" height="2.7"/>
		</g>
		<g>
			
				<rect x="632.2" y="257.2" transform="matrix(0.5003 -0.8658 0.8658 0.5003 260.4453 968.3277)" class="st1" width="674" height="2.7"/>
		</g>
		<g>
			
				<rect x="621.6" y="257.1" transform="matrix(0.5003 -0.8658 0.8658 0.5003 255.1669 959.1192)" class="st1" width="674" height="2.7"/>
		</g>
		<g>
			
				<rect x="610.9" y="257.2" transform="matrix(0.5003 -0.8658 0.8658 0.5003 249.7875 949.9129)" class="st1" width="674" height="2.7"/>
		</g>
		<g>
			
				<rect x="600.3" y="257.2" transform="matrix(0.5003 -0.8658 0.8658 0.5003 244.5091 940.7044)" class="st1" width="674" height="2.7"/>
		</g>
		<g>
			
				<rect x="589.7" y="257.1" transform="matrix(0.5003 -0.8658 0.8658 0.5003 239.2309 931.4958)" class="st1" width="674" height="2.7"/>
		</g>
		<g>
			
				<rect x="579" y="257.2" transform="matrix(0.5003 -0.8658 0.8658 0.5003 233.8526 922.2874)" class="st1" width="674" height="2.7"/>
		</g>
		<g>
			
				<rect x="568.4" y="257.2" transform="matrix(0.5003 -0.8658 0.8658 0.5003 228.5731 913.0811)" class="st1" width="674" height="2.7"/>
		</g>
		<g>
			
				<rect x="557.7" y="257.2" transform="matrix(0.5003 -0.8658 0.8658 0.5003 223.1948 903.8726)" class="st1" width="674" height="2.7"/>
		</g>
		<g>
			
				<rect x="547.1" y="257.2" transform="matrix(0.5003 -0.8658 0.8658 0.5003 217.9165 894.6641)" class="st1" width="674" height="2.7"/>
		</g>
		<g>
			
				<rect x="536.5" y="257.1" transform="matrix(0.5003 -0.8658 0.8658 0.5003 212.6382 885.4556)" class="st1" width="674" height="2.7"/>
		</g>
		<g>
			
				<rect x="525.8" y="257.2" transform="matrix(0.4999 -0.8661 0.8661 0.4999 207.6194 876.5828)" class="st1" width="674" height="2.7"/>
		</g>
		<g>
			
				<rect x="515.2" y="257.1" transform="matrix(0.4999 -0.8661 0.8661 0.4999 202.3355 867.3722)" class="st1" width="674" height="2.7"/>
		</g>
		<g>
			
				<rect x="504.6" y="257.1" transform="matrix(0.4999 -0.8661 0.8661 0.4999 197.052 858.1611)" class="st1" width="674" height="2.7"/>
		</g>
		<g>
			
				<rect x="493.9" y="257.2" transform="matrix(0.4999 -0.8661 0.8661 0.4999 191.6683 848.9506)" class="st1" width="674" height="2.7"/>
		</g>
		<g>
			
				<rect x="483.3" y="257.1" transform="matrix(0.4999 -0.8661 0.8661 0.4999 186.3842 839.7407)" class="st1" width="674" height="2.7"/>
		</g>
		<g>
			
				<rect x="472.7" y="257.1" transform="matrix(0.4999 -0.8661 0.8661 0.4999 181.1004 830.5302)" class="st1" width="674" height="2.7"/>
		</g>
		<g>
			
				<rect x="462" y="257.2" transform="matrix(0.4999 -0.8661 0.8661 0.4999 175.7169 821.3191)" class="st1" width="674" height="2.7"/>
		</g>
		<g>
			
				<rect x="451.4" y="257.1" transform="matrix(0.4999 -0.8661 0.8661 0.4999 170.4331 812.1086)" class="st1" width="674" height="2.7"/>
		</g>
		<g>
			
				<rect x="440.8" y="257.1" transform="matrix(0.4999 -0.8661 0.8661 0.4999 165.149 802.8986)" class="st1" width="674" height="2.7"/>
		</g>
		<g>
			
				<rect x="430.1" y="257.2" transform="matrix(0.4999 -0.8661 0.8661 0.4999 159.7652 793.6881)" class="st1" width="674" height="2.7"/>
		</g>
		<g>
			
				<rect x="419.5" y="257.1" transform="matrix(0.4999 -0.8661 0.8661 0.4999 154.4817 784.4771)" class="st1" width="674" height="2.7"/>
		</g>
		<g>
			
				<rect x="408.9" y="257.1" transform="matrix(0.4999 -0.8661 0.8661 0.4999 149.198 775.2666)" class="st1" width="674" height="2.7"/>
		</g>
		<g>
			
				<rect x="398.2" y="257.1" transform="matrix(0.4999 -0.8661 0.8661 0.4999 143.8137 766.0566)" class="st1" width="674" height="2.7"/>
		</g>
		<g>
			
				<rect x="387.6" y="257.1" transform="matrix(0.4999 -0.8661 0.8661 0.4999 138.5301 756.8461)" class="st1" width="674" height="2.7"/>
		</g>
		<g>
			
				<rect x="377" y="257.1" transform="matrix(0.4999 -0.8661 0.8661 0.4999 133.2465 747.635)" class="st1" width="674" height="2.7"/>
		</g>
		<g>
			
				<rect x="366.3" y="257.1" transform="matrix(0.4999 -0.8661 0.8661 0.4999 127.8627 738.4245)" class="st1" width="674" height="2.7"/>
		</g>
		<g>
			
				<rect x="355.7" y="257.1" transform="matrix(0.4999 -0.8661 0.8661 0.4999 122.5786 729.2146)" class="st1" width="674" height="2.7"/>
		</g>
		<g>
			
				<rect x="345" y="257.2" transform="matrix(0.4999 -0.8661 0.8661 0.4999 117.1948 720.004)" class="st1" width="674" height="2.7"/>
		</g>
		<g>
			
				<rect x="334.4" y="257.1" transform="matrix(0.4999 -0.8661 0.8661 0.4999 111.9114 710.793)" class="st1" width="674" height="2.7"/>
		</g>
		<g>
			
				<rect x="323.8" y="257.1" transform="matrix(0.4999 -0.8661 0.8661 0.4999 106.6276 701.5825)" class="st1" width="674" height="2.7"/>
		</g>
		<g>
			
				<rect x="313.1" y="257.2" transform="matrix(0.4999 -0.8661 0.8661 0.4999 101.2434 692.3726)" class="st1" width="674" height="2.7"/>
		</g>
		<g>
			
				<rect x="302.5" y="257.1" transform="matrix(0.4999 -0.8661 0.8661 0.4999 95.9596 683.162)" class="st1" width="674" height="2.7"/>
		</g>
		<g>
			
				<rect x="291.9" y="257.1" transform="matrix(0.4999 -0.8661 0.8661 0.4999 90.6761 673.9509)" class="st1" width="674" height="2.7"/>
		</g>
		<g>
			
				<rect x="281.2" y="257.2" transform="matrix(0.4999 -0.8661 0.8661 0.4999 85.2924 664.7404)" class="st1" width="674" height="2.7"/>
		</g>
		<g>
			
				<rect x="270.6" y="257.1" transform="matrix(0.4999 -0.8661 0.8661 0.4999 80.0089 655.5294)" class="st1" width="674" height="2.7"/>
		</g>
		<g>
			
				<rect x="260" y="257.1" transform="matrix(0.4999 -0.8661 0.8661 0.4999 74.7245 646.3199)" class="st1" width="674" height="2.7"/>
		</g>
		<g>
			
				<rect x="249.3" y="257.2" transform="matrix(0.4999 -0.8661 0.8661 0.4999 69.3409 637.1089)" class="st1" width="674" height="2.7"/>
		</g>
		<g>
			
				<rect x="238.7" y="257.1" transform="matrix(0.4999 -0.8661 0.8661 0.4999 64.0572 627.8984)" class="st1" width="674" height="2.7"/>
		</g>
		<g>
			
				<rect x="228.1" y="257.1" transform="matrix(0.4999 -0.8661 0.8661 0.4999 58.7738 618.6873)" class="st1" width="674" height="2.7"/>
		</g>
		<g>
			
				<rect x="217.4" y="257.2" transform="matrix(0.4999 -0.8661 0.8661 0.4999 53.3893 609.478)" class="st1" width="674" height="2.7"/>
		</g>
		<g>
			
				<rect x="206.8" y="257.1" transform="matrix(0.4999 -0.8661 0.8661 0.4999 48.1059 600.2668)" class="st1" width="674" height="2.7"/>
		</g>
		<g>
			
				<rect x="196.2" y="257.1" transform="matrix(0.4999 -0.8661 0.8661 0.4999 42.822 591.0563)" class="st1" width="674" height="2.7"/>
		</g>
		<g>
			
				<rect x="185.5" y="257.2" transform="matrix(0.4999 -0.8661 0.8661 0.4999 37.4382 581.8459)" class="st1" width="674" height="2.7"/>
		</g>
		<g>
			
				<rect x="174.9" y="257.1" transform="matrix(0.4999 -0.8661 0.8661 0.4999 32.1544 572.6353)" class="st1" width="674" height="2.7"/>
		</g>
		<g>
			
				<rect x="164.3" y="257.1" transform="matrix(0.4999 -0.8661 0.8661 0.4999 26.8707 563.4248)" class="st1" width="674" height="2.7"/>
		</g>
		<g>
			
				<rect x="153.6" y="257.2" transform="matrix(0.4999 -0.8661 0.8661 0.4999 21.4868 554.2143)" class="st1" width="674" height="2.7"/>
		</g>
		<g>
			
				<rect x="143" y="257.1" transform="matrix(0.4999 -0.8661 0.8661 0.4999 16.2031 545.0038)" class="st1" width="674" height="2.7"/>
		</g>
		<g>
			
				<rect x="132.3" y="257.2" transform="matrix(0.4999 -0.8661 0.8661 0.4999 10.8193 535.7933)" class="st1" width="674" height="2.7"/>
		</g>
		<g>
			
				<rect x="121.7" y="257.1" transform="matrix(0.4999 -0.8661 0.8661 0.4999 5.5354 526.5828)" class="st1" width="674" height="2.7"/>
		</g>
		<g>
			
				<rect x="111.1" y="257.1" transform="matrix(0.4999 -0.8661 0.8661 0.4999 0.2516 517.3723)" class="st1" width="674" height="2.7"/>
		</g>
		<g>
			
				<rect x="100.4" y="257.2" transform="matrix(0.4999 -0.8661 0.8661 0.4999 -5.1321 508.1617)" class="st1" width="674" height="2.7"/>
		</g>
		<g>
			
				<rect x="89.8" y="257.1" transform="matrix(0.4999 -0.8661 0.8661 0.4999 -10.4159 498.9513)" class="st1" width="674" height="2.7"/>
		</g>
		<g>
			
				<rect x="79.2" y="257.1" transform="matrix(0.4999 -0.8661 0.8661 0.4999 -15.6998 489.7407)" class="st1" width="674" height="2.7"/>
		</g>
		<g>
			
				<rect x="68.5" y="257.2" transform="matrix(0.4999 -0.8661 0.8661 0.4999 -21.0835 480.5303)" class="st1" width="674" height="2.7"/>
		</g>
		<g>
			
				<rect x="57.9" y="257.1" transform="matrix(0.4999 -0.8661 0.8661 0.4999 -26.3673 471.3197)" class="st1" width="674" height="2.7"/>
		</g>
		<g>
			
				<rect x="47.3" y="257.1" transform="matrix(0.4999 -0.8661 0.8661 0.4999 -31.6511 462.1092)" class="st1" width="674" height="2.7"/>
		</g>
		<g>
			
				<rect x="36.6" y="257.2" transform="matrix(0.4999 -0.8661 0.8661 0.4999 -37.035 452.8987)" class="st1" width="674" height="2.7"/>
		</g>
		<g>
			
				<rect x="26" y="257.1" transform="matrix(0.4999 -0.8661 0.8661 0.4999 -42.3187 443.6882)" class="st1" width="674" height="2.7"/>
		</g>
		<g>
			
				<rect x="15.4" y="257.1" transform="matrix(0.4999 -0.8661 0.8661 0.4999 -47.6025 434.4777)" class="st1" width="674" height="2.7"/>
		</g>
		<g>
			
				<rect x="4.7" y="257.2" transform="matrix(0.4999 -0.8661 0.8661 0.4999 -52.9863 425.2671)" class="st1" width="674" height="2.7"/>
		</g>
		<g>
			
				<rect x="-5.9" y="257.1" transform="matrix(0.4999 -0.8661 0.8661 0.4999 -58.2701 416.0566)" class="st1" width="674" height="2.7"/>
		</g>
		<g>
			
				<rect x="-16.5" y="257.1" transform="matrix(0.4999 -0.8661 0.8661 0.4999 -63.5539 406.8461)" class="st1" width="674" height="2.7"/>
		</g>
		<g>
			
				<rect x="-27.2" y="257.2" transform="matrix(0.4999 -0.8661 0.8661 0.4999 -68.9377 397.6357)" class="st1" width="674" height="2.7"/>
		</g>
		<g>
			
				<rect x="-37.8" y="257.1" transform="matrix(0.4999 -0.8661 0.8661 0.4999 -74.2215 388.4251)" class="st1" width="674" height="2.7"/>
		</g>
		<g>
			
				<rect x="-48.4" y="257.1" transform="matrix(0.4999 -0.8661 0.8661 0.4999 -79.5053 379.2147)" class="st1" width="674" height="2.7"/>
		</g>
		<g>
			
				<rect x="-59.1" y="257.2" transform="matrix(0.4999 -0.8661 0.8661 0.4999 -84.8891 370.0041)" class="st1" width="674" height="2.7"/>
		</g>
		<g>
			
				<rect x="-69.7" y="257.1" transform="matrix(0.4999 -0.8661 0.8661 0.4999 -90.1729 360.7935)" class="st1" width="674" height="2.7"/>
		</g>
		<g>
			
				<rect x="-80.3" y="257.2" transform="matrix(0.4999 -0.8661 0.8661 0.4999 -95.5567 351.5831)" class="st1" width="674" height="2.7"/>
		</g>
		<g>
			
				<rect x="-91" y="257.2" transform="matrix(0.4999 -0.8661 0.8661 0.4999 -100.8404 342.3725)" class="st1" width="674" height="2.7"/>
		</g>
		<g>
			
				<rect x="-101.6" y="257.1" transform="matrix(0.4999 -0.8661 0.8661 0.4999 -106.1242 333.162)" class="st1" width="674" height="2.7"/>
		</g>
		<g>
			
				<rect x="-112.2" y="257.2" transform="matrix(0.4999 -0.8661 0.8661 0.4999 -111.5081 323.9515)" class="st1" width="674" height="2.7"/>
		</g>
		<g>
			
				<rect x="-122.9" y="257.2" transform="matrix(0.4999 -0.8661 0.8661 0.4999 -116.7918 314.7411)" class="st1" width="674" height="2.7"/>
		</g>
		<g>
			
				<rect x="-133.5" y="257.1" transform="matrix(0.4999 -0.8661 0.8661 0.4999 -122.0756 305.5305)" class="st1" width="674" height="2.7"/>
		</g>
		<g>
			
				<rect x="-144.2" y="257.2" transform="matrix(0.4999 -0.8661 0.8661 0.4999 -127.4594 296.3201)" class="st1" width="674" height="2.7"/>
		</g>
		<g>
			
				<rect x="-154.8" y="257.1" transform="matrix(0.4999 -0.8661 0.8661 0.4999 -132.7432 287.1095)" class="st1" width="674" height="2.7"/>
		</g>
		<g>
			
				<rect x="-165.4" y="257.1" transform="matrix(0.4999 -0.8661 0.8661 0.4999 -138.027 277.899)" class="st1" width="674" height="2.7"/>
		</g>
		<g>
			
				<rect x="-176.1" y="257.2" transform="matrix(0.4999 -0.8661 0.8661 0.4999 -143.4108 268.6885)" class="st1" width="674" height="2.7"/>
		</g>
		<g>
			
				<rect x="-186.7" y="257.1" transform="matrix(0.4999 -0.8661 0.8661 0.4999 -148.6947 259.478)" class="st1" width="674" height="2.7"/>
		</g>
		<g>
			
				<rect x="-197.3" y="257.1" transform="matrix(0.4999 -0.8661 0.8661 0.4999 -153.9784 250.2675)" class="st1" width="674" height="2.7"/>
		</g>
		<g>
			
				<rect x="-208" y="257.2" transform="matrix(0.4999 -0.8661 0.8661 0.4999 -159.3622 241.0569)" class="st1" width="674" height="2.7"/>
		</g>
		<g>
			
				<rect x="-218.6" y="257.1" transform="matrix(0.4999 -0.8661 0.8661 0.4999 -164.646 231.8465)" class="st1" width="674" height="2.7"/>
		</g>
		<g>
			
				<rect x="-229.2" y="257.1" transform="matrix(0.4999 -0.8661 0.8661 0.4999 -169.9298 222.636)" class="st1" width="674" height="2.7"/>
		</g>
		<g>
			
				<rect x="-239.9" y="257.2" transform="matrix(0.4999 -0.8661 0.8661 0.4999 -175.3136 213.4255)" class="st1" width="674" height="2.7"/>
		</g>
		<g>
			
				<rect x="-250.5" y="257.1" transform="matrix(0.4999 -0.8661 0.8661 0.4999 -180.5974 204.2149)" class="st1" width="674" height="2.7"/>
		</g>
		<g>
			
				<rect x="-261.1" y="257.1" transform="matrix(0.4999 -0.8661 0.8661 0.4999 -185.8812 195.0043)" class="st1" width="674" height="2.7"/>
		</g>
		<g>
			
				<rect x="-271.8" y="257.2" transform="matrix(0.4999 -0.8661 0.8661 0.4999 -191.2649 185.7939)" class="st1" width="674" height="2.7"/>
		</g>
		<g>
			
				<rect x="-282.4" y="257.1" transform="matrix(0.4999 -0.8661 0.8661 0.4999 -196.5488 176.5834)" class="st1" width="674" height="2.7"/>
		</g>
		<g>
			
				<rect x="-293" y="257.2" transform="matrix(0.4999 -0.8661 0.8661 0.4999 -201.9326 167.3729)" class="st1" width="674" height="2.7"/>
		</g>
		<g>
			
				<rect x="-303.7" y="257.2" transform="matrix(0.4999 -0.8661 0.8661 0.4999 -207.2164 158.1624)" class="st1" width="674" height="2.7"/>
		</g>
		<g>
			
				<rect x="-314.3" y="257.1" transform="matrix(0.4999 -0.8661 0.8661 0.4999 -212.5001 148.9519)" class="st1" width="674" height="2.7"/>
		</g>
		<g>
			
				<rect x="-324.9" y="257.2" transform="matrix(0.4999 -0.8661 0.8661 0.4999 -217.884 139.7414)" class="st1" width="674" height="2.7"/>
		</g>
		<g>
			
				<rect x="-335.6" y="257.2" transform="matrix(0.4999 -0.8661 0.8661 0.4999 -223.1677 130.5309)" class="st1" width="674" height="2.7"/>
		</g>
		<g>
			
				<rect x="-346.2" y="257.1" transform="matrix(0.4999 -0.8661 0.8661 0.4999 -228.4515 121.3203)" class="st1" width="674" height="2.7"/>
		</g>
		<g>
			
				<rect x="-356.8" y="257.2" transform="matrix(0.4999 -0.8661 0.8661 0.4999 -233.8353 112.1098)" class="st1" width="674" height="2.7"/>
		</g>
		<g>
			
				<rect x="-367.5" y="257.2" transform="matrix(0.4999 -0.8661 0.8661 0.4999 -239.1192 102.8993)" class="st1" width="674" height="2.7"/>
		</g>
		<g>
			
				<rect x="-378.1" y="257.1" transform="matrix(0.4999 -0.8661 0.8661 0.4999 -244.403 93.6888)" class="st1" width="674" height="2.7"/>
		</g>
		<g>
			
				<rect x="-388.7" y="257.2" transform="matrix(0.4999 -0.8661 0.8661 0.4999 -249.7867 84.4783)" class="st1" width="674" height="2.7"/>
		</g>
		<g>
			
				<rect x="-399.4" y="257.1" transform="matrix(0.4999 -0.8661 0.8661 0.4999 -255.0705 75.2678)" class="st1" width="674" height="2.7"/>
		</g>
		<g>
			
				<rect x="-410" y="257.1" transform="matrix(0.4999 -0.8661 0.8661 0.4999 -260.3543 66.0573)" class="st1" width="674" height="2.7"/>
		</g>
		<g>
			
				<rect x="-420.7" y="257.2" transform="matrix(0.4999 -0.8661 0.8661 0.4999 -265.7381 56.8468)" class="st1" width="674" height="2.7"/>
		</g>
		<g>
			
				<rect x="-431.3" y="257.1" transform="matrix(0.4999 -0.8661 0.8661 0.4999 -271.0219 47.6363)" class="st1" width="674" height="2.7"/>
		</g>
		<g>
			
				<rect x="-441.9" y="257.1" transform="matrix(0.4999 -0.8661 0.8661 0.4999 -276.3057 38.4257)" class="st1" width="674" height="2.7"/>
		</g>
		<g>
			
				<rect x="-452.6" y="257.2" transform="matrix(0.4999 -0.8661 0.8661 0.4999 -281.6895 29.2152)" class="st1" width="674" height="2.7"/>
		</g>
		<g>
			
				<rect x="-463.2" y="257.1" transform="matrix(0.4999 -0.8661 0.8661 0.4999 -286.9733 20.0047)" class="st1" width="674" height="2.7"/>
		</g>
		<g>
			
				<rect x="-473.8" y="257.1" transform="matrix(0.4999 -0.8661 0.8661 0.4999 -292.2571 10.7942)" class="st1" width="674" height="2.7"/>
		</g>
		<g>
			
				<rect x="-484.5" y="257.2" transform="matrix(0.4999 -0.8661 0.8661 0.4999 -297.6408 1.5837)" class="st1" width="674" height="2.7"/>
		</g>
		<g>
			
				<rect x="-495.1" y="257.1" transform="matrix(0.4999 -0.8661 0.8661 0.4999 -302.9247 -7.6268)" class="st1" width="674" height="2.7"/>
		</g>
		<g>
			
				<rect x="-505.7" y="257.2" transform="matrix(0.4999 -0.8661 0.8661 0.4999 -308.3085 -16.8373)" class="st1" width="674" height="2.7"/>
		</g>
		<g>
			
				<rect x="-516.4" y="257.2" transform="matrix(0.4999 -0.8661 0.8661 0.4999 -313.5923 -26.0478)" class="st1" width="674" height="2.7"/>
		</g>
		<g>
			
				<rect x="-527" y="257.1" transform="matrix(0.4999 -0.8661 0.8661 0.4999 -318.876 -35.2583)" class="st1" width="674" height="2.7"/>
		</g>
		<g>
			
				<rect x="-537.6" y="257.2" transform="matrix(0.4999 -0.8661 0.8661 0.4999 -324.2599 -44.4688)" class="st1" width="674" height="2.7"/>
		</g>
		<g>
			
				<rect x="-548.3" y="257.2" transform="matrix(0.4999 -0.8661 0.8661 0.4999 -329.5437 -53.6794)" class="st1" width="674" height="2.7"/>
		</g>
		<g>
			
				<rect x="-558.9" y="257.1" transform="matrix(0.4999 -0.8661 0.8661 0.4999 -334.8275 -62.8899)" class="st1" width="674" height="2.7"/>
		</g>
		<g>
			
				<rect x="-569.5" y="257.2" transform="matrix(0.4999 -0.8661 0.8661 0.4999 -340.2112 -72.1004)" class="st1" width="674" height="2.7"/>
		</g>
		<g>
			
				<rect x="-580.2" y="257.2" transform="matrix(0.4999 -0.8661 0.8661 0.4999 -345.4951 -81.3108)" class="st1" width="674" height="2.7"/>
		</g>
		<g>
			
				<rect x="-590.8" y="257.1" transform="matrix(0.4999 -0.8661 0.8661 0.4999 -350.7788 -90.5214)" class="st1" width="674" height="2.7"/>
		</g>
		<g>
			
				<rect x="-601.4" y="257.2" transform="matrix(0.4999 -0.8661 0.8661 0.4999 -356.1626 -99.7319)" class="st1" width="674" height="2.7"/>
		</g>
	</g>
</g>
</svg>
