<svg width="271" height="783" viewBox="0 0 271 783" fill="none" xmlns="http://www.w3.org/2000/svg">
<path d="M176.232 776.33L29.3444 677.019C29.1947 676.87 29.0451 676.721 29.0451 676.572L29.1947 62.5238C29.1947 62.3745 29.3443 62.2253 29.494 62.0761L124.823 7.46089L124.673 616.585C124.673 620.912 126.918 624.792 130.51 627.18L261.607 716.31L176.681 776.33C176.544 776.439 176.232 776.33 176.232 776.33ZM176.531 782.448C177.579 782.448 178.626 782.149 179.674 781.702L269.688 718.698C271.334 717.802 271.484 715.415 269.838 714.37L133.802 622.106C131.857 620.912 130.809 618.823 130.809 616.585L130.959 4.02882C130.959 1.64125 129.013 -0.00017109 126.918 -0.000170913C126.32 -0.000170862 125.571 0.14906 124.973 0.596753L26.6506 57.0025C24.7051 58.1963 23.3583 60.2854 23.3583 62.6729L23.2087 676.721C23.2087 678.959 24.4059 681.048 26.2017 682.242L173.089 781.403C174.137 782 175.334 782.448 176.531 782.448Z" fill="#3A2452"/>
<path d="M-1.33997e-06 278.78L-4.04416e-06 248.837L25.9669 234L52.001 248.837L52.001 278.78L25.9669 293.617L-1.33997e-06 278.78Z" fill="#5CC1C3"/>
</svg>
