<svg width="410" height="474" viewBox="0 0 410 474" fill="none" xmlns="http://www.w3.org/2000/svg">
<g clip-path="url(#clip0)">
<mask id="mask0" mask-type="alpha" maskUnits="userSpaceOnUse" x="-227" y="-34" width="965" height="550">
<path d="M725.039 -33.8486L409.59 514.104L411.779 515.372L727.23 -32.5802L725.039 -33.8486Z" fill="#F2F2F2"/>
<path d="M715.059 -33.7969L399.609 514.155L401.799 515.424L717.249 -32.5285L715.059 -33.7969Z" fill="#F2F2F2"/>
<path d="M705.13 -33.8232L389.68 514.129L391.87 515.398L707.32 -32.5549L705.13 -33.8232Z" fill="#F2F2F2"/>
<path d="M695.2 -33.853L379.75 514.099L381.93 515.368L697.38 -32.5846L695.2 -33.853Z" fill="#F2F2F2"/>
<path d="M685.22 -33.8018L369.77 514.151L371.95 515.419L687.4 -32.5334L685.22 -33.8018Z" fill="#F2F2F2"/>
<path d="M675.292 -33.8301L359.832 514.122L362.022 515.391L677.472 -32.5617L675.292 -33.8301Z" fill="#F2F2F2"/>
<path d="M665.352 -33.8574L349.902 514.094L352.092 515.363L667.542 -32.589L665.352 -33.8574Z" fill="#F2F2F2"/>
<path d="M655.372 -33.8057L339.922 514.147L342.112 515.415L657.562 -32.5373L655.372 -33.8057Z" fill="#F2F2F2"/>
<path d="M645.442 -33.835L329.992 514.117L332.182 515.385L647.632 -32.5666L645.442 -33.835Z" fill="#F2F2F2"/>
<path d="M635.513 -33.8643L320.062 514.088L322.243 515.357L637.703 -32.5958L635.513 -33.8643Z" fill="#F2F2F2"/>
<path d="M625.532 -33.8096L310.082 514.142L312.272 515.411L627.722 -32.5412L625.532 -33.8096Z" fill="#F2F2F2"/>
<path d="M615.602 -33.8389L300.152 514.114L302.332 515.382L617.792 -32.5705L615.602 -33.8389Z" fill="#F2F2F2"/>
<path d="M605.673 -33.8682L290.223 514.084L292.403 515.352L607.853 -32.5998L605.673 -33.8682Z" fill="#F2F2F2"/>
<path d="M595.692 -33.8164L280.242 514.135L282.422 515.404L597.872 -32.548L595.692 -33.8164Z" fill="#F2F2F2"/>
<path d="M585.761 -33.8438L270.301 514.109L272.492 515.377L587.941 -32.5754L585.761 -33.8438Z" fill="#F2F2F2"/>
<path d="M575.782 -33.792L260.332 514.161L262.512 515.429L577.962 -32.5236L575.782 -33.792Z" fill="#F2F2F2"/>
<path d="M565.841 -33.8208L250.391 514.131L252.581 515.4L568.031 -32.5524L565.841 -33.8208Z" fill="#F2F2F2"/>
<path d="M555.911 -33.8501L240.461 514.102L242.651 515.37L558.101 -32.5817L555.911 -33.8501Z" fill="#F2F2F2"/>
<path d="M545.841 -33.9307L230.641 514.212L232.831 515.479L548.031 -32.6633L545.841 -33.9307Z" fill="#F2F2F2"/>
<path d="M535.911 -33.959L220.711 514.184L222.901 515.451L538.091 -32.6916L535.911 -33.959Z" fill="#F2F2F2"/>
<path d="M525.971 -33.9868L210.781 514.155L212.961 515.422L528.161 -32.7194L525.971 -33.9868Z" fill="#F2F2F2"/>
<path d="M515.992 -33.9341L200.801 514.208L202.982 515.475L518.181 -32.6667L515.992 -33.9341Z" fill="#F2F2F2"/>
<path d="M506.059 -33.9619L190.859 514.181L193.049 515.448L508.249 -32.6945L506.059 -33.9619Z" fill="#F2F2F2"/>
<path d="M496.13 -33.9897L180.93 514.152L183.12 515.419L498.32 -32.7224L496.13 -33.9897Z" fill="#F2F2F2"/>
<path d="M486.152 -33.9375L170.953 514.205L173.14 515.472L488.342 -32.6701L486.152 -33.9375Z" fill="#F2F2F2"/>
<path d="M476.221 -33.9653L161.02 514.177L163.207 515.444L478.411 -32.6979L476.221 -33.9653Z" fill="#F2F2F2"/>
<path d="M466.292 -33.9937L151.09 514.149L153.277 515.416L468.472 -32.7263L466.292 -33.9937Z" fill="#F2F2F2"/>
<path d="M456.312 -33.9395L141.109 514.203L143.297 515.47L458.492 -32.6721L456.312 -33.9395Z" fill="#F2F2F2"/>
<path d="M446.372 -33.9688L131.176 514.173L133.364 515.441L448.562 -32.7014L446.372 -33.9688Z" fill="#F2F2F2"/>
<path d="M436.44 -33.9971L121.242 514.145L123.429 515.412L438.63 -32.7297L436.44 -33.9971Z" fill="#F2F2F2"/>
<path d="M426.463 -33.9434L111.266 514.199L113.454 515.466L428.653 -32.676L426.463 -33.9434Z" fill="#F2F2F2"/>
<path d="M416.53 -33.9707L101.332 514.172L103.519 515.438L418.72 -32.7033L416.53 -33.9707Z" fill="#F2F2F2"/>
<path d="M406.6 -34L91.3984 514.142L93.5864 515.409L408.79 -32.7326L406.6 -34Z" fill="#F2F2F2"/>
<path d="M396.623 -33.9473L81.4219 514.195L83.6099 515.462L398.813 -32.6799L396.623 -33.9473Z" fill="#F2F2F2"/>
<path d="M386.691 -33.9741L71.4883 514.168L73.6763 515.435L388.871 -32.7067L386.691 -33.9741Z" fill="#F2F2F2"/>
<path d="M376.71 -33.9209L61.5078 514.221L63.6948 515.488L378.89 -32.6535L376.71 -33.9209Z" fill="#F2F2F2"/>
<path d="M366.769 -33.9492L51.5742 514.193L53.7612 515.461L368.959 -32.6818L366.769 -33.9492Z" fill="#F2F2F2"/>
<path d="M356.842 -33.9785L41.6445 514.164L43.8325 515.431L359.032 -32.7111L356.842 -33.9785Z" fill="#F2F2F2"/>
<path d="M346.86 -33.9248L31.6641 514.218L33.852 515.485L349.05 -32.6574L346.86 -33.9248Z" fill="#F2F2F2"/>
<path d="M336.929 -33.9531L21.7305 514.189L23.9185 515.457L339.119 -32.6857L336.929 -33.9531Z" fill="#F2F2F2"/>
<path d="M327.002 -33.9814L11.8008 514.161L13.9878 515.428L329.192 -32.7141L327.002 -33.9814Z" fill="#F2F2F2"/>
<path d="M317.021 -33.9282L1.82031 514.214L4.00831 515.481L319.211 -32.6608L317.021 -33.9282Z" fill="#F2F2F2"/>
<path d="M307.091 -33.957L-8.11328 514.185L-5.92518 515.452L309.271 -32.6897L307.091 -33.957Z" fill="#F2F2F2"/>
<path d="M297.152 -33.9844L-18.043 514.158L-15.855 515.425L299.342 -32.717L297.152 -33.9844Z" fill="#F2F2F2"/>
<path d="M287.171 -33.9321L-28.0234 514.21L-25.8354 515.477L289.361 -32.6647L287.171 -33.9321Z" fill="#F2F2F2"/>
<path d="M277.24 -33.96L-37.957 514.182L-35.77 515.45L279.43 -32.6926L277.24 -33.96Z" fill="#F2F2F2"/>
<path d="M267.312 -33.9883L-47.8867 514.154L-45.6997 515.422L269.502 -32.7209L267.312 -33.9883Z" fill="#F2F2F2"/>
<path d="M257.331 -33.9346L-57.8672 514.208L-55.6802 515.475L259.521 -32.6672L257.331 -33.9346Z" fill="#F2F2F2"/>
<path d="M247.401 -33.9634L-67.8008 514.179L-65.6128 515.446L249.591 -32.696L247.401 -33.9634Z" fill="#F2F2F2"/>
<path d="M237.47 -33.9922L-77.7344 514.15L-75.5474 515.418L239.65 -32.7248L237.47 -33.9922Z" fill="#F2F2F2"/>
<path d="M227.492 -33.9385L-87.7109 514.204L-85.5229 515.471L229.672 -32.6711L227.492 -33.9385Z" fill="#F2F2F2"/>
<path d="M217.551 -33.9663L-97.6445 514.176L-95.4565 515.443L219.741 -32.6989L217.551 -33.9663Z" fill="#F2F2F2"/>
<path d="M207.62 -33.9951L-107.578 514.146L-105.391 515.414L209.81 -32.7277L207.62 -33.9951Z" fill="#F2F2F2"/>
<path d="M197.639 -33.9414L-117.559 514.201L-115.371 515.468L199.829 -32.674L197.639 -33.9414Z" fill="#F2F2F2"/>
<path d="M187.712 -33.9697L-127.488 514.173L-125.3 515.44L189.902 -32.7023L187.712 -33.9697Z" fill="#F2F2F2"/>
<path d="M177.73 -33.9165L-137.469 514.226L-135.281 515.493L179.92 -32.6491L177.73 -33.9165Z" fill="#F2F2F2"/>
<path d="M167.798 -33.9443L-147.402 514.198L-145.214 515.466L169.985 -32.677L167.798 -33.9443Z" fill="#F2F2F2"/>
<path d="M157.867 -33.9727L-157.332 514.169L-155.145 515.437L160.055 -32.7053L157.867 -33.9727Z" fill="#F2F2F2"/>
<path d="M147.888 -33.9194L-167.312 514.223L-165.125 515.49L150.074 -32.652L147.888 -33.9194Z" fill="#F2F2F2"/>
<path d="M137.957 -33.9473L-177.242 514.194L-175.055 515.462L140.145 -32.6799L137.957 -33.9473Z" fill="#F2F2F2"/>
<path d="M128.024 -33.9756L-187.176 514.167L-184.988 515.435L130.211 -32.7082L128.024 -33.9756Z" fill="#F2F2F2"/>
<path d="M118.044 -33.9229L-197.156 514.219L-194.968 515.487L120.231 -32.6555L118.044 -33.9229Z" fill="#F2F2F2"/>
<path d="M108.109 -33.9512L-207.09 514.191L-204.903 515.458L110.297 -32.6838L108.109 -33.9512Z" fill="#F2F2F2"/>
<path d="M98.1797 -33.9805L-217.02 514.161L-214.833 515.429L100.368 -32.7131L98.1797 -33.9805Z" fill="#F2F2F2"/>
<path d="M88.2002 -33.9263L-227 514.216L-224.812 515.483L90.3872 -32.6589L88.2002 -33.9263Z" fill="#F2F2F2"/>
</mask>
<g mask="url(#mask0)">
<path d="M204.201 0L408.402 118.5V355.5L204.201 474L0 355.5V118.5L204.201 0Z" fill="#EDEDED"/>
</g>
</g>
<defs>
<clipPath id="clip0">
<rect width="410" height="474" fill="white"/>
</clipPath>
</defs>
</svg>
