<svg width="421" height="785" viewBox="0 0 421 785" fill="none" xmlns="http://www.w3.org/2000/svg">
<path d="M134.634 6.20063H134.754L213.868 52.8294C213.988 52.9534 214.109 53.0774 214.109 53.2014V695.339C214.109 695.463 213.988 695.587 213.988 695.711L84.136 778.923C84.136 778.923 84.0158 778.923 83.8956 778.923C83.7753 778.923 83.7753 778.923 83.7753 778.923L6.3449 735.271C6.22467 735.271 6.10443 735.147 6.10443 734.899C6.10443 734.651 6.22466 734.651 6.22466 734.527L128.382 655.655C131.989 653.299 134.153 649.206 134.153 644.866V6.57267C134.273 6.20063 134.634 6.20063 134.634 6.20063ZM134.634 0C131.268 0 128.262 2.72828 128.262 6.57267V644.866C128.262 647.098 127.18 649.206 125.256 650.446L2.97836 729.318C-1.10958 731.923 -0.98935 738.247 3.33906 740.603L80.7695 784.256C81.7314 784.752 82.8135 785 83.7753 785C84.9777 785 86.0598 784.628 87.1419 784.008L216.994 700.795C218.918 699.555 220 697.447 220 695.215V53.0774C220 50.7212 218.798 48.4889 216.754 47.3728L137.76 0.868088C136.798 0.248025 135.716 0 134.634 0Z" fill="black"/>
<path d="M371.24 242.448L31.4233 471.886L82.1558 501.283L420.327 271.247C421.224 270.651 421.224 269.457 420.327 268.86L374.533 242.448C373.485 241.851 372.288 241.851 371.24 242.448Z" fill="#664FB7"/>
<path d="M31.5918 471.988L31.5918 558.089C31.5918 559.283 32.1904 560.477 33.238 561.074L80.2291 588.083C81.127 588.68 82.3242 587.934 82.3242 586.889L82.3242 501.385L31.5918 471.988Z" fill="#3A2452"/>
</svg>
