<?xml version="1.0" encoding="utf-8"?>
<!-- Generator: Adobe Illustrator 23.0.4, SVG Export Plug-In . SVG Version: 6.00 Build 0)  -->
<svg version="1.1" id="Layer_1" xmlns="http://www.w3.org/2000/svg" xmlns:xlink="http://www.w3.org/1999/xlink" x="0px" y="0px"
	 viewBox="0 0 1138 282" style="enable-background:new 0 0 1138 282;" xml:space="preserve">
<style type="text/css">
	.st0{clip-path:url(#SVGID_2_);}
	.st1{fill:#F2F2F2;}
</style>
<g>
	<defs>
		<rect id="SVGID_1_" x="0" width="1138" height="282"/>
	</defs>
	<clipPath id="SVGID_2_">
		<use xlink:href="#SVGID_1_"  style="overflow:visible;"/>
	</clipPath>
	<g class="st0">
		<g>
			
				<rect x="1312.8" y="257.2" transform="matrix(0.5003 -0.8658 0.8658 0.5003 600.5233 1557.6123)" class="st1" width="674" height="2.7"/>
		</g>
		<g>
			
				<rect x="1302.2" y="257.2" transform="matrix(0.5003 -0.8658 0.8658 0.5003 595.2091 1548.4037)" class="st1" width="674" height="2.7"/>
		</g>
		<g>
			
				<rect x="1291.6" y="257.2" transform="matrix(0.5003 -0.8658 0.8658 0.5003 589.8962 1539.1974)" class="st1" width="674" height="2.7"/>
		</g>
		<g>
			
				<rect x="1280.9" y="257.2" transform="matrix(0.5003 -0.8658 0.8658 0.5003 584.582 1529.9886)" class="st1" width="674" height="2.7"/>
		</g>
		<g>
			
				<rect x="1270.3" y="257.2" transform="matrix(0.5003 -0.8658 0.8658 0.5003 579.2679 1520.78)" class="st1" width="674" height="2.7"/>
		</g>
		<g>
			
				<rect x="1259.7" y="257.2" transform="matrix(0.5003 -0.8658 0.8658 0.5003 573.9537 1511.5714)" class="st1" width="674" height="2.7"/>
		</g>
		<g>
			
				<rect x="1249" y="257.2" transform="matrix(0.5003 -0.8658 0.8658 0.5003 568.6408 1502.365)" class="st1" width="674" height="2.7"/>
		</g>
		<g>
			
				<rect x="1238.4" y="257.2" transform="matrix(0.5003 -0.8658 0.8658 0.5003 563.3266 1493.1564)" class="st1" width="674" height="2.7"/>
		</g>
		<g>
			
				<rect x="1227.8" y="257.2" transform="matrix(0.5003 -0.8658 0.8658 0.5003 558.0125 1483.9478)" class="st1" width="674" height="2.7"/>
		</g>
		<g>
			
				<rect x="1217.1" y="257.2" transform="matrix(0.5003 -0.8658 0.8658 0.5003 552.6982 1474.7391)" class="st1" width="674" height="2.7"/>
		</g>
		<g>
			
				<rect x="1206.5" y="257.2" transform="matrix(0.5003 -0.8658 0.8658 0.5003 547.3854 1465.5327)" class="st1" width="674" height="2.7"/>
		</g>
		<g>
			
				<rect x="1195.8" y="257.2" transform="matrix(0.5003 -0.8658 0.8658 0.5003 542.0712 1456.3241)" class="st1" width="674" height="2.7"/>
		</g>
		<g>
			
				<rect x="1185.2" y="257.2" transform="matrix(0.5003 -0.8658 0.8658 0.5003 536.757 1447.1155)" class="st1" width="674" height="2.7"/>
		</g>
		<g>
			
				<rect x="1174.6" y="257.2" transform="matrix(0.5003 -0.8658 0.8658 0.5003 531.4428 1437.9067)" class="st1" width="674" height="2.7"/>
		</g>
		<g>
			
				<rect x="1163.9" y="257.2" transform="matrix(0.5003 -0.8658 0.8658 0.5003 526.1299 1428.7004)" class="st1" width="674" height="2.7"/>
		</g>
		<g>
			
				<rect x="1153.3" y="257.2" transform="matrix(0.5003 -0.8658 0.8658 0.5003 520.8157 1419.4918)" class="st1" width="674" height="2.7"/>
		</g>
		<g>
			
				<rect x="1142.7" y="257.2" transform="matrix(0.5003 -0.8658 0.8658 0.5003 515.5016 1410.2831)" class="st1" width="674" height="2.7"/>
		</g>
		<g>
			
				<rect x="1132" y="257.2" transform="matrix(0.5003 -0.8658 0.8658 0.5003 510.1874 1401.0745)" class="st1" width="674" height="2.7"/>
		</g>
		<g>
			
				<rect x="1121.4" y="257.2" transform="matrix(0.5003 -0.8658 0.8658 0.5003 504.8745 1391.868)" class="st1" width="674" height="2.7"/>
		</g>
		<g>
			
				<rect x="1110.8" y="257.2" transform="matrix(0.5003 -0.8658 0.8658 0.5003 499.5603 1382.6594)" class="st1" width="674" height="2.7"/>
		</g>
		<g>
			
				<rect x="1100.1" y="257.2" transform="matrix(0.5003 -0.8658 0.8658 0.5003 494.2462 1373.4508)" class="st1" width="674" height="2.7"/>
		</g>
		<g>
			
				<rect x="1089.5" y="257.2" transform="matrix(0.5003 -0.8658 0.8658 0.5003 488.932 1364.2422)" class="st1" width="674" height="2.7"/>
		</g>
		<g>
			
				<rect x="1078.9" y="257.2" transform="matrix(0.5003 -0.8658 0.8658 0.5003 483.6191 1355.0358)" class="st1" width="674" height="2.7"/>
		</g>
		<g>
			
				<rect x="1068.2" y="257.2" transform="matrix(0.5003 -0.8658 0.8658 0.5003 478.3049 1345.8271)" class="st1" width="674" height="2.7"/>
		</g>
		<g>
			
				<rect x="1057.6" y="257.2" transform="matrix(0.5003 -0.8658 0.8658 0.5003 472.9907 1336.6185)" class="st1" width="674" height="2.7"/>
		</g>
		<g>
			
				<rect x="1047" y="257.2" transform="matrix(0.5003 -0.8658 0.8658 0.5003 467.6765 1327.4099)" class="st1" width="674" height="2.7"/>
		</g>
		<g>
			
				<rect x="1036.3" y="257.2" transform="matrix(0.5003 -0.8658 0.8658 0.5003 462.3637 1318.2035)" class="st1" width="674" height="2.7"/>
		</g>
		<g>
			
				<rect x="1025.7" y="257.2" transform="matrix(0.5003 -0.8658 0.8658 0.5003 457.0495 1308.9949)" class="st1" width="674" height="2.7"/>
		</g>
		<g>
			
				<rect x="1015.1" y="257.2" transform="matrix(0.5003 -0.8658 0.8658 0.5003 451.7353 1299.7863)" class="st1" width="674" height="2.7"/>
		</g>
		<g>
			
				<rect x="1004.4" y="257.2" transform="matrix(0.5003 -0.8658 0.8658 0.5003 446.4211 1290.5775)" class="st1" width="674" height="2.7"/>
		</g>
		<g>
			
				<rect x="993.8" y="257.2" transform="matrix(0.5003 -0.8658 0.8658 0.5003 441.1082 1281.3712)" class="st1" width="674" height="2.7"/>
		</g>
		<g>
			
				<rect x="983.1" y="257.2" transform="matrix(0.5003 -0.8658 0.8658 0.5003 435.7941 1272.1625)" class="st1" width="674" height="2.7"/>
		</g>
		<g>
			
				<rect x="972.5" y="257.2" transform="matrix(0.5003 -0.8658 0.8658 0.5003 430.4799 1262.9539)" class="st1" width="674" height="2.7"/>
		</g>
		<g>
			
				<rect x="961.9" y="257.2" transform="matrix(0.5003 -0.8658 0.8658 0.5003 425.1657 1253.7452)" class="st1" width="674" height="2.7"/>
		</g>
		<g>
			
				<rect x="951.2" y="257.2" transform="matrix(0.5003 -0.8658 0.8658 0.5003 419.8528 1244.5388)" class="st1" width="674" height="2.7"/>
		</g>
		<g>
			
				<rect x="940.6" y="257.2" transform="matrix(0.5003 -0.8658 0.8658 0.5003 414.5386 1235.3302)" class="st1" width="674" height="2.7"/>
		</g>
		<g>
			
				<rect x="930" y="257.2" transform="matrix(0.5003 -0.8658 0.8658 0.5003 409.2245 1226.1216)" class="st1" width="674" height="2.7"/>
		</g>
		<g>
			
				<rect x="919.3" y="257.2" transform="matrix(0.5003 -0.8658 0.8658 0.5003 403.9103 1216.913)" class="st1" width="674" height="2.7"/>
		</g>
		<g>
			
				<rect x="908.7" y="257.2" transform="matrix(0.5003 -0.8658 0.8658 0.5003 398.5974 1207.7065)" class="st1" width="674" height="2.7"/>
		</g>
		<g>
			
				<rect x="898.1" y="257.2" transform="matrix(0.5003 -0.8658 0.8658 0.5003 393.2832 1198.4979)" class="st1" width="674" height="2.7"/>
		</g>
		<g>
			
				<rect x="887.4" y="257.2" transform="matrix(0.5003 -0.8658 0.8658 0.5003 387.969 1189.2893)" class="st1" width="674" height="2.7"/>
		</g>
		<g>
			
				<rect x="876.8" y="257.2" transform="matrix(0.5003 -0.8658 0.8658 0.5003 382.6548 1180.0807)" class="st1" width="674" height="2.7"/>
		</g>
		<g>
			
				<rect x="866.2" y="257.2" transform="matrix(0.5003 -0.8658 0.8658 0.5003 377.3419 1170.8743)" class="st1" width="674" height="2.7"/>
		</g>
		<g>
			
				<rect x="855.5" y="257.2" transform="matrix(0.5003 -0.8658 0.8658 0.5003 372.0278 1161.6656)" class="st1" width="674" height="2.7"/>
		</g>
		<g>
			
				<rect x="844.9" y="257.2" transform="matrix(0.5003 -0.8658 0.8658 0.5003 366.7136 1152.4569)" class="st1" width="674" height="2.7"/>
		</g>
		<g>
			
				<rect x="834.3" y="257.2" transform="matrix(0.5003 -0.8658 0.8658 0.5003 361.3994 1143.2483)" class="st1" width="674" height="2.7"/>
		</g>
		<g>
			
				<rect x="823.6" y="257.2" transform="matrix(0.5003 -0.8658 0.8658 0.5003 356.0865 1134.042)" class="st1" width="674" height="2.7"/>
		</g>
		<g>
			
				<rect x="813" y="257.2" transform="matrix(0.5003 -0.8658 0.8658 0.5003 350.7724 1124.8333)" class="st1" width="674" height="2.7"/>
		</g>
		<g>
			
				<rect x="802.4" y="257.2" transform="matrix(0.5003 -0.8658 0.8658 0.5003 345.4582 1115.6246)" class="st1" width="674" height="2.7"/>
		</g>
		<g>
			
				<rect x="791.7" y="257.2" transform="matrix(0.5003 -0.8658 0.8658 0.5003 340.144 1106.416)" class="st1" width="674" height="2.7"/>
		</g>
		<g>
			
				<rect x="781.1" y="257.2" transform="matrix(0.5003 -0.8658 0.8658 0.5003 334.8311 1097.2096)" class="st1" width="674" height="2.7"/>
		</g>
		<g>
			
				<rect x="770.4" y="257.2" transform="matrix(0.5003 -0.8658 0.8658 0.5003 329.5169 1088.001)" class="st1" width="674" height="2.7"/>
		</g>
		<g>
			
				<rect x="759.8" y="257.2" transform="matrix(0.5003 -0.8658 0.8658 0.5003 324.2028 1078.7924)" class="st1" width="674" height="2.7"/>
		</g>
		<g>
			
				<rect x="749.2" y="257.2" transform="matrix(0.5003 -0.8658 0.8658 0.5003 318.8886 1069.5837)" class="st1" width="674" height="2.7"/>
		</g>
		<g>
			
				<rect x="738.5" y="257.2" transform="matrix(0.5003 -0.8658 0.8658 0.5003 313.5757 1060.3773)" class="st1" width="674" height="2.7"/>
		</g>
		<g>
			
				<rect x="727.9" y="257.2" transform="matrix(0.5003 -0.8658 0.8658 0.5003 308.2615 1051.1687)" class="st1" width="674" height="2.7"/>
		</g>
		<g>
			
				<rect x="717.3" y="257.2" transform="matrix(0.5003 -0.8658 0.8658 0.5003 302.9473 1041.9601)" class="st1" width="674" height="2.7"/>
		</g>
		<g>
			
				<rect x="706.6" y="257.2" transform="matrix(0.5003 -0.8658 0.8658 0.5003 297.6331 1032.7513)" class="st1" width="674" height="2.7"/>
		</g>
		<g>
			
				<rect x="696" y="257.2" transform="matrix(0.5003 -0.8658 0.8658 0.5003 292.3203 1023.545)" class="st1" width="674" height="2.7"/>
		</g>
		<g>
			
				<rect x="685.4" y="257.2" transform="matrix(0.5003 -0.8658 0.8658 0.5003 287.0061 1014.3364)" class="st1" width="674" height="2.7"/>
		</g>
		<g>
			
				<rect x="674.7" y="257.2" transform="matrix(0.5003 -0.8658 0.8658 0.5003 281.6919 1005.1277)" class="st1" width="674" height="2.7"/>
		</g>
		<g>
			
				<rect x="664.1" y="257.2" transform="matrix(0.5003 -0.8658 0.8658 0.5003 276.3777 995.9191)" class="st1" width="674" height="2.7"/>
		</g>
		<g>
			
				<rect x="653.5" y="257.2" transform="matrix(0.5003 -0.8658 0.8658 0.5003 271.0648 986.7127)" class="st1" width="674" height="2.7"/>
		</g>
		<g>
			
				<rect x="642.8" y="257.2" transform="matrix(0.5003 -0.8658 0.8658 0.5003 265.7506 977.5041)" class="st1" width="674" height="2.7"/>
		</g>
		<g>
			
				<rect x="632.2" y="257.2" transform="matrix(0.5003 -0.8658 0.8658 0.5003 260.4365 968.2954)" class="st1" width="674" height="2.7"/>
		</g>
		<g>
			
				<rect x="621.6" y="257.2" transform="matrix(0.5003 -0.8658 0.8658 0.5003 255.1223 959.0868)" class="st1" width="674" height="2.7"/>
		</g>
		<g>
			
				<rect x="610.9" y="257.2" transform="matrix(0.5003 -0.8658 0.8658 0.5003 249.8094 949.8804)" class="st1" width="674" height="2.7"/>
		</g>
		<g>
			
				<rect x="600.3" y="257.2" transform="matrix(0.5003 -0.8658 0.8658 0.5003 244.4952 940.6718)" class="st1" width="674" height="2.7"/>
		</g>
		<g>
			
				<rect x="589.7" y="257.2" transform="matrix(0.5003 -0.8658 0.8658 0.5003 239.181 931.4631)" class="st1" width="674" height="2.7"/>
		</g>
		<g>
			
				<rect x="579" y="257.2" transform="matrix(0.5003 -0.8658 0.8658 0.5003 233.8669 922.2545)" class="st1" width="674" height="2.7"/>
		</g>
		<g>
			
				<rect x="568.4" y="257.2" transform="matrix(0.5003 -0.8658 0.8658 0.5003 228.554 913.0481)" class="st1" width="674" height="2.7"/>
		</g>
		<g>
			
				<rect x="557.7" y="257.2" transform="matrix(0.5003 -0.8658 0.8658 0.5003 223.2398 903.8395)" class="st1" width="674" height="2.7"/>
		</g>
		<g>
			
				<rect x="547.1" y="257.2" transform="matrix(0.5003 -0.8658 0.8658 0.5003 217.9256 894.6308)" class="st1" width="674" height="2.7"/>
		</g>
		<g>
			
				<rect x="536.5" y="257.2" transform="matrix(0.5003 -0.8658 0.8658 0.5003 212.6114 885.4222)" class="st1" width="674" height="2.7"/>
		</g>
		<g>
			
				<rect x="525.8" y="257.2" transform="matrix(0.4999 -0.8661 0.8661 0.4999 207.6001 876.5354)" class="st1" width="674" height="2.7"/>
		</g>
		<g>
			
				<rect x="515.2" y="257.2" transform="matrix(0.4999 -0.8661 0.8661 0.4999 202.2817 867.3247)" class="st1" width="674" height="2.7"/>
		</g>
		<g>
			
				<rect x="504.6" y="257.2" transform="matrix(0.4999 -0.8661 0.8661 0.4999 196.963 858.1135)" class="st1" width="674" height="2.7"/>
		</g>
		<g>
			
				<rect x="493.9" y="257.2" transform="matrix(0.4999 -0.8661 0.8661 0.4999 191.6447 848.9028)" class="st1" width="674" height="2.7"/>
		</g>
		<g>
			
				<rect x="483.3" y="257.2" transform="matrix(0.4999 -0.8661 0.8661 0.4999 186.3267 839.6927)" class="st1" width="674" height="2.7"/>
		</g>
		<g>
			
				<rect x="472.7" y="257.2" transform="matrix(0.4999 -0.8661 0.8661 0.4999 181.0083 830.482)" class="st1" width="674" height="2.7"/>
		</g>
		<g>
			
				<rect x="462" y="257.2" transform="matrix(0.4999 -0.8661 0.8661 0.4999 175.6896 821.2708)" class="st1" width="674" height="2.7"/>
		</g>
		<g>
			
				<rect x="451.4" y="257.2" transform="matrix(0.4999 -0.8661 0.8661 0.4999 170.3713 812.0601)" class="st1" width="674" height="2.7"/>
		</g>
		<g>
			
				<rect x="440.8" y="257.2" transform="matrix(0.4999 -0.8661 0.8661 0.4999 165.0532 802.85)" class="st1" width="674" height="2.7"/>
		</g>
		<g>
			
				<rect x="430.1" y="257.2" transform="matrix(0.4999 -0.8661 0.8661 0.4999 159.7349 793.6393)" class="st1" width="674" height="2.7"/>
		</g>
		<g>
			
				<rect x="419.5" y="257.2" transform="matrix(0.4999 -0.8661 0.8661 0.4999 154.4162 784.4281)" class="st1" width="674" height="2.7"/>
		</g>
		<g>
			
				<rect x="408.9" y="257.2" transform="matrix(0.4999 -0.8661 0.8661 0.4999 149.0979 775.2174)" class="st1" width="674" height="2.7"/>
		</g>
		<g>
			
				<rect x="398.2" y="257.2" transform="matrix(0.4999 -0.8661 0.8661 0.4999 143.7798 766.0073)" class="st1" width="674" height="2.7"/>
		</g>
		<g>
			
				<rect x="387.6" y="257.2" transform="matrix(0.4999 -0.8661 0.8661 0.4999 138.4615 756.7966)" class="st1" width="674" height="2.7"/>
		</g>
		<g>
			
				<rect x="377" y="257.2" transform="matrix(0.4999 -0.8661 0.8661 0.4999 133.1428 747.5854)" class="st1" width="674" height="2.7"/>
		</g>
		<g>
			
				<rect x="366.3" y="257.2" transform="matrix(0.4999 -0.8661 0.8661 0.4999 127.8244 738.3747)" class="st1" width="674" height="2.7"/>
		</g>
		<g>
			
				<rect x="355.7" y="257.2" transform="matrix(0.4999 -0.8661 0.8661 0.4999 122.5064 729.1646)" class="st1" width="674" height="2.7"/>
		</g>
		<g>
			
				<rect x="345" y="257.2" transform="matrix(0.4999 -0.8661 0.8661 0.4999 117.188 719.9539)" class="st1" width="674" height="2.7"/>
		</g>
		<g>
			
				<rect x="334.4" y="257.2" transform="matrix(0.4999 -0.8661 0.8661 0.4999 111.8694 710.7427)" class="st1" width="674" height="2.7"/>
		</g>
		<g>
			
				<rect x="323.8" y="257.2" transform="matrix(0.4999 -0.8661 0.8661 0.4999 106.551 701.532)" class="st1" width="674" height="2.7"/>
		</g>
		<g>
			
				<rect x="313.1" y="257.2" transform="matrix(0.4999 -0.8661 0.8661 0.4999 101.233 692.3219)" class="st1" width="674" height="2.7"/>
		</g>
		<g>
			
				<rect x="302.5" y="257.2" transform="matrix(0.4999 -0.8661 0.8661 0.4999 95.9146 683.1112)" class="st1" width="674" height="2.7"/>
		</g>
		<g>
			
				<rect x="291.9" y="257.2" transform="matrix(0.4999 -0.8661 0.8661 0.4999 90.5959 673.9)" class="st1" width="674" height="2.7"/>
		</g>
		<g>
			
				<rect x="281.2" y="257.2" transform="matrix(0.4999 -0.8661 0.8661 0.4999 85.2776 664.6893)" class="st1" width="674" height="2.7"/>
		</g>
		<g>
			
				<rect x="270.6" y="257.2" transform="matrix(0.4999 -0.8661 0.8661 0.4999 79.9589 655.478)" class="st1" width="674" height="2.7"/>
		</g>
		<g>
			
				<rect x="260" y="257.2" transform="matrix(0.4999 -0.8661 0.8661 0.4999 74.6412 646.2685)" class="st1" width="674" height="2.7"/>
		</g>
		<g>
			
				<rect x="249.3" y="257.2" transform="matrix(0.4999 -0.8661 0.8661 0.4999 69.3225 637.0573)" class="st1" width="674" height="2.7"/>
		</g>
		<g>
			
				<rect x="238.7" y="257.2" transform="matrix(0.4999 -0.8661 0.8661 0.4999 64.0042 627.8466)" class="st1" width="674" height="2.7"/>
		</g>
		<g>
			
				<rect x="228.1" y="257.2" transform="matrix(0.4999 -0.8661 0.8661 0.4999 58.6855 618.6353)" class="st1" width="674" height="2.7"/>
		</g>
		<g>
			
				<rect x="217.4" y="257.2" transform="matrix(0.4999 -0.8661 0.8661 0.4999 53.3678 609.4258)" class="st1" width="674" height="2.7"/>
		</g>
		<g>
			
				<rect x="206.8" y="257.2" transform="matrix(0.4999 -0.8661 0.8661 0.4999 48.0491 600.2145)" class="st1" width="674" height="2.7"/>
		</g>
		<g>
			
				<rect x="196.2" y="257.2" transform="matrix(0.4999 -0.8661 0.8661 0.4999 42.7307 591.0039)" class="st1" width="674" height="2.7"/>
		</g>
		<g>
			
				<rect x="185.5" y="257.2" transform="matrix(0.4999 -0.8661 0.8661 0.4999 37.4124 581.7932)" class="st1" width="674" height="2.7"/>
		</g>
		<g>
			
				<rect x="174.9" y="257.2" transform="matrix(0.4999 -0.8661 0.8661 0.4999 32.094 572.5825)" class="st1" width="674" height="2.7"/>
		</g>
		<g>
			
				<rect x="164.3" y="257.2" transform="matrix(0.4999 -0.8661 0.8661 0.4999 26.7757 563.3718)" class="st1" width="674" height="2.7"/>
		</g>
		<g>
			
				<rect x="153.6" y="257.2" transform="matrix(0.4999 -0.8661 0.8661 0.4999 21.4573 554.1612)" class="st1" width="674" height="2.7"/>
		</g>
		<g>
			
				<rect x="143" y="257.2" transform="matrix(0.4999 -0.8661 0.8661 0.4999 16.139 544.9505)" class="st1" width="674" height="2.7"/>
		</g>
		<g>
			
				<rect x="132.3" y="257.2" transform="matrix(0.4999 -0.8661 0.8661 0.4999 10.8206 535.7398)" class="st1" width="674" height="2.7"/>
		</g>
		<g>
			
				<rect x="121.7" y="257.2" transform="matrix(0.4999 -0.8661 0.8661 0.4999 5.5022 526.5292)" class="st1" width="674" height="2.7"/>
		</g>
		<g>
			
				<rect x="111.1" y="257.2" transform="matrix(0.4999 -0.8661 0.8661 0.4999 0.1839 517.3185)" class="st1" width="674" height="2.7"/>
		</g>
		<g>
			
				<rect x="100.4" y="257.2" transform="matrix(0.4999 -0.8661 0.8661 0.4999 -5.1345 508.1078)" class="st1" width="674" height="2.7"/>
		</g>
		<g>
			
				<rect x="89.8" y="257.2" transform="matrix(0.4999 -0.8661 0.8661 0.4999 -10.4528 498.8971)" class="st1" width="674" height="2.7"/>
		</g>
		<g>
			
				<rect x="79.2" y="257.2" transform="matrix(0.4999 -0.8661 0.8661 0.4999 -15.7712 489.6865)" class="st1" width="674" height="2.7"/>
		</g>
		<g>
			
				<rect x="68.5" y="257.2" transform="matrix(0.4999 -0.8661 0.8661 0.4999 -21.0895 480.4758)" class="st1" width="674" height="2.7"/>
		</g>
		<g>
			
				<rect x="57.9" y="257.2" transform="matrix(0.4999 -0.8661 0.8661 0.4999 -26.4079 471.2651)" class="st1" width="674" height="2.7"/>
		</g>
		<g>
			
				<rect x="47.3" y="257.2" transform="matrix(0.4999 -0.8661 0.8661 0.4999 -31.7262 462.0544)" class="st1" width="674" height="2.7"/>
		</g>
		<g>
			
				<rect x="36.6" y="257.2" transform="matrix(0.4999 -0.8661 0.8661 0.4999 -37.0446 452.8438)" class="st1" width="674" height="2.7"/>
		</g>
		<g>
			
				<rect x="26" y="257.2" transform="matrix(0.4999 -0.8661 0.8661 0.4999 -42.363 443.6331)" class="st1" width="674" height="2.7"/>
		</g>
		<g>
			
				<rect x="15.4" y="257.2" transform="matrix(0.4999 -0.8661 0.8661 0.4999 -47.6813 434.4224)" class="st1" width="674" height="2.7"/>
		</g>
		<g>
			
				<rect x="4.7" y="257.2" transform="matrix(0.4999 -0.8661 0.8661 0.4999 -52.9997 425.2117)" class="st1" width="674" height="2.7"/>
		</g>
		<g>
			
				<rect x="-5.9" y="257.2" transform="matrix(0.4999 -0.8661 0.8661 0.4999 -58.318 416.001)" class="st1" width="674" height="2.7"/>
		</g>
		<g>
			
				<rect x="-16.5" y="257.2" transform="matrix(0.4999 -0.8661 0.8661 0.4999 -63.6364 406.7904)" class="st1" width="674" height="2.7"/>
		</g>
		<g>
			
				<rect x="-27.2" y="257.2" transform="matrix(0.4999 -0.8661 0.8661 0.4999 -68.9547 397.5797)" class="st1" width="674" height="2.7"/>
		</g>
		<g>
			
				<rect x="-37.8" y="257.2" transform="matrix(0.4999 -0.8661 0.8661 0.4999 -74.2731 388.369)" class="st1" width="674" height="2.7"/>
		</g>
		<g>
			
				<rect x="-48.4" y="257.2" transform="matrix(0.4999 -0.8661 0.8661 0.4999 -79.5914 379.1584)" class="st1" width="674" height="2.7"/>
		</g>
		<g>
			
				<rect x="-59.1" y="257.2" transform="matrix(0.4999 -0.8661 0.8661 0.4999 -84.9098 369.9477)" class="st1" width="674" height="2.7"/>
		</g>
		<g>
			
				<rect x="-69.7" y="257.2" transform="matrix(0.4999 -0.8661 0.8661 0.4999 -90.2282 360.737)" class="st1" width="674" height="2.7"/>
		</g>
		<g>
			
				<rect x="-80.4" y="257.2" transform="matrix(0.4999 -0.8661 0.8661 0.4999 -95.5465 351.5263)" class="st1" width="674" height="2.7"/>
		</g>
		<g>
			
				<rect x="-91" y="257.2" transform="matrix(0.4999 -0.8661 0.8661 0.4999 -100.8649 342.3156)" class="st1" width="674" height="2.7"/>
		</g>
		<g>
			
				<rect x="-101.6" y="257.2" transform="matrix(0.4999 -0.8661 0.8661 0.4999 -106.1832 333.1049)" class="st1" width="674" height="2.7"/>
		</g>
		<g>
			
				<rect x="-112.3" y="257.2" transform="matrix(0.4999 -0.8661 0.8661 0.4999 -111.5016 323.8943)" class="st1" width="674" height="2.7"/>
		</g>
		<g>
			
				<rect x="-122.9" y="257.2" transform="matrix(0.4999 -0.8661 0.8661 0.4999 -116.8199 314.6836)" class="st1" width="674" height="2.7"/>
		</g>
		<g>
			
				<rect x="-133.5" y="257.2" transform="matrix(0.4999 -0.8661 0.8661 0.4999 -122.1383 305.4729)" class="st1" width="674" height="2.7"/>
		</g>
		<g>
			
				<rect x="-144.2" y="257.2" transform="matrix(0.4999 -0.8661 0.8661 0.4999 -127.4566 296.2623)" class="st1" width="674" height="2.7"/>
		</g>
		<g>
			
				<rect x="-154.8" y="257.2" transform="matrix(0.4999 -0.8661 0.8661 0.4999 -132.775 287.0516)" class="st1" width="674" height="2.7"/>
		</g>
		<g>
			
				<rect x="-165.4" y="257.2" transform="matrix(0.4999 -0.8661 0.8661 0.4999 -138.0934 277.8409)" class="st1" width="674" height="2.7"/>
		</g>
		<g>
			
				<rect x="-176.1" y="257.2" transform="matrix(0.4999 -0.8661 0.8661 0.4999 -143.4117 268.6302)" class="st1" width="674" height="2.7"/>
		</g>
		<g>
			
				<rect x="-186.7" y="257.2" transform="matrix(0.4999 -0.8661 0.8661 0.4999 -148.7301 259.4196)" class="st1" width="674" height="2.7"/>
		</g>
		<g>
			
				<rect x="-197.3" y="257.2" transform="matrix(0.4999 -0.8661 0.8661 0.4999 -154.0484 250.2089)" class="st1" width="674" height="2.7"/>
		</g>
		<g>
			
				<rect x="-208" y="257.2" transform="matrix(0.4999 -0.8661 0.8661 0.4999 -159.3668 240.9982)" class="st1" width="674" height="2.7"/>
		</g>
		<g>
			
				<rect x="-218.6" y="257.2" transform="matrix(0.4999 -0.8661 0.8661 0.4999 -164.6851 231.7875)" class="st1" width="674" height="2.7"/>
		</g>
		<g>
			
				<rect x="-229.2" y="257.2" transform="matrix(0.4999 -0.8661 0.8661 0.4999 -170.0035 222.5769)" class="st1" width="674" height="2.7"/>
		</g>
		<g>
			
				<rect x="-239.9" y="257.2" transform="matrix(0.4999 -0.8661 0.8661 0.4999 -175.3218 213.3662)" class="st1" width="674" height="2.7"/>
		</g>
		<g>
			
				<rect x="-250.5" y="257.2" transform="matrix(0.4999 -0.8661 0.8661 0.4999 -180.6402 204.1555)" class="st1" width="674" height="2.7"/>
		</g>
		<g>
			
				<rect x="-261.1" y="257.2" transform="matrix(0.4999 -0.8661 0.8661 0.4999 -185.9586 194.9448)" class="st1" width="674" height="2.7"/>
		</g>
		<g>
			
				<rect x="-271.8" y="257.2" transform="matrix(0.4999 -0.8661 0.8661 0.4999 -191.2769 185.7341)" class="st1" width="674" height="2.7"/>
		</g>
		<g>
			
				<rect x="-282.4" y="257.2" transform="matrix(0.4999 -0.8661 0.8661 0.4999 -196.5953 176.5235)" class="st1" width="674" height="2.7"/>
		</g>
		<g>
			
				<rect x="-293.1" y="257.2" transform="matrix(0.4999 -0.8661 0.8661 0.4999 -201.9136 167.3128)" class="st1" width="674" height="2.7"/>
		</g>
		<g>
			
				<rect x="-303.7" y="257.2" transform="matrix(0.4999 -0.8661 0.8661 0.4999 -207.232 158.1021)" class="st1" width="674" height="2.7"/>
		</g>
		<g>
			
				<rect x="-314.3" y="257.2" transform="matrix(0.4999 -0.8661 0.8661 0.4999 -212.5503 148.8914)" class="st1" width="674" height="2.7"/>
		</g>
		<g>
			
				<rect x="-325" y="257.2" transform="matrix(0.4999 -0.8661 0.8661 0.4999 -217.8687 139.6808)" class="st1" width="674" height="2.7"/>
		</g>
		<g>
			
				<rect x="-335.6" y="257.2" transform="matrix(0.4999 -0.8661 0.8661 0.4999 -223.187 130.4701)" class="st1" width="674" height="2.7"/>
		</g>
		<g>
			
				<rect x="-346.2" y="257.2" transform="matrix(0.4999 -0.8661 0.8661 0.4999 -228.5054 121.2594)" class="st1" width="674" height="2.7"/>
		</g>
		<g>
			
				<rect x="-356.9" y="257.2" transform="matrix(0.4999 -0.8661 0.8661 0.4999 -233.8238 112.0487)" class="st1" width="674" height="2.7"/>
		</g>
		<g>
			
				<rect x="-367.5" y="257.2" transform="matrix(0.4999 -0.8661 0.8661 0.4999 -239.1421 102.8381)" class="st1" width="674" height="2.7"/>
		</g>
		<g>
			
				<rect x="-378.1" y="257.2" transform="matrix(0.4999 -0.8661 0.8661 0.4999 -244.4605 93.6274)" class="st1" width="674" height="2.7"/>
		</g>
		<g>
			
				<rect x="-388.8" y="257.2" transform="matrix(0.4999 -0.8661 0.8661 0.4999 -249.7788 84.4167)" class="st1" width="674" height="2.7"/>
		</g>
		<g>
			
				<rect x="-399.4" y="257.2" transform="matrix(0.4999 -0.8661 0.8661 0.4999 -255.0972 75.206)" class="st1" width="674" height="2.7"/>
		</g>
		<g>
			
				<rect x="-410" y="257.2" transform="matrix(0.4999 -0.8661 0.8661 0.4999 -260.4155 65.9954)" class="st1" width="674" height="2.7"/>
		</g>
		<g>
			
				<rect x="-420.7" y="257.2" transform="matrix(0.4999 -0.8661 0.8661 0.4999 -265.7339 56.7847)" class="st1" width="674" height="2.7"/>
		</g>
		<g>
			
				<rect x="-431.3" y="257.2" transform="matrix(0.4999 -0.8661 0.8661 0.4999 -271.0522 47.574)" class="st1" width="674" height="2.7"/>
		</g>
		<g>
			
				<rect x="-441.9" y="257.2" transform="matrix(0.4999 -0.8661 0.8661 0.4999 -276.3706 38.3633)" class="st1" width="674" height="2.7"/>
		</g>
		<g>
			
				<rect x="-452.6" y="257.2" transform="matrix(0.4999 -0.8661 0.8661 0.4999 -281.689 29.1527)" class="st1" width="674" height="2.7"/>
		</g>
		<g>
			
				<rect x="-463.2" y="257.2" transform="matrix(0.4999 -0.8661 0.8661 0.4999 -287.0073 19.942)" class="st1" width="674" height="2.7"/>
		</g>
		<g>
			
				<rect x="-473.8" y="257.2" transform="matrix(0.4999 -0.8661 0.8661 0.4999 -292.3257 10.7313)" class="st1" width="674" height="2.7"/>
		</g>
		<g>
			
				<rect x="-484.5" y="257.2" transform="matrix(0.4999 -0.8661 0.8661 0.4999 -297.644 1.5206)" class="st1" width="674" height="2.7"/>
		</g>
		<g>
			
				<rect x="-495.1" y="257.2" transform="matrix(0.4999 -0.8661 0.8661 0.4999 -302.9624 -7.69)" class="st1" width="674" height="2.7"/>
		</g>
		<g>
			
				<rect x="-505.8" y="257.2" transform="matrix(0.4999 -0.8661 0.8661 0.4999 -308.2807 -16.9007)" class="st1" width="674" height="2.7"/>
		</g>
		<g>
			
				<rect x="-516.4" y="257.2" transform="matrix(0.4999 -0.8661 0.8661 0.4999 -313.5991 -26.1114)" class="st1" width="674" height="2.7"/>
		</g>
		<g>
			
				<rect x="-527" y="257.2" transform="matrix(0.4999 -0.8661 0.8661 0.4999 -318.9174 -35.3221)" class="st1" width="674" height="2.7"/>
		</g>
		<g>
			
				<rect x="-537.7" y="257.2" transform="matrix(0.4999 -0.8661 0.8661 0.4999 -324.2358 -44.5327)" class="st1" width="674" height="2.7"/>
		</g>
		<g>
			
				<rect x="-548.3" y="257.2" transform="matrix(0.4999 -0.8661 0.8661 0.4999 -329.5542 -53.7434)" class="st1" width="674" height="2.7"/>
		</g>
		<g>
			
				<rect x="-558.9" y="257.2" transform="matrix(0.4999 -0.8661 0.8661 0.4999 -334.8725 -62.9541)" class="st1" width="674" height="2.7"/>
		</g>
		<g>
			
				<rect x="-569.6" y="257.2" transform="matrix(0.4999 -0.8661 0.8661 0.4999 -340.1909 -72.1648)" class="st1" width="674" height="2.7"/>
		</g>
		<g>
			
				<rect x="-580.2" y="257.2" transform="matrix(0.4999 -0.8661 0.8661 0.4999 -345.5092 -81.3754)" class="st1" width="674" height="2.7"/>
		</g>
		<g>
			
				<rect x="-590.8" y="257.2" transform="matrix(0.4999 -0.8661 0.8661 0.4999 -350.8276 -90.5861)" class="st1" width="674" height="2.7"/>
		</g>
		<g>
			
				<rect x="-601.5" y="257.2" transform="matrix(0.4999 -0.8661 0.8661 0.4999 -356.1459 -99.7968)" class="st1" width="674" height="2.7"/>
		</g>
	</g>
</g>
</svg>
