<svg width="415" height="266" viewBox="0 0 415 266" fill="none" xmlns="http://www.w3.org/2000/svg">
<path d="M408.58 -79.4575L408.632 -79.3681L409.584 -1.56571C409.548 -1.42578 409.512 -1.28584 409.424 -1.23522L-46.0385 260.883C-46.1265 260.933 -46.2661 260.895 -46.3541 260.945L-161.223 198.453C-161.223 198.453 -161.275 198.364 -161.327 198.274C-161.379 198.185 -161.379 198.185 -161.379 198.185L-163.718 122.848C-163.77 122.759 -163.733 122.619 -163.557 122.518C-163.381 122.416 -163.33 122.506 -163.242 122.455L-54.7606 181.003C-51.538 182.721 -47.7045 182.658 -44.6259 180.886L408.11 -79.6628C408.425 -79.7254 408.58 -79.4575 408.58 -79.4575ZM412.978 -81.9885C411.53 -84.4893 408.302 -85.6085 405.576 -84.0392L-47.1597 176.51C-48.743 177.421 -50.7037 177.477 -52.4107 176.555L-160.944 117.917C-164.549 115.944 -168.983 118.615 -168.793 122.792L-166.454 198.129C-166.392 199.046 -166.102 199.951 -165.689 200.666C-165.171 201.559 -164.442 202.211 -163.537 202.761L-48.6677 265.254C-46.9607 266.177 -45 266.12 -43.4167 265.209L412.046 3.09054C413.717 2.12874 414.783 0.324413 414.696 -1.64953L413.707 -79.312C413.733 -80.2796 413.444 -81.1847 412.978 -81.9885Z" fill="black"/>
</svg>
