<svg width="219" height="285" viewBox="0 0 219 285" fill="none" xmlns="http://www.w3.org/2000/svg">
<path d="M133.498 -463.051H133.617L212.063 -418.315C212.182 -418.197 212.301 -418.078 212.301 -417.959V198.108C212.301 198.227 212.182 198.346 212.182 198.465L83.4259 278.299C83.4259 278.299 83.3067 278.299 83.1875 278.299C83.0682 278.299 83.0682 278.299 83.0682 278.299L6.29134 236.419C6.17213 236.419 6.05291 236.3 6.05291 236.062C6.05291 235.824 6.17213 235.824 6.17213 235.705L127.298 160.035C130.875 157.775 133.021 153.848 133.021 149.684V-462.694C133.14 -463.051 133.498 -463.051 133.498 -463.051ZM133.498 -469C130.16 -469 127.179 -466.382 127.179 -462.694V149.684C127.179 151.826 126.106 153.848 124.199 155.038L2.95322 230.708C-1.10022 233.206 -0.981 239.274 3.31088 241.535L80.0878 283.415C81.0415 283.891 82.1145 284.129 83.0682 284.129C84.2604 284.129 85.3334 283.772 86.4064 283.177L215.163 203.343C217.07 202.153 218.143 200.131 218.143 197.989V-418.078C218.143 -420.338 216.951 -422.48 214.924 -423.551L136.597 -468.167C135.644 -468.762 134.571 -469 133.498 -469Z" fill="black"/>
</svg>
