<svg width="722" height="519" viewBox="0 0 722 519" fill="none" xmlns="http://www.w3.org/2000/svg">
<path d="M712.023 297.552L712.023 334.993L679.554 353.545L647.001 334.993L647.001 297.552L679.554 279L712.023 297.552Z" fill="#664FB7"/>
<path d="M42.8772 113.166L42.8238 113.265L44.679 198.255C44.724 198.407 44.769 198.559 44.8675 198.612L554.798 474.842C554.897 474.895 555.049 474.85 555.147 474.903L678.959 404.125C678.959 404.125 679.012 404.026 679.066 403.928C679.119 403.829 679.119 403.829 679.119 403.829L678.879 321.501C678.932 321.402 678.887 321.25 678.69 321.144C678.494 321.037 678.44 321.136 678.342 321.082L561.398 387.412C557.923 389.359 553.711 389.375 550.264 387.508L43.3865 112.931C43.0376 112.87 42.8772 113.166 42.8772 113.166ZM37.9532 110.499C39.45 107.736 42.9529 106.442 46.0058 108.096L552.884 382.672C554.656 383.633 556.812 383.652 558.652 382.606L675.649 316.177C679.534 313.943 684.503 316.762 684.45 321.328L684.69 403.656C684.656 404.659 684.372 405.654 683.945 406.443C683.41 407.43 682.634 408.158 681.66 408.779L557.848 479.558C556.008 480.603 553.853 480.584 552.08 479.624L42.1498 203.394C40.2786 202.38 39.0405 200.433 39.0629 198.276L37.2528 113.438C37.188 112.382 37.4721 111.387 37.9532 110.499Z" fill="black"/>
</svg>
