<svg width="722" height="519" viewBox="0 0 722 519" fill="none" xmlns="http://www.w3.org/2000/svg">
<path d="M70.9922 94.9928L70.9922 57.5524L103.461 39.0001L136.015 57.5524L136.015 94.9928L103.461 113.545L70.9922 94.9928Z" fill="#664FB7"/>
<path d="M678.312 405.081L678.366 404.982L676.51 319.993C676.465 319.841 676.42 319.689 676.322 319.635L166.391 43.405C166.293 43.3517 166.141 43.397 166.042 43.3437L42.2308 114.122C42.2308 114.122 42.1773 114.221 42.1238 114.319C42.0704 114.418 42.0704 114.418 42.0704 114.418L42.3104 196.746C42.257 196.845 42.302 196.997 42.499 197.103C42.6959 197.21 42.7494 197.111 42.8479 197.165L159.791 130.835C163.266 128.888 167.478 128.872 170.925 130.739L677.803 405.316C678.152 405.377 678.312 405.081 678.312 405.081ZM683.236 407.748C681.739 410.511 678.237 411.805 675.184 410.151L168.306 135.575C166.533 134.614 164.378 134.596 162.538 135.641L45.5408 202.07C41.6552 204.305 36.6861 201.485 36.7394 196.919L36.4994 114.591C36.5331 113.588 36.8172 112.594 37.2448 111.804C37.7794 110.817 38.5559 110.089 39.5294 109.468L163.341 38.6895C165.181 37.6441 167.336 37.6629 169.109 38.6231L679.04 314.853C680.911 315.867 682.149 317.814 682.127 319.972L683.937 404.809C684.001 405.865 683.717 406.86 683.236 407.748Z" fill="black"/>
</svg>
