<?xml version="1.0" encoding="utf-8"?>
<!-- Generator: Adobe Illustrator 23.0.4, SVG Export Plug-In . SVG Version: 6.00 Build 0)  -->
<svg version="1.1" id="Layer_1" xmlns="http://www.w3.org/2000/svg" xmlns:xlink="http://www.w3.org/1999/xlink" x="0px" y="0px"
	 viewBox="0 0 328 146" style="enable-background:new 0 0 328 146;" xml:space="preserve">
<style type="text/css">
	.st0{clip-path:url(#SVGID_2_);}
	.st1{clip-path:url(#SVGID_4_);}
	.st2{fill:#806EBC;}
</style>
<g>
	<defs>
		<rect id="SVGID_1_" y="-0.1" width="328" height="146.1"/>
	</defs>
	<clipPath id="SVGID_2_">
		<use xlink:href="#SVGID_1_"  style="overflow:visible;"/>
	</clipPath>
	<g class="st0">
		<defs>
			<polygon id="SVGID_3_" points="164,-232.7 0,-138.1 0,51.3 164,146 328,51.3 328,-138.1 			"/>
		</defs>
		<clipPath id="SVGID_4_">
			<use xlink:href="#SVGID_3_"  style="overflow:visible;"/>
		</clipPath>
		<g class="st1">
			<g>
				<rect x="104" y="-221.4" transform="matrix(0.5 -0.866 0.866 0.5 -43.1965 146.5725)" class="st2" width="2.6" height="664.2"/>
			</g>
			<g>
				
					<rect x="108.6" y="-230.9" transform="matrix(0.5 -0.866 0.866 0.5 -32.6962 145.7455)" class="st2" width="2.6" height="664.2"/>
			</g>
			<g>
				
					<rect x="113.1" y="-240.4" transform="matrix(0.5 -0.866 0.866 0.5 -22.1944 144.9204)" class="st2" width="2.6" height="664.2"/>
			</g>
			<g>
				
					<rect x="117.6" y="-249.9" transform="matrix(0.5 -0.866 0.866 0.5 -11.6942 144.0934)" class="st2" width="2.6" height="664.2"/>
			</g>
			<g>
				
					<rect x="122.2" y="-259.4" transform="matrix(0.5 -0.866 0.866 0.5 -1.1919 143.2677)" class="st2" width="2.6" height="664.2"/>
			</g>
			<g>
				<rect x="126.7" y="-268.9" transform="matrix(0.5 -0.866 0.866 0.5 9.3083 142.4408)" class="st2" width="2.6" height="664.2"/>
			</g>
			<g>
				
					<rect x="131.2" y="-278.4" transform="matrix(0.5 -0.866 0.866 0.5 19.8089 141.6157)" class="st2" width="2.6" height="664.2"/>
			</g>
			<g>
				
					<rect x="135.8" y="-287.9" transform="matrix(0.5 -0.866 0.866 0.5 30.3105 140.7886)" class="st2" width="2.6" height="664.2"/>
			</g>
			<g>
				<rect x="140.3" y="-297.4" transform="matrix(0.5 -0.866 0.866 0.5 40.8114 139.963)" class="st2" width="2.6" height="664.2"/>
			</g>
			<g>
				<rect x="144.8" y="-307" transform="matrix(0.5 -0.866 0.866 0.5 51.3115 139.1362)" class="st2" width="2.6" height="664.2"/>
			</g>
			<g>
				
					<rect x="149.4" y="-316.5" transform="matrix(0.5 -0.866 0.866 0.5 61.8128 138.3095)" class="st2" width="2.6" height="664.2"/>
			</g>
			<g>
				<rect x="153.9" y="-326" transform="matrix(0.5 -0.866 0.866 0.5 72.3137 137.484)" class="st2" width="2.6" height="664.2"/>
			</g>
			<g>
				
					<rect x="158.4" y="-335.5" transform="matrix(0.5 -0.866 0.866 0.5 82.8153 136.6569)" class="st2" width="2.6" height="664.2"/>
			</g>
			<g>
				<rect x="163" y="-345" transform="matrix(0.5 -0.866 0.866 0.5 93.3162 135.8313)" class="st2" width="2.6" height="664.2"/>
			</g>
			<g>
				
					<rect x="167.5" y="-354.5" transform="matrix(0.5 -0.866 0.866 0.5 103.8159 135.005)" class="st2" width="2.6" height="664.2"/>
			</g>
			<g>
				<rect x="172" y="-364" transform="matrix(0.5 -0.866 0.866 0.5 114.3185 134.1791)" class="st2" width="2.6" height="664.2"/>
			</g>
			<g>
				
					<rect x="176.6" y="-373.5" transform="matrix(0.5 -0.866 0.866 0.5 124.8184 133.3524)" class="st2" width="2.6" height="664.2"/>
			</g>
			<g>
				<rect x="181.1" y="-383" transform="matrix(0.5 -0.866 0.866 0.5 135.321 132.5264)" class="st2" width="2.6" height="664.2"/>
			</g>
			<g>
				
					<rect x="185.7" y="-392.5" transform="matrix(0.5 -0.866 0.866 0.5 145.8207 131.7001)" class="st2" width="2.6" height="664.2"/>
			</g>
			<g>
				<rect x="190.2" y="-402" transform="matrix(0.5 -0.866 0.866 0.5 156.3216 130.8746)" class="st2" width="2.6" height="664.2"/>
			</g>
			<g>
				
					<rect x="194.7" y="-411.5" transform="matrix(0.5 -0.866 0.866 0.5 166.8232 130.0474)" class="st2" width="2.6" height="664.2"/>
			</g>
			<g>
				<rect x="199.3" y="-421" transform="matrix(0.5 -0.866 0.866 0.5 177.3241 129.2219)" class="st2" width="2.6" height="664.2"/>
			</g>
			<g>
				
					<rect x="203.8" y="-430.5" transform="matrix(0.5 -0.866 0.866 0.5 187.8239 128.3953)" class="st2" width="2.6" height="664.2"/>
			</g>
			<g>
				
					<rect x="208.3" y="-440.1" transform="matrix(0.5 -0.866 0.866 0.5 198.3265 127.5696)" class="st2" width="2.6" height="664.2"/>
			</g>
			<g>
				
					<rect x="212.9" y="-449.6" transform="matrix(0.5 -0.866 0.866 0.5 208.8262 126.743)" class="st2" width="2.6" height="664.2"/>
			</g>
			<g>
				
					<rect x="217.4" y="-459.1" transform="matrix(0.5 -0.866 0.866 0.5 219.329 125.9169)" class="st2" width="2.6" height="664.2"/>
			</g>
			<g>
				
					<rect x="221.9" y="-468.6" transform="matrix(0.5 -0.866 0.866 0.5 229.8287 125.0903)" class="st2" width="2.6" height="664.2"/>
			</g>
			<g>
				
					<rect x="226.5" y="-478.1" transform="matrix(0.5 -0.866 0.866 0.5 240.3294 124.2652)" class="st2" width="2.6" height="664.2"/>
			</g>
			<g>
				<rect x="231" y="-487.6" transform="matrix(0.5 -0.866 0.866 0.5 250.8311 123.438)" class="st2" width="2.6" height="664.2"/>
			</g>
			<g>
				
					<rect x="235.5" y="-497.1" transform="matrix(0.5 -0.866 0.866 0.5 261.332 122.6125)" class="st2" width="2.6" height="664.2"/>
			</g>
			<g>
				
					<rect x="240.1" y="-506.6" transform="matrix(0.5 -0.866 0.866 0.5 271.8315 121.7854)" class="st2" width="2.6" height="664.2"/>
			</g>
			<g>
				
					<rect x="244.6" y="-516.1" transform="matrix(0.5 -0.866 0.866 0.5 282.3344 120.9595)" class="st2" width="2.6" height="664.2"/>
			</g>
		</g>
	</g>
</g>
</svg>
