<?xml version="1.0" encoding="utf-8"?>
<!-- Generator: Adobe Illustrator 23.0.4, SVG Export Plug-In . SVG Version: 6.00 Build 0)  -->
<svg version="1.1" id="Layer_1" xmlns="http://www.w3.org/2000/svg" xmlns:xlink="http://www.w3.org/1999/xlink" x="0px" y="0px"
	 viewBox="0 0 328 380" style="enable-background:new 0 0 328 380;" xml:space="preserve">
<style type="text/css">
	.st0{clip-path:url(#SVGID_2_);}
	.st1{fill:#806EBC;}
</style>
<g>
	<defs>
		<polygon id="SVGID_1_" points="164,0 0,94.7 0,284.1 164,378.7 328,284.1 328,94.7 		"/>
	</defs>
	<clipPath id="SVGID_2_">
		<use xlink:href="#SVGID_1_"  style="overflow:visible;"/>
	</clipPath>
	<g class="st0">
		<g>
			<rect x="104" y="11.4" transform="matrix(0.5 -0.866 0.866 0.5 -244.7576 262.9446)" class="st1" width="2.6" height="664.2"/>
		</g>
		<g>
			<rect x="108.6" y="1.8" transform="matrix(0.5 -0.866 0.866 0.5 -234.257 262.1172)" class="st1" width="2.6" height="664.2"/>
		</g>
		<g>
			<rect x="113.1" y="-7.7" transform="matrix(0.5 -0.866 0.866 0.5 -223.7557 261.2928)" class="st1" width="2.6" height="664.2"/>
		</g>
		<g>
			
				<rect x="117.6" y="-17.2" transform="matrix(0.5 -0.866 0.866 0.5 -213.2552 260.4654)" class="st1" width="2.6" height="664.2"/>
		</g>
		<g>
			
				<rect x="122.2" y="-26.7" transform="matrix(0.5 -0.866 0.866 0.5 -202.7532 259.6401)" class="st1" width="2.6" height="664.2"/>
		</g>
		<g>
			
				<rect x="126.7" y="-36.2" transform="matrix(0.5 -0.866 0.866 0.5 -192.2527 258.8127)" class="st1" width="2.6" height="664.2"/>
		</g>
		<g>
			
				<rect x="131.2" y="-45.7" transform="matrix(0.5 -0.866 0.866 0.5 -181.7522 257.9879)" class="st1" width="2.6" height="664.2"/>
		</g>
		<g>
			
				<rect x="135.8" y="-55.2" transform="matrix(0.5 -0.866 0.866 0.5 -171.2507 257.1609)" class="st1" width="2.6" height="664.2"/>
		</g>
		<g>
			
				<rect x="140.3" y="-64.7" transform="matrix(0.5 -0.866 0.866 0.5 -160.7497 256.3352)" class="st1" width="2.6" height="664.2"/>
		</g>
		<g>
			
				<rect x="144.8" y="-74.2" transform="matrix(0.5 -0.866 0.866 0.5 -150.2493 255.5078)" class="st1" width="2.6" height="664.2"/>
		</g>
		<g>
			
				<rect x="149.4" y="-83.7" transform="matrix(0.5 -0.866 0.866 0.5 -139.7483 254.6816)" class="st1" width="2.6" height="664.2"/>
		</g>
		<g>
			<rect x="153.9" y="-93.2" transform="matrix(0.5 -0.866 0.866 0.5 -129.2473 253.856)" class="st1" width="2.6" height="664.2"/>
		</g>
		<g>
			
				<rect x="158.4" y="-102.7" transform="matrix(0.5 -0.866 0.866 0.5 -118.7458 253.0289)" class="st1" width="2.6" height="664.2"/>
		</g>
		<g>
			<rect x="163" y="-112.2" transform="matrix(0.5 -0.866 0.866 0.5 -108.2448 252.2033)" class="st1" width="2.6" height="664.2"/>
		</g>
		<g>
			<rect x="167.5" y="-121.7" transform="matrix(0.5 -0.866 0.866 0.5 -97.745 251.3768)" class="st1" width="2.6" height="664.2"/>
		</g>
		<g>
			<rect x="172" y="-131.3" transform="matrix(0.5 -0.866 0.866 0.5 -87.2427 250.5514)" class="st1" width="2.6" height="664.2"/>
		</g>
		<g>
			
				<rect x="176.6" y="-140.8" transform="matrix(0.5 -0.866 0.866 0.5 -76.7425 249.7241)" class="st1" width="2.6" height="664.2"/>
		</g>
		<g>
			
				<rect x="181.1" y="-150.3" transform="matrix(0.5 -0.866 0.866 0.5 -66.2402 248.8987)" class="st1" width="2.6" height="664.2"/>
		</g>
		<g>
			
				<rect x="185.7" y="-159.8" transform="matrix(0.5 -0.866 0.866 0.5 -55.7404 248.0722)" class="st1" width="2.6" height="664.2"/>
		</g>
		<g>
			
				<rect x="190.2" y="-169.3" transform="matrix(0.5 -0.866 0.866 0.5 -45.2394 247.2466)" class="st1" width="2.6" height="664.2"/>
		</g>
		<g>
			
				<rect x="194.7" y="-178.8" transform="matrix(0.5 -0.866 0.866 0.5 -34.7379 246.4195)" class="st1" width="2.6" height="664.2"/>
		</g>
		<g>
			
				<rect x="199.3" y="-188.3" transform="matrix(0.5 -0.866 0.866 0.5 -24.2369 245.5939)" class="st1" width="2.6" height="664.2"/>
		</g>
		<g>
			
				<rect x="203.8" y="-197.8" transform="matrix(0.5 -0.866 0.866 0.5 -13.7368 244.7667)" class="st1" width="2.6" height="664.2"/>
		</g>
		<g>
			<rect x="208.3" y="-207.3" transform="matrix(0.5 -0.866 0.866 0.5 -3.2347 243.9419)" class="st1" width="2.6" height="664.2"/>
		</g>
		<g>
			<rect x="212.9" y="-216.8" transform="matrix(0.5 -0.866 0.866 0.5 7.2653 243.1148)" class="st1" width="2.6" height="664.2"/>
		</g>
		<g>
			<rect x="217.4" y="-226.3" transform="matrix(0.5 -0.866 0.866 0.5 17.7678 242.2892)" class="st1" width="2.6" height="664.2"/>
		</g>
		<g>
			<rect x="221.9" y="-235.8" transform="matrix(0.5 -0.866 0.866 0.5 28.2678 241.4621)" class="st1" width="2.6" height="664.2"/>
		</g>
		<g>
			<rect x="226.5" y="-245.3" transform="matrix(0.5 -0.866 0.866 0.5 38.7684 240.6371)" class="st1" width="2.6" height="664.2"/>
		</g>
		<g>
			<rect x="231" y="-254.8" transform="matrix(0.5 -0.866 0.866 0.5 49.2701 239.8101)" class="st1" width="2.6" height="664.2"/>
		</g>
		<g>
			<rect x="235.5" y="-264.4" transform="matrix(0.5 -0.866 0.866 0.5 59.771 238.9845)" class="st1" width="2.6" height="664.2"/>
		</g>
		<g>
			<rect x="240.1" y="-273.9" transform="matrix(0.5 -0.866 0.866 0.5 70.2707 238.1571)" class="st1" width="2.6" height="664.2"/>
		</g>
		<g>
			<rect x="244.6" y="-283.4" transform="matrix(0.5 -0.866 0.866 0.5 80.7731 237.332)" class="st1" width="2.6" height="664.2"/>
		</g>
	</g>
</g>
</svg>
