<?xml version="1.0" encoding="utf-8"?>
<!-- Generator: Adobe Illustrator 23.0.4, SVG Export Plug-In . SVG Version: 6.00 Build 0)  -->
<svg version="1.1" id="Layer_1" xmlns="http://www.w3.org/2000/svg" xmlns:xlink="http://www.w3.org/1999/xlink" x="0px" y="0px"
	 viewBox="0 0 279 502" style="enable-background:new 0 0 279 502;" xml:space="preserve">
<style type="text/css">
	.st0{fill:#5CC1C3;}
	.st1{fill:#3A2452;}
</style>
<g>
	<polygon class="st0" points="198.1,419.3 198.1,463.9 236.7,486 275.4,463.9 275.4,419.3 236.7,397.2 	"/>
</g>
<g>
	<path class="st1" d="M174,5.9L274,63l0,334.5l-169.1,99.3L6.3,438.3l163.5-95.9c2.6-1.6,4.3-4.4,4.3-7.5V5.9 M172.7,0
		c-1.9,0-3.7,1.5-3.7,3.7v331.2c0,1.3-0.7,2.5-1.8,3.2l-165.4,97c-2.4,1.4-2.4,4.9,0,6.4l101.2,60c0.6,0.3,1.2,0.5,1.9,0.5
		c0.6,0,1.3-0.2,1.9-0.5l170.4-100.1c1.1-0.7,1.8-1.9,1.8-3.2l0-336c0-1.3-0.7-2.6-1.9-3.2L174.6,0.5C174,0.2,173.3,0,172.7,0
		L172.7,0z"/>
</g>
</svg>
