<svg width="194" height="240" viewBox="0 0 194 240" fill="none" xmlns="http://www.w3.org/2000/svg">
<g clip-path="url(#clip0)">
<mask id="mask0" mask-type="alpha" maskUnits="userSpaceOnUse" x="-245" y="-310" width="966" height="550">
<path d="M508.9 -309.987L193.71 238.155L195.89 239.422L511.09 -308.719L508.9 -309.987Z" fill="#F2F2F2"/>
<path d="M498.92 -309.934L183.729 238.208L185.91 239.475L501.109 -308.667L498.92 -309.934Z" fill="#F2F2F2"/>
<path d="M488.99 -309.961L173.79 238.181L175.98 239.448L491.18 -308.694L488.99 -309.961Z" fill="#F2F2F2"/>
<path d="M479.058 -309.99L163.858 238.152L166.048 239.419L481.248 -308.722L479.058 -309.99Z" fill="#F2F2F2"/>
<path d="M469.08 -309.938L153.881 238.205L156.068 239.472L471.27 -308.67L469.08 -309.938Z" fill="#F2F2F2"/>
<path d="M459.15 -309.965L143.949 238.177L146.136 239.444L461.34 -308.698L459.15 -309.965Z" fill="#F2F2F2"/>
<path d="M449.22 -309.994L134.018 238.149L136.205 239.416L451.4 -308.726L449.22 -309.994Z" fill="#F2F2F2"/>
<path d="M439.24 -309.94L124.037 238.202L126.225 239.47L441.42 -308.673L439.24 -309.94Z" fill="#F2F2F2"/>
<path d="M429.299 -309.969L114.104 238.173L116.292 239.441L431.49 -308.701L429.299 -309.969Z" fill="#F2F2F2"/>
<path d="M419.37 -309.997L104.172 238.145L106.359 239.412L421.56 -308.73L419.37 -309.997Z" fill="#F2F2F2"/>
<path d="M409.389 -309.943L94.1924 238.199L96.3804 239.466L411.579 -308.676L409.389 -309.943Z" fill="#F2F2F2"/>
<path d="M399.46 -309.971L84.2617 238.171L86.4487 239.438L401.65 -308.704L399.46 -309.971Z" fill="#F2F2F2"/>
<path d="M389.53 -310L74.3281 238.142L76.5161 239.409L391.72 -308.733L389.53 -310Z" fill="#F2F2F2"/>
<path d="M379.55 -309.947L64.3486 238.195L66.5366 239.462L381.74 -308.68L379.55 -309.947Z" fill="#F2F2F2"/>
<path d="M369.62 -309.974L54.417 238.168L56.605 239.435L371.8 -308.707L369.62 -309.974Z" fill="#F2F2F2"/>
<path d="M359.64 -309.921L44.4375 238.221L46.6245 239.488L361.82 -308.654L359.64 -309.921Z" fill="#F2F2F2"/>
<path d="M349.7 -309.95L34.5049 238.192L36.6919 239.46L351.89 -308.682L349.7 -309.95Z" fill="#F2F2F2"/>
<path d="M339.77 -309.979L24.5723 238.164L26.7603 239.431L341.96 -308.711L339.77 -309.979Z" fill="#F2F2F2"/>
<path d="M329.79 -309.925L14.5938 238.218L16.7817 239.485L331.98 -308.657L329.79 -309.925Z" fill="#F2F2F2"/>
<path d="M319.86 -309.953L4.66113 238.189L6.84912 239.457L322.05 -308.686L319.86 -309.953Z" fill="#F2F2F2"/>
<path d="M309.93 -309.981L-5.27148 238.161L-3.08446 239.428L312.12 -308.714L309.93 -309.981Z" fill="#F2F2F2"/>
<path d="M299.95 -309.928L-15.251 238.214L-13.063 239.481L302.14 -308.661L299.95 -309.928Z" fill="#F2F2F2"/>
<path d="M290.02 -309.957L-25.1846 238.185L-22.9965 239.452L292.2 -308.69L290.02 -309.957Z" fill="#F2F2F2"/>
<path d="M280.08 -309.984L-35.1152 238.158L-32.9272 239.425L282.27 -308.717L280.08 -309.984Z" fill="#F2F2F2"/>
<path d="M270.1 -309.932L-45.0947 238.21L-42.9067 239.477L272.29 -308.665L270.1 -309.932Z" fill="#F2F2F2"/>
<path d="M260.17 -309.96L-55.0273 238.182L-52.8403 239.45L262.36 -308.693L260.17 -309.96Z" fill="#F2F2F2"/>
<path d="M250.24 -309.989L-64.959 238.154L-62.772 239.421L252.43 -308.721L250.24 -309.989Z" fill="#F2F2F2"/>
<path d="M240.26 -309.935L-74.9385 238.208L-72.7515 239.475L242.45 -308.667L240.26 -309.935Z" fill="#F2F2F2"/>
<path d="M230.33 -309.963L-84.8721 238.179L-82.6841 239.446L232.52 -308.696L230.33 -309.963Z" fill="#F2F2F2"/>
<path d="M220.4 -309.992L-94.8047 238.15L-92.6177 239.418L222.58 -308.724L220.4 -309.992Z" fill="#F2F2F2"/>
<path d="M210.42 -309.938L-104.783 238.204L-102.595 239.471L212.6 -308.671L210.42 -309.938Z" fill="#F2F2F2"/>
<path d="M200.48 -309.966L-114.716 238.176L-112.528 239.443L202.67 -308.699L200.48 -309.966Z" fill="#F2F2F2"/>
<path d="M190.55 -309.995L-124.648 238.147L-122.461 239.415L192.74 -308.727L190.55 -309.995Z" fill="#F2F2F2"/>
<path d="M180.57 -309.941L-134.628 238.201L-132.44 239.468L182.76 -308.674L180.57 -309.941Z" fill="#F2F2F2"/>
<path d="M170.639 -309.97L-144.561 238.173L-142.373 239.44L172.829 -308.702L170.639 -309.97Z" fill="#F2F2F2"/>
<path d="M160.66 -309.917L-154.539 238.226L-152.351 239.493L162.85 -308.649L160.66 -309.917Z" fill="#F2F2F2"/>
<path d="M150.727 -309.945L-164.473 238.198L-162.285 239.465L152.914 -308.677L150.727 -309.945Z" fill="#F2F2F2"/>
<path d="M140.796 -309.973L-174.403 238.169L-172.216 239.437L142.984 -308.705L140.796 -309.973Z" fill="#F2F2F2"/>
<path d="M130.817 -309.919L-184.383 238.223L-182.195 239.49L133.004 -308.652L130.817 -309.919Z" fill="#F2F2F2"/>
<path d="M120.884 -309.948L-194.315 238.194L-192.128 239.462L123.072 -308.68L120.884 -309.948Z" fill="#F2F2F2"/>
<path d="M110.952 -309.976L-204.248 238.166L-202.06 239.434L113.139 -308.709L110.952 -309.976Z" fill="#F2F2F2"/>
<path d="M100.971 -309.923L-214.229 238.219L-212.041 239.487L103.158 -308.655L100.971 -309.923Z" fill="#F2F2F2"/>
<path d="M91.0396 -309.951L-224.159 238.191L-221.972 239.458L93.2276 -308.684L91.0396 -309.951Z" fill="#F2F2F2"/>
<path d="M81.1074 -309.98L-234.092 238.162L-231.905 239.429L83.2954 -308.713L81.1074 -309.98Z" fill="#F2F2F2"/>
<path d="M71.1289 -309.926L-244.071 238.216L-241.883 239.483L73.3159 -308.659L71.1289 -309.926Z" fill="#F2F2F2"/>
</mask>
<g mask="url(#mask0)">
<path d="M96.5 9L193 64.9998V177L96.5 233L0 177V64.9998L96.5 9Z" fill="#EDEDED"/>
</g>
</g>
<defs>
<clipPath id="clip0">
<rect width="194" height="240" fill="white"/>
</clipPath>
</defs>
</svg>
