<svg width="206" height="709" viewBox="0 0 206 709" fill="none" xmlns="http://www.w3.org/2000/svg">
<path d="M93.8125 135.493L93.8125 110.423L115.554 98.0001L137.352 110.423L137.352 135.493L115.554 147.916L93.8125 135.493Z" fill="#5CC1C3"/>
<path d="M125.67 703.367L125.782 703.367L199.628 661.255C199.74 661.143 199.852 661.031 199.852 660.919L199.852 80.9768C199.852 80.8648 199.74 80.7528 199.74 80.6408L78.5339 5.48809C78.5339 5.48809 78.4217 5.48809 78.3094 5.48809C78.1972 5.48809 78.1972 5.48809 78.1972 5.48809L5.92237 44.9125C5.81015 44.9125 5.69792 45.0245 5.69792 45.2485C5.69792 45.4725 5.81015 45.4725 5.81015 45.5845L119.834 116.817C123.201 118.945 125.221 122.641 125.221 126.561L125.221 703.031C125.333 703.367 125.67 703.367 125.67 703.367ZM125.67 708.967C122.527 708.967 119.722 706.503 119.722 703.031L119.722 126.561C119.722 124.545 118.712 122.641 116.916 121.521L2.77999 50.2886C-1.03576 47.9365 -0.923534 42.2244 3.11667 40.0964L75.3915 0.672052C76.2893 0.224053 77.2994 -6.75773e-06 78.1972 -6.83622e-06C79.3195 -6.93434e-06 80.3295 0.335992 81.3396 0.895989L202.546 76.0488C204.341 77.1688 205.352 79.0728 205.352 81.0888L205.352 661.031C205.352 663.159 204.229 665.175 202.321 666.183L128.588 708.183C127.69 708.743 126.68 708.967 125.67 708.967Z" fill="black"/>
</svg>
