<?xml version="1.0" encoding="utf-8"?>
<!-- Generator: Adobe Illustrator 23.0.4, SVG Export Plug-In . SVG Version: 6.00 Build 0)  -->
<svg version="1.1" id="Layer_1" xmlns="http://www.w3.org/2000/svg" xmlns:xlink="http://www.w3.org/1999/xlink" x="0px" y="0px"
	 viewBox="0 0 163 531" style="enable-background:new 0 0 163 531;" xml:space="preserve">
<g>
	<path d="M64.2,531c-0.8,0-1.5-0.2-2.2-0.6L3.4,496.6c-1.8-1.1-3-3.1-3-5.2L0.3,61.8c0-2.1,1.1-4,2.8-5.1l0,0L92.8,0.9
		c1.8-1.1,4.2-1.2,6.1-0.1L158.7,34c1.1,0.6,1.8,1.8,1.9,3.1c0,1.3-0.6,2.5-1.7,3.2l-89.5,56c-0.5,0.3-0.8,0.9-0.8,1.5l0.1,428.7
		c0,1.6-0.8,3.1-2.2,3.9C65.7,530.8,64.9,531,64.2,531z M5.3,60.3c-0.5,0.3-0.8,0.9-0.8,1.5l0.1,429.6c0,0.6,0.3,1.2,0.9,1.5
		l58.5,33.8c0,0,0.1,0.1,0.2,0c0.1-0.1,0.1-0.2,0.1-0.2L64.3,97.7c0-2.1,1.1-4,2.8-5.1l88.6-55.5L96.8,4.5c-0.6-0.3-1.2-0.3-1.8,0
		L5.3,60.3z"/>
</g>
</svg>
