<?xml version="1.0" encoding="utf-8"?>
<!-- Generator: Adobe Illustrator 23.0.4, SVG Export Plug-In . SVG Version: 6.00 Build 0)  -->
<svg version="1.1" id="Layer_1" xmlns="http://www.w3.org/2000/svg" xmlns:xlink="http://www.w3.org/1999/xlink" x="0px" y="0px"
	 viewBox="0 0 191 1500" style="enable-background:new 0 0 191 1500;" xml:space="preserve">
<style type="text/css">
	.st0{clip-path:url(#SVGID_2_);}
	.st1{fill:none;stroke:#F2F2F2;stroke-width:3;stroke-miterlimit:10;}
</style>
<g>
	<defs>
		<rect id="SVGID_1_" width="191" height="1500"/>
	</defs>
	<clipPath id="SVGID_2_">
		<use xlink:href="#SVGID_1_"  style="overflow:visible;"/>
	</clipPath>
	<g class="st0">
		<line class="st1" x1="-13.6" y1="1647.7" x2="205.3" y2="1774.1"/>
		<line class="st1" x1="-13.6" y1="1637.7" x2="205.3" y2="1764.1"/>
		<line class="st1" x1="-13.6" y1="1627.6" x2="205.3" y2="1754"/>
		<line class="st1" x1="-13.6" y1="1617.6" x2="205.3" y2="1744"/>
		<line class="st1" x1="-13.6" y1="1607.6" x2="205.3" y2="1734"/>
		<line class="st1" x1="-13.6" y1="1597.6" x2="205.3" y2="1724"/>
		<line class="st1" x1="-13.6" y1="1587.6" x2="205.3" y2="1713.9"/>
		<line class="st1" x1="-13.6" y1="1577.5" x2="205.3" y2="1703.9"/>
		<line class="st1" x1="-13.6" y1="1567.5" x2="205.3" y2="1693.9"/>
		<line class="st1" x1="-13.6" y1="1557.5" x2="205.3" y2="1683.9"/>
		<line class="st1" x1="-13.6" y1="1547.5" x2="205.3" y2="1673.9"/>
		<line class="st1" x1="-13.6" y1="1537.4" x2="205.3" y2="1663.8"/>
		<line class="st1" x1="-13.6" y1="1527.4" x2="205.3" y2="1653.8"/>
		<line class="st1" x1="-13.6" y1="1517.4" x2="205.3" y2="1643.8"/>
		<line class="st1" x1="-13.6" y1="1507.4" x2="205.3" y2="1633.8"/>
		<line class="st1" x1="-13.6" y1="1497.3" x2="205.3" y2="1623.7"/>
		<line class="st1" x1="-13.6" y1="1487.3" x2="205.3" y2="1613.7"/>
		<line class="st1" x1="-13.6" y1="1477.3" x2="205.3" y2="1603.7"/>
		<line class="st1" x1="-13.6" y1="1467.3" x2="205.3" y2="1593.7"/>
		<line class="st1" x1="-13.6" y1="1457.3" x2="205.3" y2="1583.7"/>
		<line class="st1" x1="-13.6" y1="1447.2" x2="205.3" y2="1573.6"/>
		<line class="st1" x1="-13.6" y1="1437.2" x2="205.3" y2="1563.6"/>
		<line class="st1" x1="-13.6" y1="1427.2" x2="205.3" y2="1553.6"/>
		<line class="st1" x1="-13.6" y1="1417.2" x2="205.3" y2="1543.6"/>
		<line class="st1" x1="-13.6" y1="1407.1" x2="205.3" y2="1533.5"/>
		<line class="st1" x1="-13.6" y1="1397.1" x2="205.3" y2="1523.5"/>
		<line class="st1" x1="-13.6" y1="1387.1" x2="205.3" y2="1513.5"/>
		<line class="st1" x1="-13.6" y1="1377.1" x2="205.3" y2="1503.5"/>
		<line class="st1" x1="-13.6" y1="1367.1" x2="205.3" y2="1493.4"/>
		<line class="st1" x1="-13.6" y1="1357" x2="205.3" y2="1483.4"/>
		<line class="st1" x1="-13.6" y1="1347" x2="205.3" y2="1473.4"/>
		<line class="st1" x1="-13.6" y1="1337" x2="205.3" y2="1463.4"/>
		<line class="st1" x1="-13.6" y1="1327" x2="205.3" y2="1453.4"/>
		<line class="st1" x1="-13.6" y1="1316.9" x2="205.3" y2="1443.3"/>
		<line class="st1" x1="-13.6" y1="1306.9" x2="205.3" y2="1433.3"/>
		<line class="st1" x1="-13.6" y1="1296.9" x2="205.3" y2="1423.3"/>
		<line class="st1" x1="-13.6" y1="1286.9" x2="205.3" y2="1413.3"/>
		<line class="st1" x1="-13.6" y1="1276.8" x2="205.3" y2="1403.2"/>
		<line class="st1" x1="-13.6" y1="1266.8" x2="205.3" y2="1393.2"/>
		<line class="st1" x1="-13.6" y1="1256.8" x2="205.3" y2="1383.2"/>
		<line class="st1" x1="-13.6" y1="1246.8" x2="205.3" y2="1373.2"/>
		<line class="st1" x1="-13.6" y1="1236.8" x2="205.3" y2="1363.2"/>
		<line class="st1" x1="-13.6" y1="1226.7" x2="205.3" y2="1353.1"/>
		<line class="st1" x1="-13.6" y1="1216.7" x2="205.3" y2="1343.1"/>
		<line class="st1" x1="-13.6" y1="1206.7" x2="205.3" y2="1333.1"/>
		<line class="st1" x1="-13.6" y1="1196.7" x2="205.3" y2="1323.1"/>
		<line class="st1" x1="-13.6" y1="1186.6" x2="205.3" y2="1313"/>
		<line class="st1" x1="-13.6" y1="1176.6" x2="205.3" y2="1303"/>
		<line class="st1" x1="-13.6" y1="1166.6" x2="205.3" y2="1293"/>
		<line class="st1" x1="-13.6" y1="1156.6" x2="205.3" y2="1283"/>
		<line class="st1" x1="-13.6" y1="1146.6" x2="205.3" y2="1273"/>
		<line class="st1" x1="-13.6" y1="1136.5" x2="205.3" y2="1262.9"/>
		<line class="st1" x1="-13.6" y1="1126.5" x2="205.3" y2="1252.9"/>
		<line class="st1" x1="-13.6" y1="1116.5" x2="205.3" y2="1242.9"/>
		<line class="st1" x1="-13.6" y1="1106.5" x2="205.3" y2="1232.9"/>
		<line class="st1" x1="-13.6" y1="1096.4" x2="205.3" y2="1222.8"/>
		<line class="st1" x1="-13.6" y1="1086.4" x2="205.3" y2="1212.8"/>
		<line class="st1" x1="-13.6" y1="1076.4" x2="205.3" y2="1202.8"/>
		<line class="st1" x1="-13.6" y1="1066.4" x2="205.3" y2="1192.8"/>
		<line class="st1" x1="-13.6" y1="1056.4" x2="205.3" y2="1182.7"/>
		<line class="st1" x1="-13.6" y1="1046.3" x2="205.3" y2="1172.7"/>
		<line class="st1" x1="-13.6" y1="1036.3" x2="205.3" y2="1162.7"/>
		<line class="st1" x1="-13.6" y1="1026.3" x2="205.3" y2="1152.7"/>
		<line class="st1" x1="-13.6" y1="1016.3" x2="205.3" y2="1142.7"/>
		<line class="st1" x1="-13.6" y1="1006.2" x2="205.3" y2="1132.6"/>
		<line class="st1" x1="-13.6" y1="996.2" x2="205.3" y2="1122.6"/>
		<line class="st1" x1="-13.6" y1="986.2" x2="205.3" y2="1112.6"/>
		<line class="st1" x1="-13.6" y1="976.2" x2="205.3" y2="1102.6"/>
		<line class="st1" x1="-13.6" y1="966.1" x2="205.3" y2="1092.5"/>
		<line class="st1" x1="-13.6" y1="956.1" x2="205.3" y2="1082.5"/>
		<line class="st1" x1="-13.6" y1="946.1" x2="205.3" y2="1072.5"/>
		<line class="st1" x1="-13.6" y1="936.1" x2="205.3" y2="1062.5"/>
		<line class="st1" x1="-13.6" y1="926.1" x2="205.3" y2="1052.5"/>
		<line class="st1" x1="-13.6" y1="916" x2="205.3" y2="1042.4"/>
		<line class="st1" x1="-13.6" y1="906" x2="205.3" y2="1032.4"/>
		<line class="st1" x1="-13.6" y1="896" x2="205.3" y2="1022.4"/>
		<line class="st1" x1="-13.6" y1="886" x2="205.3" y2="1012.4"/>
		<line class="st1" x1="-13.6" y1="875.9" x2="205.3" y2="1002.3"/>
		<line class="st1" x1="-13.6" y1="865.9" x2="205.3" y2="992.3"/>
		<line class="st1" x1="-13.6" y1="855.9" x2="205.3" y2="982.3"/>
		<line class="st1" x1="-13.6" y1="845.9" x2="205.3" y2="972.3"/>
		<line class="st1" x1="-13.6" y1="835.9" x2="205.3" y2="962.2"/>
		<line class="st1" x1="-13.6" y1="825.8" x2="205.3" y2="952.2"/>
		<line class="st1" x1="-13.6" y1="815.8" x2="205.3" y2="942.2"/>
		<line class="st1" x1="-13.6" y1="805.8" x2="205.3" y2="932.2"/>
		<line class="st1" x1="-13.6" y1="795.8" x2="205.3" y2="922.2"/>
		<line class="st1" x1="-13.6" y1="785.7" x2="205.3" y2="912.1"/>
		<line class="st1" x1="-13.6" y1="775.7" x2="205.3" y2="902.1"/>
		<line class="st1" x1="-13.6" y1="765.7" x2="205.3" y2="892.1"/>
		<line class="st1" x1="-13.6" y1="755.7" x2="205.3" y2="882.1"/>
		<line class="st1" x1="-13.6" y1="745.7" x2="205.3" y2="872"/>
		<line class="st1" x1="-13.6" y1="735.6" x2="205.3" y2="862"/>
		<line class="st1" x1="-13.6" y1="725.6" x2="205.3" y2="852"/>
		<line class="st1" x1="-13.6" y1="715.6" x2="205.3" y2="842"/>
		<line class="st1" x1="-13.6" y1="705.6" x2="205.3" y2="832"/>
		<line class="st1" x1="-13.6" y1="695.5" x2="205.3" y2="821.9"/>
		<line class="st1" x1="-13.6" y1="685.5" x2="205.3" y2="811.9"/>
		<line class="st1" x1="-13.6" y1="675.5" x2="205.3" y2="801.9"/>
		<line class="st1" x1="-13.6" y1="665.5" x2="205.3" y2="791.9"/>
		<line class="st1" x1="-13.6" y1="655.4" x2="205.3" y2="781.8"/>
		<line class="st1" x1="-13.6" y1="645.4" x2="205.3" y2="771.8"/>
		<line class="st1" x1="-13.6" y1="635.4" x2="205.3" y2="761.8"/>
		<line class="st1" x1="-13.6" y1="625.4" x2="205.3" y2="751.8"/>
		<line class="st1" x1="-13.6" y1="615.4" x2="205.3" y2="741.8"/>
		<line class="st1" x1="-13.6" y1="605.3" x2="205.3" y2="731.7"/>
		<line class="st1" x1="-13.6" y1="595.3" x2="205.3" y2="721.7"/>
		<line class="st1" x1="-13.6" y1="585.3" x2="205.3" y2="711.7"/>
		<line class="st1" x1="-13.6" y1="575.3" x2="205.3" y2="701.7"/>
		<line class="st1" x1="-13.6" y1="565.2" x2="205.3" y2="691.6"/>
		<line class="st1" x1="-13.6" y1="555.2" x2="205.3" y2="681.6"/>
		<line class="st1" x1="-13.6" y1="545.2" x2="205.3" y2="671.6"/>
		<line class="st1" x1="-13.6" y1="535.2" x2="205.3" y2="661.6"/>
		<line class="st1" x1="-13.6" y1="525.2" x2="205.3" y2="651.5"/>
		<line class="st1" x1="-13.6" y1="515.1" x2="205.3" y2="641.5"/>
		<line class="st1" x1="-13.6" y1="505.1" x2="205.3" y2="631.5"/>
		<line class="st1" x1="-13.6" y1="495.1" x2="205.3" y2="621.5"/>
		<line class="st1" x1="-13.6" y1="485.1" x2="205.3" y2="611.5"/>
		<line class="st1" x1="-13.6" y1="475" x2="205.3" y2="601.4"/>
		<line class="st1" x1="-13.6" y1="465" x2="205.3" y2="591.4"/>
		<line class="st1" x1="-13.6" y1="455" x2="205.3" y2="581.4"/>
		<line class="st1" x1="-13.6" y1="445" x2="205.3" y2="571.4"/>
		<line class="st1" x1="-13.6" y1="435" x2="205.3" y2="561.3"/>
		<line class="st1" x1="-13.6" y1="424.9" x2="205.3" y2="551.3"/>
		<line class="st1" x1="-13.6" y1="414.9" x2="205.3" y2="541.3"/>
		<line class="st1" x1="-13.6" y1="404.9" x2="205.3" y2="531.3"/>
		<line class="st1" x1="-13.6" y1="394.9" x2="205.3" y2="521.3"/>
		<line class="st1" x1="-13.6" y1="384.8" x2="205.3" y2="511.2"/>
		<line class="st1" x1="-13.6" y1="374.8" x2="205.3" y2="501.2"/>
		<line class="st1" x1="-13.6" y1="364.8" x2="205.3" y2="491.2"/>
		<line class="st1" x1="-13.6" y1="354.8" x2="205.3" y2="481.2"/>
		<line class="st1" x1="-13.6" y1="344.7" x2="205.3" y2="471.1"/>
		<line class="st1" x1="-13.6" y1="334.7" x2="205.3" y2="461.1"/>
		<line class="st1" x1="-13.6" y1="324.7" x2="205.3" y2="451.1"/>
		<line class="st1" x1="-13.6" y1="314.7" x2="205.3" y2="441.1"/>
		<line class="st1" x1="-13.6" y1="304.7" x2="205.3" y2="431.1"/>
		<line class="st1" x1="-13.6" y1="294.6" x2="205.3" y2="421"/>
		<line class="st1" x1="-13.6" y1="284.6" x2="205.3" y2="411"/>
		<line class="st1" x1="-13.6" y1="274.6" x2="205.3" y2="401"/>
		<line class="st1" x1="-13.6" y1="264.6" x2="205.3" y2="391"/>
		<line class="st1" x1="-13.6" y1="254.5" x2="205.3" y2="380.9"/>
		<line class="st1" x1="-13.6" y1="244.5" x2="205.3" y2="370.9"/>
		<line class="st1" x1="-13.6" y1="234.5" x2="205.3" y2="360.9"/>
		<line class="st1" x1="-13.6" y1="224.5" x2="205.3" y2="350.9"/>
		<line class="st1" x1="-13.6" y1="214.5" x2="205.3" y2="340.8"/>
		<line class="st1" x1="-13.6" y1="204.4" x2="205.3" y2="330.8"/>
		<line class="st1" x1="-13.6" y1="194.4" x2="205.3" y2="320.8"/>
		<line class="st1" x1="-13.6" y1="184.4" x2="205.3" y2="310.8"/>
		<line class="st1" x1="-13.6" y1="174.4" x2="205.3" y2="300.8"/>
		<line class="st1" x1="-13.6" y1="164.3" x2="205.3" y2="290.7"/>
		<line class="st1" x1="-13.6" y1="154.3" x2="205.3" y2="280.7"/>
		<line class="st1" x1="-13.6" y1="144.3" x2="205.3" y2="270.7"/>
		<line class="st1" x1="-13.6" y1="134.3" x2="205.3" y2="260.7"/>
		<line class="st1" x1="-13.6" y1="124.3" x2="205.3" y2="250.6"/>
		<line class="st1" x1="-13.6" y1="114.2" x2="205.3" y2="240.6"/>
		<line class="st1" x1="-13.6" y1="104.2" x2="205.3" y2="230.6"/>
		<line class="st1" x1="-13.6" y1="94.2" x2="205.3" y2="220.6"/>
		<line class="st1" x1="-13.6" y1="84.2" x2="205.3" y2="210.6"/>
		<line class="st1" x1="-13.6" y1="74.1" x2="205.3" y2="200.5"/>
		<line class="st1" x1="-13.6" y1="64.1" x2="205.3" y2="190.5"/>
		<line class="st1" x1="-13.6" y1="54.1" x2="205.3" y2="180.5"/>
		<line class="st1" x1="-13.6" y1="44.1" x2="205.3" y2="170.5"/>
		<line class="st1" x1="-13.6" y1="34" x2="205.3" y2="160.4"/>
		<line class="st1" x1="-13.6" y1="24" x2="205.3" y2="150.4"/>
		<line class="st1" x1="-13.6" y1="14" x2="205.3" y2="140.4"/>
		<line class="st1" x1="-13.6" y1="4" x2="205.3" y2="130.4"/>
		<line class="st1" x1="-13.6" y1="-6" x2="205.3" y2="120.4"/>
		<line class="st1" x1="-13.6" y1="-16.1" x2="205.3" y2="110.3"/>
		<line class="st1" x1="-13.6" y1="-26.1" x2="205.3" y2="100.3"/>
		<line class="st1" x1="-13.6" y1="-36.1" x2="205.3" y2="90.3"/>
		<line class="st1" x1="-13.6" y1="-46.1" x2="205.3" y2="80.3"/>
		<line class="st1" x1="-13.6" y1="-56.2" x2="205.3" y2="70.2"/>
		<line class="st1" x1="-13.6" y1="-66.2" x2="205.3" y2="60.2"/>
		<line class="st1" x1="-13.6" y1="-76.2" x2="205.3" y2="50.2"/>
		<line class="st1" x1="-13.6" y1="-86.2" x2="205.3" y2="40.2"/>
		<line class="st1" x1="-13.6" y1="-96.2" x2="205.3" y2="30.1"/>
		<line class="st1" x1="-13.6" y1="-106.3" x2="205.3" y2="20.1"/>
		<line class="st1" x1="-13.6" y1="-116.3" x2="205.3" y2="10.1"/>
		<line class="st1" x1="-13.6" y1="-126.3" x2="205.3" y2="0.1"/>
		<line class="st1" x1="-13.6" y1="-136.3" x2="205.3" y2="-9.9"/>
	</g>
</g>
</svg>
