<?xml version="1.0" encoding="utf-8"?>
<!-- Generator: Adobe Illustrator 23.0.4, SVG Export Plug-In . SVG Version: 6.00 Build 0)  -->
<svg version="1.1" id="Layer_1" xmlns="http://www.w3.org/2000/svg" xmlns:xlink="http://www.w3.org/1999/xlink" x="0px" y="0px"
	 viewBox="0 0 740 426" style="enable-background:new 0 0 740 426;" xml:space="preserve">
<style type="text/css">
	.st0{clip-path:url(#SVGID_2_);}
	.st1{fill:#F2F2F2;}
	.st2{fill:#5DC1C3;}
	.st3{fill:#664FB7;}
</style>
<g>
	<g>
		<defs>
			<polygon id="SVGID_1_" points="249.1,94.1 249.1,282.6 412.3,376.8 575.5,282.6 575.5,94.1 412.3,-0.2 			"/>
		</defs>
		<clipPath id="SVGID_2_">
			<use xlink:href="#SVGID_1_"  style="overflow:visible;"/>
		</clipPath>
		<g class="st0">
			<g>
				
					<rect x="140.1" y="340.4" transform="matrix(0.866 -0.5 0.5 0.866 -107.8157 281.1215)" class="st1" width="661.1" height="2.6"/>
			</g>
			<g>
				
					<rect x="135.6" y="330.9" transform="matrix(0.866 -0.5 0.5 0.866 -103.6308 277.6067)" class="st1" width="661.1" height="2.6"/>
			</g>
			<g>
				
					<rect x="131.1" y="321.5" transform="matrix(0.866 -0.5 0.5 0.866 -99.5204 274.0919)" class="st1" width="661.1" height="2.6"/>
			</g>
			<g>
				<rect x="126.6" y="312" transform="matrix(0.866 -0.5 0.5 0.866 -95.4084 270.5771)" class="st1" width="661.1" height="2.6"/>
			</g>
			<g>
				
					<rect x="122.1" y="302.5" transform="matrix(0.866 -0.5 0.5 0.866 -91.2612 267.0255)" class="st1" width="661.1" height="2.6"/>
			</g>
			<g>
				
					<rect x="117.6" y="293.1" transform="matrix(0.866 -0.5 0.5 0.866 -87.1492 263.5107)" class="st1" width="661.1" height="2.6"/>
			</g>
			<g>
				
					<rect x="113.1" y="283.7" transform="matrix(0.866 -0.5 0.5 0.866 -83.0384 259.9963)" class="st1" width="661.1" height="2.6"/>
			</g>
			<g>
				
					<rect x="108.5" y="274.1" transform="matrix(0.866 -0.5 0.5 0.866 -78.8903 256.4447)" class="st1" width="661.1" height="2.6"/>
			</g>
			<g>
				<rect x="104" y="264.7" transform="matrix(0.866 -0.5 0.5 0.866 -74.7792 252.9299)" class="st1" width="661.1" height="2.6"/>
			</g>
			<g>
				<rect x="99.5" y="255.3" transform="matrix(0.866 -0.5 0.5 0.866 -70.6672 249.4152)" class="st1" width="661.1" height="2.6"/>
			</g>
			<g>
				<rect x="95" y="245.8" transform="matrix(0.866 -0.5 0.5 0.866 -66.5194 245.8639)" class="st1" width="661.1" height="2.6"/>
			</g>
			<g>
				<rect x="90.5" y="236.3" transform="matrix(0.866 -0.5 0.5 0.866 -62.4083 242.3492)" class="st1" width="661.1" height="2.6"/>
			</g>
			<g>
				<rect x="86" y="226.9" transform="matrix(0.866 -0.5 0.5 0.866 -58.2966 238.834)" class="st1" width="661.1" height="2.6"/>
			</g>
			<g>
				<rect x="81.4" y="217.4" transform="matrix(0.866 -0.5 0.5 0.866 -54.1491 235.2828)" class="st1" width="661.1" height="2.6"/>
			</g>
			<g>
				<rect x="76.9" y="208" transform="matrix(0.866 -0.5 0.5 0.866 -50.0375 231.7685)" class="st1" width="661.1" height="2.6"/>
			</g>
			<g>
				<rect x="72.5" y="198.5" transform="matrix(0.866 -0.5 0.5 0.866 -45.8902 228.2895)" class="st1" width="661.1" height="2.6"/>
			</g>
			<g>
				<rect x="67.9" y="189" transform="matrix(0.866 -0.5 0.5 0.866 -41.7418 224.7385)" class="st1" width="661.1" height="2.6"/>
			</g>
			<g>
				<rect x="63.4" y="179.5" transform="matrix(0.866 -0.5 0.5 0.866 -37.631 221.2231)" class="st1" width="661.1" height="2.6"/>
			</g>
			<g>
				<rect x="58.9" y="170" transform="matrix(0.866 -0.5 0.5 0.866 -33.4829 217.6724)" class="st1" width="661.1" height="2.6"/>
			</g>
			<g>
				<rect x="54.4" y="160.6" transform="matrix(0.866 -0.5 0.5 0.866 -29.3719 214.1576)" class="st1" width="661.1" height="2.6"/>
			</g>
			<g>
				<rect x="49.9" y="151.2" transform="matrix(0.866 -0.5 0.5 0.866 -25.2601 210.6424)" class="st1" width="661.1" height="2.6"/>
			</g>
			<g>
				<rect x="45.3" y="141.6" transform="matrix(0.866 -0.5 0.5 0.866 -21.1127 207.0912)" class="st1" width="661.1" height="2.6"/>
			</g>
			<g>
				<rect x="40.8" y="132.2" transform="matrix(0.866 -0.5 0.5 0.866 -17.0007 203.5767)" class="st1" width="661.1" height="2.6"/>
			</g>
			<g>
				<rect x="36.3" y="122.8" transform="matrix(0.866 -0.5 0.5 0.866 -12.8902 200.0615)" class="st1" width="661.1" height="2.6"/>
			</g>
			<g>
				<rect x="31.8" y="113.3" transform="matrix(0.866 -0.5 0.5 0.866 -8.7418 196.5106)" class="st1" width="661.1" height="2.6"/>
			</g>
			<g>
				<rect x="27.3" y="103.8" transform="matrix(0.866 -0.5 0.5 0.866 -4.631 192.995)" class="st1" width="661.1" height="2.6"/>
			</g>
			<g>
				<rect x="22.8" y="94.4" transform="matrix(0.866 -0.5 0.5 0.866 -0.519 189.4806)" class="st1" width="661.1" height="2.6"/>
			</g>
			<g>
				<rect x="18.2" y="84.9" transform="matrix(0.866 -0.5 0.5 0.866 3.6282 185.9297)" class="st1" width="661.1" height="2.6"/>
			</g>
			<g>
				<rect x="13.7" y="75.5" transform="matrix(0.866 -0.5 0.5 0.866 7.7399 182.4144)" class="st1" width="661.1" height="2.6"/>
			</g>
			<g>
				<rect x="9.3" y="66" transform="matrix(0.866 -0.5 0.5 0.866 11.8874 178.9361)" class="st1" width="661.1" height="2.6"/>
			</g>
			<g>
				<rect x="4.7" y="56.5" transform="matrix(0.866 -0.5 0.5 0.866 16.0359 175.3853)" class="st1" width="661.1" height="2.6"/>
			</g>
			<g>
				<rect x="0.2" y="47" transform="matrix(0.866 -0.5 0.5 0.866 20.1466 171.8699)" class="st1" width="661.1" height="2.6"/>
			</g>
		</g>
	</g>
</g>
<g>
	<g>
		<polygon class="st2" points="661.9,211.3 661.9,255.7 701,277.8 740,255.7 740,211.3 701,189.2 		"/>
	</g>
</g>
<g>
	<g>
		<polygon class="st3" points="557.4,40.2 557.4,60.6 575.3,70.7 593.1,60.6 593.1,40.2 575.3,30.1 		"/>
	</g>
</g>
<g>
	<path d="M561.3,426c-1.3,0-2.6-0.3-3.8-1L5.4,116.5c-2.4-1.4-3.9-3.9-4-6.7L0,10.3c0-2,1-3.8,2.7-4.9c1.7-1,3.8-1.1,5.6-0.1
		l551,307.9c1.1,0.6,2.4,0.6,3.5,0L699,238.4c1.3-0.7,2.9-0.7,4.2,0.1c1.3,0.8,2.1,2.2,2.1,3.7l-0.2,100.7c0,2.8-1.5,5.4-4,6.8
		L565.1,425C563.9,425.7,562.6,426,561.3,426z M5.6,8.8C5.2,8.8,5,9,4.9,9c-0.2,0.1-0.7,0.5-0.7,1.2l1.4,99.5c0,1.3,0.7,2.5,1.8,3.1
		l552.1,308.5c1.1,0.6,2.4,0.6,3.5,0l136.1-75.3c1.1-0.6,1.9-1.8,1.9-3.2l0.2-100.7l-136.4,74.8c-2.4,1.3-5.2,1.3-7.5,0L6.3,9
		C6,8.9,5.8,8.8,5.6,8.8z"/>
</g>
</svg>
