<svg width="473" height="753" viewBox="0 0 473 753" fill="none" xmlns="http://www.w3.org/2000/svg">
<g clip-path="url(#clip0)">
<g opacity="0.3">
<mask id="mask0" mask-type="alpha" maskUnits="userSpaceOnUse" x="-549" y="203" width="2109" height="550">
<path d="M780.992 203.038L465.793 751.181L467.981 752.448L783.18 204.306L780.992 203.038Z" fill="#F2F2F2"/>
<path d="M771.061 203.01L455.861 751.152L458.049 752.42L773.248 204.277L771.061 203.01Z" fill="#F2F2F2"/>
<path d="M761.08 203.063L445.881 751.205L448.068 752.472L763.268 204.33L761.08 203.063Z" fill="#F2F2F2"/>
<path d="M751.149 203.035L435.949 751.177L438.137 752.444L753.336 204.302L751.149 203.035Z" fill="#F2F2F2"/>
<path d="M741.217 203.007L426.018 751.149L428.205 752.416L743.405 204.274L741.217 203.007Z" fill="#F2F2F2"/>
<path d="M731.236 203.06L416.037 751.202L418.225 752.47L733.424 204.327L731.236 203.06Z" fill="#F2F2F2"/>
<path d="M721.305 203.031L406.105 751.173L408.293 752.441L723.492 204.299L721.305 203.031Z" fill="#F2F2F2"/>
<path d="M711.371 203.003L396.172 751.145L398.359 752.412L713.559 204.27L711.371 203.003Z" fill="#F2F2F2"/>
<path d="M701.393 203.057L386.193 751.199L388.381 752.466L703.58 204.324L701.393 203.057Z" fill="#F2F2F2"/>
<path d="M691.461 203.029L376.262 751.171L378.449 752.438L693.649 204.296L691.461 203.029Z" fill="#F2F2F2"/>
<path d="M681.527 203L366.328 751.142L368.516 752.41L683.715 204.267L681.527 203Z" fill="#F2F2F2"/>
<path d="M671.549 203.053L356.35 751.195L358.537 752.463L673.737 204.32L671.549 203.053Z" fill="#F2F2F2"/>
<path d="M661.617 203.026L346.418 751.168L348.606 752.435L663.805 204.293L661.617 203.026Z" fill="#F2F2F2"/>
<path d="M651.637 203.079L336.438 751.221L338.625 752.488L653.824 204.346L651.637 203.079Z" fill="#F2F2F2"/>
<path d="M641.703 203.05L326.504 751.192L328.692 752.46L643.891 204.318L641.703 203.05Z" fill="#F2F2F2"/>
<path d="M631.771 203.022L316.572 751.164L318.76 752.431L633.959 204.289L631.771 203.022Z" fill="#F2F2F2"/>
<path d="M621.793 203.075L306.594 751.218L308.781 752.485L623.981 204.343L621.793 203.075Z" fill="#F2F2F2"/>
<path d="M611.861 203.047L296.662 751.189L298.85 752.457L614.049 204.314L611.861 203.047Z" fill="#F2F2F2"/>
<path d="M601.928 203.018L286.729 751.16L288.916 752.428L604.115 204.286L601.928 203.018Z" fill="#F2F2F2"/>
<path d="M591.947 203.072L276.748 751.214L278.936 752.481L594.135 204.339L591.947 203.072Z" fill="#F2F2F2"/>
<path d="M582.016 203.043L266.816 751.185L269.004 752.452L584.203 204.31L582.016 203.043Z" fill="#F2F2F2"/>
<path d="M572.084 203.016L256.885 751.158L259.072 752.425L574.272 204.283L572.084 203.016Z" fill="#F2F2F2"/>
<path d="M562.104 203.068L246.904 751.21L249.092 752.477L564.291 204.335L562.104 203.068Z" fill="#F2F2F2"/>
<path d="M552.172 203.04L236.973 751.182L239.16 752.45L554.36 204.307L552.172 203.04Z" fill="#F2F2F2"/>
<path d="M542.24 203.011L227.041 751.154L229.229 752.421L544.428 204.279L542.24 203.011Z" fill="#F2F2F2"/>
<path d="M532.262 203.066L217.062 751.208L219.25 752.475L534.449 204.333L532.262 203.066Z" fill="#F2F2F2"/>
<path d="M522.328 203.037L207.129 751.179L209.317 752.446L524.516 204.304L522.328 203.037Z" fill="#F2F2F2"/>
<path d="M512.395 203.008L197.195 751.15L199.383 752.417L514.582 204.275L512.395 203.008Z" fill="#F2F2F2"/>
<path d="M502.416 203.062L187.217 751.204L189.404 752.471L504.604 204.329L502.416 203.062Z" fill="#F2F2F2"/>
<path d="M492.485 203.034L177.285 751.176L179.473 752.443L494.672 204.301L492.485 203.034Z" fill="#F2F2F2"/>
<path d="M482.551 203.006L167.352 751.148L169.539 752.415L484.739 204.273L482.551 203.006Z" fill="#F2F2F2"/>
<path d="M472.572 203.059L157.373 751.201L159.561 752.468L474.76 204.326L472.572 203.059Z" fill="#F2F2F2"/>
<path d="M462.639 203.03L147.439 751.173L149.627 752.44L464.826 204.298L462.639 203.03Z" fill="#F2F2F2"/>
<path d="M452.66 203.084L137.461 751.226L139.649 752.493L454.848 204.351L452.66 203.084Z" fill="#F2F2F2"/>
<path d="M442.729 203.055L127.529 751.198L129.717 752.465L444.916 204.323L442.729 203.055Z" fill="#F2F2F2"/>
<path d="M432.795 203.027L117.596 751.169L119.783 752.437L434.983 204.295L432.795 203.027Z" fill="#F2F2F2"/>
<path d="M422.817 203.08L107.617 751.223L109.805 752.49L425.004 204.348L422.817 203.08Z" fill="#F2F2F2"/>
<path d="M412.885 203.052L97.6855 751.194L99.8732 752.462L415.072 204.32L412.885 203.052Z" fill="#F2F2F2"/>
<path d="M402.951 203.024L87.752 751.166L89.9396 752.434L405.139 204.291L402.951 203.024Z" fill="#F2F2F2"/>
<path d="M392.973 203.077L77.7734 751.219L79.9611 752.487L395.16 204.345L392.973 203.077Z" fill="#F2F2F2"/>
<path d="M383.039 203.049L67.8398 751.191L70.0275 752.458L385.227 204.316L383.039 203.049Z" fill="#F2F2F2"/>
<path d="M373.107 203.019L57.9082 751.161L60.0958 752.429L375.295 204.287L373.107 203.019Z" fill="#F2F2F2"/>
<path d="M363.129 203.074L47.9297 751.216L50.1173 752.483L365.317 204.341L363.129 203.074Z" fill="#F2F2F2"/>
<path d="M353.195 203.046L37.9961 751.188L40.1837 752.455L355.383 204.313L353.195 203.046Z" fill="#F2F2F2"/>
<path d="M343.264 203.018L28.0645 751.16L30.2521 752.427L345.451 204.285L343.264 203.018Z" fill="#F2F2F2"/>
<path d="M333.283 203.071L18.084 751.213L20.2716 752.48L335.471 204.338L333.283 203.071Z" fill="#F2F2F2"/>
<path d="M323.352 203.043L8.15234 751.185L10.34 752.452L325.539 204.31L323.352 203.043Z" fill="#F2F2F2"/>
<path d="M313.418 203.015L-1.78125 751.157L0.406366 752.424L315.606 204.282L313.418 203.015Z" fill="#F2F2F2"/>
<path d="M303.44 203.067L-11.7598 751.21L-9.57215 752.477L305.627 204.335L303.44 203.067Z" fill="#F2F2F2"/>
<path d="M293.508 203.039L-21.6914 751.181L-19.5038 752.449L295.696 204.307L293.508 203.039Z" fill="#F2F2F2"/>
<path d="M283.574 203.011L-31.625 751.153L-29.4374 752.421L285.762 204.278L283.574 203.011Z" fill="#F2F2F2"/>
<path d="M273.596 203.064L-41.6035 751.206L-39.4159 752.474L275.783 204.332L273.596 203.064Z" fill="#F2F2F2"/>
<path d="M263.662 203.036L-51.5371 751.178L-49.3495 752.446L265.85 204.303L263.662 203.036Z" fill="#F2F2F2"/>
<path d="M253.684 203.089L-61.5156 751.231L-59.328 752.498L255.871 204.356L253.684 203.089Z" fill="#F2F2F2"/>
<path d="M243.75 203.061L-71.4492 751.203L-69.2616 752.471L245.938 204.328L243.75 203.061Z" fill="#F2F2F2"/>
<path d="M233.818 203.033L-81.3809 751.175L-79.1932 752.442L236.006 204.3L233.818 203.033Z" fill="#F2F2F2"/>
<path d="M223.84 203.086L-91.3594 751.228L-89.1718 752.495L226.028 204.353L223.84 203.086Z" fill="#F2F2F2"/>
<path d="M213.908 203.058L-101.291 751.2L-99.1034 752.467L216.096 204.325L213.908 203.058Z" fill="#F2F2F2"/>
<path d="M203.975 203.03L-111.225 751.172L-109.037 752.439L206.162 204.297L203.975 203.03Z" fill="#F2F2F2"/>
<path d="M193.996 203.083L-121.203 751.225L-119.016 752.492L196.184 204.35L193.996 203.083Z" fill="#F2F2F2"/>
<path d="M184.063 203.055L-131.137 751.197L-128.949 752.464L186.25 204.322L184.063 203.055Z" fill="#F2F2F2"/>
<path d="M174.131 203.026L-141.068 751.168L-138.881 752.436L176.319 204.294L174.131 203.026Z" fill="#F2F2F2"/>
<path d="M164.152 203.08L-151.047 751.222L-148.859 752.489L166.34 204.347L164.152 203.08Z" fill="#F2F2F2"/>
<path d="M154.219 203.052L-160.98 751.194L-158.793 752.461L156.406 204.319L154.219 203.052Z" fill="#F2F2F2"/>
<path d="M144.287 203.023L-170.912 751.165L-168.724 752.433L146.475 204.29L144.287 203.023Z" fill="#F2F2F2"/>
<path d="M134.309 203.076L-180.891 751.218L-178.703 752.486L136.496 204.344L134.309 203.076Z" fill="#F2F2F2"/>
<path d="M124.375 203.048L-190.824 751.19L-188.637 752.458L126.563 204.315L124.375 203.048Z" fill="#F2F2F2"/>
<path d="M114.443 203.02L-200.756 751.162L-198.568 752.429L116.631 204.287L114.443 203.02Z" fill="#F2F2F2"/>
<path d="M104.463 203.073L-210.736 751.215L-208.549 752.483L106.651 204.34L104.463 203.073Z" fill="#F2F2F2"/>
<path d="M94.5314 203.045L-220.668 751.187L-218.48 752.454L96.719 204.312L94.5314 203.045Z" fill="#F2F2F2"/>
<path d="M84.5997 203.018L-230.6 751.16L-228.412 752.427L86.7873 204.285L84.5997 203.018Z" fill="#F2F2F2"/>
<path d="M74.6192 203.07L-240.58 751.212L-238.392 752.479L76.8068 204.337L74.6192 203.07Z" fill="#F2F2F2"/>
<path d="M64.6876 203.042L-250.512 751.184L-248.324 752.451L66.8752 204.309L64.6876 203.042Z" fill="#F2F2F2"/>
<path d="M54.7071 203.095L-260.492 751.237L-258.305 752.504L56.8948 204.362L54.7071 203.095Z" fill="#F2F2F2"/>
<path d="M44.7755 203.067L-270.424 751.209L-268.236 752.476L46.9631 204.334L44.7755 203.067Z" fill="#F2F2F2"/>
<path d="M34.8438 203.038L-280.355 751.18L-278.168 752.448L37.0314 204.306L34.8438 203.038Z" fill="#F2F2F2"/>
<path d="M24.8633 203.092L-290.336 751.234L-288.148 752.501L27.0509 204.359L24.8633 203.092Z" fill="#F2F2F2"/>
<path d="M14.9317 203.063L-300.268 751.206L-298.08 752.473L17.1193 204.331L14.9317 203.063Z" fill="#F2F2F2"/>
<path d="M4.99814 203.035L-310.201 751.177L-308.014 752.445L7.18575 204.303L4.99814 203.035Z" fill="#F2F2F2"/>
</mask>
<g mask="url(#mask0)">
<path d="M237.985 203L470.067 336.992V604.977L237.985 738.97L5.90315 604.977V336.992L237.985 203Z" fill="#C4C4C4"/>
</g>
</g>
<path d="M221.498 5.94889H221.617L300.063 50.6845C300.182 50.8035 300.301 50.9225 300.301 51.0414V667.108C300.301 667.227 300.182 667.346 300.182 667.465L171.426 747.299C171.426 747.299 171.307 747.299 171.187 747.299C171.068 747.299 171.068 747.299 171.068 747.299L94.2913 705.419C94.1721 705.419 94.0529 705.3 94.0529 705.062C94.0529 704.824 94.1721 704.824 94.1721 704.705L215.298 629.035C218.875 626.775 221.021 622.848 221.021 618.684V6.30582C221.14 5.94889 221.498 5.94889 221.498 5.94889ZM221.498 0C218.16 0 215.179 2.61751 215.179 6.30582V618.684C215.179 620.826 214.106 622.848 212.199 624.038L90.9532 699.708C86.8998 702.206 87.019 708.274 91.3109 710.535L168.088 752.415C169.042 752.891 170.114 753.129 171.068 753.129C172.26 753.129 173.333 752.772 174.406 752.177L303.163 672.343C305.07 671.153 306.143 669.131 306.143 666.989V50.9225C306.143 48.6619 304.951 46.5203 302.924 45.4495L224.597 0.832844C223.644 0.237955 222.571 0 221.498 0Z" fill="black"/>
</g>
<defs>
<clipPath id="clip0">
<rect width="473" height="753" fill="white"/>
</clipPath>
</defs>
</svg>
