<svg width="560" height="544" viewBox="0 0 560 544" fill="none" xmlns="http://www.w3.org/2000/svg">
<mask id="mask0" mask-type="alpha" maskUnits="userSpaceOnUse" x="0" y="0" width="560" height="544">
<path d="M0 0H560V544H0V0Z" fill="#ECECFF"/>
</mask>
<g mask="url(#mask0)">
<path d="M0 0H560V544H0V0Z" fill="#ECECFF"/>
<path d="M970.098 -126.135L521.242 650.074L524.358 651.87L973.214 -124.338L970.098 -126.135Z" fill="#E1E1FF"/>
<path d="M955.967 -126.177L507.113 650.032L510.228 651.829L959.085 -124.38L955.967 -126.177Z" fill="#E1E1FF"/>
<path d="M941.766 -126.103L492.91 650.105L496.026 651.902L944.882 -124.307L941.766 -126.103Z" fill="#E1E1FF"/>
<path d="M927.633 -126.141L478.777 650.068L481.894 651.866L930.749 -124.344L927.633 -126.141Z" fill="#E1E1FF"/>
<path d="M913.508 -126.183L464.652 650.025L467.754 651.823L916.61 -124.386L913.508 -126.183Z" fill="#E1E1FF"/>
<path d="M899.309 -126.11L450.453 650.098L453.555 651.895L902.411 -124.314L899.309 -126.11Z" fill="#E1E1FF"/>
<path d="M885.182 -126.15L436.312 650.059L439.429 651.855L888.284 -124.354L885.182 -126.15Z" fill="#E1E1FF"/>
<path d="M871.039 -126.189L422.184 650.019L425.3 651.817L874.155 -124.392L871.039 -126.189Z" fill="#E1E1FF"/>
<path d="M856.84 -126.116L407.984 650.093L411.101 651.89L859.956 -124.319L856.84 -126.116Z" fill="#E1E1FF"/>
<path d="M842.707 -126.157L393.852 650.052L396.968 651.848L845.823 -124.36L842.707 -126.157Z" fill="#E1E1FF"/>
<path d="M828.582 -126.199L379.727 650.01L382.829 651.807L831.698 -124.402L828.582 -126.199Z" fill="#E1E1FF"/>
<path d="M814.375 -126.121L365.52 650.086L368.636 651.884L817.491 -124.325L814.375 -126.121Z" fill="#E1E1FF"/>
<path d="M800.246 -126.163L351.391 650.046L354.493 651.842L803.362 -124.366L800.246 -126.163Z" fill="#E1E1FF"/>
<path d="M786.117 -126.204L337.262 650.005L340.364 651.801L789.219 -124.408L786.117 -126.204Z" fill="#E1E1FF"/>
<path d="M771.918 -126.131L323.062 650.077L326.164 651.874L775.02 -124.334L771.918 -126.131Z" fill="#E1E1FF"/>
<path d="M757.792 -126.17L308.922 650.039L312.039 651.836L760.894 -124.373L757.792 -126.17Z" fill="#E1E1FF"/>
<path d="M743.586 -126.097L294.73 650.112L297.832 651.909L746.688 -124.3L743.586 -126.097Z" fill="#E1E1FF"/>
<path d="M729.442 -126.137L280.586 650.071L283.702 651.868L732.558 -124.34L729.442 -126.137Z" fill="#E1E1FF"/>
<path d="M715.313 -126.179L266.457 650.03L269.573 651.826L718.429 -124.382L715.313 -126.179Z" fill="#E1E1FF"/>
<path d="M700.988 -126.293L252.488 650.185L255.604 651.98L704.104 -124.498L700.988 -126.293Z" fill="#E1E1FF"/>
<path d="M686.855 -126.333L238.355 650.145L241.472 651.94L689.957 -124.538L686.855 -126.333Z" fill="#E1E1FF"/>
<path d="M672.704 -126.372L224.219 650.105L227.321 651.899L675.821 -124.577L672.704 -126.372Z" fill="#E1E1FF"/>
<path d="M658.511 -126.298L210.023 650.18L213.127 651.975L661.625 -124.502L658.511 -126.298Z" fill="#E1E1FF"/>
<path d="M644.379 -126.337L195.879 650.141L198.995 651.936L647.495 -124.542L644.379 -126.337Z" fill="#E1E1FF"/>
<path d="M630.25 -126.377L181.75 650.1L184.866 651.895L633.366 -124.581L630.25 -126.377Z" fill="#E1E1FF"/>
<path d="M616.053 -126.302L167.555 650.176L170.667 651.97L619.169 -124.507L616.053 -126.302Z" fill="#E1E1FF"/>
<path d="M601.923 -126.342L153.422 650.136L156.534 651.931L605.039 -124.547L601.923 -126.342Z" fill="#E1E1FF"/>
<path d="M587.796 -126.382L139.293 650.096L142.405 651.891L590.898 -124.587L587.796 -126.382Z" fill="#E1E1FF"/>
<path d="M573.594 -126.305L125.09 650.172L128.203 651.968L576.696 -124.51L573.594 -126.305Z" fill="#E1E1FF"/>
<path d="M559.447 -126.347L110.953 650.13L114.066 651.926L562.563 -124.552L559.447 -126.347Z" fill="#E1E1FF"/>
<path d="M545.321 -126.387L96.8242 650.091L99.9361 651.885L548.437 -124.592L545.321 -126.387Z" fill="#E1E1FF"/>
<path d="M531.117 -126.311L82.6211 650.167L85.7344 651.962L534.233 -124.516L531.117 -126.311Z" fill="#E1E1FF"/>
<path d="M516.989 -126.35L68.4922 650.128L71.6041 651.923L520.105 -124.554L516.989 -126.35Z" fill="#E1E1FF"/>
<path d="M502.862 -126.391L54.3594 650.086L57.4727 651.881L505.978 -124.596L502.862 -126.391Z" fill="#E1E1FF"/>
<path d="M488.665 -126.316L40.1641 650.161L43.2774 651.956L491.781 -124.521L488.665 -126.316Z" fill="#E1E1FF"/>
<path d="M474.531 -126.354L26.0273 650.123L29.1407 651.918L477.633 -124.559L474.531 -126.354Z" fill="#E1E1FF"/>
<path d="M460.323 -126.279L11.8203 650.199L14.9322 651.994L463.425 -124.484L460.323 -126.279Z" fill="#E1E1FF"/>
<path d="M446.18 -126.319L-2.3125 650.158L0.79939 651.954L449.297 -124.524L446.18 -126.319Z" fill="#E1E1FF"/>
<path d="M432.055 -126.361L-16.4414 650.117L-13.3281 651.912L435.171 -124.565L432.055 -126.361Z" fill="#E1E1FF"/>
<path d="M417.858 -126.285L-30.6367 650.194L-27.5235 651.989L420.974 -124.489L417.858 -126.285Z" fill="#E1E1FF"/>
<path d="M403.725 -126.325L-44.7734 650.153L-41.6601 651.949L406.841 -124.529L403.725 -126.325Z" fill="#E1E1FF"/>
<path d="M389.595 -126.365L-58.9062 650.113L-55.7943 651.908L392.711 -124.57L389.595 -126.365Z" fill="#E1E1FF"/>
<path d="M375.4 -126.289L-73.1016 650.188L-69.9882 651.983L378.516 -124.494L375.4 -126.289Z" fill="#E1E1FF"/>
<path d="M361.267 -126.33L-87.2383 650.147L-84.1248 651.942L364.369 -124.535L361.267 -126.33Z" fill="#E1E1FF"/>
<path d="M347.126 -126.369L-101.367 650.109L-98.2539 651.904L350.242 -124.574L347.126 -126.369Z" fill="#E1E1FF"/>
<path d="M332.922 -126.295L-115.57 650.183L-112.457 651.977L336.038 -124.5L332.922 -126.295Z" fill="#E1E1FF"/>
<path d="M318.788 -126.334L-129.707 650.143L-126.595 651.939L321.905 -124.539L318.788 -126.334Z" fill="#E1E1FF"/>
<path d="M304.666 -126.375L-143.832 650.104L-140.72 651.899L307.783 -124.579L304.666 -126.375Z" fill="#E1E1FF"/>
<path d="M290.462 -126.298L-158.035 650.18L-154.923 651.975L293.578 -124.503L290.462 -126.298Z" fill="#E1E1FF"/>
<path d="M276.331 -126.339L-172.172 650.139L-169.059 651.934L279.447 -124.544L276.331 -126.339Z" fill="#E1E1FF"/>
<path d="M262.197 -126.38L-186.309 650.097L-183.197 651.893L265.299 -124.585L262.197 -126.38Z" fill="#E1E1FF"/>
<path d="M248.008 -126.304L-200.496 650.174L-197.383 651.969L251.11 -124.509L248.008 -126.304Z" fill="#E1E1FF"/>
<path d="M233.865 -126.344L-214.629 650.134L-211.516 651.929L236.981 -124.548L233.865 -126.344Z" fill="#E1E1FF"/>
<path d="M219.731 -126.384L-228.766 650.093L-225.654 651.889L222.847 -124.589L219.731 -126.384Z" fill="#E1E1FF"/>
<path d="M205.524 -126.308L-242.973 650.17L-239.859 651.965L208.64 -124.513L205.524 -126.308Z" fill="#E1E1FF"/>
<path d="M191.394 -126.348L-257.105 650.13L-253.992 651.925L194.511 -124.553L191.394 -126.348Z" fill="#E1E1FF"/>
<path d="M177.198 -126.273L-271.301 650.205L-268.187 652L180.314 -124.477L177.198 -126.273Z" fill="#E1E1FF"/>
<path d="M163.066 -126.312L-285.434 650.166L-282.32 651.961L166.178 -124.517L163.066 -126.312Z" fill="#E1E1FF"/>
<path d="M148.936 -126.352L-299.562 650.125L-296.451 651.921L152.049 -124.557L148.936 -126.352Z" fill="#E1E1FF"/>
<path d="M134.738 -126.277L-313.762 650.201L-310.648 651.996L137.85 -124.482L134.738 -126.277Z" fill="#E1E1FF"/>
<path d="M120.608 -126.316L-327.891 650.161L-324.779 651.957L123.721 -124.521L120.608 -126.316Z" fill="#E1E1FF"/>
<path d="M106.476 -126.357L-342.023 650.121L-338.91 651.917L109.588 -124.561L106.476 -126.357Z" fill="#E1E1FF"/>
<path d="M92.2655 -126.282L-356.234 650.195L-353.121 651.992L95.3773 -124.487L92.2655 -126.282Z" fill="#E1E1FF"/>
<path d="M78.1309 -126.322L-370.367 650.156L-367.255 651.951L81.2442 -124.527L78.1309 -126.322Z" fill="#E1E1FF"/>
<path d="M64.0026 -126.364L-384.496 650.114L-381.384 651.909L67.1159 -124.568L64.0026 -126.364Z" fill="#E1E1FF"/>
<path d="M49.8048 -126.287L-398.695 650.191L-395.582 651.986L52.9167 -124.492L49.8048 -126.287Z" fill="#E1E1FF"/>
</g>
</svg>
