<?xml version="1.0" encoding="utf-8"?>
<!-- Generator: Adobe Illustrator 26.0.2, SVG Export Plug-In . SVG Version: 6.00 Build 0)  -->
<svg version="1.1" id="Layer_1" xmlns="https://www.w3.org/2000/svg" xmlns:xlink="https://www.w3.org/1999/xlink" x="0px" y="0px"
	 viewBox="0 0 126 12" style="enable-background:new 0 0 126 12;" xml:space="preserve">
<style type="text/css">
	.st0{fill:#231F20;}
</style>
<path class="st0" d="M39.7,2.5h3.4c2,0,3.1,1.1,3.1,2.7c0,1.3-0.6,2.3-2,2.6l2.3,3.9h-1.8l-2-3.7h-1.4v3.7h-1.6V2.5z M42.8,7
	c1.2,0,1.8-0.5,1.8-1.6c0-1-0.5-1.6-1.7-1.6h-1.6v3.2L42.8,7z"/>
<path class="st0" d="M49.8,9V5.4c0-2,1.5-3.1,3.5-3.1c2,0,3.5,0.9,3.5,3v3.6c0,2.1-1.6,3.1-3.5,3.1C51.4,12,49.8,11.1,49.8,9L49.8,9
	z M55.1,9V5.3c0-1-0.7-1.7-1.9-1.7c-1.1,0-1.8,0.7-1.8,1.8V9c0,1.1,0.7,1.7,1.9,1.7c0.2,0,0.5,0,0.7-0.1c0.2-0.1,0.4-0.2,0.6-0.4
	s0.3-0.4,0.4-0.6C55.1,9.4,55.2,9.2,55.1,9z"/>
<path class="st0" d="M60.4,9V5.4c0-2,1.5-3.1,3.5-3.1c2,0,3.5,0.9,3.5,3v3.6c0,2.1-1.6,3.1-3.5,3.1C61.9,12,60.4,11.1,60.4,9L60.4,9
	z M65.7,9V5.3c0-1-0.7-1.7-1.9-1.7c-1.1,0-1.8,0.7-1.8,1.8V9c0,1.1,0.7,1.7,1.9,1.7c0.2,0,0.5,0,0.7-0.1c0.2-0.1,0.4-0.2,0.6-0.4
	c0.2-0.2,0.3-0.4,0.4-0.6C65.7,9.4,65.7,9.2,65.7,9z"/>
<path class="st0" d="M72.9,3.8h-2.7V2.5h7v1.3h-2.7v8.1h-1.6V3.8z"/>
<path class="st0" d="M79.8,10.9l0.8-1.1c0.8,0.6,1.7,0.9,2.7,0.9c0.9,0,1.6-0.5,1.6-1.3c0-0.8-0.7-1.2-1.4-1.5l-1.4-0.5
	C80.9,7,80.2,6.1,80.2,5c0-1.4,1.2-2.6,3.1-2.6c1,0,2.1,0.3,2.9,0.9l-0.8,1.1c-0.7-0.5-1.3-0.8-2.1-0.8c-0.9,0-1.5,0.4-1.5,1.2
	c0,0.6,0.4,1,1.3,1.3l1.3,0.5c1.4,0.6,2.2,1.4,2.2,2.5c0,1.7-1.5,2.8-3.4,2.8C81.9,12,80.7,11.7,79.8,10.9"/>
<path class="st0" d="M91.7,3.8H89V2.5h7v1.3h-2.7v8.1h-1.6V3.8z"/>
<path class="st0" d="M99.3,2.5h3.4c2,0,3.1,1.1,3.1,2.7c0,1.3-0.6,2.3-2,2.6l2.3,3.9h-1.8l-2-3.7h-1.4v3.7h-1.6L99.3,2.5z M102.4,7
	c1.2,0,1.8-0.5,1.8-1.6c0-1-0.5-1.6-1.7-1.6h-1.6v3.2L102.4,7z"/>
<path class="st0" d="M111.6,2.5h1.9l2.9,9.3h-1.6l-0.7-2.5h-3.2l-0.7,2.5h-1.5L111.6,2.5z M113.8,8.2L112.5,4h0l-1.2,4.1H113.8z"/>
<path class="st0" d="M119.6,2.5h3.4c2,0,2.9,1.3,2.9,2.8c0,1.7-1,3-3.1,3h-1.6v3.5h-1.6V2.5z M122.6,7.2c1.2,0,1.8-0.6,1.8-1.8
	c0-0.9-0.6-1.6-1.6-1.6h-1.5v3.4H122.6z"/>
<path class="st0" d="M30.2,0l-9,8.5c-0.9-2.2-2.6-4.1-4.8-5.3C14.2,2,11.6,1.6,9.1,2C6.6,2.4,4.3,3.6,2.7,5.4C1,7.2,0.1,9.5,0,11.9
	h3.8c0.1-1.7,0.8-3.3,2.1-4.5c1.3-1.2,3-1.9,4.8-1.9c1.8-0.1,3.6,0.5,4.9,1.6c1.4,1.1,2.2,2.7,2.4,4.4l0,0h0c0,0.1,0,0.4,0,0.4h4.8
	l10-9.3L30.2,0z"/>
</svg>
