<svg width="375" height="481" viewBox="0 0 375 481" fill="none" xmlns="http://www.w3.org/2000/svg">
<mask id="mask0" mask-type="alpha" maskUnits="userSpaceOnUse" x="0" y="0" width="375" height="481">
<rect width="375" height="481" fill="#F5F6FA"/>
</mask>
<g mask="url(#mask0)">
<mask id="mask1" mask-type="alpha" maskUnits="userSpaceOnUse" x="216" y="279" width="319" height="293">
<rect width="293" height="318.146" transform="matrix(4.37114e-08 -1 -1 -4.37114e-08 534.146 572)" fill="#C4C4C4"/>
</mask>
<g mask="url(#mask1)">
<g opacity="0.3">
<mask id="mask2" mask-type="alpha" maskUnits="userSpaceOnUse" x="148" y="-101" width="622" height="2306">
<path d="M769.158 821.002L149.765 476.4L148.333 478.792L767.726 823.394L769.158 821.002Z" fill="#F2F2F2"/>
<path d="M769.187 810.144L149.794 465.542L148.362 467.933L767.755 812.536L769.187 810.144Z" fill="#F2F2F2"/>
<path d="M769.127 799.234L149.734 454.632L148.302 457.024L767.695 801.626L769.127 799.234Z" fill="#F2F2F2"/>
<path d="M769.158 788.375L149.765 443.772L148.333 446.164L767.726 790.766L769.158 788.375Z" fill="#F2F2F2"/>
<path d="M769.103 777.464L149.71 432.862L148.278 435.254L767.671 779.856L769.103 777.464Z" fill="#F2F2F2"/>
<path d="M769.131 766.605L149.738 422.003L148.306 424.394L767.699 768.997L769.131 766.605Z" fill="#F2F2F2"/>
<path d="M769.161 755.747L149.769 411.145L148.336 413.536L767.729 758.139L769.161 755.747Z" fill="#F2F2F2"/>
<path d="M769.102 744.837L149.709 400.234L148.277 402.626L767.67 747.228L769.102 744.837Z" fill="#F2F2F2"/>
<path d="M769.136 733.978L149.743 389.375L148.311 391.767L767.704 736.369L769.136 733.978Z" fill="#F2F2F2"/>
<path d="M769.167 723.118L149.774 378.516L148.342 380.908L767.735 725.51L769.167 723.118Z" fill="#F2F2F2"/>
<path d="M769.107 712.209L149.714 367.606L148.282 369.998L767.675 714.6L769.107 712.209Z" fill="#F2F2F2"/>
<path d="M769.14 701.348L149.747 356.746L148.315 359.138L767.708 703.74L769.14 701.348Z" fill="#F2F2F2"/>
<path d="M769.171 690.49L149.778 345.888L148.346 348.28L767.739 692.882L769.171 690.49Z" fill="#F2F2F2"/>
<path d="M769.112 679.58L149.719 334.978L148.287 337.37L767.68 681.972L769.112 679.58Z" fill="#F2F2F2"/>
<path d="M769.14 668.722L149.747 324.12L148.315 326.512L767.708 671.114L769.14 668.722Z" fill="#F2F2F2"/>
<path d="M769.174 657.862L149.781 313.26L148.349 315.652L767.742 660.254L769.174 657.862Z" fill="#F2F2F2"/>
<path d="M769.114 646.952L149.721 302.35L148.289 304.742L767.682 649.344L769.114 646.952Z" fill="#F2F2F2"/>
<path d="M769.145 636.093L149.752 291.491L148.32 293.883L767.713 638.485L769.145 636.093Z" fill="#F2F2F2"/>
<path d="M769.178 625.235L149.785 280.633L148.353 283.025L767.746 627.627L769.178 625.235Z" fill="#F2F2F2"/>
<path d="M769.119 614.325L149.726 269.722L148.293 272.114L767.686 616.716L769.119 614.325Z" fill="#F2F2F2"/>
<path d="M769.152 603.465L149.759 258.863L148.327 261.254L767.72 605.856L769.152 603.465Z" fill="#F2F2F2"/>
<path d="M769.179 592.607L149.786 248.005L148.354 250.397L767.747 594.999L769.179 592.607Z" fill="#F2F2F2"/>
<path d="M769.122 581.696L149.729 237.094L148.297 239.485L767.69 584.088L769.122 581.696Z" fill="#F2F2F2"/>
<path d="M769.153 570.838L149.76 226.236L148.328 228.627L767.721 573.23L769.153 570.838Z" fill="#F2F2F2"/>
<path d="M769.094 559.927L149.701 215.325L148.269 217.717L767.662 562.319L769.094 559.927Z" fill="#F2F2F2"/>
<path d="M769.122 549.068L149.729 204.466L148.297 206.858L767.69 551.46L769.122 549.068Z" fill="#F2F2F2"/>
<path d="M769.158 538.209L149.765 193.607L148.333 195.999L767.725 540.601L769.158 538.209Z" fill="#F2F2F2"/>
<path d="M769.097 527.299L149.704 182.697L148.272 185.088L767.665 529.69L769.097 527.299Z" fill="#F2F2F2"/>
<path d="M769.128 516.44L149.735 171.838L148.303 174.23L767.696 518.832L769.128 516.44Z" fill="#F2F2F2"/>
<path d="M769.162 505.581L149.769 160.978L148.336 163.37L767.729 507.972L769.162 505.581Z" fill="#F2F2F2"/>
<path d="M769.103 494.671L149.71 150.069L148.278 152.461L767.671 497.063L769.103 494.671Z" fill="#F2F2F2"/>
<path d="M769.132 483.812L149.739 139.21L148.307 141.602L767.7 486.204L769.132 483.812Z" fill="#F2F2F2"/>
<path d="M769.165 472.953L149.772 128.351L148.34 130.742L767.733 475.344L769.165 472.953Z" fill="#F2F2F2"/>
<path d="M769.107 462.042L149.714 117.44L148.282 119.832L767.675 464.434L769.107 462.042Z" fill="#F2F2F2"/>
<path d="M769.136 451.183L149.743 106.581L148.311 108.973L767.704 453.575L769.136 451.183Z" fill="#F2F2F2"/>
<path d="M769.165 440.325L149.772 95.7227L148.34 98.1143L767.733 442.717L769.165 440.325Z" fill="#F2F2F2"/>
<path d="M769.107 429.415L149.714 84.8125L148.282 87.2042L767.675 431.806L769.107 429.415Z" fill="#F2F2F2"/>
<path d="M769.14 418.556L149.747 73.9536L148.315 76.3453L767.708 420.948L769.14 418.556Z" fill="#F2F2F2"/>
<path d="M769.171 407.697L149.778 63.0952L148.346 65.4869L767.739 410.089L769.171 407.697Z" fill="#F2F2F2"/>
<path d="M769.112 396.787L149.719 52.1843L148.287 54.576L767.68 399.178L769.112 396.787Z" fill="#F2F2F2"/>
<path d="M769.144 385.928L149.751 41.3257L148.319 43.7174L767.712 388.32L769.144 385.928Z" fill="#F2F2F2"/>
<path d="M769.175 375.069L149.782 30.4666L148.35 32.8582L767.743 377.461L769.175 375.069Z" fill="#F2F2F2"/>
<path d="M769.116 364.158L149.723 19.5559L148.291 21.9476L767.683 366.55L769.116 364.158Z" fill="#F2F2F2"/>
<path d="M769.145 353.3L149.752 8.69775L148.32 11.0894L767.713 355.692L769.145 353.3Z" fill="#F2F2F2"/>
<path d="M769.084 342.39L149.691 -2.21265L148.259 0.179039L767.652 344.781L769.084 342.39Z" fill="#F2F2F2"/>
<path d="M769.119 331.531L149.726 -13.0713L148.293 -10.6796L767.686 333.923L769.119 331.531Z" fill="#F2F2F2"/>
<path d="M769.148 320.671L149.755 -23.9309L148.323 -21.5392L767.716 323.063L769.148 320.671Z" fill="#F2F2F2"/>
<path d="M769.09 309.762L149.697 -34.8401L148.265 -32.4484L767.658 312.154L769.09 309.762Z" fill="#F2F2F2"/>
<path d="M769.122 298.903L149.729 -45.699L148.297 -43.3073L767.69 301.295L769.122 298.903Z" fill="#F2F2F2"/>
<path d="M769.154 288.044L149.761 -56.5586L148.329 -54.1669L767.722 290.435L769.154 288.044Z" fill="#F2F2F2"/>
<path d="M769.094 277.134L149.701 -67.4685L148.269 -65.0768L767.662 279.525L769.094 277.134Z" fill="#F2F2F2"/>
</mask>
<g mask="url(#mask2)">
<path d="M374.523 573.64L261.38 506.403V371.929L374.523 304.692L487.667 371.929V506.403L374.523 573.64Z" fill="#C4C4C4"/>
</g>
</g>
</g>
</g>
</svg>
