<svg width="1014" height="372" viewBox="0 0 1014 372" fill="none" xmlns="http://www.w3.org/2000/svg">
<mask id="mask0" mask-type="alpha" maskUnits="userSpaceOnUse" x="0" y="0" width="1014" height="372">
<rect y="0.0393066" width="1014" height="371.921" fill="#F5F6FA"/>
</mask>
<g mask="url(#mask0)">
<path d="M650.66 394.881L647.806 473.269C647.803 474.166 648.725 474.668 649.5 474.23L948.258 305.256C948.597 305.064 1102.99 218.66 1103.02 218.26L1105.85 139.886C1105.85 138.989 950.763 224.506 949.988 224.943L651.257 393.903C650.87 394.122 650.689 394.48 650.66 394.881Z" fill="#EEF0F5"/>
<path fill-rule="evenodd" clip-rule="evenodd" d="M932.701 263.286L882.128 291.347C882.128 291.347 882.048 291.347 881.969 291.268L802.224 241.566C802.145 241.486 802.066 241.407 802.066 241.328L802.123 4.39193H799.032L798.974 241.407C798.974 242.596 799.608 243.706 800.56 244.34L880.304 293.963C880.859 294.28 881.493 294.518 882.128 294.518C882.682 294.518 883.237 294.359 883.792 294.121L936.982 264.554C937.854 264.078 937.933 262.81 937.061 262.255L857.554 212.395C856.524 211.761 855.969 210.651 855.969 209.462L856.019 4.39193H852.769L852.719 209.462C852.719 211.761 853.908 213.822 855.81 215.09L932.701 263.286ZM852.785 -62.9869H856.035L856.048 -115.938C856.048 -117.207 855.017 -118.079 853.908 -118.079C853.591 -118.079 853.194 -117.999 852.877 -117.762L800.797 -87.7978C799.767 -87.1636 799.053 -86.0538 799.053 -84.7855L799.048 -62.9869H802.14L802.145 -84.8648C802.145 -84.9441 802.224 -85.0234 802.303 -85.1026L852.798 -114.115L852.785 -62.9869Z" fill="black"/>
<mask id="mask1" mask-type="alpha" maskUnits="userSpaceOnUse" x="880" y="-47" width="177" height="163">
<rect width="162.337" height="176.269" transform="matrix(4.37114e-08 -1 -1 -4.37114e-08 1056.4 115.735)" fill="#C4C4C4"/>
</mask>
<g mask="url(#mask1)">
<g opacity="0.3">
<mask id="mask2" mask-type="alpha" maskUnits="userSpaceOnUse" x="842" y="-257" width="345" height="1278">
<path d="M1186.62 301.911L843.445 110.983L842.652 112.309L1185.83 303.236L1186.62 301.911Z" fill="#F2F2F2"/>
<path d="M1186.59 295.866L843.411 104.939L842.618 106.264L1185.79 297.191L1186.59 295.866Z" fill="#F2F2F2"/>
<path d="M1186.6 289.85L843.43 98.9224L842.636 100.247L1185.81 291.175L1186.6 289.85Z" fill="#F2F2F2"/>
<path d="M1186.62 283.833L843.446 92.9058L842.653 94.2309L1185.83 285.158L1186.62 283.833Z" fill="#F2F2F2"/>
<path d="M1186.59 277.788L843.413 86.8613L842.62 88.1864L1185.79 279.114L1186.59 277.788Z" fill="#F2F2F2"/>
<path d="M1186.61 271.771L843.433 80.8442L842.639 82.1694L1185.81 273.097L1186.61 271.771Z" fill="#F2F2F2"/>
<path d="M1186.62 265.755L843.449 74.8281L842.656 76.1532L1185.83 267.08L1186.62 265.755Z" fill="#F2F2F2"/>
<path d="M1186.59 259.711L843.416 68.7837L842.623 70.1088L1185.8 261.036L1186.59 259.711Z" fill="#F2F2F2"/>
<path d="M1186.61 253.694L843.436 62.7668L842.642 64.092L1185.82 255.019L1186.61 253.694Z" fill="#F2F2F2"/>
<path d="M1186.63 247.678L843.451 56.7507L842.658 58.0758L1185.83 249.003L1186.63 247.678Z" fill="#F2F2F2"/>
<path d="M1186.59 241.634L843.419 50.7063L842.625 52.0314L1185.8 242.959L1186.59 241.634Z" fill="#F2F2F2"/>
<path d="M1186.61 235.617L843.436 44.6895L842.642 46.0146L1185.82 236.942L1186.61 235.617Z" fill="#F2F2F2"/>
<path d="M1186.58 229.572L843.404 38.6445L842.611 39.9696L1185.79 230.897L1186.58 229.572Z" fill="#F2F2F2"/>
<path d="M1186.6 223.555L843.42 32.6279L842.626 33.953L1185.8 224.88L1186.6 223.555Z" fill="#F2F2F2"/>
<path d="M1186.61 217.539L843.437 26.6121L842.643 27.9372L1185.82 218.864L1186.61 217.539Z" fill="#F2F2F2"/>
<path d="M1186.58 211.494L843.404 20.5671L842.611 21.8923L1185.79 212.819L1186.58 211.494Z" fill="#F2F2F2"/>
<path d="M1186.6 205.478L843.423 14.5505L842.629 15.8757L1185.8 206.803L1186.6 205.478Z" fill="#F2F2F2"/>
<path d="M1186.61 199.461L843.439 8.53418L842.646 9.85929L1185.82 200.787L1186.61 199.461Z" fill="#F2F2F2"/>
<path d="M1186.58 193.417L843.407 2.48975L842.614 3.81486L1185.79 194.742L1186.58 193.417Z" fill="#F2F2F2"/>
<path d="M1186.6 187.4L843.425 -3.5271L842.631 -2.20198L1185.81 188.725L1186.6 187.4Z" fill="#F2F2F2"/>
<path d="M1186.62 181.384L843.441 -9.54346L842.648 -8.21834L1185.82 182.709L1186.62 181.384Z" fill="#F2F2F2"/>
<path d="M1186.58 175.339L843.408 -15.5881L842.615 -14.263L1185.79 176.664L1186.58 175.339Z" fill="#F2F2F2"/>
<path d="M1186.6 169.323L843.425 -21.6042L842.631 -20.2791L1185.81 170.648L1186.6 169.323Z" fill="#F2F2F2"/>
<path d="M1186.62 163.306L843.444 -27.6208L842.651 -26.2957L1185.83 164.631L1186.62 163.306Z" fill="#F2F2F2"/>
<path d="M1186.59 157.262L843.41 -33.6655L842.617 -32.3404L1185.79 158.587L1186.59 157.262Z" fill="#F2F2F2"/>
<path d="M1186.6 151.245L843.428 -39.6819L842.634 -38.3568L1185.81 152.57L1186.6 151.245Z" fill="#F2F2F2"/>
<path d="M1186.62 145.229L843.446 -45.698L842.653 -44.3729L1185.83 146.554L1186.62 145.229Z" fill="#F2F2F2"/>
<path d="M1186.59 139.184L843.413 -51.7429L842.62 -50.4178L1185.79 140.509L1186.59 139.184Z" fill="#F2F2F2"/>
<path d="M1186.61 133.167L843.431 -57.76L842.637 -56.4349L1185.81 134.492L1186.61 133.167Z" fill="#F2F2F2"/>
<path d="M1186.62 127.152L843.446 -63.7754L842.653 -62.4503L1185.83 128.477L1186.62 127.152Z" fill="#F2F2F2"/>
<path d="M1186.59 121.106L843.416 -69.821L842.623 -68.4959L1185.8 122.431L1186.59 121.106Z" fill="#F2F2F2"/>
<path d="M1186.61 115.09L843.433 -75.8372L842.639 -74.512L1185.81 116.415L1186.61 115.09Z" fill="#F2F2F2"/>
<path d="M1186.57 109.045L843.399 -81.8821L842.606 -80.557L1185.78 110.37L1186.57 109.045Z" fill="#F2F2F2"/>
<path d="M1186.59 103.029L843.416 -87.8984L842.623 -86.5733L1185.8 104.354L1186.59 103.029Z" fill="#F2F2F2"/>
<path d="M1186.61 97.0126L843.435 -93.9146L842.641 -92.5894L1185.82 98.3377L1186.61 97.0126Z" fill="#F2F2F2"/>
<path d="M1186.58 90.9674L843.402 -99.9597L842.609 -98.6346L1185.78 92.2925L1186.58 90.9674Z" fill="#F2F2F2"/>
<path d="M1186.59 84.9513L843.418 -105.976L842.624 -104.651L1185.8 86.2765L1186.59 84.9513Z" fill="#F2F2F2"/>
<path d="M1186.61 78.9345L843.437 -111.993L842.643 -110.668L1185.82 80.2596L1186.61 78.9345Z" fill="#F2F2F2"/>
<path d="M1186.58 72.8901L843.404 -118.037L842.611 -116.712L1185.79 74.2152L1186.58 72.8901Z" fill="#F2F2F2"/>
<path d="M1186.6 66.8735L843.42 -124.054L842.626 -122.729L1185.8 68.1986L1186.6 66.8735Z" fill="#F2F2F2"/>
<path d="M1186.61 60.8571L843.439 -130.07L842.646 -128.745L1185.82 62.1822L1186.61 60.8571Z" fill="#F2F2F2"/>
<path d="M1186.58 54.8122L843.406 -136.115L842.613 -134.79L1185.79 56.1373L1186.58 54.8122Z" fill="#F2F2F2"/>
<path d="M1186.6 48.7958L843.423 -142.131L842.629 -140.806L1185.8 50.1209L1186.6 48.7958Z" fill="#F2F2F2"/>
<path d="M1186.61 42.7798L843.439 -148.147L842.646 -146.822L1185.82 44.1049L1186.61 42.7798Z" fill="#F2F2F2"/>
<path d="M1186.58 36.7348L843.406 -154.192L842.613 -152.867L1185.79 38.0599L1186.58 36.7348Z" fill="#F2F2F2"/>
<path d="M1186.6 30.7182L843.425 -160.209L842.631 -158.884L1185.81 32.0433L1186.6 30.7182Z" fill="#F2F2F2"/>
<path d="M1186.62 24.7023L843.441 -166.225L842.648 -164.9L1185.82 26.0274L1186.62 24.7023Z" fill="#F2F2F2"/>
<path d="M1186.58 18.6569L843.409 -172.27L842.616 -170.945L1185.79 19.982L1186.58 18.6569Z" fill="#F2F2F2"/>
<path d="M1186.6 12.6406L843.428 -178.287L842.634 -176.962L1185.81 13.9657L1186.6 12.6406Z" fill="#F2F2F2"/>
<path d="M1186.62 6.62421L843.444 -184.303L842.651 -182.978L1185.83 7.94933L1186.62 6.62421Z" fill="#F2F2F2"/>
<path d="M1186.59 0.579344L843.411 -190.348L842.618 -189.023L1185.79 1.90446L1186.59 0.579344Z" fill="#F2F2F2"/>
</mask>
<g mask="url(#mask2)">
<path d="M967.963 116.643L905.276 79.3899V4.88452L967.963 -32.3682L1030.65 4.88452V79.3899L967.963 116.643Z" fill="#C4C4C4"/>
</g>
</g>
<path d="M937.678 83.0091V95.1553L927.077 101.197L916.477 95.1553V83.0091L927.077 76.9675L937.678 83.0091Z" fill="#3A2452"/>
</g>
<g opacity="0.3">
<mask id="mask3" mask-type="alpha" maskUnits="userSpaceOnUse" x="-441" y="-199" width="1278" height="345">
<path d="M835.347 -197.901L644.268 145.155L645.592 145.949L836.672 -197.107L835.347 -197.901Z" fill="#F2F2F2"/>
<path d="M829.33 -197.919L638.25 145.137L639.575 145.931L830.654 -197.125L829.33 -197.919Z" fill="#F2F2F2"/>
<path d="M823.313 -197.936L632.233 145.12L633.558 145.914L824.638 -197.142L823.313 -197.936Z" fill="#F2F2F2"/>
<path d="M817.269 -197.904L626.189 145.152L627.514 145.946L818.594 -197.11L817.269 -197.904Z" fill="#F2F2F2"/>
<path d="M811.253 -197.923L620.173 145.134L621.498 145.928L812.578 -197.128L811.253 -197.923Z" fill="#F2F2F2"/>
<path d="M805.236 -197.94L614.156 145.116L615.481 145.91L806.561 -197.146L805.236 -197.94Z" fill="#F2F2F2"/>
<path d="M799.192 -197.906L608.112 145.15L609.437 145.944L800.517 -197.112L799.192 -197.906Z" fill="#F2F2F2"/>
<path d="M793.177 -197.925L602.097 145.132L603.421 145.926L794.501 -197.131L793.177 -197.925Z" fill="#F2F2F2"/>
<path d="M787.159 -197.943L596.079 145.114L597.404 145.908L788.484 -197.149L787.159 -197.943Z" fill="#F2F2F2"/>
<path d="M781.115 -197.911L590.035 145.146L591.36 145.94L782.44 -197.116L781.115 -197.911Z" fill="#F2F2F2"/>
<path d="M775.099 -197.927L584.019 145.129L585.343 145.923L776.423 -197.133L775.099 -197.927Z" fill="#F2F2F2"/>
<path d="M769.055 -197.895L577.976 145.161L579.3 145.955L770.38 -197.101L769.055 -197.895Z" fill="#F2F2F2"/>
<path d="M763.038 -197.913L571.958 145.143L573.283 145.937L764.363 -197.119L763.038 -197.913Z" fill="#F2F2F2"/>
<path d="M757.021 -197.932L565.941 145.125L567.266 145.919L758.346 -197.138L757.021 -197.932Z" fill="#F2F2F2"/>
<path d="M750.978 -197.898L559.898 145.159L561.223 145.953L752.303 -197.103L750.978 -197.898Z" fill="#F2F2F2"/>
<path d="M744.96 -197.916L553.88 145.141L555.205 145.935L746.285 -197.122L744.96 -197.916Z" fill="#F2F2F2"/>
<path d="M738.943 -197.934L547.863 145.122L549.188 145.916L740.268 -197.14L738.943 -197.934Z" fill="#F2F2F2"/>
<path d="M732.9 -197.902L541.82 145.154L543.145 145.948L734.225 -197.108L732.9 -197.902Z" fill="#F2F2F2"/>
<path d="M726.884 -197.919L535.804 145.138L537.128 145.932L728.208 -197.125L726.884 -197.919Z" fill="#F2F2F2"/>
<path d="M720.866 -197.937L529.786 145.119L531.111 145.913L722.191 -197.143L720.866 -197.937Z" fill="#F2F2F2"/>
<path d="M714.822 -197.905L523.742 145.152L525.067 145.946L716.147 -197.11L714.822 -197.905Z" fill="#F2F2F2"/>
<path d="M708.805 -197.923L517.726 145.134L519.05 145.928L710.13 -197.129L708.805 -197.923Z" fill="#F2F2F2"/>
<path d="M702.791 -197.94L511.711 145.117L513.036 145.911L704.115 -197.146L702.791 -197.94Z" fill="#F2F2F2"/>
<path d="M696.746 -197.907L505.666 145.149L506.991 145.943L698.071 -197.113L696.746 -197.907Z" fill="#F2F2F2"/>
<path d="M690.728 -197.926L499.648 145.131L500.973 145.925L692.053 -197.131L690.728 -197.926Z" fill="#F2F2F2"/>
<path d="M684.714 -197.944L493.634 145.113L494.958 145.907L686.038 -197.15L684.714 -197.944Z" fill="#F2F2F2"/>
<path d="M678.669 -197.91L487.589 145.146L488.914 145.941L679.993 -197.116L678.669 -197.91Z" fill="#F2F2F2"/>
<path d="M672.65 -197.928L481.57 145.128L482.895 145.922L673.975 -197.134L672.65 -197.928Z" fill="#F2F2F2"/>
<path d="M666.636 -197.946L475.556 145.11L476.88 145.904L667.96 -197.152L666.636 -197.946Z" fill="#F2F2F2"/>
<path d="M660.591 -197.914L469.511 145.142L470.835 145.936L661.915 -197.12L660.591 -197.914Z" fill="#F2F2F2"/>
<path d="M654.574 -197.931L463.494 145.125L464.819 145.919L655.899 -197.137L654.574 -197.931Z" fill="#F2F2F2"/>
<path d="M648.531 -197.899L457.451 145.158L458.776 145.952L649.856 -197.104L648.531 -197.899Z" fill="#F2F2F2"/>
<path d="M642.514 -197.916L451.435 145.14L452.759 145.934L643.839 -197.122L642.514 -197.916Z" fill="#F2F2F2"/>
<path d="M636.496 -197.935L445.416 145.121L446.741 145.915L637.821 -197.141L636.496 -197.935Z" fill="#F2F2F2"/>
<path d="M630.453 -197.901L439.373 145.155L440.698 145.949L631.778 -197.107L630.453 -197.901Z" fill="#F2F2F2"/>
<path d="M624.436 -197.92L433.356 145.137L434.681 145.931L625.761 -197.125L624.436 -197.92Z" fill="#F2F2F2"/>
<path d="M618.422 -197.938L427.342 145.119L428.666 145.913L619.746 -197.144L618.422 -197.938Z" fill="#F2F2F2"/>
<path d="M612.375 -197.905L421.295 145.151L422.62 145.945L613.7 -197.111L612.375 -197.905Z" fill="#F2F2F2"/>
<path d="M606.358 -197.922L415.278 145.134L416.603 145.928L607.683 -197.128L606.358 -197.922Z" fill="#F2F2F2"/>
<path d="M600.344 -197.94L409.264 145.116L410.588 145.91L601.668 -197.146L600.344 -197.94Z" fill="#F2F2F2"/>
<path d="M594.298 -197.908L403.218 145.148L404.542 145.943L595.622 -197.114L594.298 -197.908Z" fill="#F2F2F2"/>
<path d="M588.281 -197.926L397.201 145.13L398.526 145.924L589.606 -197.132L588.281 -197.926Z" fill="#F2F2F2"/>
<path d="M582.266 -197.943L391.187 145.113L392.511 145.907L583.591 -197.149L582.266 -197.943Z" fill="#F2F2F2"/>
<path d="M576.221 -197.911L385.141 145.146L386.465 145.94L577.545 -197.116L576.221 -197.911Z" fill="#F2F2F2"/>
<path d="M570.203 -197.929L379.123 145.127L380.448 145.921L571.528 -197.135L570.203 -197.929Z" fill="#F2F2F2"/>
<path d="M564.188 -197.947L373.108 145.109L374.433 145.903L565.513 -197.153L564.188 -197.947Z" fill="#F2F2F2"/>
<path d="M558.143 -197.913L367.063 145.143L368.388 145.937L559.468 -197.119L558.143 -197.913Z" fill="#F2F2F2"/>
<path d="M552.129 -197.932L361.049 145.125L362.373 145.919L553.453 -197.137L552.129 -197.932Z" fill="#F2F2F2"/>
<path d="M546.112 -197.95L355.032 145.106L356.357 145.9L547.437 -197.156L546.112 -197.95Z" fill="#F2F2F2"/>
<path d="M540.067 -197.917L348.987 145.139L350.312 145.933L541.392 -197.123L540.067 -197.917Z" fill="#F2F2F2"/>
<path d="M534.051 -197.934L342.971 145.122L344.295 145.916L535.375 -197.14L534.051 -197.934Z" fill="#F2F2F2"/>
<path d="M528.006 -197.902L336.926 145.155L338.25 145.949L529.33 -197.108L528.006 -197.902Z" fill="#F2F2F2"/>
<path d="M521.989 -197.92L330.909 145.136L332.234 145.93L523.314 -197.126L521.989 -197.92Z" fill="#F2F2F2"/>
<path d="M515.975 -197.938L324.895 145.118L326.219 145.912L517.299 -197.144L515.975 -197.938Z" fill="#F2F2F2"/>
<path d="M509.928 -197.904L318.848 145.152L320.172 145.946L511.252 -197.11L509.928 -197.904Z" fill="#F2F2F2"/>
<path d="M503.913 -197.923L312.833 145.134L314.158 145.928L505.238 -197.129L503.913 -197.923Z" fill="#F2F2F2"/>
<path d="M497.895 -197.941L306.815 145.115L308.14 145.909L499.22 -197.147L497.895 -197.941Z" fill="#F2F2F2"/>
<path d="M491.851 -197.909L300.771 145.148L302.096 145.942L493.176 -197.115L491.851 -197.909Z" fill="#F2F2F2"/>
<path d="M485.836 -197.925L294.756 145.132L296.081 145.926L487.16 -197.131L485.836 -197.925Z" fill="#F2F2F2"/>
<path d="M479.82 -197.944L288.74 145.112L290.065 145.906L481.145 -197.15L479.82 -197.944Z" fill="#F2F2F2"/>
<path d="M473.773 -197.912L282.693 145.145L284.018 145.939L475.098 -197.117L473.773 -197.912Z" fill="#F2F2F2"/>
<path d="M467.759 -197.93L276.679 145.127L278.003 145.921L469.083 -197.136L467.759 -197.93Z" fill="#F2F2F2"/>
<path d="M461.742 -197.947L270.662 145.11L271.987 145.904L463.067 -197.153L461.742 -197.947Z" fill="#F2F2F2"/>
<path d="M455.696 -197.914L264.616 145.142L265.941 145.936L457.021 -197.12L455.696 -197.914Z" fill="#F2F2F2"/>
<path d="M449.681 -197.933L258.602 145.124L259.926 145.918L451.006 -197.138L449.681 -197.933Z" fill="#F2F2F2"/>
<path d="M443.665 -197.951L252.585 145.105L253.91 145.9L444.99 -197.157L443.665 -197.951Z" fill="#F2F2F2"/>
<path d="M437.621 -197.917L246.541 145.14L247.866 145.934L438.946 -197.123L437.621 -197.917Z" fill="#F2F2F2"/>
<path d="M431.603 -197.934L240.523 145.122L241.848 145.916L432.928 -197.14L431.603 -197.934Z" fill="#F2F2F2"/>
<path d="M425.587 -197.954L234.507 145.103L235.831 145.897L426.911 -197.159L425.587 -197.954Z" fill="#F2F2F2"/>
<path d="M419.542 -197.921L228.462 145.136L229.787 145.93L420.867 -197.126L419.542 -197.921Z" fill="#F2F2F2"/>
<path d="M413.527 -197.938L222.447 145.118L223.772 145.913L414.852 -197.144L413.527 -197.938Z" fill="#F2F2F2"/>
<path d="M407.48 -197.905L216.4 145.151L217.725 145.945L408.805 -197.111L407.48 -197.905Z" fill="#F2F2F2"/>
<path d="M401.466 -197.924L210.386 145.132L211.71 145.926L402.79 -197.13L401.466 -197.924Z" fill="#F2F2F2"/>
<path d="M395.449 -197.942L204.369 145.114L205.694 145.908L396.774 -197.148L395.449 -197.942Z" fill="#F2F2F2"/>
<path d="M389.347 -197.992L198.42 145.183L199.745 145.977L390.672 -197.199L389.347 -197.992Z" fill="#F2F2F2"/>
<path d="M383.332 -198.01L192.404 145.165L193.729 145.959L384.657 -197.216L383.332 -198.01Z" fill="#F2F2F2"/>
<path d="M377.314 -198.028L186.387 145.147L187.712 145.941L378.639 -197.234L377.314 -198.028Z" fill="#F2F2F2"/>
<path d="M371.27 -197.994L180.343 145.181L181.668 145.974L372.595 -197.201L371.27 -197.994Z" fill="#F2F2F2"/>
<path d="M365.253 -198.012L174.326 145.163L175.651 145.957L366.579 -197.218L365.253 -198.012Z" fill="#F2F2F2"/>
<path d="M359.237 -198.03L168.31 145.145L169.635 145.939L360.562 -197.236L359.237 -198.03Z" fill="#F2F2F2"/>
<path d="M353.194 -197.996L162.267 145.179L163.592 145.972L354.519 -197.203L353.194 -197.996Z" fill="#F2F2F2"/>
<path d="M347.176 -198.014L156.249 145.161L157.574 145.954L348.501 -197.221L347.176 -198.014Z" fill="#F2F2F2"/>
<path d="M341.16 -198.031L150.232 145.144L151.558 145.937L342.485 -197.238L341.16 -198.031Z" fill="#F2F2F2"/>
<path d="M335.116 -197.998L144.188 145.177L145.514 145.97L336.441 -197.205L335.116 -197.998Z" fill="#F2F2F2"/>
<path d="M329.098 -198.016L138.171 145.159L139.496 145.952L330.423 -197.223L329.098 -198.016Z" fill="#F2F2F2"/>
<path d="M323.081 -198.034L132.154 145.141L133.479 145.935L324.407 -197.241L323.081 -198.034Z" fill="#F2F2F2"/>
<path d="M317.037 -198L126.109 145.175L127.434 145.968L318.362 -197.207L317.037 -198Z" fill="#F2F2F2"/>
<path d="M311.021 -198.018L120.094 145.157L121.419 145.951L312.346 -197.224L311.021 -198.018Z" fill="#F2F2F2"/>
<path d="M305.003 -198.036L114.076 145.139L115.401 145.933L306.328 -197.242L305.003 -198.036Z" fill="#F2F2F2"/>
<path d="M298.959 -198.003L108.031 145.173L109.356 145.966L300.284 -197.209L298.959 -198.003Z" fill="#F2F2F2"/>
<path d="M292.944 -198.02L102.017 145.155L103.342 145.949L294.269 -197.226L292.944 -198.02Z" fill="#F2F2F2"/>
<path d="M286.899 -197.987L95.9717 145.189L97.2968 145.982L288.224 -197.193L286.899 -197.987Z" fill="#F2F2F2"/>
<path d="M280.881 -198.004L89.9541 145.171L91.2792 145.964L282.206 -197.211L280.881 -198.004Z" fill="#F2F2F2"/>
<path d="M274.865 -198.022L83.9375 145.153L85.2626 145.946L276.19 -197.229L274.865 -198.022Z" fill="#F2F2F2"/>
<path d="M268.821 -197.988L77.8936 145.187L79.2187 145.98L270.146 -197.195L268.821 -197.988Z" fill="#F2F2F2"/>
<path d="M262.803 -198.007L71.876 145.169L73.2011 145.962L264.128 -197.213L262.803 -198.007Z" fill="#F2F2F2"/>
<path d="M256.786 -198.024L65.8594 145.151L67.1845 145.944L258.112 -197.231L256.786 -198.024Z" fill="#F2F2F2"/>
<path d="M250.744 -197.991L59.8164 145.184L61.1415 145.978L252.069 -197.198L250.744 -197.991Z" fill="#F2F2F2"/>
<path d="M244.726 -198.009L53.7988 145.167L55.1239 145.96L246.051 -197.215L244.726 -198.009Z" fill="#F2F2F2"/>
<path d="M238.712 -198.026L47.7852 145.149L49.1103 145.943L240.037 -197.233L238.712 -198.026Z" fill="#F2F2F2"/>
<path d="M232.665 -197.993L41.7383 145.182L43.0634 145.975L233.991 -197.2L232.665 -197.993Z" fill="#F2F2F2"/>
<path d="M226.649 -198.011L35.7217 145.165L37.0468 145.958L227.974 -197.217L226.649 -198.011Z" fill="#F2F2F2"/>
<path d="M220.631 -198.028L29.7041 145.147L31.0292 145.94L221.956 -197.235L220.631 -198.028Z" fill="#F2F2F2"/>
<path d="M214.588 -197.995L23.6611 145.18L24.9862 145.974L215.913 -197.201L214.588 -197.995Z" fill="#F2F2F2"/>
<path d="M208.572 -198.013L17.6445 145.162L18.9696 145.956L209.897 -197.219L208.572 -198.013Z" fill="#F2F2F2"/>
<path d="M202.555 -198.031L11.6279 145.144L12.953 145.938L203.88 -197.238L202.555 -198.031Z" fill="#F2F2F2"/>
<path d="M196.511 -197.997L5.58398 145.178L6.9091 145.972L197.836 -197.204L196.511 -197.997Z" fill="#F2F2F2"/>
<path d="M190.494 -198.015L-0.433594 145.16L0.891521 145.954L191.819 -197.222L190.494 -198.015Z" fill="#F2F2F2"/>
<path d="M184.477 -198.032L-6.4502 145.143L-5.12508 145.936L185.802 -197.239L184.477 -198.032Z" fill="#F2F2F2"/>
<path d="M178.432 -197.999L-12.4951 145.176L-11.17 145.97L179.757 -197.205L178.432 -197.999Z" fill="#F2F2F2"/>
<path d="M172.417 -198.017L-18.5098 145.159L-17.1847 145.952L173.743 -197.223L172.417 -198.017Z" fill="#F2F2F2"/>
<path d="M166.371 -197.984L-24.5566 145.192L-23.2315 145.985L167.696 -197.19L166.371 -197.984Z" fill="#F2F2F2"/>
<path d="M160.354 -198.001L-30.5732 145.174L-29.2481 145.968L161.679 -197.208L160.354 -198.001Z" fill="#F2F2F2"/>
<path d="M154.339 -198.019L-36.5879 145.156L-35.2628 145.95L155.664 -197.226L154.339 -198.019Z" fill="#F2F2F2"/>
<path d="M148.294 -197.986L-42.6328 145.19L-41.3077 145.983L149.62 -197.192L148.294 -197.986Z" fill="#F2F2F2"/>
<path d="M142.277 -198.003L-48.6504 145.172L-47.3253 145.966L143.602 -197.21L142.277 -198.003Z" fill="#F2F2F2"/>
<path d="M136.262 -198.021L-54.665 145.155L-53.3399 145.948L137.587 -197.227L136.262 -198.021Z" fill="#F2F2F2"/>
<path d="M130.215 -197.988L-60.7119 145.188L-59.3868 145.981L131.54 -197.194L130.215 -197.988Z" fill="#F2F2F2"/>
<path d="M124.201 -198.005L-66.7266 145.17L-65.4014 145.963L125.526 -197.212L124.201 -198.005Z" fill="#F2F2F2"/>
<path d="M118.182 -198.024L-72.7451 145.152L-71.42 145.945L119.507 -197.23L118.182 -198.024Z" fill="#F2F2F2"/>
<path d="M112.139 -197.99L-78.7881 145.186L-77.463 145.979L113.464 -197.196L112.139 -197.99Z" fill="#F2F2F2"/>
<path d="M106.123 -198.007L-84.8047 145.168L-83.4796 145.961L107.448 -197.214L106.123 -198.007Z" fill="#F2F2F2"/>
<path d="M100.105 -198.025L-90.8223 145.15L-89.4972 145.944L101.43 -197.231L100.105 -198.025Z" fill="#F2F2F2"/>
<path d="M94.0609 -197.992L-96.8662 145.184L-95.5411 145.977L95.386 -197.198L94.0609 -197.992Z" fill="#F2F2F2"/>
<path d="M88.0434 -198.009L-102.884 145.166L-101.559 145.959L89.3685 -197.216L88.0434 -198.009Z" fill="#F2F2F2"/>
<path d="M82.0288 -198.027L-108.898 145.148L-107.573 145.942L83.3539 -197.233L82.0288 -198.027Z" fill="#F2F2F2"/>
<path d="M75.9848 -197.994L-114.942 145.182L-113.617 145.975L77.3099 -197.2L75.9848 -197.994Z" fill="#F2F2F2"/>
<path d="M69.9672 -198.011L-120.96 145.164L-119.635 145.957L71.2924 -197.218L69.9672 -198.011Z" fill="#F2F2F2"/>
<path d="M63.9506 -198.029L-126.977 145.146L-125.651 145.94L65.2758 -197.236L63.9506 -198.029Z" fill="#F2F2F2"/>
<path d="M57.9067 -197.996L-133.021 145.18L-131.695 145.973L59.2318 -197.202L57.9067 -197.996Z" fill="#F2F2F2"/>
<path d="M51.8891 -198.013L-139.038 145.162L-137.713 145.956L53.2142 -197.22L51.8891 -198.013Z" fill="#F2F2F2"/>
<path d="M45.8442 -197.981L-145.083 145.194L-143.758 145.988L47.1693 -197.187L45.8442 -197.981Z" fill="#F2F2F2"/>
<path d="M39.8276 -197.997L-151.1 145.178L-149.774 145.971L41.1527 -197.204L39.8276 -197.997Z" fill="#F2F2F2"/>
<path d="M33.8129 -198.015L-157.114 145.16L-155.789 145.953L35.138 -197.222L33.8129 -198.015Z" fill="#F2F2F2"/>
<path d="M27.767 -197.982L-163.16 145.193L-161.835 145.987L29.0921 -197.189L27.767 -197.982Z" fill="#F2F2F2"/>
<path d="M21.7505 -198L-169.177 145.176L-167.852 145.969L23.0756 -197.206L21.7505 -198Z" fill="#F2F2F2"/>
<path d="M15.7348 -198.017L-175.192 145.158L-173.867 145.951L17.0599 -197.224L15.7348 -198.017Z" fill="#F2F2F2"/>
<path d="M9.68893 -197.984L-181.238 145.191L-179.913 145.985L11.014 -197.191L9.68893 -197.984Z" fill="#F2F2F2"/>
<path d="M3.67224 -198.002L-187.255 145.173L-185.93 145.967L4.99736 -197.208L3.67224 -198.002Z" fill="#F2F2F2"/>
</mask>
<g mask="url(#mask3)">
<path d="M108.263 -198.036L248.843 -114.147V53.6299L108.263 137.519L-32.3167 53.6299V-114.147L108.263 -198.036Z" fill="#C4C4C4"/>
</g>
</g>
<path d="M115.798 56.9395L100.355 65.9311L100.355 84.048L115.798 75.0564L115.798 56.9395V56.9395ZM117.068 54.7334L117.068 75.2904C117.068 75.5912 116.901 75.8586 116.634 76.0257L100.155 85.6524C100.155 85.6524 99.5532 86.0535 99.1186 86.0535L99.1186 85.0508L99.1186 65.1957L117.068 54.7334Z" fill="#5CC1C3"/>
<path d="M115.912 75.0999L115.912 56.5684L99.7539 65.9317L100.153 84.2681L115.912 75.0999Z" fill="#5CC1C3"/>
<path fill-rule="evenodd" clip-rule="evenodd" d="M99.1191 86.0211C98.6512 86.0211 98.0829 85.62 98.0829 85.62L81.604 75.9933C81.3366 75.8262 81.1695 75.5587 81.1695 75.2579L81.1695 54.7009L99.1191 53.1968L99.1191 84.9849L99.1191 86.0211V86.0211Z" fill="#3B2552"/>
<path fill-rule="evenodd" clip-rule="evenodd" d="M99.419 44.3381L116.934 54.4662C117.101 54.5664 117.101 54.8338 116.934 54.9341L99.1182 65.1959L81.3022 54.9007C81.135 54.8004 81.135 54.533 81.3022 54.4327L98.8174 44.3046C99.0179 44.2378 99.2185 44.2378 99.419 44.3381Z" fill="#664FB7"/>
<path d="M-29.7876 117.185L151.495 239.584L124.431 255.266L-55.9737 132.549C-56.4528 132.231 -56.4528 131.594 -55.9737 131.275L-31.544 117.185C-30.9852 116.867 -30.3465 116.867 -29.7876 117.185Z" fill="#5CC1C3"/>
<path d="M151.405 239.638L151.405 285.571C151.405 286.207 151.086 286.844 150.527 287.163L125.459 301.571C124.98 301.89 124.341 301.492 124.341 300.934L124.341 255.32L151.405 239.638Z" fill="#3A2452"/>
<path d="M84.939 180.131L163.299 233.11C163.379 233.19 163.459 233.27 163.459 233.349L163.379 560.927C163.379 561.006 163.299 561.086 163.219 561.165L112.364 590.301L112.444 265.351C112.444 263.042 111.246 260.972 109.33 259.699L39.3939 212.15L84.6995 180.131C84.7726 180.073 84.939 180.131 84.939 180.131ZM84.7793 176.867C84.2204 176.867 83.6616 177.027 83.1027 177.265L35.0827 210.876C34.2045 211.354 34.1247 212.628 35.0029 213.185L107.574 262.405C108.612 263.042 109.171 264.156 109.171 265.351L109.091 592.132C109.091 593.406 110.129 594.281 111.246 594.281C111.566 594.281 111.965 594.202 112.284 593.963L164.736 563.872C165.774 563.235 166.493 562.121 166.493 560.847L166.572 233.27C166.572 232.076 165.934 230.961 164.976 230.324L86.6155 177.425C86.0567 177.106 85.418 176.867 84.7793 176.867Z" fill="#3A2452"/>
<path d="M817.365 251.372V232.367L800.917 222.95L784.426 232.367V251.372L800.917 260.789L817.365 251.372Z" fill="#5CC1C3"/>
</g>
</svg>
