<svg width="175" height="492" viewBox="0 0 175 492" fill="none" xmlns="http://www.w3.org/2000/svg">
<path opacity="0.2" fill-rule="evenodd" clip-rule="evenodd" d="M6.27754 447.871L70.086 487.52C70.086 487.52 70.186 487.52 70.2861 487.408L170.899 417.183C170.999 417.071 171.099 416.959 171.099 416.847L171.009 0H174.91L175 416.959C175 418.639 174.2 420.207 173 421.103L72.3863 491.216C71.6862 491.664 70.8861 492 70.086 492C69.3859 492 68.6858 491.776 67.9857 491.44L0.876822 449.663C-0.223324 448.991 -0.323344 447.199 0.776803 446.415L101.09 375.966C102.39 375.07 103.09 373.502 103.09 371.822L103.01 0H107.11L107.191 371.822C107.191 375.07 105.691 377.982 103.29 379.774L6.27754 447.871Z" fill="#5CC1C3"/>
</svg>
