<svg width="583" height="163" viewBox="0 0 583 163" fill="none" xmlns="http://www.w3.org/2000/svg">
<g opacity="0.3">
<mask id="mask0" mask-type="alpha" maskUnits="userSpaceOnUse" x="-1018" y="-1" width="2853" height="765">
<path d="M996.79 -0.222148L570.058 761.365L573.016 763.127L999.748 1.54077L996.79 -0.222148Z" fill="#F2F2F2"/>
<path d="M983.286 -0.14963L556.554 761.437L559.512 763.2L986.244 1.61329L983.286 -0.14963Z" fill="#F2F2F2"/>
<path d="M969.853 -0.190645L543.121 761.396L546.079 763.159L972.812 1.57228L969.853 -0.190645Z" fill="#F2F2F2"/>
<path d="M956.417 -0.231328L529.685 761.355L532.643 763.118L959.375 1.53159L956.417 -0.231328Z" fill="#F2F2F2"/>
<path d="M942.922 -0.155891L516.189 761.431L519.148 763.194L945.88 1.60703L942.922 -0.155891Z" fill="#F2F2F2"/>
<path d="M929.482 -0.195048L502.75 761.392L505.708 763.155L932.441 1.56787L929.482 -0.195048Z" fill="#F2F2F2"/>
<path d="M916.045 -0.237033L489.312 761.35L492.271 763.113L919.003 1.52589L916.045 -0.237033Z" fill="#F2F2F2"/>
<path d="M902.544 -0.164567L475.812 761.422L478.77 763.185L905.503 1.59836L902.544 -0.164567Z" fill="#F2F2F2"/>
<path d="M889.112 -0.203009L462.379 761.384L465.337 763.146L892.07 1.55991L889.112 -0.203009Z" fill="#F2F2F2"/>
<path d="M875.61 -0.130499L448.877 761.456L451.835 763.219L878.568 1.63242L875.61 -0.130499Z" fill="#F2F2F2"/>
<path d="M862.179 -0.171515L435.446 761.415L438.405 763.178L865.137 1.59141L862.179 -0.171515Z" fill="#F2F2F2"/>
<path d="M848.741 -0.212136L422.009 761.375L424.967 763.137L851.699 1.55079L848.741 -0.212136Z" fill="#F2F2F2"/>
<path d="M835.113 -0.323232L408.722 761.527L411.681 763.289L838.073 1.43828L835.113 -0.323232Z" fill="#F2F2F2"/>
<path d="M821.678 -0.362675L395.286 761.488L398.245 763.249L824.637 1.39884L821.678 -0.362675Z" fill="#F2F2F2"/>
<path d="M808.238 -0.40208L381.847 761.448L384.806 763.21L811.197 1.35943L808.238 -0.40208Z" fill="#F2F2F2"/>
<path d="M794.743 -0.328435L368.352 761.522L371.311 763.283L797.702 1.43308L794.743 -0.328435Z" fill="#F2F2F2"/>
<path d="M781.305 -0.366436L354.914 761.484L357.873 763.246L784.265 1.39508L781.305 -0.366436Z" fill="#F2F2F2"/>
<path d="M767.866 -0.40612L341.475 761.444L344.434 763.206L770.825 1.35539L767.866 -0.40612Z" fill="#F2F2F2"/>
<path d="M754.371 -0.332753L327.979 761.518L330.939 763.279L757.33 1.42876L754.371 -0.332753Z" fill="#F2F2F2"/>
<path d="M740.932 -0.372217L314.541 761.478L317.5 763.24L743.892 1.3893L740.932 -0.372217Z" fill="#F2F2F2"/>
<path d="M727.496 -0.410862L301.104 761.44L304.064 763.201L730.455 1.35065L727.496 -0.410862Z" fill="#F2F2F2"/>
<path d="M714.001 -0.336656L287.609 761.514L290.569 763.275L716.96 1.42486L714.001 -0.336656Z" fill="#F2F2F2"/>
<path d="M700.56 -0.37669L274.169 761.474L277.128 763.235L703.52 1.38482L700.56 -0.37669Z" fill="#F2F2F2"/>
<path d="M687.124 -0.415856L260.732 761.435L263.692 763.196L690.083 1.34566L687.124 -0.415856Z" fill="#F2F2F2"/>
<path d="M673.624 -0.341016L247.232 761.509L250.192 763.271L676.583 1.4205L673.624 -0.341016Z" fill="#F2F2F2"/>
<path d="M660.189 -0.380125L233.798 761.471L236.757 763.232L663.148 1.38139L660.189 -0.380125Z" fill="#F2F2F2"/>
<path d="M646.75 -0.420068L220.358 761.431L223.318 763.192L649.709 1.34144L646.75 -0.420068Z" fill="#F2F2F2"/>
<path d="M633.25 -0.346409L206.858 761.504L209.818 763.266L636.209 1.4151L633.25 -0.346409Z" fill="#F2F2F2"/>
<path d="M619.817 -0.384503L193.426 761.466L196.385 763.228L622.777 1.37701L619.817 -0.384503Z" fill="#F2F2F2"/>
<path d="M606.317 -0.310937L179.926 761.54L182.885 763.301L609.276 1.45058L606.317 -0.310937Z" fill="#F2F2F2"/>
<path d="M592.88 -0.35037L166.489 761.5L169.449 763.261L595.84 1.41114L592.88 -0.35037Z" fill="#F2F2F2"/>
<path d="M579.442 -0.390113L153.051 761.46L156.01 763.222L582.401 1.3714L579.442 -0.390113Z" fill="#F2F2F2"/>
<path d="M565.947 -0.315576L139.556 761.535L142.515 763.297L568.906 1.44594L565.947 -0.315576Z" fill="#F2F2F2"/>
<path d="M552.507 -0.354577L126.116 761.496L129.076 763.258L555.467 1.40694L552.507 -0.354577Z" fill="#F2F2F2"/>
<path d="M539.071 -0.394902L112.68 761.455L115.639 763.217L542.03 1.36661L539.071 -0.394902Z" fill="#F2F2F2"/>
<path d="M525.573 -0.320947L99.1816 761.53L102.141 763.291L528.532 1.44057L525.573 -0.320947Z" fill="#F2F2F2"/>
<path d="M512.135 -0.360338L85.7441 761.49L88.7035 763.252L515.095 1.40117L512.135 -0.360338Z" fill="#F2F2F2"/>
<path d="M498.703 -0.39834L72.3115 761.452L75.2709 763.214L501.662 1.36317L498.703 -0.39834Z" fill="#F2F2F2"/>
<path d="M485.202 -0.326073L58.8105 761.525L61.7699 763.286L488.161 1.43544L485.202 -0.326073Z" fill="#F2F2F2"/>
<path d="M471.764 -0.364404L45.373 761.486L48.3324 763.248L474.724 1.39711L471.764 -0.364404Z" fill="#F2F2F2"/>
<path d="M458.327 -0.404208L31.9355 761.446L34.8949 763.208L461.286 1.3573L458.327 -0.404208Z" fill="#F2F2F2"/>
<path d="M444.829 -0.329088L18.4375 761.521L21.3968 763.283L447.788 1.43242L444.829 -0.329088Z" fill="#F2F2F2"/>
<path d="M431.393 -0.369113L5.00195 761.481L7.96129 763.243L434.353 1.3924L431.393 -0.369113Z" fill="#F2F2F2"/>
<path d="M417.955 -0.409061L-8.43652 761.441L-5.47719 763.203L420.914 1.35245L417.955 -0.409061Z" fill="#F2F2F2"/>
<path d="M404.461 -0.334375L-21.9307 761.516L-18.9713 763.278L407.42 1.42714L404.461 -0.334375Z" fill="#F2F2F2"/>
<path d="M391.021 -0.373506L-35.3701 761.477L-32.4108 763.239L393.98 1.38801L391.021 -0.373506Z" fill="#F2F2F2"/>
<path d="M377.584 -0.412082L-48.8076 761.438L-45.8483 763.2L380.543 1.34943L377.584 -0.412082Z" fill="#F2F2F2"/>
<path d="M364.083 -0.338351L-62.3086 761.512L-59.3493 763.274L367.042 1.42316L364.083 -0.338351Z" fill="#F2F2F2"/>
<path d="M350.649 -0.378076L-75.7422 761.473L-72.7829 763.234L353.609 1.38344L350.649 -0.378076Z" fill="#F2F2F2"/>
<path d="M337.147 -0.303927L-89.2441 761.547L-86.2848 763.308L340.107 1.45758L337.147 -0.303927Z" fill="#F2F2F2"/>
<path d="M323.71 -0.342747L-102.682 761.508L-99.7223 763.269L326.669 1.41877L323.71 -0.342747Z" fill="#F2F2F2"/>
<path d="M310.277 -0.382295L-116.114 761.468L-113.155 763.23L313.236 1.37922L310.277 -0.382295Z" fill="#F2F2F2"/>
<path d="M296.774 -0.308078L-129.617 761.542L-126.658 763.304L299.733 1.45344L296.774 -0.308078Z" fill="#F2F2F2"/>
<path d="M283.337 -0.347384L-143.055 761.503L-140.095 763.265L286.296 1.41413L283.337 -0.347384Z" fill="#F2F2F2"/>
<path d="M269.907 -0.386377L-156.484 761.464L-153.525 763.226L272.866 1.37514L269.907 -0.386377Z" fill="#F2F2F2"/>
<path d="M256.401 -0.312962L-169.99 761.538L-167.031 763.299L259.36 1.44855L256.401 -0.312962Z" fill="#F2F2F2"/>
<path d="M242.966 -0.351953L-183.425 761.499L-180.465 763.26L245.926 1.40956L242.966 -0.351953Z" fill="#F2F2F2"/>
<path d="M229.528 -0.392459L-196.863 761.458L-193.904 763.219L232.487 1.36905L229.528 -0.392459Z" fill="#F2F2F2"/>
<path d="M216.031 -0.31725L-210.36 761.533L-207.401 763.295L218.99 1.44426L216.031 -0.31725Z" fill="#F2F2F2"/>
<path d="M202.594 -0.356775L-223.797 761.494L-220.838 763.255L205.554 1.40474L202.594 -0.356775Z" fill="#F2F2F2"/>
<path d="M189.157 -0.39538L-237.234 761.455L-234.275 763.217L192.116 1.36613L189.157 -0.39538Z" fill="#F2F2F2"/>
<path d="M175.659 -0.321842L-250.732 761.529L-247.773 763.29L178.618 1.43967L175.659 -0.321842Z" fill="#F2F2F2"/>
<path d="M162.221 -0.36123L-264.17 761.489L-261.211 763.251L165.181 1.40028L162.221 -0.36123Z" fill="#F2F2F2"/>
<path d="M148.788 -0.39963L-277.604 761.451L-274.644 763.212L151.747 1.36188L148.788 -0.39963Z" fill="#F2F2F2"/>
<path d="M135.29 -0.326632L-291.102 761.524L-288.142 763.285L138.249 1.43488L135.29 -0.326632Z" fill="#F2F2F2"/>
<path d="M121.85 -0.365616L-304.541 761.485L-301.582 763.247L124.81 1.3959L121.85 -0.365616Z" fill="#F2F2F2"/>
<path d="M108.417 -0.404687L-317.975 761.446L-315.015 763.207L111.376 1.35683L108.417 -0.404687Z" fill="#F2F2F2"/>
<path d="M94.9177 -0.330713L-331.474 761.52L-328.514 763.281L97.877 1.4308L94.9177 -0.330713Z" fill="#F2F2F2"/>
<path d="M81.4802 -0.369845L-344.911 761.481L-341.952 763.242L84.4396 1.39167L81.4802 -0.369845Z" fill="#F2F2F2"/>
<path d="M67.9782 -0.297256L-358.413 761.553L-355.454 763.315L70.9375 1.46426L67.9782 -0.297256Z" fill="#F2F2F2"/>
<path d="M54.5427 -0.33529L-371.849 761.515L-368.889 763.277L57.502 1.42622L54.5427 -0.33529Z" fill="#F2F2F2"/>
<path d="M41.1081 -0.374394L-385.283 761.476L-382.324 763.237L44.0674 1.38712L41.1081 -0.374394Z" fill="#F2F2F2"/>
<path d="M27.606 -0.30089L-398.785 761.55L-395.826 763.311L30.5654 1.46062L27.606 -0.30089Z" fill="#F2F2F2"/>
<path d="M14.1696 -0.33999L-412.222 761.511L-409.262 763.272L17.1289 1.42152L14.1696 -0.33999Z" fill="#F2F2F2"/>
<path d="M0.737947 -0.379053L-425.653 761.472L-422.694 763.233L3.69728 1.38246L0.737947 -0.379053Z" fill="#F2F2F2"/>
</mask>
<g mask="url(#mask0)">
<path d="M207.379 -0.420044L521.331 185.813V558.279L207.379 744.512L-106.574 558.279V185.813L207.379 -0.420044Z" fill="#C4C4C4"/>
</g>
</g>
</svg>
