<svg width="568" height="544" viewBox="0 0 568 544" fill="none" xmlns="http://www.w3.org/2000/svg">
<g opacity="0.3" filter="url(#filter0_f)">
<path d="M178.348 462.542L120.979 429.293L41.8039 442.749L20.7773 488.209L77.5304 523.005L156.857 509.236L178.348 462.542Z" fill="black"/>
</g>
<g opacity="0.3" filter="url(#filter1_f)">
<path d="M539.392 450.762L485.082 419.286L410.13 432.024L390.225 475.06L443.951 508L519.046 494.965L539.392 450.762Z" fill="black"/>
</g>
<g opacity="0.3" filter="url(#filter2_f)">
<path d="M182.715 380.4L284.715 397.3L357.915 352.5L331.315 294.6L229.615 278.1L155.415 321L182.715 380.4Z" fill="black"/>
</g>
<g opacity="0.3" filter="url(#filter3_f)">
<path d="M547.415 187.906L496.857 158.61L427.084 170.46L408.549 210.527L458.557 241.192L528.47 229.062L547.415 187.906Z" fill="black"/>
</g>
<line x1="122.778" y1="399.41" x2="211.155" y2="333.399" stroke="#664FB7" stroke-width="1.5" stroke-dasharray="5 5"/>
<line x1="343.966" y1="249.41" x2="432.344" y2="183.399" stroke="#664FB7" stroke-width="1.5" stroke-dasharray="5 5"/>
<line x1="422.686" y1="395.981" x2="336.943" y2="326.583" stroke="#664FB7" stroke-width="1.5" stroke-dasharray="5 5"/>
<path d="M169.068 406.72L110.768 373.005L31.4416 385.065L10.415 430.84L68.7148 464.543L148.041 452.483L169.068 406.72Z" fill="white"/>
<path d="M68.7158 464.543V488.058L147.891 476.149L148.042 452.483L68.7158 464.543Z" fill="#2B0870"/>
<path d="M10.415 430.84V454.03L68.7148 488.058V464.543L10.415 430.84Z" fill="#5513BC"/>
<path d="M169.16 406.731V427.083L147.646 476.51V452.669L169.16 406.731Z" fill="#1A0749"/>
<path d="M52.5998 396.645L51.9209 396.253L47.6257 398.734L45.7553 397.654L55.4541 392.052L58.9872 394.093C59.874 394.605 60.3404 395.152 60.3866 395.733C60.4143 396.379 60.0402 396.925 59.2643 397.373C58.4884 397.822 57.5416 398.038 56.424 398.022C55.8882 398.011 55.3756 397.934 54.886 397.79L54.0685 402.455L51.7547 401.118L52.5998 396.645ZM53.5836 395.293L55.1354 396.189C55.588 396.451 55.9991 396.576 56.3685 396.565C56.7565 396.555 57.0936 396.467 57.38 396.301C57.6756 396.131 57.8326 395.933 57.8511 395.709C57.8695 395.485 57.6571 395.245 57.2137 394.989L55.6619 394.093L53.5836 395.293ZM61.4866 404.322V405.506C60.7846 405.538 60.078 405.472 59.3667 405.306C58.6647 405.146 58.0505 404.914 57.5239 404.61C56.5079 404.023 55.986 403.354 55.9583 402.602C55.9398 401.844 56.4525 401.164 57.4962 400.561C58.4661 400.001 59.593 399.697 60.877 399.649C62.1701 399.606 63.3017 399.865 64.2715 400.425C65.186 400.953 65.6063 401.585 65.5324 402.322C65.4677 403.052 64.9597 403.693 64.0083 404.242C63.8143 404.354 63.6296 404.445 63.4541 404.514L58.7986 401.826C58.3737 402.124 58.1844 402.458 58.2306 402.826C58.2768 403.194 58.54 403.517 59.0203 403.794C59.6669 404.167 60.489 404.343 61.4866 404.322ZM60.198 401.113L62.9691 402.714C63.2555 402.516 63.3848 402.276 63.3571 401.994C63.3479 401.711 63.1677 401.468 62.8167 401.265C62.4565 401.057 62.0177 400.943 61.5005 400.921C60.9924 400.895 60.5583 400.959 60.198 401.113ZM75.4102 407.018L69.0644 410.683C67.9745 411.312 66.9399 411.675 65.9608 411.771C65.2311 411.84 64.4875 411.79 63.7301 411.619C62.9727 411.459 62.2753 411.195 61.6379 410.827C61.0006 410.459 60.5156 410.029 60.1831 409.538C59.8598 409.053 59.7305 408.594 59.7952 408.162L62.109 408.138C62.0628 408.858 62.4369 409.448 63.2313 409.907C63.8409 410.259 64.4783 410.419 65.1434 410.387C65.7253 410.371 66.3903 410.147 67.1385 409.715L67.3602 409.587C66.4273 409.517 65.6237 409.288 64.9494 408.898C64.4598 408.616 64.0903 408.285 63.8409 407.906C63.5915 407.527 63.4899 407.149 63.5361 406.77C63.6285 406.066 64.1319 405.45 65.0464 404.922C66.0347 404.351 67.1847 404.055 68.4964 404.033C69.8173 404.017 70.9349 404.273 71.8494 404.802C72.6068 405.239 73.0363 405.748 73.138 406.33L73.6783 406.018L75.4102 407.018ZM69.2446 408.498L71.2536 407.338C71.3922 406.778 71.1151 406.298 70.4223 405.898C69.9142 405.604 69.3138 405.471 68.6211 405.498C67.9375 405.519 67.3464 405.674 66.8476 405.962C66.3211 406.266 66.0486 406.615 66.0301 407.01C66.0301 407.405 66.2841 407.749 66.7922 408.042C67.4849 408.442 68.3024 408.594 69.2446 408.498ZM82.0641 410.861L83.8653 411.901L77.1454 415.782L75.4135 414.781L75.9539 414.469C74.9932 414.437 74.1619 414.219 73.4599 413.813C72.5177 413.269 72.1159 412.621 72.2544 411.869C72.3561 411.287 72.8687 410.73 73.7924 410.197L77.3533 408.14L79.1545 409.18L75.5243 411.277C75.0071 411.575 74.7346 411.861 74.7069 412.133C74.6792 412.437 74.8777 412.712 75.3026 412.957C75.9123 413.309 76.7113 413.451 77.6996 413.381L82.0641 410.861ZM90.8672 412.344L81.0298 418.025L79.2286 416.985L89.066 411.304L90.8672 412.344ZM90.1089 420.548L92.118 419.387C92.2565 418.827 91.9794 418.347 91.2866 417.947C90.7786 417.654 90.1782 417.52 89.4854 417.547C88.8019 417.568 88.2107 417.723 87.7119 418.011C87.1854 418.315 86.9129 418.665 86.8945 419.059C86.8945 419.454 87.1485 419.798 87.6565 420.092C88.3493 420.492 89.1668 420.644 90.1089 420.548ZM96.2746 419.067L89.5547 422.948L87.8228 421.948L88.3631 421.636C87.3748 421.588 86.525 421.358 85.8137 420.948C84.7792 420.35 84.3127 419.643 84.4143 418.827C84.5067 418.112 85.0055 417.494 85.9107 416.971C86.8991 416.4 88.0491 416.104 89.3607 416.083C90.6816 416.067 91.7993 416.323 92.7137 416.851C93.4712 417.288 93.9007 417.798 94.0023 418.379L94.5427 418.067L96.2746 419.067ZM97.9405 426.031L96.6935 427.071C96.3425 426.975 95.9222 426.785 95.4327 426.503C94.3612 425.884 93.9086 425.249 94.0748 424.598C94.1857 424.15 94.6891 423.668 95.5851 423.15L97.9405 421.79L96.07 420.71L97.5941 419.829L99.4646 420.91L101.335 419.829L103.136 420.87L101.266 421.95L103.483 423.23L101.959 424.11L99.7417 422.83L97.1784 424.31C96.7905 424.534 96.5827 424.74 96.555 424.926C96.5272 425.166 96.7212 425.407 97.1369 425.647C97.4232 425.812 97.6911 425.94 97.9405 426.031ZM99.6374 427.763C99.6281 426.979 100.113 426.304 101.092 425.738C102.071 425.173 103.24 424.893 104.598 424.898C105.965 424.898 107.156 425.192 108.172 425.778C109.188 426.365 109.696 427.053 109.696 427.843C109.706 428.627 109.221 429.302 108.242 429.867C107.262 430.433 106.094 430.713 104.736 430.707C103.378 430.702 102.191 430.406 101.175 429.819C100.159 429.232 99.6466 428.547 99.6374 427.763ZM104.695 426.314C104.011 426.325 103.411 426.48 102.893 426.779C102.376 427.077 102.108 427.424 102.09 427.819C102.071 428.214 102.321 428.56 102.838 428.859C103.355 429.158 103.956 429.302 104.639 429.291C105.323 429.28 105.923 429.126 106.44 428.827C106.958 428.528 107.226 428.182 107.244 427.787C107.272 427.387 107.027 427.037 106.51 426.739C105.992 426.44 105.387 426.298 104.695 426.314ZM117.51 431.235L115.626 432.083C115.533 431.976 115.339 431.838 115.044 431.667C114.684 431.459 114.249 431.326 113.741 431.267C113.243 431.214 112.808 431.219 112.439 431.283L108.213 433.724L106.412 432.683L113.132 428.802L114.864 429.803L114.185 430.195C115.173 430.136 116.097 430.355 116.956 430.851C117.104 430.936 117.288 431.064 117.51 431.235ZM112.124 435.102L114.285 434.862C114.332 435.401 114.724 435.883 115.463 436.31C115.703 436.449 115.957 436.537 116.225 436.574C116.502 436.606 116.724 436.574 116.89 436.478C117.075 436.372 117.121 436.217 117.029 436.014C116.936 435.811 116.779 435.587 116.558 435.342C116.345 435.102 116.142 434.851 115.948 434.59C115.763 434.323 115.699 434.046 115.754 433.758C115.819 433.464 116.05 433.203 116.447 432.974C117.066 432.616 117.823 432.472 118.719 432.541C119.624 432.616 120.423 432.854 121.116 433.254C121.532 433.494 121.888 433.779 122.183 434.11C122.488 434.435 122.663 434.718 122.71 434.958L120.562 435.222C120.442 434.801 120.165 434.465 119.731 434.214C119.472 434.064 119.204 433.968 118.927 433.926C118.659 433.878 118.442 433.902 118.276 433.998C118.119 434.088 118.096 434.23 118.207 434.422C118.317 434.614 118.484 434.833 118.705 435.078C118.927 435.323 119.121 435.579 119.287 435.846C119.472 436.113 119.523 436.398 119.44 436.702C119.366 437.001 119.112 437.276 118.678 437.526C118.059 437.884 117.292 438.023 116.378 437.943C115.482 437.863 114.664 437.609 113.925 437.182C112.937 436.612 112.336 435.918 112.124 435.102Z" fill="#664FB7"/>
<path d="M530.606 397.916L475.416 366L400.32 377.417L380.415 420.75L435.606 452.655L510.701 441.239L530.606 397.916Z" fill="white"/>
<path d="M435.606 452.655V474.917L510.559 463.643L510.702 441.239L435.606 452.655Z" fill="#2B0870"/>
<path d="M380.415 420.75V442.703L435.606 474.917V452.656L380.415 420.75Z" fill="#5513BC"/>
<path d="M530.694 397.927V417.745L510.459 463.434V441.415L530.694 397.927Z" fill="#1A0749"/>
<path d="M434.261 383.13L440.759 386.883L439.18 387.795L434.427 385.05L432.016 386.443L436.52 389.043L434.94 389.955L430.437 387.355L427.777 388.891L432.779 391.78L431.199 392.692L424.451 388.795L434.261 383.13ZM439.42 389.758L440.999 390.67L439.932 391.286L439.96 391.302C440.45 391.201 440.976 391.174 441.54 391.222C442.112 391.265 442.676 391.446 443.23 391.766C443.673 392.022 443.974 392.281 444.131 392.542C444.297 392.809 444.357 393.068 444.311 393.319C444.265 393.569 444.126 393.809 443.895 394.039C443.664 394.268 443.378 394.482 443.036 394.679L438.838 397.103L437.175 396.143L440.542 394.199C440.727 394.092 440.921 393.969 441.124 393.831C441.337 393.687 441.498 393.535 441.609 393.375C441.738 393.215 441.785 393.049 441.748 392.879C441.72 392.702 441.563 392.532 441.276 392.366C440.999 392.206 440.718 392.097 440.431 392.038C440.154 391.985 439.872 391.966 439.586 391.982C439.309 392.004 439.041 392.057 438.782 392.142C438.524 392.228 438.284 392.334 438.062 392.462L434.432 394.559L432.769 393.599L439.42 389.758ZM445.187 394.721L446.6 393.904L447.972 394.697L449.898 393.584L451.56 394.545L449.634 395.657L451.463 396.713L450.05 397.529L448.221 396.473L445.311 398.153C444.979 398.345 444.776 398.532 444.702 398.713C444.637 398.9 444.79 399.1 445.159 399.314C445.307 399.399 445.482 399.484 445.686 399.57C445.898 399.65 446.092 399.698 446.267 399.714L444.868 400.522C444.609 400.468 444.337 400.375 444.051 400.242C443.764 400.119 443.524 400.002 443.33 399.89C442.887 399.634 442.573 399.394 442.388 399.17C442.203 398.956 442.125 398.745 442.152 398.537C442.199 398.329 442.337 398.121 442.568 397.913C442.808 397.711 443.122 397.497 443.51 397.273L446.558 395.513L445.187 394.721ZM450.184 400.487C449.741 400.807 449.547 401.143 449.602 401.495C449.658 401.847 449.921 402.16 450.392 402.432C450.808 402.672 451.237 402.824 451.68 402.888C452.142 402.952 452.609 402.97 453.08 402.944L453.371 404.152C452.503 404.205 451.727 404.152 451.043 403.992C450.36 403.832 449.755 403.6 449.228 403.296C448.729 403.008 448.341 402.688 448.064 402.336C447.787 401.984 447.639 401.626 447.621 401.263C447.602 400.901 447.709 400.541 447.939 400.183C448.189 399.826 448.577 399.495 449.103 399.191C449.63 398.887 450.198 398.665 450.808 398.527C451.436 398.388 452.064 398.324 452.692 398.335C453.32 398.345 453.939 398.431 454.548 398.591C455.158 398.751 455.712 398.975 456.211 399.263C456.673 399.53 457.01 399.82 457.223 400.135C457.454 400.45 457.551 400.773 457.514 401.103C457.486 401.439 457.32 401.781 457.015 402.128C456.728 402.474 456.294 402.816 455.712 403.152L455.255 403.416L450.184 400.487ZM454.839 401.735C455.32 401.447 455.551 401.138 455.532 400.807C455.523 400.471 455.255 400.151 454.729 399.847C454.23 399.559 453.689 399.412 453.108 399.407C452.535 399.407 451.976 399.527 451.431 399.767L454.839 401.735ZM460.717 402.057L462.38 403.017L461.327 403.626L461.355 403.642C461.927 403.524 462.491 403.503 463.045 403.578C463.599 403.652 464.098 403.818 464.541 404.074C464.643 404.132 464.731 404.194 464.805 404.258C464.888 404.327 464.966 404.399 465.04 404.474L463.433 405.402C463.331 405.301 463.22 405.205 463.1 405.114C462.999 405.023 462.883 404.941 462.754 404.866C462.366 404.642 461.978 404.503 461.59 404.45C461.221 404.396 460.879 404.386 460.565 404.418C460.26 404.455 459.992 404.514 459.761 404.594C459.539 404.679 459.382 404.748 459.29 404.802L455.729 406.858L454.067 405.898L460.717 402.057ZM466.102 405.167L467.682 406.079L466.684 406.656L466.712 406.672C467.359 406.576 467.978 406.592 468.569 406.72C469.16 406.848 469.691 407.048 470.162 407.32C470.67 407.613 471.035 407.931 471.257 408.272C471.488 408.608 471.589 408.949 471.561 409.296C471.534 409.643 471.381 409.982 471.104 410.312C470.827 410.643 470.444 410.95 469.954 411.233C469.465 411.515 468.929 411.734 468.347 411.889C467.765 412.043 467.174 412.129 466.574 412.145C465.982 412.166 465.396 412.115 464.814 411.993C464.241 411.865 463.719 411.665 463.248 411.393C462.934 411.211 462.689 411.032 462.514 410.856C462.338 410.68 462.209 410.51 462.126 410.344C462.043 410.179 461.992 410.027 461.974 409.888C461.964 409.744 461.974 409.616 462.001 409.504L461.96 409.48L457.955 411.793L456.293 410.832L466.102 405.167ZM468.292 410.272C468.55 410.123 468.753 409.952 468.901 409.76C469.058 409.574 469.141 409.376 469.151 409.168C469.169 408.965 469.114 408.763 468.984 408.56C468.855 408.357 468.638 408.168 468.333 407.992C468.028 407.816 467.7 407.69 467.349 407.616C466.998 407.541 466.643 407.506 466.283 407.512C465.932 407.522 465.59 407.57 465.257 407.656C464.934 407.746 464.643 407.867 464.384 408.016C464.126 408.165 463.918 408.333 463.761 408.52C463.613 408.712 463.53 408.909 463.511 409.112C463.502 409.32 463.562 409.526 463.692 409.728C463.821 409.931 464.038 410.12 464.343 410.296C464.648 410.472 464.976 410.598 465.327 410.672C465.678 410.747 466.029 410.779 466.38 410.768C466.74 410.763 467.082 410.715 467.405 410.624C467.737 410.539 468.033 410.422 468.292 410.272ZM474.83 410.207L476.492 411.168L475.439 411.776L475.467 411.792C476.04 411.674 476.603 411.653 477.157 411.728C477.712 411.802 478.21 411.968 478.654 412.224C478.755 412.282 478.843 412.344 478.917 412.408C479 412.477 479.079 412.549 479.153 412.624L477.545 413.552C477.444 413.451 477.333 413.355 477.213 413.264C477.111 413.173 476.996 413.091 476.866 413.016C476.479 412.792 476.091 412.653 475.703 412.6C475.333 412.547 474.991 412.536 474.677 412.568C474.373 412.605 474.105 412.664 473.874 412.744C473.652 412.829 473.495 412.899 473.403 412.952L469.842 415.008L468.179 414.048L474.83 410.207ZM480.243 413.333L481.905 414.294L475.255 418.134L473.592 417.174L480.243 413.333ZM482.266 411.893C482.533 411.738 482.861 411.661 483.249 411.661C483.656 411.661 484.011 411.749 484.316 411.925C484.621 412.101 484.778 412.304 484.787 412.533C484.815 412.763 484.686 412.96 484.399 413.125C484.113 413.291 483.767 413.368 483.36 413.357C482.972 413.347 482.626 413.253 482.321 413.077C482.016 412.901 481.859 412.699 481.85 412.469C481.859 412.24 481.998 412.048 482.266 411.893ZM485.518 418.509C485.648 418.06 485.44 417.679 484.895 417.364C484.673 417.236 484.401 417.143 484.077 417.084C483.754 417.026 483.468 417.068 483.218 417.212C483.015 417.33 482.955 417.466 483.038 417.62C483.121 417.775 483.265 417.948 483.468 418.141C483.671 418.333 483.888 418.538 484.119 418.757C484.368 418.975 484.553 419.205 484.673 419.445C484.803 419.679 484.83 419.92 484.756 420.165C484.682 420.41 484.428 420.658 483.994 420.909C483.597 421.138 483.172 421.282 482.72 421.341C482.285 421.4 481.847 421.397 481.403 421.333C480.969 421.274 480.544 421.168 480.129 421.013C479.713 420.858 479.334 420.682 478.992 420.485C478.475 420.186 478.073 419.869 477.787 419.533C477.501 419.197 477.381 418.818 477.427 418.397L479.574 418.437C479.547 418.698 479.574 418.943 479.658 419.173C479.759 419.402 479.985 419.618 480.336 419.821C480.457 419.89 480.595 419.954 480.752 420.013C480.909 420.072 481.075 420.114 481.251 420.141C481.426 420.168 481.593 420.173 481.75 420.157C481.925 420.141 482.078 420.096 482.207 420.021C482.438 419.888 482.521 419.738 482.456 419.573C482.392 419.407 482.258 419.229 482.055 419.037C481.861 418.839 481.634 418.634 481.376 418.421C481.135 418.207 480.946 417.986 480.808 417.756C480.678 417.522 480.646 417.284 480.711 417.044C480.775 416.804 481.02 416.562 481.445 416.316C481.814 416.103 482.207 415.961 482.623 415.892C483.057 415.823 483.486 415.809 483.911 415.852C484.336 415.895 484.752 415.985 485.158 416.124C485.565 416.263 485.934 416.428 486.267 416.62C486.71 416.876 487.07 417.175 487.347 417.516C487.634 417.852 487.726 418.205 487.624 418.573L485.518 418.509ZM487.394 421.976C486.95 422.296 486.756 422.632 486.812 422.984C486.867 423.336 487.13 423.648 487.601 423.92C488.017 424.16 488.447 424.312 488.89 424.376C489.352 424.44 489.818 424.459 490.289 424.432L490.58 425.641C489.712 425.694 488.936 425.641 488.253 425.481C487.569 425.321 486.964 425.089 486.437 424.785C485.939 424.497 485.551 424.176 485.274 423.824C484.997 423.472 484.849 423.115 484.83 422.752C484.812 422.389 484.918 422.029 485.149 421.672C485.398 421.315 485.786 420.984 486.313 420.68C486.839 420.376 487.407 420.154 488.017 420.016C488.645 419.877 489.273 419.813 489.901 419.824C490.529 419.834 491.148 419.92 491.758 420.08C492.368 420.24 492.922 420.464 493.421 420.752C493.882 421.018 494.22 421.309 494.432 421.624C494.663 421.939 494.76 422.261 494.723 422.592C494.695 422.928 494.529 423.27 494.224 423.616C493.938 423.963 493.504 424.304 492.922 424.641L492.465 424.905L487.394 421.976ZM492.049 423.224C492.529 422.936 492.76 422.627 492.742 422.296C492.732 421.96 492.465 421.64 491.938 421.336C491.439 421.048 490.899 420.901 490.317 420.896C489.744 420.896 489.185 421.016 488.64 421.256L492.049 423.224ZM426.887 400.876L430.711 403.084C431.08 403.298 431.399 403.535 431.667 403.796C431.944 404.052 432.12 404.319 432.193 404.596C432.286 404.874 432.263 405.154 432.124 405.437C431.986 405.719 431.695 405.989 431.251 406.245C430.697 406.565 430.083 406.738 429.409 406.765C428.734 406.792 428.065 406.704 427.399 406.501L427.372 406.517C427.64 406.714 427.834 406.928 427.954 407.157C428.092 407.386 428.148 407.616 428.12 407.845C428.101 408.069 428.005 408.291 427.829 408.509C427.672 408.728 427.436 408.928 427.122 409.109C426.587 409.419 426.032 409.616 425.46 409.702C424.896 409.782 424.328 409.784 423.755 409.71C423.201 409.635 422.652 409.493 422.107 409.285C421.571 409.083 421.072 408.848 420.61 408.581L417.077 406.541L426.887 400.876ZM424.642 404.188L426.236 405.109C426.818 405.445 427.363 405.631 427.871 405.669C428.397 405.706 428.845 405.618 429.215 405.405C429.639 405.159 429.801 404.89 429.699 404.596C429.616 404.303 429.242 403.964 428.577 403.58L427.136 402.748L424.642 404.188ZM420.319 406.685L421.927 407.613C422.148 407.741 422.398 407.869 422.675 407.997C422.961 408.131 423.261 408.229 423.575 408.293C423.889 408.357 424.208 408.376 424.531 408.349C424.864 408.317 425.192 408.208 425.515 408.021C426.032 407.722 426.222 407.416 426.083 407.101C425.954 406.792 425.534 406.432 424.822 406.021L423.146 405.053L420.319 406.685ZM431.978 415.146L430.398 414.234L431.465 413.618L431.437 413.602C430.948 413.703 430.417 413.733 429.844 413.69C429.281 413.642 428.722 413.458 428.168 413.138C427.724 412.882 427.415 412.623 427.239 412.362C427.082 412.1 427.027 411.844 427.073 411.593C427.128 411.337 427.272 411.095 427.503 410.865C427.733 410.636 428.02 410.423 428.362 410.225L432.56 407.801L434.222 408.761L430.856 410.705C430.671 410.812 430.472 410.937 430.26 411.081C430.057 411.22 429.89 411.369 429.761 411.529C429.65 411.689 429.604 411.855 429.622 412.026C429.659 412.196 429.826 412.367 430.121 412.538C430.398 412.698 430.675 412.804 430.953 412.858C431.239 412.916 431.521 412.935 431.798 412.914C432.084 412.898 432.357 412.847 432.615 412.762C432.874 412.676 433.114 412.57 433.336 412.442L436.966 410.345L438.628 411.305L431.978 415.146ZM439.615 411.875L441.444 412.931L438.687 416.668L438.715 416.684L444.991 414.98L446.723 415.98L435.5 418.829C435.066 418.941 434.66 419.021 434.281 419.069C433.902 419.127 433.537 419.146 433.186 419.125C432.826 419.109 432.475 419.045 432.133 418.933C431.792 418.831 431.436 418.674 431.066 418.461C430.632 418.21 430.263 417.932 429.958 417.628L431.662 416.884C431.745 416.986 431.842 417.084 431.953 417.18C432.064 417.287 432.193 417.383 432.341 417.468C432.544 417.586 432.734 417.674 432.909 417.732C433.085 417.791 433.26 417.823 433.436 417.828C433.611 417.844 433.796 417.834 433.99 417.796C434.175 417.764 434.392 417.719 434.641 417.66L435.75 417.388L439.615 411.875ZM445.124 419.569C444.68 419.889 444.486 420.225 444.542 420.577C444.597 420.93 444.86 421.242 445.331 421.514C445.747 421.754 446.177 421.906 446.62 421.97C447.082 422.034 447.548 422.052 448.019 422.026L448.31 423.234C447.442 423.287 446.666 423.234 445.983 423.074C445.299 422.914 444.694 422.682 444.168 422.378C443.669 422.09 443.281 421.77 443.004 421.418C442.727 421.066 442.579 420.708 442.56 420.345C442.542 419.983 442.648 419.623 442.879 419.265C443.128 418.908 443.516 418.577 444.043 418.273C444.569 417.969 445.137 417.748 445.747 417.609C446.375 417.47 447.003 417.406 447.631 417.417C448.259 417.427 448.878 417.513 449.488 417.673C450.098 417.833 450.652 418.057 451.151 418.345C451.613 418.612 451.95 418.902 452.162 419.217C452.393 419.532 452.49 419.855 452.453 420.185C452.425 420.521 452.259 420.863 451.954 421.21C451.668 421.556 451.234 421.898 450.652 422.234L450.195 422.498L445.124 419.569ZM449.779 420.817C450.259 420.529 450.49 420.22 450.472 419.889C450.463 419.553 450.195 419.233 449.668 418.929C449.169 418.641 448.629 418.494 448.047 418.489C447.474 418.489 446.916 418.609 446.371 418.849L449.779 420.817ZM455.657 421.139L457.319 422.1L456.266 422.708L456.294 422.724C456.867 422.606 457.43 422.585 457.984 422.66C458.539 422.734 459.037 422.9 459.481 423.156C459.582 423.214 459.67 423.276 459.744 423.34C459.827 423.409 459.906 423.481 459.98 423.556L458.372 424.484C458.271 424.383 458.16 424.287 458.04 424.196C457.938 424.105 457.823 424.023 457.693 423.948C457.306 423.724 456.918 423.585 456.53 423.532C456.16 423.478 455.818 423.468 455.504 423.5C455.199 423.537 454.932 423.596 454.701 423.676C454.479 423.761 454.322 423.831 454.23 423.884L450.669 425.94L449.006 424.98L455.657 421.139ZM462.746 427.362C462.875 426.914 462.668 426.532 462.123 426.218C461.901 426.09 461.628 425.996 461.305 425.938C460.982 425.879 460.696 425.922 460.446 426.066C460.243 426.183 460.183 426.319 460.266 426.474C460.349 426.628 460.492 426.802 460.696 426.994C460.899 427.186 461.116 427.391 461.347 427.61C461.596 427.829 461.781 428.058 461.901 428.298C462.03 428.533 462.058 428.773 461.984 429.018C461.91 429.264 461.656 429.512 461.222 429.762C460.825 429.992 460.4 430.136 459.947 430.195C459.513 430.253 459.074 430.251 458.631 430.187C458.197 430.128 457.772 430.021 457.356 429.866C456.941 429.712 456.562 429.536 456.22 429.338C455.703 429.04 455.301 428.722 455.015 428.386C454.728 428.05 454.608 427.671 454.655 427.25L456.802 427.29C456.774 427.551 456.802 427.797 456.885 428.026C456.987 428.255 457.213 428.472 457.564 428.674C457.684 428.744 457.823 428.808 457.98 428.866C458.137 428.925 458.303 428.968 458.479 428.994C458.654 429.021 458.82 429.026 458.977 429.01C459.153 428.994 459.305 428.949 459.435 428.874C459.666 428.741 459.749 428.592 459.684 428.426C459.619 428.261 459.486 428.082 459.282 427.89C459.088 427.693 458.862 427.487 458.603 427.274C458.363 427.061 458.174 426.839 458.035 426.61C457.906 426.375 457.874 426.138 457.938 425.898C458.003 425.658 458.248 425.415 458.673 425.17C459.042 424.956 459.435 424.815 459.85 424.745C460.285 424.676 460.714 424.663 461.139 424.705C461.564 424.748 461.979 424.839 462.386 424.977C462.792 425.116 463.162 425.282 463.494 425.474C463.938 425.73 464.298 426.028 464.575 426.37C464.861 426.706 464.954 427.058 464.852 427.426L462.746 427.362Z" fill="#664FB7"/>
<path d="M539.241 138.705L487.863 109L417.95 119.632L399.415 159.968L450.793 189.674L520.706 179.042L539.241 138.705Z" fill="white"/>
<path d="M539.242 138.705V157.381L520.566 199.895L520.707 179.042L539.242 138.705Z" fill="#1A0749"/>
<path d="M450.794 189.674V210.398L520.567 199.895L520.707 179.042L450.794 189.674Z" fill="#2B0870"/>
<path d="M399.415 159.933V179.838L450.793 210.281V189.205L399.415 159.933Z" fill="#5513BC"/>
<path d="M451.404 132.422L452.926 133.273L448.227 142.591L446.216 141.466L447.344 139.363L443.058 136.965L440.115 138.052L438.146 136.95L451.404 132.422ZM448.096 137.962L450.218 134.289L445.025 136.243L448.096 137.962ZM455.288 146.541L453.696 145.651L454.67 144.896L454.642 144.881C454.181 145.027 453.673 145.098 453.119 145.092C452.574 145.079 452.022 144.917 451.464 144.604C451.017 144.354 450.699 144.092 450.509 143.816C450.336 143.54 450.262 143.262 450.286 142.983C450.318 142.698 450.436 142.42 450.639 142.151C450.842 141.883 451.099 141.627 451.411 141.386L455.245 138.418L456.921 139.355L453.846 141.735C453.677 141.866 453.497 142.018 453.305 142.192C453.121 142.359 452.973 142.535 452.862 142.721C452.769 142.905 452.738 143.09 452.77 143.276C452.819 143.461 452.993 143.637 453.291 143.804C453.57 143.96 453.845 144.058 454.116 144.097C454.396 144.141 454.668 144.141 454.932 144.098C455.206 144.06 455.463 143.985 455.705 143.872C455.946 143.76 456.168 143.625 456.37 143.468L459.685 140.902L461.361 141.84L455.288 146.541ZM463.407 149.869L463.379 149.853C462.766 150.005 462.17 150.032 461.592 149.933C461.014 149.835 460.487 149.653 460.012 149.387C459.491 149.095 459.106 148.773 458.856 148.42C458.625 148.065 458.508 147.696 458.506 147.313C458.505 146.929 458.623 146.545 458.862 146.162C459.101 145.778 459.444 145.413 459.891 145.067C460.338 144.721 460.835 144.442 461.381 144.23C461.927 144.018 462.484 143.88 463.05 143.814C463.625 143.753 464.193 143.773 464.753 143.873C465.322 143.966 465.844 144.146 466.319 144.411C466.635 144.588 466.885 144.768 467.068 144.949C467.251 145.13 467.389 145.308 467.483 145.484C467.576 145.66 467.633 145.827 467.654 145.985C467.683 146.136 467.689 146.275 467.671 146.4L467.713 146.423L471.977 143.122L473.652 144.06L464.088 151.465L462.496 150.574L463.407 149.869ZM461.567 146.005C461.331 146.187 461.145 146.387 461.009 146.604C460.883 146.826 460.819 147.049 460.818 147.273C460.826 147.503 460.901 147.724 461.042 147.938C461.183 148.152 461.407 148.345 461.714 148.517C462.021 148.688 462.346 148.803 462.689 148.86C463.033 148.917 463.372 148.927 463.709 148.89C464.054 148.859 464.379 148.781 464.682 148.658C464.994 148.541 465.268 148.391 465.504 148.208C465.741 148.025 465.922 147.822 466.048 147.601C466.184 147.384 466.247 147.161 466.239 146.931C466.24 146.707 466.17 146.488 466.029 146.274C465.889 146.06 465.665 145.868 465.357 145.696C465.05 145.524 464.725 145.409 464.382 145.352C464.039 145.295 463.694 145.283 463.349 145.314C463.012 145.351 462.688 145.428 462.376 145.546C462.073 145.669 461.803 145.822 461.567 146.005ZM472.099 147.848L473.775 148.785L467.702 153.487L466.027 152.549L472.099 147.848ZM473.924 146.119C474.169 145.929 474.478 145.821 474.85 145.793C475.24 145.764 475.589 145.835 475.896 146.007C476.204 146.179 476.371 146.391 476.399 146.643C476.444 146.893 476.336 147.119 476.075 147.322C475.813 147.524 475.487 147.634 475.096 147.651C474.722 147.667 474.382 147.59 474.075 147.418C473.767 147.246 473.6 147.034 473.572 146.782C473.562 146.529 473.68 146.308 473.924 146.119ZM473.626 150.423L474.917 149.424L476.299 150.198L478.058 148.836L479.733 149.774L477.975 151.135L479.818 152.166L478.527 153.165L476.684 152.134L474.027 154.191C473.724 154.426 473.544 154.646 473.488 154.851C473.441 155.061 473.604 155.27 473.976 155.479C474.125 155.562 474.3 155.643 474.503 155.723C474.713 155.795 474.904 155.834 475.073 155.839L473.796 156.829C473.543 156.788 473.273 156.705 472.987 156.579C472.702 156.465 472.462 156.353 472.267 156.243C471.82 155.993 471.499 155.752 471.303 155.518C471.108 155.297 471.015 155.071 471.025 154.84C471.052 154.607 471.168 154.369 471.373 154.123C471.587 153.883 471.871 153.626 472.225 153.352L475.009 151.197L473.626 150.423ZM477.754 155.061C478.235 154.689 478.762 154.405 479.337 154.209C479.928 154.011 480.527 153.896 481.131 153.863C481.735 153.83 482.336 153.879 482.935 154.012C483.533 154.144 484.084 154.351 484.587 154.632C485.089 154.913 485.488 155.238 485.783 155.605C486.078 155.973 486.25 156.356 486.297 156.753C486.344 157.151 486.263 157.555 486.053 157.967C485.86 158.376 485.524 158.767 485.043 159.139C484.562 159.512 484.026 159.797 483.434 159.994C482.86 160.19 482.271 160.305 481.666 160.338C481.062 160.371 480.461 160.322 479.862 160.189C479.264 160.057 478.713 159.85 478.21 159.569C477.708 159.287 477.309 158.963 477.014 158.596C476.719 158.228 476.548 157.845 476.5 157.448C476.453 157.05 476.525 156.646 476.718 156.236C476.928 155.825 477.273 155.434 477.754 155.061ZM479.43 155.999C479.194 156.182 479.008 156.381 478.872 156.598C478.746 156.82 478.682 157.043 478.681 157.267C478.689 157.497 478.764 157.719 478.905 157.932C479.046 158.146 479.27 158.339 479.577 158.511C479.884 158.683 480.209 158.797 480.552 158.854C480.896 158.911 481.235 158.921 481.572 158.885C481.917 158.853 482.241 158.776 482.545 158.653C482.857 158.535 483.131 158.385 483.367 158.202C483.604 158.019 483.785 157.817 483.911 157.595C484.046 157.378 484.11 157.155 484.102 156.926C484.103 156.701 484.033 156.482 483.892 156.268C483.752 156.055 483.528 155.862 483.22 155.69C482.913 155.518 482.588 155.404 482.245 155.347C481.902 155.29 481.557 155.277 481.212 155.308C480.875 155.345 480.551 155.423 480.239 155.54C479.936 155.663 479.666 155.816 479.43 155.999ZM489.648 157.666L491.324 158.604L490.362 159.348L490.39 159.364C490.93 159.194 491.47 159.13 492.008 159.173C492.547 159.215 493.039 159.361 493.486 159.611C493.589 159.669 493.678 159.73 493.754 159.795C493.84 159.865 493.921 159.939 493.998 160.016L492.53 161.152C492.425 161.048 492.31 160.95 492.187 160.859C492.082 160.766 491.965 160.684 491.834 160.611C491.443 160.392 491.059 160.267 490.683 160.236C490.323 160.204 489.994 160.217 489.695 160.274C489.405 160.337 489.153 160.421 488.938 160.526C488.732 160.635 488.587 160.723 488.502 160.788L485.251 163.305L483.575 162.368L489.648 157.666Z" fill="#664FB7"/>
<path d="M203.215 310L304.215 325.5L378.515 282.6L351.715 224.3L250.715 208.8L176.415 251.7L203.215 310Z" fill="white"/>
<path d="M203.215 310L203.415 340.2L176.415 278.7V251.7L203.215 310Z" fill="#5513BC"/>
<path d="M203.215 310L203.415 340.2L304.215 355.4V325.5L203.215 310Z" fill="#6F24E3"/>
<path d="M304.215 325.5V355.4L378.515 312V282.6L304.215 325.5Z" fill="#893EFC"/>
<path d="M205.915 178V250L258.915 220V148L205.915 178Z" fill="#AA6666"/>
<path d="M210.915 178V250L257.915 223V151L210.915 178Z" fill="#2D1818"/>
<path d="M329.915 159V231L348.915 272V200L329.915 159Z" fill="#AA7272"/>
<path d="M258.915 148V220L329.915 231V159L258.915 148Z" fill="#D86464"/>
<path d="M257.915 151V223L326.915 234V162L257.915 151Z" fill="#7A4949"/>
<path d="M326.915 162V234L345.915 274V203L326.915 162Z" fill="#752323"/>
<path d="M295.915 302L348.915 272V199L295.915 229V302Z" fill="url(#paint0_linear)"/>
<path d="M224.915 291L295.915 302V229L224.915 218V291Z" fill="url(#paint1_linear)"/>
<path d="M205.915 178L224.915 218V291L205.915 250V178Z" fill="url(#paint2_linear)"/>
<path d="M224.915 218L229.915 216L294.915 226L295.915 229L224.915 218Z" fill="#B7D9FB"/>
<path d="M229.915 216L224.915 218L205.915 178H210.915L229.915 216Z" fill="#92C7FC"/>
<path d="M258.915 148L205.915 178H210.915L257.915 151L258.915 148Z" fill="#7FAFDF"/>
<path d="M329.915 159L258.915 148L257.915 151L326.915 162L329.915 159Z" fill="#99CCFF"/>
<path d="M348.915 199L329.915 159L326.915 162L343.915 198L348.915 199Z" fill="#BADBFD"/>
<path d="M295.915 229L348.915 199L343.915 198L294.915 226L295.915 229Z" fill="#D4E9FE"/>
<path d="M229.915 216L294.915 226L343.915 198L326.915 162L257.865 151L210.995 178.1L229.915 216Z" fill="url(#paint3_linear)"/>
<path d="M210.915 178L229.915 216L294.915 226L343.915 198V0H210.915V178Z" fill="url(#paint4_linear)"/>
<path d="M307.835 97.9299L287.815 109.4L277.785 135L287.735 149.11L307.755 137.64L317.855 112.01L307.835 97.9299Z" fill="white"/>
<path d="M307.835 97.9299L314.115 101.57L324.815 116.18L317.855 112.01L307.835 97.9299Z" fill="#4C9B9B"/>
<path d="M307.755 137.64L314.715 141.68L324.815 116.18L317.855 112.01L307.755 137.64Z" fill="#5DC1C3"/>
<path d="M287.735 149.11L294.605 153.1L314.715 141.68L307.755 137.64L287.735 149.11Z" fill="#AEE0E1"/>
<path d="M302.635 119.54L296.725 116.22L296.175 115.9L291.685 123.53L289.685 127.01C289.59 127.166 289.529 127.339 289.505 127.52C289.5 127.587 289.513 127.654 289.543 127.713C289.573 127.773 289.619 127.824 289.675 127.86L293.735 130.16L296.185 131.52L300.675 123.9L300.755 123.76L302.755 120.37C302.85 120.214 302.911 120.041 302.935 119.86C302.896 119.725 302.806 119.611 302.685 119.54H302.635ZM296.105 126.04L294.105 124.91L296.105 121.43L298.105 122.55L296.105 126.04Z" fill="#2684FF"/>
<path d="M296.155 121.41C295.81 121.168 295.536 120.838 295.36 120.455C295.185 120.072 295.114 119.649 295.155 119.23C295.199 118.053 295.543 116.906 296.155 115.9L291.665 123.53L294.115 124.89L296.115 121.41H296.155Z" fill="url(#paint5_linear)"/>
<path d="M298.205 122.53L296.205 126.06C296.543 126.251 296.801 126.556 296.935 126.92C297.117 127.336 297.209 127.786 297.205 128.24C297.223 128.793 297.132 129.343 296.935 129.86C296.767 130.461 296.518 131.036 296.195 131.57L300.705 123.9L298.255 122.53H298.205Z" fill="url(#paint6_linear)"/>
<path d="M284.415 54.94L260.255 50.46L234.455 64.28L232.805 82.59L256.965 87.07L282.765 73.24L284.415 54.94Z" fill="white"/>
<path d="M284.415 54.9399L286.995 62.2199L285.595 81.3999L282.765 73.2399L284.415 54.9399Z" fill="#1A0749"/>
<path d="M256.965 87.07L259.825 95.15L285.595 81.4L282.765 73.24L256.965 87.07Z" fill="#2B0870"/>
<path d="M232.805 82.5901L235.635 90.5601L259.825 95.1501L256.965 87.0701L232.805 82.5901Z" fill="#5513BC"/>
<path d="M248.455 71.5301C248.067 71.4919 247.675 71.5392 247.307 71.6688C246.939 71.7984 246.604 72.007 246.325 72.2801C246.212 72.3697 246.13 72.4924 246.091 72.631C246.051 72.7695 246.056 72.9169 246.105 73.0526C246.153 73.1882 246.243 73.3052 246.361 73.3873C246.48 73.4693 246.621 73.5123 246.765 73.5101C247.153 73.5497 247.544 73.502 247.911 73.3705C248.278 73.239 248.611 73.027 248.885 72.7501C249.345 72.1701 249.155 71.6401 248.455 71.5301ZM271.555 65.7901L261.805 66.3101L263.505 64.3101L252.985 64.8701L248.135 70.6001L257.195 70.1401L255.495 72.1401L267.425 71.5001L266.425 68.9701C266.495 68.9001 271.555 65.7901 271.555 65.7901ZM258.005 69.1001L250.365 69.4801L253.575 65.7001L261.215 65.3201L258.005 69.1001ZM265.545 70.6101L257.795 71.0301L261.005 67.2501L268.175 66.8701L264.925 68.8701L265.545 70.6201V70.6101Z" fill="#6515DD"/>
<path d="M276.605 172.28L266.835 152.89L243.335 142.16L229.595 150.76L239.365 170.15L262.835 180.92L276.605 172.28Z" fill="white"/>
<path d="M276.605 172.28L272.855 177.98L258.615 187.26L262.835 180.92L276.605 172.28Z" fill="#A36513"/>
<path d="M239.365 170.15L235.215 176.48L258.615 187.26L262.835 180.92L239.365 170.15Z" fill="#BD7811"/>
<path d="M229.595 150.76L225.495 157L235.215 176.48L239.365 170.15L229.595 150.76Z" fill="#FCA21D"/>
<path d="M251.355 156.06C251.164 156.067 250.974 156.084 250.785 156.11C250.65 156.148 250.52 156.198 250.395 156.26C250.375 156.276 250.35 156.285 250.325 156.285C250.299 156.285 250.274 156.276 250.255 156.26C250.185 156.26 250.105 156.26 249.975 156.14L249.505 155.77C249.425 155.71 249.405 155.65 249.365 155.62C249.325 155.59 249.365 155.48 249.365 155.44C249.365 155.4 249.515 155.3 249.565 155.22L249.855 155.05C249.085 154.618 248.454 153.977 248.035 153.2C247.785 152.68 247.745 152.29 247.935 152C248.055 151.838 248.221 151.715 248.412 151.649C248.603 151.583 248.81 151.576 249.005 151.63C249.611 151.686 250.191 151.904 250.685 152.26C251.22 152.652 251.658 153.162 251.965 153.75C252.074 153.963 252.167 154.184 252.245 154.41C252.325 154.65 252.365 154.85 252.455 155.09H252.965C253.475 155.09 253.775 155.03 253.885 154.87C253.995 154.71 253.885 154.36 253.685 153.87C253.575 153.68 253.445 153.42 253.295 153.2C253.13 152.956 252.939 152.731 252.725 152.53C252.625 152.4 252.545 152.35 252.535 152.28C252.518 152.268 252.505 152.253 252.494 152.236C252.484 152.219 252.477 152.2 252.475 152.18C252.415 152.09 252.475 152.07 252.625 152.04H252.955C253.044 152.047 253.131 152.067 253.215 152.1L253.465 152.26C253.72 152.498 253.945 152.767 254.135 153.06C254.364 153.36 254.574 153.674 254.765 154C254.92 154.225 255.026 154.48 255.076 154.749C255.126 155.018 255.119 155.294 255.055 155.56C254.865 155.85 254.395 156.02 253.665 155.96H251.355V156.06ZM249.075 153.55C249.185 153.74 249.335 153.96 249.495 154.18C249.701 154.424 249.948 154.631 250.225 154.79C250.401 154.892 250.589 154.973 250.785 155.03C250.976 155.087 251.175 155.117 251.375 155.12H251.665C251.595 154.95 251.555 154.74 251.485 154.58L251.255 154.01C251.106 153.65 250.856 153.34 250.535 153.12C250.268 152.932 249.959 152.812 249.635 152.77C249.305 152.77 249.135 152.77 249.025 152.97C248.915 153.17 248.975 153.25 249.075 153.55ZM250.835 158.4C250.775 158.3 250.765 158.23 250.835 158.19C250.905 158.15 250.925 158.14 251.025 158.08L255.525 156.93C255.665 156.93 255.735 156.93 255.775 156.93C255.827 156.937 255.876 156.956 255.92 156.986C255.963 157.015 255.999 157.054 256.025 157.1L256.335 157.72C256.385 157.81 256.405 157.88 256.335 157.92C256.265 157.96 256.245 157.98 256.145 158.04L252.145 158.82L257.145 160.06C257.254 160.083 257.358 160.13 257.448 160.198C257.538 160.265 257.612 160.351 257.665 160.45L257.895 160.91C257.938 160.981 257.969 161.059 257.985 161.14C257.985 161.14 257.885 161.2 257.795 161.25L253.795 161.94L258.885 163.26C258.998 163.294 259.106 163.345 259.205 163.41C259.286 163.478 259.351 163.563 259.395 163.66L259.695 164.21C259.745 164.3 259.695 164.35 259.605 164.33C259.515 164.31 259.545 164.33 259.495 164.33C259.445 164.33 259.385 164.33 259.305 164.26L253.305 162.48C253.188 162.455 253.079 162.403 252.985 162.33C252.9 162.267 252.832 162.185 252.785 162.09L252.535 161.56C252.489 161.491 252.462 161.412 252.455 161.33C252.455 161.33 252.545 161.27 252.645 161.22L256.555 160.51L251.745 159.32C251.631 159.286 251.523 159.236 251.425 159.17C251.343 159.103 251.278 159.017 251.235 158.92L250.845 158.43L250.835 158.4ZM254.575 166.21C254.436 165.91 254.322 165.599 254.235 165.28C254.148 165.054 254.124 164.809 254.165 164.57C254.165 164.46 254.165 164.42 254.265 164.41C254.323 164.391 254.386 164.391 254.445 164.41H254.785C254.895 164.41 255.045 164.47 255.055 164.54C255.065 164.61 255.055 164.6 255.115 164.63C255.175 164.66 255.115 164.7 255.115 164.77C255.107 164.994 255.141 165.218 255.215 165.43C255.297 165.679 255.394 165.923 255.505 166.16C255.678 166.495 255.9 166.802 256.165 167.07C256.379 167.274 256.659 167.395 256.955 167.41C257.029 167.421 257.106 167.412 257.176 167.384C257.246 167.356 257.308 167.31 257.355 167.25C257.43 167.064 257.43 166.856 257.355 166.67L257.215 165.8C257.174 165.639 257.171 165.47 257.205 165.307C257.24 165.144 257.312 164.991 257.415 164.86C257.524 164.763 257.653 164.692 257.793 164.65C257.933 164.609 258.08 164.599 258.225 164.62C258.51 164.634 258.791 164.699 259.055 164.81C259.323 164.938 259.581 165.089 259.825 165.26C260.072 165.444 260.288 165.667 260.465 165.92C260.663 166.151 260.838 166.403 260.985 166.67C261.05 166.797 261.1 166.931 261.135 167.07C261.135 167.21 261.225 167.31 261.255 167.45L261.325 167.79C261.314 167.873 261.314 167.957 261.325 168.04C261.321 168.107 261.3 168.173 261.265 168.23C261.265 168.23 261.165 168.29 261.055 168.28H260.725C260.615 168.28 260.465 168.22 260.445 168.15V167.95C260.423 167.546 260.317 167.151 260.135 166.79C259.985 166.486 259.782 166.212 259.535 165.98C259.334 165.783 259.065 165.672 258.785 165.67C258.711 165.659 258.635 165.667 258.565 165.693C258.495 165.72 258.433 165.763 258.385 165.82C258.305 165.95 258.305 166.13 258.385 166.47L258.535 167.34C258.579 167.494 258.585 167.655 258.554 167.812C258.523 167.969 258.454 168.115 258.355 168.24C258.242 168.332 258.113 168.401 257.974 168.442C257.835 168.483 257.689 168.496 257.545 168.48C257.243 168.465 256.947 168.39 256.675 168.26C256.389 168.125 256.115 167.968 255.855 167.79C255.583 167.584 255.341 167.342 255.135 167.07C254.913 166.809 254.722 166.524 254.565 166.22L254.575 166.21Z" fill="#252F3E"/>
<path d="M251.915 167.17C249.338 165.109 247.214 162.539 245.675 159.62C243.915 156.14 243.765 153.01 244.925 150.79C245.035 150.63 245.355 150.79 245.325 151C245.038 154.092 245.693 157.198 247.205 159.91C248.554 162.467 250.254 164.823 252.255 166.91C252.595 167.23 252.295 167.51 251.915 167.17Z" fill="#FF9900"/>
<path d="M253.345 168.08C253.575 167.82 252.665 166.39 252.255 165.76C252.135 165.57 252.255 165.54 252.525 165.7C253.995 166.91 254.675 168.78 254.525 168.96C254.375 169.14 252.105 168.74 250.585 167.62C250.335 167.46 250.335 167.28 250.585 167.37C251.315 167.64 253.095 168.28 253.345 168.08Z" fill="#FF9900"/>
<path d="M321.381 273.646L339.496 256.526L340.968 231.642L324.325 223.881L306.208 241.003L304.737 265.886L321.381 273.647L321.381 273.646ZM323.298 243.28L327.062 245.035L326.638 250.528L322.558 254.319L318.943 252.634L319.272 247.092L323.298 243.28Z" fill="#7CAADD"/>
<path d="M339.496 256.526L340.968 231.642L324.325 223.881L306.208 241.003L304.737 265.886L321.381 273.647L339.496 256.526ZM337.749 239.815L335.218 242.268L335.411 237.01L321.45 230.499L324.079 228.013L337.956 234.563L337.749 239.815ZM332.537 239.772L332.361 245.039L329.811 247.511L329.974 242.239L315.948 235.698L318.542 233.247L332.537 239.772ZM337.397 244.01L337.178 247.709L322.106 261.922L318.493 260.237L318.704 256.668L322.326 258.357L337.397 244.01ZM327.063 245.035L326.639 250.528L322.559 254.32L318.944 252.634L319.272 247.092L323.299 243.28L327.063 245.035ZM315.374 239.585L312.596 242.23L311.412 243.366L311.367 243.409L310.134 264.155L307.746 263.042L308.972 242.303L308.972 242.292L313.005 238.48L315.374 239.585ZM316.508 245.806L315.281 266.556L312.898 265.444L314.121 244.692L318.13 240.871L320.537 241.993L316.508 245.806ZM321.636 269.519L318.042 267.843L318.254 264.274L321.856 265.954L336.937 251.756L336.732 255.237L321.636 269.519Z" fill="#3B2552"/>
<g opacity="0.65">
<path opacity="0.65" d="M321.636 269.519L318.042 267.843L318.254 264.273L321.857 265.953L321.636 269.519Z" fill="#7AACDE"/>
<path opacity="0.65" d="M322.107 261.922L318.494 260.237L318.705 256.668L322.327 258.357L322.107 261.922Z" fill="#7AACDE"/>
<path opacity="0.65" d="M332.537 239.773L332.362 245.039L329.812 247.511L329.974 242.239L332.537 239.773Z" fill="#7AACDE"/>
<path opacity="0.65" d="M337.956 234.563L337.749 239.815L335.218 242.268L335.411 237.01L337.956 234.563Z" fill="#7AACDE"/>
<path opacity="0.65" d="M308.972 242.292L313.005 238.48L315.374 239.584L312.596 242.23L311.367 243.409L308.972 242.292Z" fill="#7AACDE"/>
<path opacity="0.65" d="M314.122 244.693L318.131 240.87L320.538 241.993L316.508 245.806L314.122 244.693Z" fill="#7AACDE"/>
</g>
<defs>
<filter id="filter0_f" x="0.777344" y="409.293" width="197.571" height="133.712" filterUnits="userSpaceOnUse" color-interpolation-filters="sRGB">
<feFlood flood-opacity="0" result="BackgroundImageFix"/>
<feBlend mode="normal" in="SourceGraphic" in2="BackgroundImageFix" result="shape"/>
<feGaussianBlur stdDeviation="10" result="effect1_foregroundBlur"/>
</filter>
<filter id="filter1_f" x="370.225" y="399.286" width="189.167" height="128.714" filterUnits="userSpaceOnUse" color-interpolation-filters="sRGB">
<feFlood flood-opacity="0" result="BackgroundImageFix"/>
<feBlend mode="normal" in="SourceGraphic" in2="BackgroundImageFix" result="shape"/>
<feGaussianBlur stdDeviation="10" result="effect1_foregroundBlur"/>
</filter>
<filter id="filter2_f" x="135.415" y="258.1" width="242.5" height="159.2" filterUnits="userSpaceOnUse" color-interpolation-filters="sRGB">
<feFlood flood-opacity="0" result="BackgroundImageFix"/>
<feBlend mode="normal" in="SourceGraphic" in2="BackgroundImageFix" result="shape"/>
<feGaussianBlur stdDeviation="10" result="effect1_foregroundBlur"/>
</filter>
<filter id="filter3_f" x="388.549" y="138.61" width="178.866" height="122.582" filterUnits="userSpaceOnUse" color-interpolation-filters="sRGB">
<feFlood flood-opacity="0" result="BackgroundImageFix"/>
<feBlend mode="normal" in="SourceGraphic" in2="BackgroundImageFix" result="shape"/>
<feGaussianBlur stdDeviation="10" result="effect1_foregroundBlur"/>
</filter>
<linearGradient id="paint0_linear" x1="322.415" y1="199" x2="322.415" y2="302" gradientUnits="userSpaceOnUse">
<stop stop-color="#664FB7"/>
<stop offset="0.0001" stop-color="#EFF7FF"/>
<stop offset="1" stop-color="#C3DCF4"/>
</linearGradient>
<linearGradient id="paint1_linear" x1="260.415" y1="218" x2="260.415" y2="302" gradientUnits="userSpaceOnUse">
<stop stop-color="#D9ECFF"/>
<stop offset="1" stop-color="#B9D4F1"/>
</linearGradient>
<linearGradient id="paint2_linear" x1="215.415" y1="178" x2="215.415" y2="291" gradientUnits="userSpaceOnUse">
<stop stop-color="#E8F3FF"/>
<stop offset="1" stop-color="#B2CFEC"/>
</linearGradient>
<linearGradient id="paint3_linear" x1="328.415" y1="213" x2="214.415" y2="170.5" gradientUnits="userSpaceOnUse">
<stop stop-color="#B4A2E6"/>
<stop offset="1" stop-color="#DEEFFF"/>
</linearGradient>
<linearGradient id="paint4_linear" x1="277.415" y1="0" x2="277.415" y2="226" gradientUnits="userSpaceOnUse">
<stop stop-color="#7AACDE" stop-opacity="0"/>
<stop offset="0.0001" stop-color="#C4E1FF" stop-opacity="0"/>
<stop offset="1" stop-color="#93C2F1" stop-opacity="0.6"/>
</linearGradient>
<linearGradient id="paint5_linear" x1="299.782" y1="114.216" x2="296.457" y2="118.744" gradientUnits="userSpaceOnUse">
<stop offset="0.18" stop-color="#0052CC"/>
<stop offset="1" stop-color="#2684FF"/>
</linearGradient>
<linearGradient id="paint6_linear" x1="3580.97" y1="7034.7" x2="4201.96" y2="6832.18" gradientUnits="userSpaceOnUse">
<stop offset="0.18" stop-color="#0052CC"/>
<stop offset="1" stop-color="#2684FF"/>
</linearGradient>
</defs>
</svg>
